<svg width="37" height="45" viewBox="0 0 37 45" fill="none" xmlns="http://www.w3.org/2000/svg">
<path d="M1 40.0509V1.5C1 0.947715 1.44771 0.5 2 0.5H27.0076C27.3181 0.5 27.6109 0.644204 27.8002 0.890289L29.6998 3.35971C29.8891 3.6058 30.1819 3.75 30.4924 3.75H35.5C36.0523 3.75 36.5 4.19772 36.5 4.75V43.5C36.5 44.0523 36.0523 44.5 35.5 44.5H5.8802C5.63529 44.5 5.39889 44.4101 5.21584 44.2474L1.33564 40.7983C1.12215 40.6086 1 40.3366 1 40.0509Z" stroke="#388169" stroke-width="0.3"/>
<path d="M11 30L11.6364 34.3636L16 35L11.6364 35.6364L11 40L10.3636 35.6364L6 35L10.3636 34.3636L11 30Z" fill="#38C395"/>
<path d="M20.6386 19.72V14H24.1026V14.512H21.2226V16.48H23.7906V16.992H21.2226V19.208H24.1826V19.72H20.6386Z" fill="#38C395"/>
<path d="M15.7297 19.72V14H17.4177C18.6897 14 19.4177 15.12 19.4177 16.872C19.4177 18.624 18.6897 19.72 17.4177 19.72H15.7297ZM16.3137 19.208H17.3697C18.4337 19.208 18.8097 18.152 18.8097 16.872C18.8097 15.6 18.4497 14.512 17.3857 14.512H16.3137V19.208Z" fill="#38C395"/>
<path d="M12.6689 19.824C11.4529 19.824 10.7089 18.728 10.7089 16.856C10.7089 14.984 11.4529 13.896 12.6689 13.896C13.8769 13.896 14.6129 14.984 14.6129 16.856C14.6129 18.728 13.8769 19.824 12.6689 19.824ZM11.3169 16.856C11.3169 18.368 11.7329 19.312 12.6689 19.312C13.5889 19.312 14.0049 18.376 14.0049 16.856C14.0049 15.336 13.5889 14.408 12.6689 14.408C11.7329 14.408 11.3169 15.344 11.3169 16.856Z" fill="#38C395"/>
<path d="M6 19.72V14H6.728L7.856 17.792H7.872L9 14H9.728V19.72H9.144V14.896H9.136L8.128 18.392H7.592L6.592 14.896H6.584V19.72H6Z" fill="#38C395"/>
<path d="M20.5826 11.72V6H21.1586V9.208L23.6066 6H24.2706L22.4386 8.352L24.4226 11.72H23.7426L22.0786 8.816L21.1586 9.992V11.72H20.5826Z" fill="#38C395"/>
<path d="M15.7938 11.72V6H17.7298C18.7618 6 19.3298 6.568 19.3298 7.616C19.3298 8.376 18.9618 8.896 18.4178 9.056V9.072C19.5378 9.336 19.1538 11.576 19.4178 11.672V11.72H18.7938C18.5698 11.48 19.0098 9.344 17.7538 9.344H16.3778V11.72H15.7938ZM16.3778 8.832H17.6018C18.3298 8.832 18.7538 8.432 18.7538 7.624C18.7538 6.888 18.4098 6.512 17.6338 6.512H16.3778V8.832Z" fill="#38C395"/>
<path d="M10.5649 11.72L12.3329 6H12.9809L14.7569 11.72H14.1329L13.6769 10.136H11.6209L11.1729 11.72H10.5649ZM11.7969 9.616H13.5089L12.6689 6.552H12.6369L11.7969 9.616Z" fill="#38C395"/>
<path d="M6.13599 11.72V6H7.82399C9.09599 6 9.82399 7.12 9.82399 8.872C9.82399 10.624 9.09599 11.72 7.82399 11.72H6.13599ZM6.71999 11.208H7.77599C8.83999 11.208 9.21599 10.152 9.21599 8.872C9.21599 7.6 8.85599 6.512 7.79199 6.512H6.71999V11.208Z" fill="#38C395"/>
<path d="M26.9969 39.824V34.104H27.7089L29.9089 39H29.9249V34.104H30.5009V39.824H29.7889L27.5809 34.928H27.5729V39.824H26.9969Z" fill="#38C395"/>
<path d="M23.96 39.928C22.744 39.928 22 38.832 22 36.96C22 35.088 22.744 34 23.96 34C25.168 34 25.904 35.088 25.904 36.96C25.904 38.832 25.168 39.928 23.96 39.928ZM22.608 36.96C22.608 38.472 23.024 39.416 23.96 39.416C24.88 39.416 25.296 38.48 25.296 36.96C25.296 35.44 24.88 34.512 23.96 34.512C23.024 34.512 22.608 35.448 22.608 36.96Z" fill="#38C395"/>
</svg>
