<svg width="186" height="139" xmlns="http://www.w3.org/2000/svg">
<g clip-path="url(#clip0)" filter="url(#filter0_d)">
<path d="M55.4964 25.5961V37.7961L49.7964 34.5961V22.3961L55.4964 25.5961Z" fill="#898989"/>
<path d="M49.7963 22.3961V34.5961L43.1963 38.2961V26.0961L49.7963 22.3961Z" fill="#C5C5C5"/>
<path d="M69.9964 26.4961V38.7961L69.7964 39.3961L69.8964 27.1961L69.9964 26.4961Z" fill="#9F9F9F"/>
<path d="M69.8963 27.1961L69.7963 39.3961L63.1963 42.5961V30.3961L69.8963 27.1961Z" fill="#C5C5C5"/>
<path d="M63.1961 30.3961V42.5961L55.4961 37.7961V25.5961L63.1961 30.3961Z" fill="#878787"/>
<path d="M36.6963 29.6961L36.5963 41.9961L33.6963 43.5961L33.7963 31.2961L36.6963 29.6961Z" fill="#C5C5C5"/>
<path d="M41.5962 32.5961V44.7961L36.5962 41.9961L36.6962 29.6961L41.5962 32.5961Z" fill="#898989"/>
<path d="M54.0965 32.1961L53.9965 44.3961L53.8965 44.9961V32.7961L54.0965 32.1961Z" fill="#9F9F9F"/>
<path d="M33.7964 31.2961L33.6964 43.5961L29.7964 45.9961V33.7961L33.7964 31.2961Z" fill="#C4C4C4"/>
<path d="M47.2962 36.0961V48.2961L41.5962 44.7961V32.5961L47.2962 36.0961Z" fill="#888888"/>
<path d="M53.8964 32.7961V44.9961L47.2964 48.2961V36.0961L53.8964 32.7961Z" fill="#C5C5C5"/>
<path d="M43.6962 41.4961V53.6961L43.5962 54.3961V42.0961L43.6962 41.4961Z" fill="#9F9F9F"/>
<path d="M36.9963 45.3961V57.5961L15.1963 44.9961V32.7961L36.9963 45.3961Z" fill="#898989"/>
<path d="M43.5961 42.0961V54.3961L36.9961 57.5961V45.3961L43.5961 42.0961Z" fill="#C5C5C5"/>
<path d="M69.9963 26.4961L69.8963 27.1961L63.1963 30.3961L55.4963 25.5961L49.7963 22.3961L43.1963 26.0961L48.5963 29.1961L54.0963 32.1961L53.8963 32.7961L47.2963 36.0961L41.5963 32.5961L36.6963 29.6961L33.7963 31.2961L29.7963 33.7961L35.1963 36.8961L43.6963 41.4961L43.5963 42.0961L36.9963 45.3961L15.1963 32.7961L25.3963 27.4961L47.9963 13.7961L69.9963 26.4961Z" fill="white"/>
<path d="M85.7962 35.5961L85.6962 47.7961L82.0962 51.2961L82.1962 39.0961L85.7962 35.5961Z" fill="#BEBEBE"/>
<path d="M70.0961 40.496L69.9961 52.696L69.4961 52.396V40.196L70.0961 40.496Z" fill="#898989"/>
<path d="M69.4965 40.196V52.396L58.3965 57.596L58.4965 45.396L69.4965 40.196Z" fill="#C5C5C5"/>
<path d="M82.1965 39.0961L82.0965 51.2961L72.3965 61.8961V49.6961L82.1965 39.0961Z" fill="#BBBBBB"/>
<path d="M47.0963 51.196V63.396L40.1963 59.496V47.196L47.0963 51.196Z" fill="#898989"/>
<path d="M58.4962 45.3961L58.3962 57.5961L47.0962 63.3961V51.1961L58.4962 45.3961Z" fill="#C5C5C5"/>
<path d="M89.1962 51.496L89.0962 63.696L88.5962 63.396L88.6962 51.196L89.1962 51.496Z" fill="#898989"/>
<path d="M88.6963 51.196L88.5963 63.396L64.6963 69.796V57.596L88.6963 51.196Z" fill="#C2C2C2"/>
<path d="M64.6964 57.5961V69.7961L58.2964 66.0961L58.3964 53.8961L64.6964 57.5961Z" fill="#898989"/>
<path d="M77.0964 68.4961V80.7961L69.7964 76.4961V64.2961L77.0964 68.4961Z" fill="#898989"/>
<path d="M106.996 47.8961V60.0961L77.0962 80.7961V68.4961L106.996 47.8961Z" fill="#C3C3C3"/>
<path d="M106.996 47.8961L77.0963 68.4961L69.7963 64.2961L79.2963 58.2961L89.1963 51.4961L88.6963 51.1961L64.6963 57.5961L58.3963 53.8961L70.0963 40.4961L69.4963 40.1961L58.4963 45.3961L47.0963 51.1961L40.1963 47.1961L76.1963 30.0961L85.7963 35.5961L82.1963 39.0961L72.3963 49.6961L72.8963 49.9961L91.3963 44.5961L97.5963 42.4961L106.996 47.8961Z" fill="white"/>
<path d="M120.396 64.2961V76.5961L119.896 76.2961V64.0961L120.396 64.2961Z" fill="#898989"/>
<path d="M119.896 64.0961V76.2961L103.596 81.2961L103.696 69.0961L119.896 64.0961Z" fill="#C3C3C3"/>
<path d="M95.4959 71.5961V83.7961L93.7959 84.3961V72.0961L95.4959 71.5961Z" fill="#C3C3C3"/>
<path d="M100.796 74.4961V86.6961L95.4961 83.7961V71.5961L100.796 74.4961Z" fill="#8A8A8A"/>
<path d="M93.7962 72.0961V84.3961L87.5962 86.8961L87.6962 74.5961L93.7962 72.0961Z" fill="#C5C5C5"/>
<path d="M87.6961 74.5961L87.5961 86.8961L79.4961 82.1961V69.8961L87.6961 74.5961Z" fill="#898989"/>
<path d="M106.596 77.896V90.196L100.796 86.696V74.496L106.596 77.896Z" fill="#888888"/>
<path d="M132.896 62.7961L109.796 87.3961L101.396 82.4961L105.296 79.2961L106.696 77.8961L100.896 74.3961L95.5963 71.4961L93.8963 71.9961L87.7963 74.4961L79.6963 69.7961L123.096 56.8961L132.896 62.7961ZM107.296 71.2961L111.196 73.3961L120.396 64.2961L119.896 63.9961L103.596 68.9961L107.296 71.2961Z" fill="white"/>
<path d="M109.796 87.396L109.696 99.596L101.296 94.796L101.396 82.496L109.796 87.396Z" fill="#898989"/>
<path d="M132.896 62.7961L132.796 74.9961L109.696 99.5961L109.796 87.3961L132.896 62.7961Z" fill="#BBBBBB"/>
<path d="M155.196 75.6961V87.9961L132.496 100.596V88.3961L155.196 75.6961Z" fill="#C5C5C5"/>
<path d="M155.196 75.6961L132.496 88.3961L122.296 94.6961L113.996 89.8961L124.196 84.4961L146.696 70.7961L155.196 75.6961Z" fill="white"/>
<path d="M132.496 88.3961V100.596L122.296 106.896V94.6961L132.496 88.3961Z" fill="#C4C4C4"/>
<path d="M122.296 94.6961V106.896L113.996 102.096V89.8961L122.296 94.6961Z" fill="#898989"/>
<path d="M170.696 84.6961V96.8961L147.996 109.496V97.2961L170.696 84.6961Z" fill="#C5C5C5"/>
<path d="M147.996 97.2961V109.496L144.396 111.796V99.5961L147.996 97.2961Z" fill="#C4C4C4"/>
<path d="M154.896 105.596V117.896L154.796 118.496V106.296L154.896 105.596Z" fill="#9B9B9B"/>
<path d="M170.696 84.6961L147.996 97.2961L144.396 99.5961L154.896 105.596L154.796 106.296L148.096 109.496L129.496 98.7961L139.696 93.4961L162.296 79.7961L170.696 84.6961Z" fill="white"/>
<path d="M154.796 106.296V118.496L148.096 121.796V109.496L154.796 106.296Z" fill="#C5C5C5"/>
<path d="M148.096 109.496V121.796L129.496 110.996V98.7961L148.096 109.496Z" fill="#898989"/>
</g>
<defs>
<filter id="filter0_d" x="0.196289" y="0.796082" width="185.5" height="138" filterUnits="userSpaceOnUse" color-interpolation-filters="sRGB">
<feFlood flood-opacity="0" result="BackgroundImageFix"/>
<feColorMatrix in="SourceAlpha" type="matrix" values="0 0 0 0 0 0 0 0 0 0 0 0 0 0 0 0 0 0 127 0"/>
<feOffset dy="2"/>
<feGaussianBlur stdDeviation="7.5"/>
<feColorMatrix type="matrix" values="0 0 0 0 0.768627 0 0 0 0 0.768627 0 0 0 0 0.768627 0 0 0 0.5 0"/>
<feBlend mode="normal" in2="BackgroundImageFix" result="effect1_dropShadow"/>
<feBlend mode="normal" in="SourceGraphic" in2="effect1_dropShadow" result="shape"/>
</filter>
<clipPath id="clip0">
<rect width="155.5" height="108" fill="white" transform="translate(15.1963 13.7961)"/>
</clipPath>
</defs>
</svg>
