<svg width="134" height="103" xmlns="http://www.w3.org/2000/svg">
<g clip-path="url(#clip0)" filter="url(#filter0_d)">
<path d="M42.2475 21.4497V29.568L38.4545 27.4386V19.3203L42.2475 21.4497Z" fill="#898989"/>
<path d="M38.4546 19.3203V27.4386L34.0627 29.9007V21.7824L38.4546 19.3203Z" fill="#C5C5C5"/>
<path d="M51.8963 22.0486V30.2335L51.7632 30.6328L51.8298 22.5144L51.8963 22.0486Z" fill="#9F9F9F"/>
<path d="M51.8298 22.5144L51.7632 30.6327L47.3713 32.7621V24.6438L51.8298 22.5144Z" fill="#C5C5C5"/>
<path d="M47.3713 24.6438V32.7621L42.2475 29.568V21.4497L47.3713 24.6438Z" fill="#878787"/>
<path d="M29.7373 24.178L29.6708 32.3629L27.741 33.4276L27.8076 25.2427L29.7373 24.178Z" fill="#C5C5C5"/>
<path d="M32.998 26.1078V34.2261L29.6708 32.3629L29.7373 24.178L32.998 26.1078Z" fill="#898989"/>
<path d="M41.3159 25.8416L41.2493 33.9599L41.1828 34.3592V26.2409L41.3159 25.8416Z" fill="#9F9F9F"/>
<path d="M27.8076 25.2427L27.741 33.4276L25.1458 35.0246V26.9063L27.8076 25.2427Z" fill="#C4C4C4"/>
<path d="M36.7909 28.4368V36.5551L32.9979 34.2261V26.1078L36.7909 28.4368Z" fill="#888888"/>
<path d="M41.1828 26.2408V34.3592L36.791 36.5551V28.4368L41.1828 26.2408Z" fill="#C5C5C5"/>
<path d="M34.3953 32.0302V40.1485L34.3288 40.6143V32.4294L34.3953 32.0302Z" fill="#9F9F9F"/>
<path d="M29.937 34.6253V42.7436L15.4305 34.3592V26.2408L29.937 34.6253Z" fill="#898989"/>
<path d="M34.3288 32.4294V40.6142L29.937 42.7436V34.6253L34.3288 32.4294Z" fill="#C5C5C5"/>
<path d="M51.8963 22.0486L51.8298 22.5144L47.3714 24.6438L42.2475 21.4497L38.4545 19.3203L34.0627 21.7824L37.656 23.8453L41.3159 25.8416L41.1828 26.2409L36.7909 28.4368L32.998 26.1078L29.7373 24.178L27.8076 25.2427L25.1458 26.9063L28.7392 28.9691L34.3954 32.0301L34.3288 32.4294L29.937 34.6253L15.4305 26.2409L22.2179 22.7141L37.2567 13.5976L51.8963 22.0486Z" fill="white"/>
<path d="M62.4102 28.1041L62.3436 36.2224L59.9481 38.5515L60.0146 30.4331L62.4102 28.1041Z" fill="#BEBEBE"/>
<path d="M51.9629 31.3647L51.8963 39.483L51.5636 39.2834V31.1651L51.9629 31.3647Z" fill="#898989"/>
<path d="M51.5636 31.1651V39.2834L44.1772 42.7437L44.2438 34.6254L51.5636 31.1651Z" fill="#C5C5C5"/>
<path d="M60.0146 30.4331L59.9481 38.5514L53.4933 45.605V37.4867L60.0146 30.4331Z" fill="#BBBBBB"/>
<path d="M36.6578 38.4849V46.6032L32.0663 44.008V35.8232L36.6578 38.4849Z" fill="#898989"/>
<path d="M44.2438 34.6254L44.1773 42.7437L36.6578 46.6032V38.4849L44.2438 34.6254Z" fill="#C5C5C5"/>
<path d="M64.6727 38.6846L64.6062 46.8029L64.2734 46.6032L64.34 38.4849L64.6727 38.6846Z" fill="#898989"/>
<path d="M64.34 38.4849L64.2734 46.6032L48.3695 50.862V42.7437L64.34 38.4849Z" fill="#C2C2C2"/>
<path d="M48.3695 42.7437V50.862L44.1107 48.3999L44.1773 40.2816L48.3695 42.7437Z" fill="#898989"/>
<path d="M56.6209 49.9969V58.1818L51.7632 55.3204V47.2021L56.6209 49.9969Z" fill="#898989"/>
<path d="M76.5174 36.2889V44.4073L56.6209 58.1818V49.9969L76.5174 36.2889Z" fill="#C3C3C3"/>
<path d="M76.5174 36.289L56.6209 49.9969L51.7632 47.2021L58.0849 43.2095L64.6727 38.6845L64.3399 38.4849L48.3695 42.7437L44.1773 40.2816L51.9629 31.3647L51.5636 31.1651L44.2438 34.6254L36.6578 38.4849L32.0663 35.8232L56.022 24.4442L62.4102 28.1041L60.0146 30.4331L53.4934 37.4867L53.8261 37.6864L66.1366 34.093L70.2623 32.6956L76.5174 36.289Z" fill="white"/>
<path d="M85.4343 47.2021V55.3869L85.1016 55.1873V47.069L85.4343 47.2021Z" fill="#898989"/>
<path d="M85.1015 47.069V55.1873L74.2549 58.5145L74.3215 50.3961L85.1015 47.069Z" fill="#C3C3C3"/>
<path d="M68.8649 52.0598V60.1781L67.7337 60.5773V52.3925L68.8649 52.0598Z" fill="#C3C3C3"/>
<path d="M72.3917 53.9895V62.1078L68.8649 60.1781V52.0598L72.3917 53.9895Z" fill="#8A8A8A"/>
<path d="M67.7337 52.3925V60.5773L63.608 62.2409L63.6745 54.056L67.7337 52.3925Z" fill="#C5C5C5"/>
<path d="M63.6745 54.056L63.608 62.2409L58.218 59.1133V50.9285L63.6745 54.056Z" fill="#898989"/>
<path d="M76.2513 56.252V64.4368L72.3917 62.1078V53.9895L76.2513 56.252Z" fill="#888888"/>
<path d="M93.7522 46.2039L78.3807 62.5736L72.791 59.313L75.3862 57.1836L76.3178 56.252L72.4583 53.9229L68.9315 51.9932L67.8002 52.3259L63.7411 53.9895L58.3511 50.8619L87.231 42.2778L93.7522 46.2039ZM76.7171 51.8601L79.3123 53.2575L85.4343 47.2021L85.1016 47.0024L74.255 50.3296L76.7171 51.8601Z" fill="white"/>
<path d="M78.3806 62.5736L78.3141 70.6919L72.7244 67.4978L72.791 59.313L78.3806 62.5736Z" fill="#898989"/>
<path d="M93.7522 46.2039L93.6856 54.3222L78.3141 70.6919L78.3806 62.5736L93.7522 46.2039Z" fill="#BBBBBB"/>
<path d="M108.591 54.788V62.9729L93.486 71.3574V63.239L108.591 54.788Z" fill="#C5C5C5"/>
<path d="M108.591 54.788L93.486 63.2391L86.6986 67.4313L81.1755 64.2372L87.9629 60.6439L102.935 51.5274L108.591 54.788Z" fill="white"/>
<path d="M93.486 63.2391V71.3574L86.6986 75.5496V67.4313L93.486 63.2391Z" fill="#C4C4C4"/>
<path d="M86.6986 67.4313V75.5496L81.1755 72.3555V64.2372L86.6986 67.4313Z" fill="#898989"/>
<path d="M118.906 60.7769V68.8952L103.8 77.2797V69.1614L118.906 60.7769Z" fill="#C5C5C5"/>
<path d="M103.8 69.1614V77.2797L101.405 78.8102V70.6919L103.8 69.1614Z" fill="#C4C4C4"/>
<path d="M108.392 74.6845V82.8694L108.325 83.2686V75.1503L108.392 74.6845Z" fill="#9B9B9B"/>
<path d="M118.906 60.7769L103.8 69.1614L101.405 70.6919L108.392 74.6845L108.325 75.1503L103.867 77.2797L91.4897 70.1596L98.2772 66.6328L113.316 57.5163L118.906 60.7769Z" fill="white"/>
<path d="M108.325 75.1503V83.2686L103.867 85.4646V77.2797L108.325 75.1503Z" fill="#C5C5C5"/>
<path d="M103.867 77.2797V85.4646L91.4897 78.2779V70.1595L103.867 77.2797Z" fill="#898989"/>
</g>
<defs>
<filter id="filter0_d" x="0.430481" y="0.597595" width="133.475" height="101.867" filterUnits="userSpaceOnUse" color-interpolation-filters="sRGB">
<feFlood flood-opacity="0" result="BackgroundImageFix"/>
<feColorMatrix in="SourceAlpha" type="matrix" values="0 0 0 0 0 0 0 0 0 0 0 0 0 0 0 0 0 0 127 0"/>
<feOffset dy="2"/>
<feGaussianBlur stdDeviation="7.5"/>
<feColorMatrix type="matrix" values="0 0 0 0 0.768627 0 0 0 0 0.768627 0 0 0 0 0.768627 0 0 0 0.5 0"/>
<feBlend mode="normal" in2="BackgroundImageFix" result="effect1_dropShadow"/>
<feBlend mode="normal" in="SourceGraphic" in2="effect1_dropShadow" result="shape"/>
</filter>
<clipPath id="clip0">
<rect width="103.475" height="71.867" fill="white" transform="translate(15.4305 13.5976)"/>
</clipPath>
</defs>
</svg>
