<svg width="33" height="29" xmlns="http://www.w3.org/2000/svg">
<g clip-path="url(#clip0)">
<path d="M26.749 1.81943H24.9157V3.63883H26.749V1.81943Z" fill="#464646"/>
<path d="M26.749 3.66071H24.9157V5.48011H26.749V3.66071Z" fill="#464646"/>
<path d="M26.749 5.48012H24.9157V7.29952H26.749V5.48012Z" fill="#464646"/>
<path d="M26.749 7.29955H24.9157V9.11895H26.749V7.29955Z" fill="#464646"/>
<path d="M26.749 9.14082H24.9157V10.9602H26.749V9.14082Z" fill="#464646"/>
<path d="M26.749 10.9603H24.9157V12.7797H26.749V10.9603Z" fill="#464646"/>
<path d="M26.749 12.8016H24.9157V14.621H26.749V12.8016Z" fill="#464646"/>
<path d="M28.5824 0H26.749V1.8194H28.5824V0Z" fill="#464646"/>
<path d="M28.5824 1.81943H26.749V3.63883H28.5824V1.81943Z" fill="#464646"/>
<path d="M28.5824 3.66071H26.749V5.48011H28.5824V3.66071Z" fill="#464646"/>
<path d="M28.5824 5.48012H26.749V7.29952H28.5824V5.48012Z" fill="#464646"/>
<path d="M28.5824 7.29955H26.749V9.11895H28.5824V7.29955Z" fill="#464646"/>
<path d="M28.5824 9.14082H26.749V10.9602H28.5824V9.14082Z" fill="#464646"/>
<path d="M24.9157 3.66071H23.0823V5.48011H24.9157V3.66071Z" fill="#464646"/>
<path d="M24.9157 5.48012H23.0823V7.29952H24.9157V5.48012Z" fill="#464646"/>
<path d="M24.9157 7.29955H23.0823V9.11895H24.9157V7.29955Z" fill="#464646"/>
<path d="M24.9157 9.14082H23.0823V10.9602H24.9157V9.14082Z" fill="#464646"/>
<path d="M24.9157 10.9603H23.0823V12.7797H24.9157V10.9603Z" fill="#464646"/>
<path d="M24.9157 12.8016H23.0823V14.621H24.9157V12.8016Z" fill="#464646"/>
<path d="M24.9157 14.621H23.0823V16.4404H24.9157V14.621Z" fill="#464646"/>
<path d="M24.9157 16.4404H23.0823V18.2598H24.9157V16.4404Z" fill="#464646"/>
<path d="M24.9157 18.2817H23.0823V20.1011H24.9157V18.2817Z" fill="#464646"/>
<path d="M24.9157 25.5812H23.0823V27.4006H24.9157V25.5812Z" fill="#464646"/>
<path d="M23.0603 1.81943H21.2269V3.63883H23.0603V1.81943Z" fill="#464646"/>
<path d="M23.0603 3.66071H21.2269V5.48011H23.0603V3.66071Z" fill="#464646"/>
<path d="M23.0603 5.48012H21.2269V7.29952H23.0603V5.48012Z" fill="#464646"/>
<path d="M23.0603 7.29955H21.2269V9.11895H23.0603V7.29955Z" fill="#464646"/>
<path d="M23.0603 9.14082H21.2269V10.9602H23.0603V9.14082Z" fill="#464646"/>
<path d="M23.0603 10.9603H21.2269V12.7797H23.0603V10.9603Z" fill="#464646"/>
<path d="M23.0603 12.8016H21.2269V14.621H23.0603V12.8016Z" fill="#464646"/>
<path d="M23.0603 14.621H21.2269V16.4404H23.0603V14.621Z" fill="#464646"/>
<path d="M23.0603 16.4404H21.2269V18.2598H23.0603V16.4404Z" fill="#464646"/>
<path d="M23.0603 18.2817H21.2269V20.1011H23.0603V18.2817Z" fill="#464646"/>
<path d="M23.0603 20.1011H21.2269V21.9205H23.0603V20.1011Z" fill="#464646"/>
<path d="M23.0603 21.9205H21.2269V23.7399H23.0603V21.9205Z" fill="#464646"/>
<path d="M23.0603 23.7619H21.2269V25.5813H23.0603V23.7619Z" fill="#464646"/>
<path d="M23.0603 25.5812H21.2269V27.4006H23.0603V25.5812Z" fill="#464646"/>
<path d="M21.2269 0H19.3936V1.8194H21.2269V0Z" fill="#464646"/>
<path d="M21.2269 1.81943H19.3936V3.63883H21.2269V1.81943Z" fill="#464646"/>
<path d="M21.2269 3.66071H19.3936V5.48011H21.2269V3.66071Z" fill="#464646"/>
<path d="M21.2269 5.48012H19.3936V7.29952H21.2269V5.48012Z" fill="#464646"/>
<path d="M21.2269 7.29955H19.3936V9.11895H21.2269V7.29955Z" fill="#464646"/>
<path d="M21.2269 9.14082H19.3936V10.9602H21.2269V9.14082Z" fill="#464646"/>
<path d="M21.2269 10.9603H19.3936V12.7797H21.2269V10.9603Z" fill="#464646"/>
<path d="M21.2269 12.8016H19.3936V14.621H21.2269V12.8016Z" fill="#464646"/>
<path d="M21.2269 14.621H19.3936V16.4404H21.2269V14.621Z" fill="#464646"/>
<path d="M21.2269 16.4404H19.3936V18.2598H21.2269V16.4404Z" fill="#464646"/>
<path d="M21.2269 18.2817H19.3936V20.1011H21.2269V18.2817Z" fill="#464646"/>
<path d="M21.2269 20.1011H19.3936V21.9205H21.2269V20.1011Z" fill="#464646"/>
<path d="M21.2269 21.9205H19.3936V23.7399H21.2269V21.9205Z" fill="#464646"/>
<path d="M21.2269 23.7619H19.3936V25.5813H21.2269V23.7619Z" fill="#464646"/>
<path d="M19.3715 7.29955H17.5382V9.11895H19.3715V7.29955Z" fill="#464646"/>
<path d="M19.3715 9.14082H17.5382V10.9602H19.3715V9.14082Z" fill="#464646"/>
<path d="M19.3715 10.9603H17.5382V12.7797H19.3715V10.9603Z" fill="#464646"/>
<path d="M19.3715 12.8016H17.5382V14.621H19.3715V12.8016Z" fill="#464646"/>
<path d="M19.3715 14.621H17.5382V16.4404H19.3715V14.621Z" fill="#464646"/>
<path d="M19.3715 16.4404H17.5382V18.2598H19.3715V16.4404Z" fill="#464646"/>
<path d="M17.5382 5.48012H15.7048V7.29952H17.5382V5.48012Z" fill="#464646"/>
<path d="M17.5382 7.29955H15.7048V9.11895H17.5382V7.29955Z" fill="#464646"/>
<path d="M17.5382 9.14082H15.7048V10.9602H17.5382V9.14082Z" fill="#464646"/>
<path d="M17.5382 10.9603H15.7048V12.7797H17.5382V10.9603Z" fill="#464646"/>
<path d="M17.5382 12.8016H15.7048V14.621H17.5382V12.8016Z" fill="#464646"/>
<path d="M17.5382 14.621H15.7048V16.4404H17.5382V14.621Z" fill="#464646"/>
<path d="M15.7049 3.66071H13.8715V5.48011H15.7049V3.66071Z" fill="#464646"/>
<path d="M15.7049 5.48012H13.8715V7.29952H15.7049V5.48012Z" fill="#464646"/>
<path d="M15.7049 7.29955H13.8715V9.11895H15.7049V7.29955Z" fill="#464646"/>
<path d="M15.7049 9.14082H13.8715V10.9602H15.7049V9.14082Z" fill="#464646"/>
<path d="M15.7049 10.9603H13.8715V12.7797H15.7049V10.9603Z" fill="#464646"/>
<path d="M15.7049 12.8016H13.8715V14.621H15.7049V12.8016Z" fill="#464646"/>
<path d="M13.8494 3.66071H12.0161V5.48011H13.8494V3.66071Z" fill="#464646"/>
<path d="M13.8494 5.48012H12.0161V7.29952H13.8494V5.48012Z" fill="#464646"/>
<path d="M13.8494 7.29955H12.0161V9.11895H13.8494V7.29955Z" fill="#464646"/>
<path d="M13.8494 9.14082H12.0161V10.9602H13.8494V9.14082Z" fill="#464646"/>
<path d="M13.8494 10.9603H12.0161V12.7797H13.8494V10.9603Z" fill="#464646"/>
<path d="M12.0161 3.66071H10.1827V5.48011H12.0161V3.66071Z" fill="#464646"/>
<path d="M12.0161 5.48012H10.1827V7.29952H12.0161V5.48012Z" fill="#464646"/>
<path d="M12.0161 7.29955H10.1827V9.11895H12.0161V7.29955Z" fill="#464646"/>
<path d="M12.0161 9.14082H10.1827V10.9602H12.0161V9.14082Z" fill="#464646"/>
<path d="M12.0161 10.9603H10.1827V12.7797H12.0161V10.9603Z" fill="#464646"/>
<path d="M12.0161 12.8016H10.1827V14.621H12.0161V12.8016Z" fill="#464646"/>
<path d="M10.1828 3.66071H8.34943V5.48011H10.1828V3.66071Z" fill="#464646"/>
<path d="M10.1828 5.48012H8.34943V7.29952H10.1828V5.48012Z" fill="#464646"/>
<path d="M10.1828 7.29955H8.34943V9.11895H10.1828V7.29955Z" fill="#464646"/>
<path d="M10.1828 9.14082H8.34943V10.9602H10.1828V9.14082Z" fill="#464646"/>
<path d="M10.1828 10.9603H8.34943V12.7797H10.1828V10.9603Z" fill="#464646"/>
<path d="M10.1828 12.8016H8.34943V14.621H10.1828V12.8016Z" fill="#464646"/>
<path d="M10.1828 14.621H8.34943V16.4404H10.1828V14.621Z" fill="#464646"/>
<path d="M10.1828 25.5812H8.34943V27.4006H10.1828V25.5812Z" fill="#464646"/>
<path d="M8.32735 5.48012H6.49402V7.29952H8.32735V5.48012Z" fill="#464646"/>
<path d="M8.32735 7.29955H6.49402V9.11895H8.32735V7.29955Z" fill="#464646"/>
<path d="M8.32735 9.14082H6.49402V10.9602H8.32735V9.14082Z" fill="#464646"/>
<path d="M8.32735 10.9603H6.49402V12.7797H8.32735V10.9603Z" fill="#464646"/>
<path d="M8.32735 12.8016H6.49402V14.621H8.32735V12.8016Z" fill="#464646"/>
<path d="M8.32735 14.621H6.49402V16.4404H8.32735V14.621Z" fill="#464646"/>
<path d="M8.32735 16.4404H6.49402V18.2598H8.32735V16.4404Z" fill="#464646"/>
<path d="M8.32735 18.2817H6.49402V20.1011H8.32735V18.2817Z" fill="#464646"/>
<path d="M8.32735 20.1011H6.49402V21.9205H8.32735V20.1011Z" fill="#464646"/>
<path d="M8.32735 21.9205H6.49402V23.7399H8.32735V21.9205Z" fill="#464646"/>
<path d="M8.32735 23.7619H6.49402V25.5813H8.32735V23.7619Z" fill="#464646"/>
<path d="M8.32735 25.5812H6.49402V27.4006H8.32735V25.5812Z" fill="#464646"/>
<path d="M6.49404 9.14082H4.66071V10.9602H6.49404V9.14082Z" fill="#464646"/>
<path d="M6.49404 7.29955H4.66071V9.11895H6.49404V7.29955Z" fill="#464646"/>
<path d="M6.49404 10.9603H4.66071V12.7797H6.49404V10.9603Z" fill="#464646"/>
<path d="M6.49404 12.8016H4.66071V14.621H6.49404V12.8016Z" fill="#464646"/>
<path d="M6.49404 14.621H4.66071V16.4404H6.49404V14.621Z" fill="#464646"/>
<path d="M6.49404 16.4404H4.66071V18.2598H6.49404V16.4404Z" fill="#464646"/>
<path d="M6.49404 18.2817H4.66071V20.1011H6.49404V18.2817Z" fill="#464646"/>
<path d="M6.49404 20.1011H4.66071V21.9205H6.49404V20.1011Z" fill="#464646"/>
<path d="M6.49404 21.9205H4.66071V23.7399H6.49404V21.9205Z" fill="#464646"/>
<path d="M6.49404 23.7619H4.66071V25.5813H6.49404V23.7619Z" fill="#464646"/>
<path d="M4.66067 0H2.82733V1.8194H4.66067V0Z" fill="#464646"/>
<path d="M4.66067 9.14082H2.82733V10.9602H4.66067V9.14082Z" fill="#464646"/>
<path d="M4.66067 10.9603H2.82733V12.7797H4.66067V10.9603Z" fill="#464646"/>
<path d="M4.66067 12.8016H2.82733V14.621H4.66067V12.8016Z" fill="#464646"/>
<path d="M4.66067 14.621H2.82733V16.4404H4.66067V14.621Z" fill="#464646"/>
<path d="M2.80526 1.81943H0.971924V3.63883H2.80526V1.81943Z" fill="#464646"/>
<path d="M2.80526 3.66071H0.971924V5.48011H2.80526V3.66071Z" fill="#464646"/>
<path d="M2.80526 5.48012H0.971924V7.29952H2.80526V5.48012Z" fill="#464646"/>
<path d="M2.80526 7.29955H0.971924V9.11895H2.80526V7.29955Z" fill="#464646"/>
<path d="M25.8213 2.74005H23.988V4.55946H25.8213V2.74005Z" stroke="#464646" stroke-width="0.5" stroke-miterlimit="10"/>
<path d="M25.8213 4.55943H23.988V6.37884H25.8213V4.55943Z" stroke="#464646" stroke-width="0.5" stroke-miterlimit="10"/>
<path d="M25.8213 6.40076H23.988V8.22016H25.8213V6.40076Z" stroke="#464646" stroke-width="0.5" stroke-miterlimit="10"/>
<path d="M25.8213 8.22021H23.988V10.0396H25.8213V8.22021Z" stroke="#464646" stroke-width="0.5" stroke-miterlimit="10"/>
<path d="M25.8213 10.0396H23.988V11.859H25.8213V10.0396Z" stroke="#464646" stroke-width="0.5" stroke-miterlimit="10"/>
<path d="M25.8213 11.8809H23.988V13.7003H25.8213V11.8809Z" stroke="#464646" stroke-width="0.5" stroke-miterlimit="10"/>
<path d="M25.8213 13.7003H23.988V15.5197H25.8213V13.7003Z" stroke="#464646" stroke-width="0.5" stroke-miterlimit="10"/>
<path d="M27.6767 0.920624H25.8434V2.74003H27.6767V0.920624Z" stroke="#464646" stroke-width="0.5" stroke-miterlimit="10"/>
<path d="M27.6767 2.74005H25.8434V4.55946H27.6767V2.74005Z" stroke="#464646" stroke-width="0.5" stroke-miterlimit="10"/>
<path d="M27.6767 4.55943H25.8434V6.37884H27.6767V4.55943Z" stroke="#464646" stroke-width="0.5" stroke-miterlimit="10"/>
<path d="M27.6767 6.40076H25.8434V8.22016H27.6767V6.40076Z" stroke="#464646" stroke-width="0.5" stroke-miterlimit="10"/>
<path d="M27.6767 8.22021H25.8434V10.0396H27.6767V8.22021Z" stroke="#464646" stroke-width="0.5" stroke-miterlimit="10"/>
<path d="M27.6767 10.0396H25.8434V11.859H27.6767V10.0396Z" stroke="#464646" stroke-width="0.5" stroke-miterlimit="10"/>
<path d="M23.988 4.55943H22.1547V6.37884H23.988V4.55943Z" stroke="#464646" stroke-width="0.5" stroke-miterlimit="10"/>
<path d="M23.988 6.40076H22.1547V8.22016H23.988V6.40076Z" stroke="#464646" stroke-width="0.5" stroke-miterlimit="10"/>
<path d="M23.988 8.22021H22.1547V10.0396H23.988V8.22021Z" stroke="#464646" stroke-width="0.5" stroke-miterlimit="10"/>
<path d="M23.988 10.0396H22.1547V11.859H23.988V10.0396Z" stroke="#464646" stroke-width="0.5" stroke-miterlimit="10"/>
<path d="M23.988 11.8809H22.1547V13.7003H23.988V11.8809Z" stroke="#464646" stroke-width="0.5" stroke-miterlimit="10"/>
<path d="M23.988 13.7003H22.1547V15.5197H23.988V13.7003Z" stroke="#464646" stroke-width="0.5" stroke-miterlimit="10"/>
<path d="M23.988 15.5416H22.1547V17.361H23.988V15.5416Z" stroke="#464646" stroke-width="0.5" stroke-miterlimit="10"/>
<path d="M23.988 17.361H22.1547V19.1804H23.988V17.361Z" stroke="#464646" stroke-width="0.5" stroke-miterlimit="10"/>
<path d="M23.988 19.1805H22.1547V20.9999H23.988V19.1805Z" stroke="#464646" stroke-width="0.5" stroke-miterlimit="10"/>
<path d="M23.988 26.5019H22.1547V28.3213H23.988V26.5019Z" stroke="#464646" stroke-width="0.5" stroke-miterlimit="10"/>
<path d="M22.1325 2.74005H20.2992V4.55946H22.1325V2.74005Z" stroke="#464646" stroke-width="0.5" stroke-miterlimit="10"/>
<path d="M22.1325 4.55943H20.2992V6.37884H22.1325V4.55943Z" stroke="#464646" stroke-width="0.5" stroke-miterlimit="10"/>
<path d="M22.1325 6.40076H20.2992V8.22016H22.1325V6.40076Z" stroke="#464646" stroke-width="0.5" stroke-miterlimit="10"/>
<path d="M22.1325 8.22021H20.2992V10.0396H22.1325V8.22021Z" stroke="#464646" stroke-width="0.5" stroke-miterlimit="10"/>
<path d="M22.1325 10.0396H20.2992V11.859H22.1325V10.0396Z" stroke="#464646" stroke-width="0.5" stroke-miterlimit="10"/>
<path d="M22.1325 11.8809H20.2992V13.7003H22.1325V11.8809Z" stroke="#464646" stroke-width="0.5" stroke-miterlimit="10"/>
<path d="M22.1325 13.7003H20.2992V15.5197H22.1325V13.7003Z" stroke="#464646" stroke-width="0.5" stroke-miterlimit="10"/>
<path d="M22.1325 15.5416H20.2992V17.361H22.1325V15.5416Z" stroke="#464646" stroke-width="0.5" stroke-miterlimit="10"/>
<path d="M22.1325 17.361H20.2992V19.1804H22.1325V17.361Z" stroke="#464646" stroke-width="0.5" stroke-miterlimit="10"/>
<path d="M22.1325 19.1805H20.2992V20.9999H22.1325V19.1805Z" stroke="#464646" stroke-width="0.5" stroke-miterlimit="10"/>
<path d="M22.1325 21.0217H20.2992V22.8412H22.1325V21.0217Z" stroke="#464646" stroke-width="0.5" stroke-miterlimit="10"/>
<path d="M22.1325 22.8412H20.2992V24.6606H22.1325V22.8412Z" stroke="#464646" stroke-width="0.5" stroke-miterlimit="10"/>
<path d="M22.1325 24.6606H20.2992V26.48H22.1325V24.6606Z" stroke="#464646" stroke-width="0.5" stroke-miterlimit="10"/>
<path d="M22.1325 26.5019H20.2992V28.3213H22.1325V26.5019Z" stroke="#464646" stroke-width="0.5" stroke-miterlimit="10"/>
<path d="M20.2992 0.920624H18.4659V2.74003H20.2992V0.920624Z" stroke="#464646" stroke-width="0.5" stroke-miterlimit="10"/>
<path d="M20.2992 2.74005H18.4659V4.55946H20.2992V2.74005Z" stroke="#464646" stroke-width="0.5" stroke-miterlimit="10"/>
<path d="M20.2992 4.55943H18.4659V6.37884H20.2992V4.55943Z" stroke="#464646" stroke-width="0.5" stroke-miterlimit="10"/>
<path d="M20.2992 6.40076H18.4659V8.22016H20.2992V6.40076Z" stroke="#464646" stroke-width="0.5" stroke-miterlimit="10"/>
<path d="M20.2992 8.22021H18.4659V10.0396H20.2992V8.22021Z" stroke="#464646" stroke-width="0.5" stroke-miterlimit="10"/>
<path d="M20.2992 10.0396H18.4659V11.859H20.2992V10.0396Z" stroke="#464646" stroke-width="0.5" stroke-miterlimit="10"/>
<path d="M20.2992 11.8809H18.4659V13.7003H20.2992V11.8809Z" stroke="#464646" stroke-width="0.5" stroke-miterlimit="10"/>
<path d="M20.2992 13.7003H18.4659V15.5197H20.2992V13.7003Z" stroke="#464646" stroke-width="0.5" stroke-miterlimit="10"/>
<path d="M20.2992 15.5416H18.4659V17.361H20.2992V15.5416Z" stroke="#464646" stroke-width="0.5" stroke-miterlimit="10"/>
<path d="M20.2992 17.361H18.4659V19.1804H20.2992V17.361Z" stroke="#464646" stroke-width="0.5" stroke-miterlimit="10"/>
<path d="M20.2992 19.1805H18.4659V20.9999H20.2992V19.1805Z" stroke="#464646" stroke-width="0.5" stroke-miterlimit="10"/>
<path d="M20.2992 21.0217H18.4659V22.8412H20.2992V21.0217Z" stroke="#464646" stroke-width="0.5" stroke-miterlimit="10"/>
<path d="M20.2992 22.8412H18.4659V24.6606H20.2992V22.8412Z" stroke="#464646" stroke-width="0.5" stroke-miterlimit="10"/>
<path d="M20.2992 24.6606H18.4659V26.48H20.2992V24.6606Z" stroke="#464646" stroke-width="0.5" stroke-miterlimit="10"/>
<path d="M18.4659 8.22021H16.6326V10.0396H18.4659V8.22021Z" stroke="#464646" stroke-width="0.5" stroke-miterlimit="10"/>
<path d="M18.4659 10.0396H16.6326V11.859H18.4659V10.0396Z" stroke="#464646" stroke-width="0.5" stroke-miterlimit="10"/>
<path d="M18.4659 11.8809H16.6326V13.7003H18.4659V11.8809Z" stroke="#464646" stroke-width="0.5" stroke-miterlimit="10"/>
<path d="M18.4659 13.7003H16.6326V15.5197H18.4659V13.7003Z" stroke="#464646" stroke-width="0.5" stroke-miterlimit="10"/>
<path d="M18.4659 15.5416H16.6326V17.361H18.4659V15.5416Z" stroke="#464646" stroke-width="0.5" stroke-miterlimit="10"/>
<path d="M18.4659 17.361H16.6326V19.1804H18.4659V17.361Z" stroke="#464646" stroke-width="0.5" stroke-miterlimit="10"/>
<path d="M16.6104 6.40076H14.7771V8.22016H16.6104V6.40076Z" stroke="#464646" stroke-width="0.5" stroke-miterlimit="10"/>
<path d="M16.6104 8.22021H14.7771V10.0396H16.6104V8.22021Z" stroke="#464646" stroke-width="0.5" stroke-miterlimit="10"/>
<path d="M16.6104 10.0396H14.7771V11.859H16.6104V10.0396Z" stroke="#464646" stroke-width="0.5" stroke-miterlimit="10"/>
<path d="M16.6104 11.8809H14.7771V13.7003H16.6104V11.8809Z" stroke="#464646" stroke-width="0.5" stroke-miterlimit="10"/>
<path d="M16.6104 13.7003H14.7771V15.5197H16.6104V13.7003Z" stroke="#464646" stroke-width="0.5" stroke-miterlimit="10"/>
<path d="M16.6104 15.5416H14.7771V17.361H16.6104V15.5416Z" stroke="#464646" stroke-width="0.5" stroke-miterlimit="10"/>
<path d="M14.7771 4.55943H12.9438V6.37884H14.7771V4.55943Z" stroke="#464646" stroke-width="0.5" stroke-miterlimit="10"/>
<path d="M14.7771 6.40076H12.9438V8.22016H14.7771V6.40076Z" stroke="#464646" stroke-width="0.5" stroke-miterlimit="10"/>
<path d="M14.7771 8.22021H12.9438V10.0396H14.7771V8.22021Z" stroke="#464646" stroke-width="0.5" stroke-miterlimit="10"/>
<path d="M14.7771 10.0396H12.9438V11.859H14.7771V10.0396Z" stroke="#464646" stroke-width="0.5" stroke-miterlimit="10"/>
<path d="M14.7771 11.8809H12.9438V13.7003H14.7771V11.8809Z" stroke="#464646" stroke-width="0.5" stroke-miterlimit="10"/>
<path d="M14.7771 13.7003H12.9438V15.5197H14.7771V13.7003Z" stroke="#464646" stroke-width="0.5" stroke-miterlimit="10"/>
<path d="M12.9438 4.55943H11.1105V6.37884H12.9438V4.55943Z" stroke="#464646" stroke-width="0.5" stroke-miterlimit="10"/>
<path d="M12.9438 6.40076H11.1105V8.22016H12.9438V6.40076Z" stroke="#464646" stroke-width="0.5" stroke-miterlimit="10"/>
<path d="M12.9438 8.22021H11.1105V10.0396H12.9438V8.22021Z" stroke="#464646" stroke-width="0.5" stroke-miterlimit="10"/>
<path d="M12.9438 10.0396H11.1105V11.859H12.9438V10.0396Z" stroke="#464646" stroke-width="0.5" stroke-miterlimit="10"/>
<path d="M12.9438 11.8809H11.1105V13.7003H12.9438V11.8809Z" stroke="#464646" stroke-width="0.5" stroke-miterlimit="10"/>
<path d="M11.0883 4.55943H9.255V6.37884H11.0883V4.55943Z" stroke="#464646" stroke-width="0.5" stroke-miterlimit="10"/>
<path d="M11.0883 6.40076H9.255V8.22016H11.0883V6.40076Z" stroke="#464646" stroke-width="0.5" stroke-miterlimit="10"/>
<path d="M11.0883 8.22021H9.255V10.0396H11.0883V8.22021Z" stroke="#464646" stroke-width="0.5" stroke-miterlimit="10"/>
<path d="M11.0883 10.0396H9.255V11.859H11.0883V10.0396Z" stroke="#464646" stroke-width="0.5" stroke-miterlimit="10"/>
<path d="M11.0883 11.8809H9.255V13.7003H11.0883V11.8809Z" stroke="#464646" stroke-width="0.5" stroke-miterlimit="10"/>
<path d="M11.0883 13.7003H9.255V15.5197H11.0883V13.7003Z" stroke="#464646" stroke-width="0.5" stroke-miterlimit="10"/>
<path d="M9.25503 4.55943H7.42169V6.37884H9.25503V4.55943Z" stroke="#464646" stroke-width="0.5" stroke-miterlimit="10"/>
<path d="M9.25503 6.40076H7.42169V8.22016H9.25503V6.40076Z" stroke="#464646" stroke-width="0.5" stroke-miterlimit="10"/>
<path d="M9.25503 8.22021H7.42169V10.0396H9.25503V8.22021Z" stroke="#464646" stroke-width="0.5" stroke-miterlimit="10"/>
<path d="M9.25503 10.0396H7.42169V11.859H9.25503V10.0396Z" stroke="#464646" stroke-width="0.5" stroke-miterlimit="10"/>
<path d="M9.25503 11.8809H7.42169V13.7003H9.25503V11.8809Z" stroke="#464646" stroke-width="0.5" stroke-miterlimit="10"/>
<path d="M9.25503 13.7003H7.42169V15.5197H9.25503V13.7003Z" stroke="#464646" stroke-width="0.5" stroke-miterlimit="10"/>
<path d="M9.25503 15.5416H7.42169V17.361H9.25503V15.5416Z" stroke="#464646" stroke-width="0.5" stroke-miterlimit="10"/>
<path d="M9.25503 26.5019H7.42169V28.3213H9.25503V26.5019Z" stroke="#464646" stroke-width="0.5" stroke-miterlimit="10"/>
<path d="M7.42171 6.40076H5.58838V8.22016H7.42171V6.40076Z" stroke="#464646" stroke-width="0.5" stroke-miterlimit="10"/>
<path d="M7.42171 8.22021H5.58838V10.0396H7.42171V8.22021Z" stroke="#464646" stroke-width="0.5" stroke-miterlimit="10"/>
<path d="M7.42171 10.0396H5.58838V11.859H7.42171V10.0396Z" stroke="#464646" stroke-width="0.5" stroke-miterlimit="10"/>
<path d="M7.42171 11.8809H5.58838V13.7003H7.42171V11.8809Z" stroke="#464646" stroke-width="0.5" stroke-miterlimit="10"/>
<path d="M7.42171 13.7003H5.58838V15.5197H7.42171V13.7003Z" stroke="#464646" stroke-width="0.5" stroke-miterlimit="10"/>
<path d="M7.42171 15.5416H5.58838V17.361H7.42171V15.5416Z" stroke="#464646" stroke-width="0.5" stroke-miterlimit="10"/>
<path d="M7.42171 17.361H5.58838V19.1804H7.42171V17.361Z" stroke="#464646" stroke-width="0.5" stroke-miterlimit="10"/>
<path d="M7.42171 19.1805H5.58838V20.9999H7.42171V19.1805Z" stroke="#464646" stroke-width="0.5" stroke-miterlimit="10"/>
<path d="M7.42171 21.0217H5.58838V22.8412H7.42171V21.0217Z" stroke="#464646" stroke-width="0.5" stroke-miterlimit="10"/>
<path d="M7.42171 22.8412H5.58838V24.6606H7.42171V22.8412Z" stroke="#464646" stroke-width="0.5" stroke-miterlimit="10"/>
<path d="M7.42171 24.6606H5.58838V26.48H7.42171V24.6606Z" stroke="#464646" stroke-width="0.5" stroke-miterlimit="10"/>
<path d="M7.42171 26.5019H5.58838V28.3213H7.42171V26.5019Z" stroke="#464646" stroke-width="0.5" stroke-miterlimit="10"/>
<path d="M5.56624 10.0396H3.73291V11.859H5.56624V10.0396Z" stroke="#464646" stroke-width="0.5" stroke-miterlimit="10"/>
<path d="M5.56624 8.22021H3.73291V10.0396H5.56624V8.22021Z" stroke="#464646" stroke-width="0.5" stroke-miterlimit="10"/>
<path d="M5.56624 11.8809H3.73291V13.7003H5.56624V11.8809Z" stroke="#464646" stroke-width="0.5" stroke-miterlimit="10"/>
<path d="M5.56624 13.7003H3.73291V15.5197H5.56624V13.7003Z" stroke="#464646" stroke-width="0.5" stroke-miterlimit="10"/>
<path d="M5.56624 15.5416H3.73291V17.361H5.56624V15.5416Z" stroke="#464646" stroke-width="0.5" stroke-miterlimit="10"/>
<path d="M5.56624 17.361H3.73291V19.1804H5.56624V17.361Z" stroke="#464646" stroke-width="0.5" stroke-miterlimit="10"/>
<path d="M5.56624 19.1805H3.73291V20.9999H5.56624V19.1805Z" stroke="#464646" stroke-width="0.5" stroke-miterlimit="10"/>
<path d="M5.56624 21.0217H3.73291V22.8412H5.56624V21.0217Z" stroke="#464646" stroke-width="0.5" stroke-miterlimit="10"/>
<path d="M5.56624 22.8412H3.73291V24.6606H5.56624V22.8412Z" stroke="#464646" stroke-width="0.5" stroke-miterlimit="10"/>
<path d="M5.56624 24.6606H3.73291V26.48H5.56624V24.6606Z" stroke="#464646" stroke-width="0.5" stroke-miterlimit="10"/>
<path d="M3.73293 0.920624H1.8996V2.74003H3.73293V0.920624Z" stroke="#464646" stroke-width="0.5" stroke-miterlimit="10"/>
<path d="M3.73293 10.0396H1.8996V11.859H3.73293V10.0396Z" stroke="#464646" stroke-width="0.5" stroke-miterlimit="10"/>
<path d="M3.73293 11.8809H1.8996V13.7003H3.73293V11.8809Z" stroke="#464646" stroke-width="0.5" stroke-miterlimit="10"/>
<path d="M3.73293 13.7003H1.8996V15.5197H3.73293V13.7003Z" stroke="#464646" stroke-width="0.5" stroke-miterlimit="10"/>
<path d="M3.73293 15.5416H1.8996V17.361H3.73293V15.5416Z" stroke="#464646" stroke-width="0.5" stroke-miterlimit="10"/>
<path d="M1.87752 2.74005H0.0441895V4.55946H1.87752V2.74005Z" stroke="#464646" stroke-width="0.5" stroke-miterlimit="10"/>
<path d="M1.87752 4.55943H0.0441895V6.37884H1.87752V4.55943Z" stroke="#464646" stroke-width="0.5" stroke-miterlimit="10"/>
<path d="M1.87752 6.40076H0.0441895V8.22016H1.87752V6.40076Z" stroke="#464646" stroke-width="0.5" stroke-miterlimit="10"/>
<path d="M1.87752 8.22021H0.0441895V10.0396H1.87752V8.22021Z" stroke="#464646" stroke-width="0.5" stroke-miterlimit="10"/>
<path d="M26.2852 8.30788C26.1085 8.46133 25.7992 8.76821 25.4016 9.20662H25.1366L24.4297 8.30788V8.06676L26.0864 6.18159L26.3293 6.07199C26.6165 6.11583 27.3233 6.29119 28.4277 6.62C28.5603 6.64192 28.8916 6.75152 29.4217 6.90497C29.9739 7.05841 30.3494 7.14609 30.5703 7.14609C30.7249 7.14609 30.8796 7.08033 31.0563 6.94881C31.233 6.81729 31.4538 6.62 31.7631 6.31311L32.0502 6.00623H32.2932L33 6.88305V7.12417L31.3434 9.00934L31.1004 9.11894C30.7028 9.0751 29.9739 8.87782 28.9137 8.54901C28.494 8.41748 28.0964 8.30788 27.6988 8.2202C27.3233 8.1106 27.0362 8.06676 26.9036 8.06676C26.6607 8.06676 26.484 8.15444 26.2852 8.30788Z" fill="#40FFBF"/>
</g>
<defs>
<clipPath id="clip0">
<rect width="33" height="28.3871" fill="white"/>
</clipPath>
</defs>
</svg>
