<svg width="33" height="28" fill="none" xmlns="http://www.w3.org/2000/svg">
<g clip-path="url(#clip0)">
<path d="M26.749 1.79462H24.9157V3.58921H26.749V1.79462Z" fill="#ECECEC"/>
<path d="M26.749 3.61078H24.9157V5.40537H26.749V3.61078Z" fill="#ECECEC"/>
<path d="M26.749 5.40541H24.9157V7.20001H26.749V5.40541Z" fill="#ECECEC"/>
<path d="M26.749 7.20003H24.9157V8.99462H26.749V7.20003Z" fill="#ECECEC"/>
<path d="M26.749 9.01619H24.9157V10.8108H26.749V9.01619Z" fill="#ECECEC"/>
<path d="M26.749 10.8108H24.9157V12.6054H26.749V10.8108Z" fill="#ECECEC"/>
<path d="M26.749 12.627H24.9157V14.4216H26.749V12.627Z" fill="#ECECEC"/>
<path d="M28.5824 0H26.749V1.79459H28.5824V0Z" fill="#ECECEC"/>
<path d="M28.5824 1.79462H26.749V3.58921H28.5824V1.79462Z" fill="#ECECEC"/>
<path d="M28.5824 3.61078H26.749V5.40537H28.5824V3.61078Z" fill="#ECECEC"/>
<path d="M28.5824 5.40541H26.749V7.20001H28.5824V5.40541Z" fill="#ECECEC"/>
<path d="M28.5824 7.20003H26.749V8.99462H28.5824V7.20003Z" fill="#ECECEC"/>
<path d="M28.5824 9.01619H26.749V10.8108H28.5824V9.01619Z" fill="#ECECEC"/>
<path d="M24.9157 3.61078H23.0823V5.40537H24.9157V3.61078Z" fill="#ECECEC"/>
<path d="M24.9157 5.40541H23.0823V7.20001H24.9157V5.40541Z" fill="#ECECEC"/>
<path d="M24.9157 7.20003H23.0823V8.99462H24.9157V7.20003Z" fill="#ECECEC"/>
<path d="M24.9157 9.01619H23.0823V10.8108H24.9157V9.01619Z" fill="#ECECEC"/>
<path d="M24.9157 10.8108H23.0823V12.6054H24.9157V10.8108Z" fill="#ECECEC"/>
<path d="M24.9157 12.627H23.0823V14.4216H24.9157V12.627Z" fill="#ECECEC"/>
<path d="M24.9157 14.4216H23.0823V16.2162H24.9157V14.4216Z" fill="#ECECEC"/>
<path d="M24.9157 16.2162H23.0823V18.0108H24.9157V16.2162Z" fill="#ECECEC"/>
<path d="M24.9157 18.0325H23.0823V19.827H24.9157V18.0325Z" fill="#ECECEC"/>
<path d="M24.9157 25.2324H23.0823V27.027H24.9157V25.2324Z" fill="#ECECEC"/>
<path d="M23.0603 1.79462H21.2269V3.58921H23.0603V1.79462Z" fill="#ECECEC"/>
<path d="M23.0603 3.61078H21.2269V5.40537H23.0603V3.61078Z" fill="#ECECEC"/>
<path d="M23.0603 5.40541H21.2269V7.20001H23.0603V5.40541Z" fill="#ECECEC"/>
<path d="M23.0603 7.20003H21.2269V8.99462H23.0603V7.20003Z" fill="#ECECEC"/>
<path d="M23.0603 9.01619H21.2269V10.8108H23.0603V9.01619Z" fill="#ECECEC"/>
<path d="M23.0603 10.8108H21.2269V12.6054H23.0603V10.8108Z" fill="#ECECEC"/>
<path d="M23.0603 12.627H21.2269V14.4216H23.0603V12.627Z" fill="#ECECEC"/>
<path d="M23.0603 14.4216H21.2269V16.2162H23.0603V14.4216Z" fill="#ECECEC"/>
<path d="M23.0603 16.2162H21.2269V18.0108H23.0603V16.2162Z" fill="#ECECEC"/>
<path d="M23.0603 18.0325H21.2269V19.827H23.0603V18.0325Z" fill="#ECECEC"/>
<path d="M23.0603 19.827H21.2269V21.6216H23.0603V19.827Z" fill="#ECECEC"/>
<path d="M23.0603 21.6216H21.2269V23.4162H23.0603V21.6216Z" fill="#ECECEC"/>
<path d="M23.0603 23.4379H21.2269V25.2324H23.0603V23.4379Z" fill="#ECECEC"/>
<path d="M23.0603 25.2324H21.2269V27.027H23.0603V25.2324Z" fill="#ECECEC"/>
<path d="M21.2269 0H19.3936V1.79459H21.2269V0Z" fill="#ECECEC"/>
<path d="M21.2269 1.79462H19.3936V3.58921H21.2269V1.79462Z" fill="#ECECEC"/>
<path d="M21.2269 3.61078H19.3936V5.40537H21.2269V3.61078Z" fill="#ECECEC"/>
<path d="M21.2269 5.40541H19.3936V7.20001H21.2269V5.40541Z" fill="#ECECEC"/>
<path d="M21.2269 7.20003H19.3936V8.99462H21.2269V7.20003Z" fill="#ECECEC"/>
<path d="M21.2269 9.01619H19.3936V10.8108H21.2269V9.01619Z" fill="#ECECEC"/>
<path d="M21.2269 10.8108H19.3936V12.6054H21.2269V10.8108Z" fill="#ECECEC"/>
<path d="M21.2269 12.627H19.3936V14.4216H21.2269V12.627Z" fill="#ECECEC"/>
<path d="M21.2269 14.4216H19.3936V16.2162H21.2269V14.4216Z" fill="#ECECEC"/>
<path d="M21.2269 16.2162H19.3936V18.0108H21.2269V16.2162Z" fill="#ECECEC"/>
<path d="M21.2269 18.0325H19.3936V19.827H21.2269V18.0325Z" fill="#ECECEC"/>
<path d="M21.2269 19.827H19.3936V21.6216H21.2269V19.827Z" fill="#ECECEC"/>
<path d="M21.2269 21.6216H19.3936V23.4162H21.2269V21.6216Z" fill="#ECECEC"/>
<path d="M21.2269 23.4379H19.3936V25.2324H21.2269V23.4379Z" fill="#ECECEC"/>
<path d="M19.3715 7.20003H17.5382V8.99462H19.3715V7.20003Z" fill="#ECECEC"/>
<path d="M19.3715 9.01619H17.5382V10.8108H19.3715V9.01619Z" fill="#ECECEC"/>
<path d="M19.3715 10.8108H17.5382V12.6054H19.3715V10.8108Z" fill="#ECECEC"/>
<path d="M19.3715 12.627H17.5382V14.4216H19.3715V12.627Z" fill="#ECECEC"/>
<path d="M19.3715 14.4216H17.5382V16.2162H19.3715V14.4216Z" fill="#ECECEC"/>
<path d="M19.3715 16.2162H17.5382V18.0108H19.3715V16.2162Z" fill="#ECECEC"/>
<path d="M17.5382 5.40541H15.7048V7.20001H17.5382V5.40541Z" fill="#ECECEC"/>
<path d="M17.5382 7.20003H15.7048V8.99462H17.5382V7.20003Z" fill="#ECECEC"/>
<path d="M17.5382 9.01619H15.7048V10.8108H17.5382V9.01619Z" fill="#ECECEC"/>
<path d="M17.5382 10.8108H15.7048V12.6054H17.5382V10.8108Z" fill="#ECECEC"/>
<path d="M17.5382 12.627H15.7048V14.4216H17.5382V12.627Z" fill="#ECECEC"/>
<path d="M17.5382 14.4216H15.7048V16.2162H17.5382V14.4216Z" fill="#ECECEC"/>
<path d="M15.7049 3.61078H13.8715V5.40537H15.7049V3.61078Z" fill="#ECECEC"/>
<path d="M15.7049 5.40541H13.8715V7.20001H15.7049V5.40541Z" fill="#ECECEC"/>
<path d="M15.7049 7.20003H13.8715V8.99462H15.7049V7.20003Z" fill="#ECECEC"/>
<path d="M15.7049 9.01619H13.8715V10.8108H15.7049V9.01619Z" fill="#ECECEC"/>
<path d="M15.7049 10.8108H13.8715V12.6054H15.7049V10.8108Z" fill="#ECECEC"/>
<path d="M15.7049 12.627H13.8715V14.4216H15.7049V12.627Z" fill="#ECECEC"/>
<path d="M13.8494 3.61078H12.0161V5.40537H13.8494V3.61078Z" fill="#ECECEC"/>
<path d="M13.8494 5.40541H12.0161V7.20001H13.8494V5.40541Z" fill="#ECECEC"/>
<path d="M13.8494 7.20003H12.0161V8.99462H13.8494V7.20003Z" fill="#ECECEC"/>
<path d="M13.8494 9.01619H12.0161V10.8108H13.8494V9.01619Z" fill="#ECECEC"/>
<path d="M13.8494 10.8108H12.0161V12.6054H13.8494V10.8108Z" fill="#ECECEC"/>
<path d="M12.0161 3.61078H10.1827V5.40537H12.0161V3.61078Z" fill="#ECECEC"/>
<path d="M12.0161 5.40541H10.1827V7.20001H12.0161V5.40541Z" fill="#ECECEC"/>
<path d="M12.0161 7.20003H10.1827V8.99462H12.0161V7.20003Z" fill="#ECECEC"/>
<path d="M12.0161 9.01619H10.1827V10.8108H12.0161V9.01619Z" fill="#ECECEC"/>
<path d="M12.0161 10.8108H10.1827V12.6054H12.0161V10.8108Z" fill="#ECECEC"/>
<path d="M12.0161 12.627H10.1827V14.4216H12.0161V12.627Z" fill="#ECECEC"/>
<path d="M10.1828 3.61078H8.34943V5.40537H10.1828V3.61078Z" fill="#ECECEC"/>
<path d="M10.1828 5.40541H8.34943V7.20001H10.1828V5.40541Z" fill="#ECECEC"/>
<path d="M10.1828 7.20003H8.34943V8.99462H10.1828V7.20003Z" fill="#ECECEC"/>
<path d="M10.1828 9.01619H8.34943V10.8108H10.1828V9.01619Z" fill="#ECECEC"/>
<path d="M10.1828 10.8108H8.34943V12.6054H10.1828V10.8108Z" fill="#ECECEC"/>
<path d="M10.1828 12.627H8.34943V14.4216H10.1828V12.627Z" fill="#ECECEC"/>
<path d="M10.1828 14.4216H8.34943V16.2162H10.1828V14.4216Z" fill="#ECECEC"/>
<path d="M10.1828 25.2324H8.34943V27.027H10.1828V25.2324Z" fill="#ECECEC"/>
<path d="M8.32735 5.40541H6.49402V7.20001H8.32735V5.40541Z" fill="#ECECEC"/>
<path d="M8.32735 7.20003H6.49402V8.99462H8.32735V7.20003Z" fill="#ECECEC"/>
<path d="M8.32735 9.01619H6.49402V10.8108H8.32735V9.01619Z" fill="#ECECEC"/>
<path d="M8.32735 10.8108H6.49402V12.6054H8.32735V10.8108Z" fill="#ECECEC"/>
<path d="M8.32735 12.627H6.49402V14.4216H8.32735V12.627Z" fill="#ECECEC"/>
<path d="M8.32735 14.4216H6.49402V16.2162H8.32735V14.4216Z" fill="#ECECEC"/>
<path d="M8.32735 16.2162H6.49402V18.0108H8.32735V16.2162Z" fill="#ECECEC"/>
<path d="M8.32735 18.0325H6.49402V19.827H8.32735V18.0325Z" fill="#ECECEC"/>
<path d="M8.32735 19.827H6.49402V21.6216H8.32735V19.827Z" fill="#ECECEC"/>
<path d="M8.32735 21.6216H6.49402V23.4162H8.32735V21.6216Z" fill="#ECECEC"/>
<path d="M8.32735 23.4379H6.49402V25.2324H8.32735V23.4379Z" fill="#ECECEC"/>
<path d="M8.32735 25.2324H6.49402V27.027H8.32735V25.2324Z" fill="#ECECEC"/>
<path d="M6.49404 9.01619H4.66071V10.8108H6.49404V9.01619Z" fill="#ECECEC"/>
<path d="M6.49404 7.20003H4.66071V8.99462H6.49404V7.20003Z" fill="#ECECEC"/>
<path d="M6.49404 10.8108H4.66071V12.6054H6.49404V10.8108Z" fill="#ECECEC"/>
<path d="M6.49404 12.627H4.66071V14.4216H6.49404V12.627Z" fill="#ECECEC"/>
<path d="M6.49404 14.4216H4.66071V16.2162H6.49404V14.4216Z" fill="#ECECEC"/>
<path d="M6.49404 16.2162H4.66071V18.0108H6.49404V16.2162Z" fill="#ECECEC"/>
<path d="M6.49404 18.0325H4.66071V19.827H6.49404V18.0325Z" fill="#ECECEC"/>
<path d="M6.49404 19.827H4.66071V21.6216H6.49404V19.827Z" fill="#ECECEC"/>
<path d="M6.49404 21.6216H4.66071V23.4162H6.49404V21.6216Z" fill="#ECECEC"/>
<path d="M6.49404 23.4379H4.66071V25.2324H6.49404V23.4379Z" fill="#ECECEC"/>
<path d="M4.66067 0H2.82733V1.79459H4.66067V0Z" fill="#ECECEC"/>
<path d="M4.66067 9.01619H2.82733V10.8108H4.66067V9.01619Z" fill="#ECECEC"/>
<path d="M4.66067 10.8108H2.82733V12.6054H4.66067V10.8108Z" fill="#ECECEC"/>
<path d="M4.66067 12.627H2.82733V14.4216H4.66067V12.627Z" fill="#ECECEC"/>
<path d="M4.66067 14.4216H2.82733V16.2162H4.66067V14.4216Z" fill="#ECECEC"/>
<path d="M2.80526 1.79462H0.971924V3.58921H2.80526V1.79462Z" fill="#ECECEC"/>
<path d="M2.80526 3.61078H0.971924V5.40537H2.80526V3.61078Z" fill="#ECECEC"/>
<path d="M2.80526 5.40541H0.971924V7.20001H2.80526V5.40541Z" fill="#ECECEC"/>
<path d="M2.80526 7.20003H0.971924V8.99462H2.80526V7.20003Z" fill="#ECECEC"/>
<path d="M25.8213 2.7027H23.988V4.49729H25.8213V2.7027Z" stroke="#ECECEC" stroke-width="0.5" stroke-miterlimit="10"/>
<path d="M25.8213 4.49725H23.988V6.29185H25.8213V4.49725Z" stroke="#ECECEC" stroke-width="0.5" stroke-miterlimit="10"/>
<path d="M25.8213 6.31349H23.988V8.10809H25.8213V6.31349Z" stroke="#ECECEC" stroke-width="0.5" stroke-miterlimit="10"/>
<path d="M25.8213 8.10811H23.988V9.9027H25.8213V8.10811Z" stroke="#ECECEC" stroke-width="0.5" stroke-miterlimit="10"/>
<path d="M25.8213 9.90266H23.988V11.6973H25.8213V9.90266Z" stroke="#ECECEC" stroke-width="0.5" stroke-miterlimit="10"/>
<path d="M25.8213 11.7189H23.988V13.5135H25.8213V11.7189Z" stroke="#ECECEC" stroke-width="0.5" stroke-miterlimit="10"/>
<path d="M25.8213 13.5135H23.988V15.3081H25.8213V13.5135Z" stroke="#ECECEC" stroke-width="0.5" stroke-miterlimit="10"/>
<path d="M27.6767 0.908081H25.8434V2.70268H27.6767V0.908081Z" stroke="#ECECEC" stroke-width="0.5" stroke-miterlimit="10"/>
<path d="M27.6767 2.7027H25.8434V4.49729H27.6767V2.7027Z" stroke="#ECECEC" stroke-width="0.5" stroke-miterlimit="10"/>
<path d="M27.6767 4.49725H25.8434V6.29185H27.6767V4.49725Z" stroke="#ECECEC" stroke-width="0.5" stroke-miterlimit="10"/>
<path d="M27.6767 6.31349H25.8434V8.10809H27.6767V6.31349Z" stroke="#ECECEC" stroke-width="0.5" stroke-miterlimit="10"/>
<path d="M27.6767 8.10811H25.8434V9.9027H27.6767V8.10811Z" stroke="#ECECEC" stroke-width="0.5" stroke-miterlimit="10"/>
<path d="M27.6767 9.90266H25.8434V11.6973H27.6767V9.90266Z" stroke="#ECECEC" stroke-width="0.5" stroke-miterlimit="10"/>
<path d="M23.988 4.49725H22.1547V6.29185H23.988V4.49725Z" stroke="#ECECEC" stroke-width="0.5" stroke-miterlimit="10"/>
<path d="M23.988 6.31349H22.1547V8.10809H23.988V6.31349Z" stroke="#ECECEC" stroke-width="0.5" stroke-miterlimit="10"/>
<path d="M23.988 8.10811H22.1547V9.9027H23.988V8.10811Z" stroke="#ECECEC" stroke-width="0.5" stroke-miterlimit="10"/>
<path d="M23.988 9.90266H22.1547V11.6973H23.988V9.90266Z" stroke="#ECECEC" stroke-width="0.5" stroke-miterlimit="10"/>
<path d="M23.988 11.7189H22.1547V13.5135H23.988V11.7189Z" stroke="#ECECEC" stroke-width="0.5" stroke-miterlimit="10"/>
<path d="M23.988 13.5135H22.1547V15.3081H23.988V13.5135Z" stroke="#ECECEC" stroke-width="0.5" stroke-miterlimit="10"/>
<path d="M23.988 15.3297H22.1547V17.1243H23.988V15.3297Z" stroke="#ECECEC" stroke-width="0.5" stroke-miterlimit="10"/>
<path d="M23.988 17.1243H22.1547V18.9189H23.988V17.1243Z" stroke="#ECECEC" stroke-width="0.5" stroke-miterlimit="10"/>
<path d="M23.988 18.9189H22.1547V20.7135H23.988V18.9189Z" stroke="#ECECEC" stroke-width="0.5" stroke-miterlimit="10"/>
<path d="M23.988 26.1405H22.1547V27.9351H23.988V26.1405Z" stroke="#ECECEC" stroke-width="0.5" stroke-miterlimit="10"/>
<path d="M22.1325 2.7027H20.2992V4.49729H22.1325V2.7027Z" stroke="#ECECEC" stroke-width="0.5" stroke-miterlimit="10"/>
<path d="M22.1325 4.49725H20.2992V6.29185H22.1325V4.49725Z" stroke="#ECECEC" stroke-width="0.5" stroke-miterlimit="10"/>
<path d="M22.1325 6.31349H20.2992V8.10809H22.1325V6.31349Z" stroke="#ECECEC" stroke-width="0.5" stroke-miterlimit="10"/>
<path d="M22.1325 8.10811H20.2992V9.9027H22.1325V8.10811Z" stroke="#ECECEC" stroke-width="0.5" stroke-miterlimit="10"/>
<path d="M22.1325 9.90266H20.2992V11.6973H22.1325V9.90266Z" stroke="#ECECEC" stroke-width="0.5" stroke-miterlimit="10"/>
<path d="M22.1325 11.7189H20.2992V13.5135H22.1325V11.7189Z" stroke="#ECECEC" stroke-width="0.5" stroke-miterlimit="10"/>
<path d="M22.1325 13.5135H20.2992V15.3081H22.1325V13.5135Z" stroke="#ECECEC" stroke-width="0.5" stroke-miterlimit="10"/>
<path d="M22.1325 15.3297H20.2992V17.1243H22.1325V15.3297Z" stroke="#ECECEC" stroke-width="0.5" stroke-miterlimit="10"/>
<path d="M22.1325 17.1243H20.2992V18.9189H22.1325V17.1243Z" stroke="#ECECEC" stroke-width="0.5" stroke-miterlimit="10"/>
<path d="M22.1325 18.9189H20.2992V20.7135H22.1325V18.9189Z" stroke="#ECECEC" stroke-width="0.5" stroke-miterlimit="10"/>
<path d="M22.1325 20.7351H20.2992V22.5297H22.1325V20.7351Z" stroke="#ECECEC" stroke-width="0.5" stroke-miterlimit="10"/>
<path d="M22.1325 22.5297H20.2992V24.3243H22.1325V22.5297Z" stroke="#ECECEC" stroke-width="0.5" stroke-miterlimit="10"/>
<path d="M22.1325 24.3243H20.2992V26.1189H22.1325V24.3243Z" stroke="#ECECEC" stroke-width="0.5" stroke-miterlimit="10"/>
<path d="M22.1325 26.1405H20.2992V27.9351H22.1325V26.1405Z" stroke="#ECECEC" stroke-width="0.5" stroke-miterlimit="10"/>
<path d="M20.2992 0.908081H18.4659V2.70268H20.2992V0.908081Z" stroke="#ECECEC" stroke-width="0.5" stroke-miterlimit="10"/>
<path d="M20.2992 2.7027H18.4659V4.49729H20.2992V2.7027Z" stroke="#ECECEC" stroke-width="0.5" stroke-miterlimit="10"/>
<path d="M20.2992 4.49725H18.4659V6.29185H20.2992V4.49725Z" stroke="#ECECEC" stroke-width="0.5" stroke-miterlimit="10"/>
<path d="M20.2992 6.31349H18.4659V8.10809H20.2992V6.31349Z" stroke="#ECECEC" stroke-width="0.5" stroke-miterlimit="10"/>
<path d="M20.2992 8.10811H18.4659V9.9027H20.2992V8.10811Z" stroke="#ECECEC" stroke-width="0.5" stroke-miterlimit="10"/>
<path d="M20.2992 9.90266H18.4659V11.6973H20.2992V9.90266Z" stroke="#ECECEC" stroke-width="0.5" stroke-miterlimit="10"/>
<path d="M20.2992 11.7189H18.4659V13.5135H20.2992V11.7189Z" stroke="#ECECEC" stroke-width="0.5" stroke-miterlimit="10"/>
<path d="M20.2992 13.5135H18.4659V15.3081H20.2992V13.5135Z" stroke="#ECECEC" stroke-width="0.5" stroke-miterlimit="10"/>
<path d="M20.2992 15.3297H18.4659V17.1243H20.2992V15.3297Z" stroke="#ECECEC" stroke-width="0.5" stroke-miterlimit="10"/>
<path d="M20.2992 17.1243H18.4659V18.9189H20.2992V17.1243Z" stroke="#ECECEC" stroke-width="0.5" stroke-miterlimit="10"/>
<path d="M20.2992 18.9189H18.4659V20.7135H20.2992V18.9189Z" stroke="#ECECEC" stroke-width="0.5" stroke-miterlimit="10"/>
<path d="M20.2992 20.7351H18.4659V22.5297H20.2992V20.7351Z" stroke="#ECECEC" stroke-width="0.5" stroke-miterlimit="10"/>
<path d="M20.2992 22.5297H18.4659V24.3243H20.2992V22.5297Z" stroke="#ECECEC" stroke-width="0.5" stroke-miterlimit="10"/>
<path d="M20.2992 24.3243H18.4659V26.1189H20.2992V24.3243Z" stroke="#ECECEC" stroke-width="0.5" stroke-miterlimit="10"/>
<path d="M18.4659 8.10811H16.6326V9.9027H18.4659V8.10811Z" stroke="#ECECEC" stroke-width="0.5" stroke-miterlimit="10"/>
<path d="M18.4659 9.90266H16.6326V11.6973H18.4659V9.90266Z" stroke="#ECECEC" stroke-width="0.5" stroke-miterlimit="10"/>
<path d="M18.4659 11.7189H16.6326V13.5135H18.4659V11.7189Z" stroke="#ECECEC" stroke-width="0.5" stroke-miterlimit="10"/>
<path d="M18.4659 13.5135H16.6326V15.3081H18.4659V13.5135Z" stroke="#ECECEC" stroke-width="0.5" stroke-miterlimit="10"/>
<path d="M18.4659 15.3297H16.6326V17.1243H18.4659V15.3297Z" stroke="#ECECEC" stroke-width="0.5" stroke-miterlimit="10"/>
<path d="M18.4659 17.1243H16.6326V18.9189H18.4659V17.1243Z" stroke="#ECECEC" stroke-width="0.5" stroke-miterlimit="10"/>
<path d="M16.6104 6.31349H14.7771V8.10809H16.6104V6.31349Z" stroke="#ECECEC" stroke-width="0.5" stroke-miterlimit="10"/>
<path d="M16.6104 8.10811H14.7771V9.9027H16.6104V8.10811Z" stroke="#ECECEC" stroke-width="0.5" stroke-miterlimit="10"/>
<path d="M16.6104 9.90266H14.7771V11.6973H16.6104V9.90266Z" stroke="#ECECEC" stroke-width="0.5" stroke-miterlimit="10"/>
<path d="M16.6104 11.7189H14.7771V13.5135H16.6104V11.7189Z" stroke="#ECECEC" stroke-width="0.5" stroke-miterlimit="10"/>
<path d="M16.6104 13.5135H14.7771V15.3081H16.6104V13.5135Z" stroke="#ECECEC" stroke-width="0.5" stroke-miterlimit="10"/>
<path d="M16.6104 15.3297H14.7771V17.1243H16.6104V15.3297Z" stroke="#ECECEC" stroke-width="0.5" stroke-miterlimit="10"/>
<path d="M14.7771 4.49725H12.9438V6.29185H14.7771V4.49725Z" stroke="#ECECEC" stroke-width="0.5" stroke-miterlimit="10"/>
<path d="M14.7771 6.31349H12.9438V8.10809H14.7771V6.31349Z" stroke="#ECECEC" stroke-width="0.5" stroke-miterlimit="10"/>
<path d="M14.7771 8.10811H12.9438V9.9027H14.7771V8.10811Z" stroke="#ECECEC" stroke-width="0.5" stroke-miterlimit="10"/>
<path d="M14.7771 9.90266H12.9438V11.6973H14.7771V9.90266Z" stroke="#ECECEC" stroke-width="0.5" stroke-miterlimit="10"/>
<path d="M14.7771 11.7189H12.9438V13.5135H14.7771V11.7189Z" stroke="#ECECEC" stroke-width="0.5" stroke-miterlimit="10"/>
<path d="M14.7771 13.5135H12.9438V15.3081H14.7771V13.5135Z" stroke="#ECECEC" stroke-width="0.5" stroke-miterlimit="10"/>
<path d="M12.9438 4.49725H11.1105V6.29185H12.9438V4.49725Z" stroke="#ECECEC" stroke-width="0.5" stroke-miterlimit="10"/>
<path d="M12.9438 6.31349H11.1105V8.10809H12.9438V6.31349Z" stroke="#ECECEC" stroke-width="0.5" stroke-miterlimit="10"/>
<path d="M12.9438 8.10811H11.1105V9.9027H12.9438V8.10811Z" stroke="#ECECEC" stroke-width="0.5" stroke-miterlimit="10"/>
<path d="M12.9438 9.90266H11.1105V11.6973H12.9438V9.90266Z" stroke="#ECECEC" stroke-width="0.5" stroke-miterlimit="10"/>
<path d="M12.9438 11.7189H11.1105V13.5135H12.9438V11.7189Z" stroke="#ECECEC" stroke-width="0.5" stroke-miterlimit="10"/>
<path d="M11.0883 4.49725H9.255V6.29185H11.0883V4.49725Z" stroke="#ECECEC" stroke-width="0.5" stroke-miterlimit="10"/>
<path d="M11.0883 6.31349H9.255V8.10809H11.0883V6.31349Z" stroke="#ECECEC" stroke-width="0.5" stroke-miterlimit="10"/>
<path d="M11.0883 8.10811H9.255V9.9027H11.0883V8.10811Z" stroke="#ECECEC" stroke-width="0.5" stroke-miterlimit="10"/>
<path d="M11.0883 9.90266H9.255V11.6973H11.0883V9.90266Z" stroke="#ECECEC" stroke-width="0.5" stroke-miterlimit="10"/>
<path d="M11.0883 11.7189H9.255V13.5135H11.0883V11.7189Z" stroke="#ECECEC" stroke-width="0.5" stroke-miterlimit="10"/>
<path d="M11.0883 13.5135H9.255V15.3081H11.0883V13.5135Z" stroke="#ECECEC" stroke-width="0.5" stroke-miterlimit="10"/>
<path d="M9.25503 4.49725H7.42169V6.29185H9.25503V4.49725Z" stroke="#ECECEC" stroke-width="0.5" stroke-miterlimit="10"/>
<path d="M9.25503 6.31349H7.42169V8.10809H9.25503V6.31349Z" stroke="#ECECEC" stroke-width="0.5" stroke-miterlimit="10"/>
<path d="M9.25503 8.10811H7.42169V9.9027H9.25503V8.10811Z" stroke="#ECECEC" stroke-width="0.5" stroke-miterlimit="10"/>
<path d="M9.25503 9.90266H7.42169V11.6973H9.25503V9.90266Z" stroke="#ECECEC" stroke-width="0.5" stroke-miterlimit="10"/>
<path d="M9.25503 11.7189H7.42169V13.5135H9.25503V11.7189Z" stroke="#ECECEC" stroke-width="0.5" stroke-miterlimit="10"/>
<path d="M9.25503 13.5135H7.42169V15.3081H9.25503V13.5135Z" stroke="#ECECEC" stroke-width="0.5" stroke-miterlimit="10"/>
<path d="M9.25503 15.3297H7.42169V17.1243H9.25503V15.3297Z" stroke="#ECECEC" stroke-width="0.5" stroke-miterlimit="10"/>
<path d="M9.25503 26.1405H7.42169V27.9351H9.25503V26.1405Z" stroke="#ECECEC" stroke-width="0.5" stroke-miterlimit="10"/>
<path d="M7.42171 6.31349H5.58838V8.10809H7.42171V6.31349Z" stroke="#ECECEC" stroke-width="0.5" stroke-miterlimit="10"/>
<path d="M7.42171 8.10811H5.58838V9.9027H7.42171V8.10811Z" stroke="#ECECEC" stroke-width="0.5" stroke-miterlimit="10"/>
<path d="M7.42171 9.90266H5.58838V11.6973H7.42171V9.90266Z" stroke="#ECECEC" stroke-width="0.5" stroke-miterlimit="10"/>
<path d="M7.42171 11.7189H5.58838V13.5135H7.42171V11.7189Z" stroke="#ECECEC" stroke-width="0.5" stroke-miterlimit="10"/>
<path d="M7.42171 13.5135H5.58838V15.3081H7.42171V13.5135Z" stroke="#ECECEC" stroke-width="0.5" stroke-miterlimit="10"/>
<path d="M7.42171 15.3297H5.58838V17.1243H7.42171V15.3297Z" stroke="#ECECEC" stroke-width="0.5" stroke-miterlimit="10"/>
<path d="M7.42171 17.1243H5.58838V18.9189H7.42171V17.1243Z" stroke="#ECECEC" stroke-width="0.5" stroke-miterlimit="10"/>
<path d="M7.42171 18.9189H5.58838V20.7135H7.42171V18.9189Z" stroke="#ECECEC" stroke-width="0.5" stroke-miterlimit="10"/>
<path d="M7.42171 20.7351H5.58838V22.5297H7.42171V20.7351Z" stroke="#ECECEC" stroke-width="0.5" stroke-miterlimit="10"/>
<path d="M7.42171 22.5297H5.58838V24.3243H7.42171V22.5297Z" stroke="#ECECEC" stroke-width="0.5" stroke-miterlimit="10"/>
<path d="M7.42171 24.3243H5.58838V26.1189H7.42171V24.3243Z" stroke="#ECECEC" stroke-width="0.5" stroke-miterlimit="10"/>
<path d="M7.42171 26.1405H5.58838V27.9351H7.42171V26.1405Z" stroke="#ECECEC" stroke-width="0.5" stroke-miterlimit="10"/>
<path d="M5.56624 9.90266H3.73291V11.6973H5.56624V9.90266Z" stroke="#ECECEC" stroke-width="0.5" stroke-miterlimit="10"/>
<path d="M5.56624 8.10811H3.73291V9.9027H5.56624V8.10811Z" stroke="#ECECEC" stroke-width="0.5" stroke-miterlimit="10"/>
<path d="M5.56624 11.7189H3.73291V13.5135H5.56624V11.7189Z" stroke="#ECECEC" stroke-width="0.5" stroke-miterlimit="10"/>
<path d="M5.56624 13.5135H3.73291V15.3081H5.56624V13.5135Z" stroke="#ECECEC" stroke-width="0.5" stroke-miterlimit="10"/>
<path d="M5.56624 15.3297H3.73291V17.1243H5.56624V15.3297Z" stroke="#ECECEC" stroke-width="0.5" stroke-miterlimit="10"/>
<path d="M5.56624 17.1243H3.73291V18.9189H5.56624V17.1243Z" stroke="#ECECEC" stroke-width="0.5" stroke-miterlimit="10"/>
<path d="M5.56624 18.9189H3.73291V20.7135H5.56624V18.9189Z" stroke="#ECECEC" stroke-width="0.5" stroke-miterlimit="10"/>
<path d="M5.56624 20.7351H3.73291V22.5297H5.56624V20.7351Z" stroke="#ECECEC" stroke-width="0.5" stroke-miterlimit="10"/>
<path d="M5.56624 22.5297H3.73291V24.3243H5.56624V22.5297Z" stroke="#ECECEC" stroke-width="0.5" stroke-miterlimit="10"/>
<path d="M5.56624 24.3243H3.73291V26.1189H5.56624V24.3243Z" stroke="#ECECEC" stroke-width="0.5" stroke-miterlimit="10"/>
<path d="M3.73293 0.908081H1.8996V2.70268H3.73293V0.908081Z" stroke="#ECECEC" stroke-width="0.5" stroke-miterlimit="10"/>
<path d="M3.73293 9.90266H1.8996V11.6973H3.73293V9.90266Z" stroke="#ECECEC" stroke-width="0.5" stroke-miterlimit="10"/>
<path d="M3.73293 11.7189H1.8996V13.5135H3.73293V11.7189Z" stroke="#ECECEC" stroke-width="0.5" stroke-miterlimit="10"/>
<path d="M3.73293 13.5135H1.8996V15.3081H3.73293V13.5135Z" stroke="#ECECEC" stroke-width="0.5" stroke-miterlimit="10"/>
<path d="M3.73293 15.3297H1.8996V17.1243H3.73293V15.3297Z" stroke="#ECECEC" stroke-width="0.5" stroke-miterlimit="10"/>
<path d="M1.87752 2.7027H0.0441895V4.49729H1.87752V2.7027Z" stroke="#ECECEC" stroke-width="0.5" stroke-miterlimit="10"/>
<path d="M1.87752 4.49725H0.0441895V6.29185H1.87752V4.49725Z" stroke="#ECECEC" stroke-width="0.5" stroke-miterlimit="10"/>
<path d="M1.87752 6.31349H0.0441895V8.10809H1.87752V6.31349Z" stroke="#ECECEC" stroke-width="0.5" stroke-miterlimit="10"/>
<path d="M1.87752 8.10811H0.0441895V9.9027H1.87752V8.10811Z" stroke="#ECECEC" stroke-width="0.5" stroke-miterlimit="10"/>
<path d="M26.2852 8.1946C26.1085 8.34595 25.7992 8.64866 25.4016 9.08109H25.1366L24.4297 8.1946V7.95676L26.0864 6.0973L26.3293 5.9892C26.6165 6.03244 27.3233 6.20541 28.4277 6.52974C28.5603 6.55136 28.8916 6.65947 29.4217 6.81082C29.9739 6.96217 30.3494 7.04866 30.5703 7.04866C30.7249 7.04866 30.8795 6.98379 31.0563 6.85406C31.233 6.72433 31.4538 6.52974 31.7631 6.22703L32.0502 5.92433H32.2932L33 6.7892V7.02703L31.3434 8.88649L31.1004 8.9946C30.7028 8.95136 29.9739 8.75676 28.9137 8.43244C28.494 8.30271 28.0964 8.1946 27.6988 8.10812C27.3233 8.00001 27.0362 7.95676 26.9036 7.95676C26.6607 7.95676 26.484 8.04325 26.2852 8.1946Z" fill="#40FFBF"/>
</g>
<defs>
<clipPath id="clip0">
<rect width="33" height="28" fill="white"/>
</clipPath>
</defs>
</svg>
