<svg width="156" height="111" xmlns="http://www.w3.org/2000/svg">
<g clip-path="url(#clip0)" filter="url(#filter0_d)">
<path d="M49.7665 20.9997L49.7 29.1845L43.6445 31.3139L43.7111 23.1956L49.7665 20.9997Z" fill="#C4C4C4"/>
<path d="M43.7111 23.1956L43.6446 31.3139L43.1788 31.0478L43.2453 22.9294L43.7111 23.1956Z" fill="#898989"/>
<path d="M43.2453 22.9294V31.0477C42.713 30.0496 42.1806 29.2511 41.5817 28.5856C40.9828 27.9202 40.1843 27.3213 39.1862 26.7889C38.6538 26.4562 38.1215 26.2566 37.5891 26.057V17.9387C38.1215 18.1383 38.6538 18.4045 39.1862 18.6706C40.1843 19.203 40.9828 19.8684 41.5817 20.4673C42.1806 21.1327 42.713 21.9313 43.2453 22.9294Z" fill="#858585"/>
<path d="M37.5891 17.8721V25.9905C37.323 25.8574 36.9902 25.7908 36.7241 25.6577V17.5394C36.9902 17.6725 37.323 17.7391 37.5891 17.8721Z" fill="#8A8A8A"/>
<path d="M36.724 17.5394V25.6577C36.5244 25.5912 36.3248 25.5246 36.1251 25.5246V17.4063C36.3248 17.4729 36.5244 17.5394 36.724 17.5394Z" fill="#8F8F8F"/>
<path d="M36.0586 17.4063V25.5246C35.859 25.4581 35.7259 25.4581 35.5262 25.4581V17.3398C35.7259 17.3398 35.9255 17.4063 36.0586 17.4063Z" fill="#949494"/>
<path d="M35.5928 17.3398V25.4581C35.4597 25.4581 35.3266 25.3916 35.1935 25.3916V17.2733C35.3266 17.2733 35.4597 17.3398 35.5928 17.3398Z" fill="#999999"/>
<path d="M35.127 17.2733V25.3916C34.9939 25.3916 34.8608 25.3916 34.6612 25.3916V17.2733C34.8608 17.2733 34.9939 17.2733 35.127 17.2733Z" fill="#9E9E9E"/>
<path d="M34.7278 17.2733V25.3916C34.5947 25.3916 34.395 25.3916 34.262 25.3916V17.2733C34.395 17.2733 34.5281 17.2733 34.7278 17.2733Z" fill="#A3A3A3"/>
<path d="M34.2619 17.2733V25.3916C34.0623 25.3916 33.8627 25.3916 33.663 25.4581V17.3398C33.8627 17.2733 34.0623 17.2733 34.2619 17.2733Z" fill="#A8A8A8"/>
<path d="M33.663 17.2733V25.3916C33.3969 25.3916 33.1307 25.4581 32.8645 25.5246V17.4063C33.1307 17.3398 33.3969 17.3398 33.663 17.2733Z" fill="#ADADAD"/>
<path d="M32.8645 17.4063V25.5246C32.5318 25.5912 32.1326 25.6577 31.7998 25.7908C31.6667 25.8573 31.5337 25.8573 31.4006 25.9239V17.8056C31.5337 17.739 31.6667 17.739 31.7998 17.6725C32.1326 17.5394 32.5318 17.4729 32.8645 17.4063Z" fill="#B3B3B3"/>
<path d="M31.334 17.8056V25.9239C30.0697 26.3232 28.6723 26.9886 27.0753 27.9202C26.8756 28.0533 26.7425 28.1198 26.5429 28.2529V20.1346C26.676 20.0681 26.8756 19.935 27.0753 19.8019C28.6723 18.8703 30.0697 18.2049 31.334 17.8056Z" fill="#B8B8B8"/>
<path d="M26.6095 20.0681V28.1864C25.5448 28.8518 24.6797 29.4507 24.0808 29.983V21.8647C24.6797 21.3324 25.4782 20.7335 26.6095 20.0681Z" fill="#B3B3B3"/>
<path d="M24.0808 21.8647V29.9831C23.8811 30.1827 23.6815 30.3158 23.5484 30.5154L23.4819 30.5819V22.4636L23.5484 22.3971C23.6815 22.264 23.8811 22.0644 24.0808 21.8647Z" fill="#ADADAD"/>
<path d="M23.4819 22.5302V30.6485C23.3488 30.7816 23.2822 30.9147 23.2157 31.0478V22.9295C23.2822 22.7964 23.3488 22.6633 23.4819 22.5302Z" fill="#A8A8A8"/>
<path d="M23.1491 22.9294V31.0478C23.0826 31.1808 23.0161 31.3139 23.0161 31.447V23.3287C23.0826 23.1956 23.1491 23.0625 23.1491 22.9294Z" fill="#A3A3A3"/>
<path d="M23.0161 23.3287V31.447C22.9495 31.5801 22.9495 31.6467 22.9495 31.7132V23.5949C22.9495 23.5284 23.0161 23.3953 23.0161 23.3287Z" fill="#9E9E9E"/>
<path d="M22.9495 23.5949V31.7132C22.9495 31.7798 22.9495 31.9128 22.9495 31.9794V23.8611C22.883 23.7945 22.883 23.6615 22.9495 23.5949Z" fill="#999999"/>
<path d="M38.4541 27.5209L38.3876 35.6392L35.3266 37.3694V29.2511L38.4541 27.5209Z" fill="#C5C5C5"/>
<path d="M44.5762 16.6743C47.0383 18.0718 48.7684 19.5357 49.7666 20.9997L43.7111 23.1956L43.2453 22.9294C42.713 21.9313 42.1806 21.1328 41.5817 20.4673C40.9828 19.8019 40.1843 19.203 39.1861 18.6706C37.9884 17.9387 36.7906 17.5394 35.5928 17.3398C34.395 17.2067 33.1972 17.2732 31.7998 17.6725C30.4024 18.0718 28.8719 18.7372 27.1418 19.8019C25.4116 20.8 24.2139 21.6651 23.615 22.4636C22.9495 23.2621 22.8164 23.9276 23.1492 24.593C23.4819 25.2585 24.2804 25.9904 25.5447 26.7224C26.2102 27.0551 27.0087 27.4544 28.0734 27.7871L29.6039 26.922L33.0641 24.7927L38.5207 27.5209L35.4597 29.2511L29.9366 32.5117C26.2767 31.5135 23.2822 30.3158 20.8867 28.9183C17.4264 26.922 15.7628 24.8592 15.8294 22.7963C15.8294 20.667 17.626 18.6041 21.0863 16.6078C24.8793 14.4119 28.8054 13.3472 32.798 13.3472C36.8571 13.3472 40.7832 14.4784 44.5762 16.6743Z" fill="white"/>
<path d="M35.3266 29.251V37.3693L29.8035 40.63V32.5117L35.3266 29.251Z" fill="#C5C5C5"/>
<path d="M29.8035 32.5117V40.63C29.6704 40.5635 29.5373 40.5635 29.3377 40.4969V32.3786C29.5373 32.3786 29.6704 32.4451 29.8035 32.5117Z" fill="#8F8F8F"/>
<path d="M29.4043 32.3786V40.4969C27.8072 40.0311 26.2767 39.5653 24.9459 38.9664V30.8481C26.2767 31.3804 27.7407 31.9128 29.4043 32.3786Z" fill="#8A8A8A"/>
<path d="M24.8793 30.8481V38.9664C23.3488 38.3675 21.9514 37.7021 20.7536 36.9701C17.3599 35.1069 15.6963 33.1106 15.6963 31.1143V22.996C15.6963 24.9923 17.3599 26.9886 20.7536 28.9183C21.9514 29.5838 23.3488 30.2492 24.8793 30.8481Z" fill="#858585"/>
<path d="M59.9477 25.9239L59.8812 34.0422L44.8423 42.4267V34.3084L59.9477 25.9239Z" fill="#C5C5C5"/>
<path d="M59.9477 25.9239L44.8423 34.3084L38.0549 38.5006L32.5318 35.3065L39.2527 31.7132L54.2915 22.6633L59.9477 25.9239Z" fill="white"/>
<path d="M44.8424 34.3084V42.4267L38.0549 46.619V38.5007L44.8424 34.3084Z" fill="#C4C4C4"/>
<path d="M38.0549 38.5006V46.6189L32.4653 43.4248L32.5318 35.3065L38.0549 38.5006Z" fill="#898989"/>
<path d="M63.0753 32.5783V40.7631L58.5504 38.3676V30.2493L63.0753 32.5783Z" fill="#8B8B8B"/>
<path d="M64.14 33.1771L64.0734 41.362L63.0753 40.7631V32.5782L64.14 33.1771Z" fill="#898989"/>
<path d="M70.3951 36.837V44.9553L69.3969 44.423L69.4635 36.3047L70.3951 36.837Z" fill="#898989"/>
<path d="M78.9126 36.837L78.8461 44.9553L78.7795 45.4212V37.2363L78.9126 36.837Z" fill="#9F9F9F"/>
<path d="M78.7796 37.2363V45.4212L74.4542 47.5506V39.4323L78.7796 37.2363Z" fill="#C5C5C5"/>
<path d="M74.4542 39.4322V47.5505L70.3951 44.9553V36.837L74.4542 39.4322Z" fill="#878787"/>
<path d="M69.4635 36.3047L69.3969 44.423L58.6834 50.4785V42.2936L69.4635 36.3047Z" fill="#C5C5C5"/>
<path d="M51.896 46.4858V54.6707L46.3729 51.4766L46.4394 43.2917L51.896 46.4858Z" fill="#898989"/>
<path d="M58.6834 42.2936V50.4785L51.896 54.6707V46.4859L58.6834 42.2936Z" fill="#C4C4C4"/>
<path d="M78.9126 36.8371L78.7795 37.2363L74.4542 39.4323L70.3951 36.8371L69.4634 36.3047L58.6834 42.2936L51.896 46.4859L46.4394 43.2918L53.1603 39.765L64.14 33.1772L63.0753 32.5783L58.5503 30.2492L58.6169 29.7834L63.0087 27.6541L78.9126 36.8371Z" fill="white"/>
<path d="M87.5633 41.8278V50.0127L78.713 54.9369V46.8186L87.5633 41.8278Z" fill="#C5C5C5"/>
<path d="M74.1215 49.4138V57.5321L72.4579 58.3971L72.5245 50.2788L74.1215 49.4138Z" fill="#C5C5C5"/>
<path d="M78.1141 51.6097V59.728L74.1215 57.5321V49.4138L78.1141 51.6097Z" fill="#8A8A8A"/>
<path d="M82.506 54.1384V62.3232L78.1141 59.728V51.6097L82.506 54.1384Z" fill="#888888"/>
<path d="M72.5245 50.2788L72.4579 58.3971L65.6705 62.5894L65.737 54.4711L72.5245 50.2788Z" fill="#C4C4C4"/>
<path d="M65.737 54.4711L65.6705 62.5894L60.2139 59.3953V51.277L65.737 54.4711Z" fill="#898989"/>
<path d="M101.005 49.6134V57.7317L85.8997 66.1827V58.0644L101.005 49.6134Z" fill="#C5C5C5"/>
<path d="M79.1788 62.1901L79.1123 70.375L73.5892 67.1809L73.6557 59.0626L79.1788 62.1901Z" fill="#898989"/>
<path d="M101.005 49.6134L85.8997 58.0644L79.1788 62.1901L73.6557 59.0626L80.3766 55.4692L82.506 54.1384L78.1141 51.6097L74.1215 49.4138L72.5245 50.2788L65.737 54.4711L60.2139 51.277L66.9348 47.6836L81.9737 38.6337L87.5633 41.8278L78.713 46.8186L82.8387 49.2807L86.8979 51.5432L95.4154 46.3528L101.005 49.6134Z" fill="white"/>
<path d="M85.8997 58.0645V66.1828L79.1123 70.375L79.1788 62.1902L85.8997 58.0645Z" fill="#C4C4C4"/>
<path d="M110.587 55.1365V63.3213L96.8128 71.0404V62.8555L110.587 55.1365Z" fill="#C5C5C5"/>
<path d="M96.8128 62.8555V70.9738C96.6797 71.0404 96.6132 71.1069 96.4801 71.1735V63.0552C96.6132 62.9886 96.7463 62.9221 96.8128 62.8555Z" fill="#B8B8B8"/>
<path d="M96.4801 63.0552V71.1735C96.0143 71.4397 95.6151 71.7724 95.2823 72.0386V63.9202C95.6151 63.6541 96.0143 63.3879 96.4801 63.0552Z" fill="#B3B3B3"/>
<path d="M95.3488 63.9202V72.0385C95.2158 72.1716 95.0827 72.3047 94.9496 72.4378V64.3195C95.0161 64.1864 95.1492 64.0533 95.3488 63.9202Z" fill="#ADADAD"/>
<path d="M94.9496 64.3195V72.4378C94.8831 72.5043 94.8165 72.6374 94.75 72.7039V64.5856C94.8165 64.5191 94.8831 64.4525 94.9496 64.3195Z" fill="#A8A8A8"/>
<path d="M94.75 64.6522V72.7705C94.6834 72.8371 94.6834 72.9036 94.6169 73.0367V64.9184C94.6834 64.7853 94.6834 64.7188 94.75 64.6522Z" fill="#A3A3A3"/>
<path d="M94.6169 64.9184V73.0367C94.6169 73.1032 94.5504 73.1698 94.5504 73.2363V65.118C94.5504 65.0515 94.6169 64.9849 94.6169 64.9184Z" fill="#9E9E9E"/>
<path d="M123.297 62.4563V70.6411L112.051 76.8962V68.7779L123.297 62.4563Z" fill="#C5C5C5"/>
<path d="M112.051 68.778V76.8963L108.857 78.6929V70.5746L112.051 68.778Z" fill="#C5C5C5"/>
<path d="M123.297 62.4563L112.051 68.7779L108.857 70.5746C106.329 72.0386 103.6 72.7705 100.606 72.6374C97.6113 72.5044 94.6834 71.5727 91.7555 69.9092C88.8941 68.2456 87.3636 66.582 87.2306 64.9849C87.0975 63.3214 88.2953 61.7909 90.8904 60.3934L94.2842 58.5302L105.131 52.0755L110.654 55.2696L96.8794 62.9886C95.4154 63.7872 94.6834 64.5857 94.6169 65.3177C94.5503 66.0496 95.1492 66.7816 96.4801 67.5801C97.811 68.3121 99.0753 68.7114 100.406 68.7114C101.67 68.7114 103.001 68.2456 104.332 67.4471L117.707 59.2622L123.297 62.4563Z" fill="white"/>
<path d="M108.857 70.5746V78.6929C107.859 79.2918 106.861 79.7576 105.796 80.0903V71.972C106.861 71.6393 107.926 71.1735 108.857 70.5746Z" fill="#B8B8B8"/>
<path d="M105.863 71.972V80.0903C105.264 80.2899 104.665 80.423 104 80.5561V72.4378C104.598 72.3047 105.264 72.1716 105.863 71.972Z" fill="#B3B3B3"/>
<path d="M104 72.4378V80.5561C103.6 80.6227 103.201 80.6892 102.868 80.6892V72.5709C103.201 72.5043 103.6 72.5043 104 72.4378Z" fill="#ADADAD"/>
<path d="M102.868 72.5709V80.6892C102.536 80.6892 102.203 80.7557 101.87 80.7557V72.6374C102.203 72.6374 102.536 72.5709 102.868 72.5709Z" fill="#A8A8A8"/>
<path d="M101.87 72.6375V80.7558C101.537 80.7558 101.271 80.7558 100.938 80.7558V72.6375C101.205 72.6375 101.537 72.6375 101.87 72.6375Z" fill="#A3A3A3"/>
<path d="M100.939 72.6374V80.7557C100.872 80.7557 100.739 80.7557 100.672 80.7557C100.473 80.7557 100.207 80.7557 100.007 80.6892V72.5709C100.207 72.5709 100.473 72.5709 100.672 72.6374C100.739 72.6374 100.805 72.6374 100.939 72.6374Z" fill="#9E9E9E"/>
<path d="M99.9404 72.5709V80.6892C99.6076 80.6892 99.2749 80.6226 98.9422 80.5561V72.4378C99.2749 72.5043 99.6076 72.5709 99.9404 72.5709Z" fill="#999999"/>
<path d="M98.9422 72.5043V80.6226C98.6095 80.5561 98.2102 80.4895 97.8775 80.423V72.3047C98.2102 72.3712 98.6095 72.4378 98.9422 72.5043Z" fill="#949494"/>
<path d="M97.8775 72.3047V80.423C97.4782 80.3565 97.0124 80.2234 96.6132 80.0903V71.972C97.0124 72.1051 97.4117 72.1716 97.8775 72.3047Z" fill="#8F8F8F"/>
<path d="M96.5466 71.972V80.0903C95.9477 79.8907 95.3488 79.6911 94.7499 79.4914V71.3731C95.3488 71.5727 95.9477 71.7724 96.5466 71.972Z" fill="#8A8A8A"/>
<path d="M94.75 71.3731V79.4914C93.7518 79.0922 92.7536 78.6263 91.7555 78.0275C88.8941 76.3639 87.3636 74.7003 87.2305 73.1032C87.2305 73.0367 87.2305 72.9036 87.2305 72.8371V64.7188C87.2305 64.7853 87.2305 64.9184 87.2305 64.9849C87.3636 66.6485 88.8941 68.3121 91.7555 69.9091C92.7536 70.4415 93.7518 70.9738 94.75 71.3731Z" fill="#858585"/>
<path d="M130.218 70.8408V78.9591L129.153 78.3602V70.1754L130.218 70.8408Z" fill="#898989"/>
<path d="M129.153 70.1754V78.3602L123.696 81.3547V73.2364L129.153 70.1754Z" fill="#C5C5C5"/>
<path d="M132.879 73.2363V81.3546C132.879 81.2216 132.879 81.155 132.813 81.0219C132.613 80.4896 131.748 79.7576 130.218 78.8925V70.7742C131.682 71.6393 132.547 72.3713 132.813 72.9036C132.879 73.0367 132.879 73.1698 132.879 73.2363Z" fill="#858585"/>
<path d="M119.903 75.3657V83.484L117.841 84.6153L117.907 76.497L119.903 75.3657Z" fill="#C5C5C5"/>
<path d="M123.563 77.362L123.497 85.4803L119.903 83.484V75.3657L123.563 77.362Z" fill="#8A8A8A"/>
<path d="M117.907 76.4969L117.841 84.6152L114.713 86.6116V78.4267L117.907 76.4969Z" fill="#C4C4C4"/>
<path d="M140.332 74.5672V82.6855C140.332 82.8186 140.332 82.9517 140.266 83.0182V74.8999C140.332 74.8334 140.332 74.7003 140.332 74.5672Z" fill="#999999"/>
<path d="M140.266 74.9665V83.0848C140.266 83.2179 140.199 83.351 140.133 83.4175V75.2992C140.199 75.1661 140.266 75.033 140.266 74.9665Z" fill="#9E9E9E"/>
<path d="M140.199 75.2992V83.4175C140.133 83.5506 140.066 83.6837 140.066 83.7502V75.6319C140.066 75.4988 140.133 75.4323 140.199 75.2992Z" fill="#A3A3A3"/>
<path d="M140 75.6319V83.7502C139.933 83.8833 139.867 84.0164 139.733 84.1495V76.0312C139.867 75.8981 139.933 75.765 140 75.6319Z" fill="#A8A8A8"/>
<path d="M139.733 76.0312V84.1495C139.6 84.2826 139.467 84.4822 139.268 84.6153V76.497C139.467 76.3639 139.6 76.1643 139.733 76.0312Z" fill="#ADADAD"/>
<path d="M139.334 76.497V84.6153C139.068 84.8815 138.669 85.1477 138.269 85.4138V77.2955C138.669 77.0294 139.001 76.7632 139.334 76.497Z" fill="#B3B3B3"/>
<path d="M138.269 77.2955V85.4138C138.203 85.4138 138.203 85.4803 138.136 85.4803C137.537 85.813 136.939 86.0792 136.273 86.2788V78.1605C136.939 77.9609 137.537 77.6947 138.136 77.362C138.136 77.362 138.203 77.2955 138.269 77.2955Z" fill="#B8B8B8"/>
<path d="M136.273 78.1606V86.2789C135.874 86.412 135.408 86.5451 134.942 86.6116V78.4933C135.408 78.4268 135.807 78.3602 136.273 78.1606Z" fill="#B3B3B3"/>
<path d="M134.942 78.4933V86.6116C134.743 86.6781 134.477 86.6781 134.21 86.7447C134.144 86.7447 134.077 86.7447 133.944 86.7447V78.6264C134.011 78.6264 134.077 78.6264 134.21 78.6264C134.477 78.6264 134.676 78.5598 134.942 78.4933Z" fill="#ADADAD"/>
<path d="M134.011 78.6263V86.7447C133.745 86.7447 133.478 86.8112 133.212 86.8112V78.6929C133.412 78.6929 133.678 78.6929 134.011 78.6263Z" fill="#A8A8A8"/>
<path d="M133.146 78.6929V86.8112C132.879 86.8112 132.613 86.8112 132.347 86.8112V78.6929C132.613 78.6929 132.879 78.6929 133.146 78.6929Z" fill="#A3A3A3"/>
<path d="M132.414 78.6929V86.8112C132.147 86.8112 131.881 86.8112 131.615 86.7447V78.6263C131.881 78.6929 132.147 78.6929 132.414 78.6929Z" fill="#9E9E9E"/>
<path d="M131.615 78.6929V86.8112C131.349 86.8112 131.083 86.7447 130.75 86.7447V78.6263C131.016 78.6263 131.282 78.6263 131.615 78.6929Z" fill="#999999"/>
<path d="M130.75 78.5598V86.6781C130.417 86.6116 130.085 86.545 129.752 86.4785V78.3602C130.085 78.4933 130.417 78.4933 130.75 78.5598Z" fill="#949494"/>
<path d="M129.752 78.4267V86.545H129.685L129.752 78.4267C129.752 78.4267 129.752 78.3602 129.752 78.4267Z" fill="#8F8F8F"/>
<path d="M124.628 79.0921V87.2104C124.628 86.7446 124.229 86.1457 123.563 85.4803V77.362C124.229 78.0274 124.628 78.5598 124.628 79.0921Z" fill="#858585"/>
<path d="M131.149 81.2881C131.016 82.1532 130.284 83.0182 128.887 83.7502C126.691 85.0145 124.229 85.4803 121.434 85.0145C118.639 84.6153 115.512 83.4175 112.051 81.4212C109.789 80.0903 107.659 78.826 105.73 77.5617L112.451 73.9683L127.489 64.9184L136.14 69.9092C138.469 71.24 139.8 72.5709 140.199 73.9018C140.598 75.2326 139.866 76.3639 138.07 77.4286C136.939 78.094 135.608 78.4933 134.21 78.6929C132.746 78.8925 131.282 78.7594 129.685 78.4267C130.817 79.4249 131.282 80.423 131.149 81.2881ZM120.436 81.0885C121.634 81.2216 122.632 80.9554 123.563 80.423C124.229 80.0238 124.628 79.558 124.561 79.0922C124.561 78.6264 124.162 78.0275 123.497 77.362L119.837 75.3657L117.841 76.497L114.647 78.4267C115.711 79.1587 116.443 79.6245 116.776 79.8241C118.107 80.5561 119.238 80.9554 120.436 81.0885ZM129.153 70.1753L123.696 73.1698L126.491 74.9665C127.489 75.2992 128.421 75.4323 129.286 75.3657C130.151 75.2992 130.95 75.033 131.748 74.5672C132.68 74.0349 133.013 73.5025 132.813 72.9702C132.613 72.4378 131.748 71.7058 130.218 70.8408L129.153 70.1753Z" fill="white"/>
<path d="M131.149 81.3546V89.4729C131.149 89.606 131.083 89.6726 131.083 89.8056V81.6873C131.083 81.5542 131.149 81.4877 131.149 81.3546Z" fill="#9E9E9E"/>
<path d="M131.083 81.6874V89.8057C131.016 89.9388 131.016 90.0053 130.95 90.1384V82.0201C130.95 81.887 131.016 81.7539 131.083 81.6874Z" fill="#A3A3A3"/>
<path d="M130.883 82.0201V90.1384C130.817 90.2715 130.75 90.4046 130.617 90.5377V82.4193C130.75 82.2197 130.817 82.1532 130.883 82.0201Z" fill="#A8A8A8"/>
<path d="M130.683 82.3528V90.4711C130.55 90.6042 130.417 90.8038 130.218 90.9369V82.8186C130.417 82.6855 130.55 82.5524 130.683 82.3528Z" fill="#ADADAD"/>
<path d="M130.218 82.8186V90.9369C129.885 91.2031 129.552 91.4693 129.086 91.802V83.6837C129.552 83.4175 129.952 83.1513 130.218 82.8186Z" fill="#B3B3B3"/>
<path d="M129.086 83.6837V91.802C129.02 91.802 128.953 91.8685 128.953 91.8685C128.288 92.2678 127.622 92.534 126.891 92.8001V84.6818C127.622 84.4822 128.288 84.1495 128.953 83.7502C129.02 83.7502 129.02 83.6837 129.086 83.6837Z" fill="#B8B8B8"/>
<path d="M126.89 84.6818V92.8001C126.425 92.9332 126.025 93.0663 125.56 93.1328V85.0145C125.959 84.948 126.425 84.8149 126.89 84.6818Z" fill="#B3B3B3"/>
<path d="M125.493 85.0145V93.1328C125.227 93.1994 124.894 93.1994 124.628 93.2659V85.1476C124.894 85.1476 125.227 85.0811 125.493 85.0145Z" fill="#ADADAD"/>
<path d="M124.628 85.1476V93.2659C124.362 93.2659 124.096 93.3325 123.83 93.3325V85.2142C124.096 85.2142 124.362 85.1476 124.628 85.1476Z" fill="#A8A8A8"/>
<path d="M123.83 85.2142V93.3325C123.563 93.3325 123.364 93.3325 123.098 93.3325V85.2142C123.364 85.2142 123.63 85.2142 123.83 85.2142Z" fill="#A3A3A3"/>
<path d="M123.098 85.2142V93.3325C122.831 93.3325 122.565 93.3325 122.299 93.2659V85.1476C122.632 85.2142 122.831 85.2142 123.098 85.2142Z" fill="#9E9E9E"/>
<path d="M122.366 85.1476V93.2659C122.099 93.2659 121.833 93.1993 121.5 93.1993V85.0811C121.767 85.0811 122.033 85.1476 122.366 85.1476Z" fill="#999999"/>
<path d="M121.5 85.0811V93.1994C121.5 93.1994 121.5 93.1994 121.434 93.1994C121.101 93.1328 120.769 93.0663 120.436 92.9997V84.8814C120.769 84.948 121.101 85.0145 121.5 85.0811C121.5 85.0811 121.434 85.0811 121.5 85.0811Z" fill="#949494"/>
<path d="M120.436 84.8814V92.9997C119.97 92.9332 119.504 92.8001 119.038 92.667V84.5487C119.504 84.6818 119.97 84.8149 120.436 84.8814Z" fill="#8F8F8F"/>
<path d="M119.038 84.5487V92.6671C118.306 92.4674 117.574 92.2013 116.776 91.9351V83.8168C117.574 84.0829 118.306 84.3491 119.038 84.5487Z" fill="#8A8A8A"/>
<path d="M116.776 83.7502V91.8685C115.245 91.2696 113.715 90.4711 112.051 89.5395C109.789 88.2086 107.659 86.9443 105.73 85.68V77.5616C107.659 78.826 109.722 80.0903 112.051 81.4212C113.715 82.4193 115.312 83.1513 116.776 83.7502Z" fill="#858585"/>
</g>
<defs>
<filter id="filter0_d" x="0.696289" y="0.347168" width="154.636" height="109.985" filterUnits="userSpaceOnUse" color-interpolation-filters="sRGB">
<feFlood flood-opacity="0" result="BackgroundImageFix"/>
<feColorMatrix in="SourceAlpha" type="matrix" values="0 0 0 0 0 0 0 0 0 0 0 0 0 0 0 0 0 0 127 0"/>
<feOffset dy="2"/>
<feGaussianBlur stdDeviation="7.5"/>
<feColorMatrix type="matrix" values="0 0 0 0 0.768627 0 0 0 0 0.768627 0 0 0 0 0.768627 0 0 0 0.5 0"/>
<feBlend mode="normal" in2="BackgroundImageFix" result="effect1_dropShadow"/>
<feBlend mode="normal" in="SourceGraphic" in2="effect1_dropShadow" result="shape"/>
</filter>
<clipPath id="clip0">
<rect width="124.636" height="79.9853" fill="white" transform="translate(15.6963 13.3472)"/>
</clipPath>
</defs>
</svg>
