<svg width="218" height="152" xmlns="http://www.w3.org/2000/svg">
<g clip-path="url(#clip0)" filter="url(#filter0_d)">
<path d="M66.2649 25.4761L66.1649 37.7761L57.0649 40.9761L57.1649 28.7761L66.2649 25.4761Z" fill="#C4C4C4"/>
<path d="M57.1647 28.7762L57.0647 40.9762L56.3647 40.5762L56.4647 28.3762L57.1647 28.7762Z" fill="#898989"/>
<path d="M56.4648 28.3762V40.5762C55.6648 39.0762 54.8648 37.8762 53.9648 36.8762C53.0648 35.8762 51.8648 34.9762 50.3648 34.1762C49.5648 33.6762 48.7648 33.3762 47.9648 33.0762V20.8762C48.7648 21.1762 49.5648 21.5762 50.3648 21.9762C51.8648 22.7762 53.0648 23.7762 53.9648 24.6762C54.8648 25.6762 55.6648 26.8762 56.4648 28.3762Z" fill="#858585"/>
<path d="M47.9646 20.7762V32.9762C47.5646 32.7762 47.0646 32.6762 46.6646 32.4762V20.2762C47.0646 20.4762 47.5646 20.5762 47.9646 20.7762Z" fill="#8A8A8A"/>
<path d="M46.6646 20.2762V32.4762C46.3646 32.3762 46.0646 32.2762 45.7646 32.2762V20.0762C46.0646 20.1762 46.3646 20.2762 46.6646 20.2762Z" fill="#8F8F8F"/>
<path d="M45.6647 20.0761V32.2761C45.3647 32.1761 45.1647 32.1761 44.8647 32.1761V19.9761C45.1647 19.9761 45.4647 20.0761 45.6647 20.0761Z" fill="#949494"/>
<path d="M44.9647 19.9762V32.1762C44.7647 32.1762 44.5647 32.0762 44.3647 32.0762V19.8762C44.5647 19.8762 44.7647 19.9762 44.9647 19.9762Z" fill="#999999"/>
<path d="M44.2649 19.8762V32.0762C44.0649 32.0762 43.8649 32.0762 43.5649 32.0762V19.8762C43.8649 19.8762 44.0649 19.8762 44.2649 19.8762Z" fill="#9E9E9E"/>
<path d="M43.6648 19.8762V32.0762C43.4648 32.0762 43.1648 32.0762 42.9648 32.0762V19.8762C43.1648 19.8762 43.3648 19.8762 43.6648 19.8762Z" fill="#A3A3A3"/>
<path d="M42.9649 19.8762V32.0762C42.6649 32.0762 42.3649 32.0762 42.0649 32.1762V19.9762C42.3649 19.8762 42.6649 19.8762 42.9649 19.8762Z" fill="#A8A8A8"/>
<path d="M42.0647 19.8762V32.0762C41.6647 32.0762 41.2647 32.1762 40.8647 32.2762V20.0762C41.2647 19.9762 41.6647 19.9762 42.0647 19.8762Z" fill="#ADADAD"/>
<path d="M40.8645 20.0762V32.2762C40.3645 32.3762 39.7646 32.4762 39.2646 32.6762C39.0646 32.7762 38.8646 32.7762 38.6646 32.8762V20.6762C38.8646 20.5762 39.0646 20.5762 39.2646 20.4762C39.7646 20.2762 40.3645 20.1762 40.8645 20.0762Z" fill="#B3B3B3"/>
<path d="M38.5647 20.6761V32.8761C36.6647 33.4761 34.5647 34.4761 32.1647 35.8761C31.8647 36.0761 31.6647 36.1761 31.3647 36.3761V24.1761C31.5647 24.0761 31.8647 23.8761 32.1647 23.6761C34.5647 22.2761 36.6647 21.2761 38.5647 20.6761Z" fill="#B8B8B8"/>
<path d="M31.4646 24.0762V36.2762C29.8645 37.2762 28.5646 38.1762 27.6646 38.9762V26.7762C28.5646 25.9762 29.7645 25.0762 31.4646 24.0762Z" fill="#B3B3B3"/>
<path d="M27.6646 26.7762V38.9762C27.3646 39.2762 27.0646 39.4762 26.8646 39.7762L26.7646 39.8762V27.6762L26.8646 27.5762C27.0646 27.3762 27.3646 27.0762 27.6646 26.7762Z" fill="#ADADAD"/>
<path d="M26.7647 27.7762V39.9762C26.5647 40.1762 26.4647 40.3762 26.3647 40.5762V28.3762C26.4647 28.1762 26.5647 27.9762 26.7647 27.7762Z" fill="#A8A8A8"/>
<path d="M26.2649 28.3762V40.5762C26.1649 40.7762 26.0649 40.9762 26.0649 41.1762V28.9762C26.1649 28.7762 26.2649 28.5762 26.2649 28.3762Z" fill="#A3A3A3"/>
<path d="M26.0648 28.9761V41.1761C25.9648 41.3761 25.9648 41.4761 25.9648 41.5761V29.3761C25.9648 29.2761 26.0648 29.0761 26.0648 28.9761Z" fill="#9E9E9E"/>
<path d="M25.9646 29.3762V41.5762C25.9646 41.6762 25.9646 41.8762 25.9646 41.9762V29.7762C25.8646 29.6762 25.8646 29.4762 25.9646 29.3762Z" fill="#999999"/>
<path d="M49.2649 35.2761L49.1649 47.4761L44.5649 50.0761V37.8761L49.2649 35.2761Z" fill="#C5C5C5"/>
<path d="M58.4651 18.9761C62.1651 21.0761 64.7651 23.2761 66.2651 25.4761L57.1651 28.7761L56.4651 28.3761C55.6651 26.8761 54.8651 25.6761 53.9651 24.6761C53.0651 23.6761 51.8651 22.7761 50.3651 21.9761C48.5651 20.8761 46.7651 20.2761 44.9651 19.9761C43.1651 19.7761 41.3651 19.8761 39.2651 20.4761C37.1651 21.0761 34.8651 22.0761 32.2651 23.6761C29.6651 25.1761 27.8651 26.4761 26.9651 27.6761C25.9651 28.8761 25.7651 29.8761 26.2651 30.8761C26.7651 31.8761 27.9651 32.9761 29.8651 34.0761C30.8651 34.5761 32.0651 35.1761 33.6651 35.6761L35.9651 34.3761L41.1651 31.1761L49.3651 35.2761L44.7651 37.8761L36.4651 42.7761C30.9651 41.2761 26.4651 39.4761 22.8651 37.3761C17.6651 34.3761 15.1651 31.2761 15.2651 28.1761C15.2651 24.9761 17.9651 21.8761 23.1651 18.8761C28.8651 15.5761 34.7651 13.9761 40.7651 13.9761C46.8651 13.9761 52.7651 15.6761 58.4651 18.9761Z" fill="white"/>
<path d="M44.5651 37.8762V50.0762L36.2651 54.9762V42.7762L44.5651 37.8762Z" fill="#C5C5C5"/>
<path d="M36.2649 42.7761V54.9761C36.0649 54.8761 35.8649 54.8761 35.5649 54.7761V42.5761C35.8649 42.5761 36.0649 42.6761 36.2649 42.7761Z" fill="#8F8F8F"/>
<path d="M35.6648 42.5761V54.7761C33.2648 54.0761 30.9648 53.3761 28.9648 52.4761V40.2761C30.9648 41.0761 33.1648 41.8761 35.6648 42.5761Z" fill="#8A8A8A"/>
<path d="M28.8649 40.2761V52.4761C26.5649 51.5761 24.4649 50.5761 22.6649 49.4761C17.5649 46.6761 15.0649 43.6761 15.0649 40.6761V28.4761C15.0649 31.4761 17.5649 34.4761 22.6649 37.3761C24.4649 38.3761 26.5649 39.3761 28.8649 40.2761Z" fill="#858585"/>
<path d="M81.5652 32.8762L81.4652 45.0762L58.8652 57.6762V45.4762L81.5652 32.8762Z" fill="#C5C5C5"/>
<path d="M81.5652 32.8761L58.8652 45.4761L48.6652 51.7761L40.3652 46.9761L50.4652 41.5761L73.0652 27.9761L81.5652 32.8761Z" fill="white"/>
<path d="M58.865 45.4761V57.6761L48.665 63.9761V51.7761L58.865 45.4761Z" fill="#C4C4C4"/>
<path d="M48.6651 51.7761V63.9761L40.2651 59.1761L40.3651 46.9761L48.6651 51.7761Z" fill="#898989"/>
<path d="M86.2648 42.8762V55.1762L79.4648 51.5762V39.3762L86.2648 42.8762Z" fill="#8B8B8B"/>
<path d="M87.8651 43.7762L87.7651 56.0762L86.2651 55.1762V42.8762L87.8651 43.7762Z" fill="#898989"/>
<path d="M97.2651 49.2761V61.4761L95.7651 60.6761L95.8651 48.4761L97.2651 49.2761Z" fill="#898989"/>
<path d="M110.065 49.2761L109.965 61.4761L109.865 62.1761V49.8761L110.065 49.2761Z" fill="#9F9F9F"/>
<path d="M109.865 49.8762V62.1762L103.365 65.3762V53.1762L109.865 49.8762Z" fill="#C5C5C5"/>
<path d="M103.365 53.1761V65.3761L97.2651 61.4761V49.2761L103.365 53.1761Z" fill="#878787"/>
<path d="M95.865 48.4761L95.765 60.6761L79.665 69.7761V57.4761L95.865 48.4761Z" fill="#C5C5C5"/>
<path d="M69.465 63.7761V76.0761L61.165 71.2761L61.265 58.9761L69.465 63.7761Z" fill="#898989"/>
<path d="M79.6648 57.4761V69.7761L69.4648 76.0761V63.7761L79.6648 57.4761Z" fill="#C4C4C4"/>
<path d="M110.065 49.2761L109.865 49.8761L103.365 53.1761L97.2651 49.2761L95.8651 48.4761L79.6651 57.4761L69.4651 63.7761L61.2651 58.9761L71.3651 53.6761L87.8651 43.7761L86.2651 42.8761L79.4651 39.3761L79.5651 38.6761L86.1651 35.4761L110.065 49.2761Z" fill="white"/>
<path d="M123.065 56.7761V69.0761L109.765 76.4761V64.2761L123.065 56.7761Z" fill="#C5C5C5"/>
<path d="M102.865 68.1761V80.3761L100.365 81.6761L100.465 69.4761L102.865 68.1761Z" fill="#C5C5C5"/>
<path d="M108.865 71.4761V83.6761L102.865 80.3761V68.1761L108.865 71.4761Z" fill="#8A8A8A"/>
<path d="M115.465 75.2761V87.5761L108.865 83.6761V71.4761L115.465 75.2761Z" fill="#888888"/>
<path d="M100.465 69.4761L100.365 81.6761L90.165 87.9761L90.265 75.7761L100.465 69.4761Z" fill="#C4C4C4"/>
<path d="M90.2648 75.7761L90.1648 87.9761L81.9648 83.1761V70.9761L90.2648 75.7761Z" fill="#898989"/>
<path d="M143.265 68.4761V80.6761L120.565 93.3761V81.1761L143.265 68.4761Z" fill="#C5C5C5"/>
<path d="M110.465 87.3762L110.365 99.6761L102.065 94.8762L102.165 82.6761L110.465 87.3762Z" fill="#898989"/>
<path d="M143.265 68.4761L120.565 81.1761L110.465 87.3761L102.165 82.6761L112.265 77.2761L115.465 75.2761L108.865 71.4761L102.865 68.1761L100.465 69.4761L90.2648 75.7761L81.9648 70.9761L92.0648 65.5761L114.665 51.9761L123.065 56.7761L109.765 64.2761L115.965 67.9761L122.065 71.3761L134.865 63.5761L143.265 68.4761Z" fill="white"/>
<path d="M120.565 81.1761V93.3762L110.365 99.6761L110.465 87.3762L120.565 81.1761Z" fill="#C4C4C4"/>
<path d="M157.665 76.7761V89.0761L136.965 100.676V88.3761L157.665 76.7761Z" fill="#C5C5C5"/>
<path d="M136.965 88.3762V100.576C136.765 100.676 136.665 100.776 136.465 100.876V88.6762C136.665 88.5762 136.865 88.4762 136.965 88.3762Z" fill="#B8B8B8"/>
<path d="M136.465 88.6761V100.876C135.765 101.276 135.165 101.776 134.665 102.176V89.9762C135.165 89.5762 135.765 89.1761 136.465 88.6761Z" fill="#B3B3B3"/>
<path d="M134.765 89.9761V102.176C134.565 102.376 134.365 102.576 134.165 102.776V90.5761C134.265 90.3761 134.465 90.1761 134.765 89.9761Z" fill="#ADADAD"/>
<path d="M134.165 90.5762V102.776C134.065 102.876 133.965 103.076 133.865 103.176V90.9762C133.965 90.8762 134.065 90.7762 134.165 90.5762Z" fill="#A8A8A8"/>
<path d="M133.865 91.0762V103.276C133.765 103.376 133.765 103.476 133.665 103.676V91.4762C133.765 91.2762 133.765 91.1762 133.865 91.0762Z" fill="#A3A3A3"/>
<path d="M133.665 91.4761V103.676C133.665 103.776 133.565 103.876 133.565 103.976V91.7761C133.565 91.6761 133.665 91.5761 133.665 91.4761Z" fill="#9E9E9E"/>
<path d="M176.765 87.7761V100.076L159.865 109.476V97.2761L176.765 87.7761Z" fill="#C5C5C5"/>
<path d="M159.865 97.2761V109.476L155.065 112.176V99.9761L159.865 97.2761Z" fill="#C5C5C5"/>
<path d="M176.765 87.7761L159.865 97.2761L155.065 99.9761C151.265 102.176 147.165 103.276 142.665 103.076C138.165 102.876 133.765 101.476 129.365 98.9761C125.065 96.4761 122.765 93.9761 122.565 91.5761C122.365 89.0761 124.165 86.7761 128.065 84.6761L133.165 81.8761L149.465 72.1761L157.765 76.9761L137.065 88.5761C134.865 89.7761 133.765 90.9761 133.665 92.0761C133.565 93.1761 134.465 94.2761 136.465 95.4761C138.465 96.5761 140.365 97.1761 142.365 97.1761C144.265 97.1761 146.265 96.4761 148.265 95.2761L168.365 82.9761L176.765 87.7761Z" fill="white"/>
<path d="M155.065 99.9761V112.176C153.565 113.076 152.065 113.776 150.465 114.276V102.076C152.065 101.576 153.665 100.876 155.065 99.9761Z" fill="#B8B8B8"/>
<path d="M150.565 102.076V114.276C149.665 114.576 148.765 114.776 147.765 114.976V102.776C148.665 102.576 149.665 102.376 150.565 102.076Z" fill="#B3B3B3"/>
<path d="M147.765 102.776V114.976C147.165 115.076 146.565 115.176 146.065 115.176V102.976C146.565 102.876 147.165 102.876 147.765 102.776Z" fill="#ADADAD"/>
<path d="M146.065 102.976V115.176C145.565 115.176 145.065 115.276 144.565 115.276V103.076C145.065 103.076 145.565 102.976 146.065 102.976Z" fill="#A8A8A8"/>
<path d="M144.565 103.076V115.276C144.065 115.276 143.665 115.276 143.165 115.276V103.076C143.565 103.076 144.065 103.076 144.565 103.076Z" fill="#A3A3A3"/>
<path d="M143.165 103.076V115.276C143.065 115.276 142.865 115.276 142.765 115.276C142.465 115.276 142.065 115.276 141.765 115.176V102.976C142.065 102.976 142.465 102.976 142.765 103.076C142.865 103.076 142.965 103.076 143.165 103.076Z" fill="#9E9E9E"/>
<path d="M141.665 102.976V115.176C141.165 115.176 140.665 115.076 140.165 114.976V102.776C140.665 102.876 141.165 102.976 141.665 102.976Z" fill="#999999"/>
<path d="M140.165 102.876V115.076C139.665 114.976 139.065 114.876 138.565 114.776V102.576C139.065 102.676 139.665 102.776 140.165 102.876Z" fill="#949494"/>
<path d="M138.565 102.576V114.776C137.965 114.676 137.265 114.476 136.665 114.276V102.076C137.265 102.276 137.865 102.376 138.565 102.576Z" fill="#8F8F8F"/>
<path d="M136.565 102.076V114.276C135.665 113.976 134.765 113.676 133.865 113.376V101.176C134.765 101.476 135.665 101.776 136.565 102.076Z" fill="#8A8A8A"/>
<path d="M133.865 101.176V113.376C132.365 112.776 130.865 112.076 129.365 111.176C125.065 108.676 122.765 106.176 122.565 103.776C122.565 103.676 122.565 103.476 122.565 103.376V91.1761C122.565 91.2761 122.565 91.4761 122.565 91.5761C122.765 94.0761 125.065 96.5762 129.365 98.9762C130.865 99.7762 132.365 100.576 133.865 101.176Z" fill="#858585"/>
<path d="M187.165 100.376V112.576L185.565 111.676V99.3762L187.165 100.376Z" fill="#898989"/>
<path d="M185.565 99.3762V111.676L177.365 116.176V103.976L185.565 99.3762Z" fill="#C5C5C5"/>
<path d="M191.165 103.976V116.176C191.165 115.976 191.165 115.876 191.065 115.676C190.765 114.876 189.465 113.776 187.165 112.476V100.276C189.365 101.576 190.665 102.676 191.065 103.476C191.165 103.676 191.165 103.876 191.165 103.976Z" fill="#858585"/>
<path d="M171.665 107.176V119.376L168.565 121.076L168.665 108.876L171.665 107.176Z" fill="#C5C5C5"/>
<path d="M177.165 110.176L177.065 122.376L171.665 119.376V107.176L177.165 110.176Z" fill="#8A8A8A"/>
<path d="M168.665 108.876L168.565 121.076L163.865 124.076V111.776L168.665 108.876Z" fill="#C4C4C4"/>
<path d="M202.365 105.976V118.176C202.365 118.376 202.365 118.576 202.265 118.676V106.476C202.365 106.376 202.365 106.176 202.365 105.976Z" fill="#999999"/>
<path d="M202.265 106.576V118.776C202.265 118.976 202.165 119.176 202.065 119.276V107.076C202.165 106.876 202.265 106.676 202.265 106.576Z" fill="#9E9E9E"/>
<path d="M202.165 107.076V119.276C202.065 119.476 201.965 119.676 201.965 119.776V107.576C201.965 107.376 202.065 107.276 202.165 107.076Z" fill="#A3A3A3"/>
<path d="M201.865 107.576V119.776C201.765 119.976 201.665 120.176 201.465 120.376V108.176C201.665 107.976 201.765 107.776 201.865 107.576Z" fill="#A8A8A8"/>
<path d="M201.465 108.176V120.376C201.265 120.576 201.065 120.876 200.765 121.076V108.876C201.065 108.676 201.265 108.376 201.465 108.176Z" fill="#ADADAD"/>
<path d="M200.865 108.876V121.076C200.465 121.476 199.865 121.876 199.265 122.276V110.076C199.865 109.676 200.365 109.276 200.865 108.876Z" fill="#B3B3B3"/>
<path d="M199.265 110.076V122.276C199.165 122.276 199.165 122.376 199.065 122.376C198.165 122.876 197.265 123.276 196.265 123.576V111.376C197.265 111.076 198.165 110.676 199.065 110.176C199.065 110.176 199.165 110.076 199.265 110.076Z" fill="#B8B8B8"/>
<path d="M196.265 111.376V123.576C195.665 123.776 194.965 123.976 194.265 124.076V111.876C194.965 111.776 195.565 111.676 196.265 111.376Z" fill="#B3B3B3"/>
<path d="M194.265 111.876V124.076C193.965 124.176 193.565 124.176 193.165 124.276C193.065 124.276 192.965 124.276 192.765 124.276V112.076C192.865 112.076 192.965 112.076 193.165 112.076C193.565 112.076 193.865 111.976 194.265 111.876Z" fill="#ADADAD"/>
<path d="M192.865 112.076V124.276C192.465 124.276 192.065 124.376 191.665 124.376V112.176C191.965 112.176 192.365 112.176 192.865 112.076Z" fill="#A8A8A8"/>
<path d="M191.565 112.176V124.376C191.165 124.376 190.765 124.376 190.365 124.376V112.176C190.765 112.176 191.165 112.176 191.565 112.176Z" fill="#A3A3A3"/>
<path d="M190.465 112.176V124.376C190.065 124.376 189.665 124.376 189.265 124.276V112.076C189.665 112.176 190.065 112.176 190.465 112.176Z" fill="#9E9E9E"/>
<path d="M189.265 112.176V124.376C188.865 124.376 188.465 124.276 187.965 124.276V112.076C188.365 112.076 188.765 112.076 189.265 112.176Z" fill="#999999"/>
<path d="M187.965 111.976V124.176C187.465 124.076 186.965 123.976 186.465 123.876V111.676C186.965 111.876 187.465 111.876 187.965 111.976Z" fill="#949494"/>
<path d="M186.465 111.776V123.976H186.365L186.465 111.776C186.465 111.776 186.465 111.676 186.465 111.776Z" fill="#8F8F8F"/>
<path d="M178.765 112.776V124.976C178.765 124.276 178.165 123.376 177.165 122.376V110.176C178.165 111.176 178.765 111.976 178.765 112.776Z" fill="#858585"/>
<path d="M188.565 116.076C188.365 117.376 187.265 118.676 185.165 119.776C181.865 121.676 178.165 122.376 173.965 121.676C169.765 121.076 165.065 119.276 159.865 116.276C156.465 114.276 153.265 112.376 150.365 110.476L160.465 105.076L183.065 91.4761L196.065 98.9761C199.565 100.976 201.565 102.976 202.165 104.976C202.765 106.976 201.665 108.676 198.965 110.276C197.265 111.276 195.265 111.876 193.165 112.176C190.965 112.476 188.765 112.276 186.365 111.776C188.065 113.276 188.765 114.776 188.565 116.076ZM172.465 115.776C174.265 115.976 175.765 115.576 177.165 114.776C178.165 114.176 178.765 113.476 178.665 112.776C178.665 112.076 178.065 111.176 177.065 110.176L171.565 107.176L168.565 108.876L163.765 111.776C165.365 112.876 166.465 113.576 166.965 113.876C168.965 114.976 170.665 115.576 172.465 115.776ZM185.565 99.3761L177.365 103.876L181.565 106.576C183.065 107.076 184.465 107.276 185.765 107.176C187.065 107.076 188.265 106.676 189.465 105.976C190.865 105.176 191.365 104.376 191.065 103.576C190.765 102.776 189.465 101.676 187.165 100.376L185.565 99.3761Z" fill="white"/>
<path d="M188.565 116.176V128.376C188.565 128.576 188.465 128.676 188.465 128.876V116.676C188.465 116.476 188.565 116.376 188.565 116.176Z" fill="#9E9E9E"/>
<path d="M188.465 116.676V128.876C188.365 129.076 188.365 129.176 188.265 129.376V117.176C188.265 116.976 188.365 116.776 188.465 116.676Z" fill="#A3A3A3"/>
<path d="M188.165 117.176V129.376C188.065 129.576 187.965 129.776 187.765 129.976V117.776C187.965 117.476 188.065 117.376 188.165 117.176Z" fill="#A8A8A8"/>
<path d="M187.865 117.676V129.876C187.665 130.076 187.465 130.376 187.165 130.576V118.376C187.465 118.176 187.665 117.976 187.865 117.676Z" fill="#ADADAD"/>
<path d="M187.165 118.376V130.576C186.665 130.976 186.165 131.376 185.465 131.876V119.676C186.165 119.276 186.765 118.876 187.165 118.376Z" fill="#B3B3B3"/>
<path d="M185.465 119.676V131.876C185.365 131.876 185.265 131.976 185.265 131.976C184.265 132.576 183.265 132.976 182.165 133.376V121.176C183.265 120.876 184.265 120.376 185.265 119.776C185.365 119.776 185.365 119.676 185.465 119.676Z" fill="#B8B8B8"/>
<path d="M182.165 121.176V133.376C181.465 133.576 180.865 133.776 180.165 133.876V121.676C180.765 121.576 181.465 121.376 182.165 121.176Z" fill="#B3B3B3"/>
<path d="M180.065 121.676V133.876C179.665 133.976 179.165 133.976 178.765 134.076V121.876C179.165 121.876 179.665 121.776 180.065 121.676Z" fill="#ADADAD"/>
<path d="M178.765 121.876V134.076C178.365 134.076 177.965 134.176 177.565 134.176V121.976C177.965 121.976 178.365 121.876 178.765 121.876Z" fill="#A8A8A8"/>
<path d="M177.565 121.976V134.176C177.165 134.176 176.865 134.176 176.465 134.176V121.976C176.865 121.976 177.265 121.976 177.565 121.976Z" fill="#A3A3A3"/>
<path d="M176.465 121.976V134.176C176.065 134.176 175.665 134.176 175.265 134.076V121.876C175.765 121.976 176.065 121.976 176.465 121.976Z" fill="#9E9E9E"/>
<path d="M175.365 121.876V134.076C174.965 134.076 174.565 133.976 174.065 133.976V121.776C174.465 121.776 174.865 121.876 175.365 121.876Z" fill="#999999"/>
<path d="M174.065 121.776V133.976C174.065 133.976 174.065 133.976 173.965 133.976C173.465 133.876 172.965 133.776 172.465 133.676V121.476C172.965 121.576 173.465 121.676 174.065 121.776C174.065 121.776 173.965 121.776 174.065 121.776Z" fill="#949494"/>
<path d="M172.465 121.476V133.676C171.765 133.576 171.065 133.376 170.365 133.176V120.976C171.065 121.176 171.765 121.376 172.465 121.476Z" fill="#8F8F8F"/>
<path d="M170.365 120.976V133.176C169.265 132.876 168.165 132.476 166.965 132.076V119.876C168.165 120.276 169.265 120.676 170.365 120.976Z" fill="#8A8A8A"/>
<path d="M166.965 119.776V131.976C164.665 131.076 162.365 129.876 159.865 128.476C156.465 126.476 153.265 124.576 150.365 122.676V110.476C153.265 112.376 156.365 114.276 159.865 116.276C162.365 117.776 164.765 118.876 166.965 119.776Z" fill="#858585"/>
</g>
<defs>
<filter id="filter0_d" x="0.0649414" y="0.976135" width="217.3" height="150.2" filterUnits="userSpaceOnUse" color-interpolation-filters="sRGB">
<feFlood flood-opacity="0" result="BackgroundImageFix"/>
<feColorMatrix in="SourceAlpha" type="matrix" values="0 0 0 0 0 0 0 0 0 0 0 0 0 0 0 0 0 0 127 0"/>
<feOffset dy="2"/>
<feGaussianBlur stdDeviation="7.5"/>
<feColorMatrix type="matrix" values="0 0 0 0 0.768627 0 0 0 0 0.768627 0 0 0 0 0.768627 0 0 0 0.5 0"/>
<feBlend mode="normal" in2="BackgroundImageFix" result="effect1_dropShadow"/>
<feBlend mode="normal" in="SourceGraphic" in2="effect1_dropShadow" result="shape"/>
</filter>
<clipPath id="clip0">
<rect width="187.3" height="120.2" fill="white" transform="translate(15.0649 13.9761)"/>
</clipPath>
</defs>
</svg>
