<svg width="320" height="222" viewBox="0 0 320 222" fill="none" xmlns="http://www.w3.org/2000/svg">
<g filter="url(#filter0_d)">
<path d="M77.3214 39.4932L77.9088 47.7942C77.9124 47.8451 77.9124 47.8451 77.8651 47.8996L77.2777 39.5986C77.325 39.5441 77.325 39.5441 77.3214 39.4932Z" fill="#399979"/>
<path d="M77.2777 39.5987L77.8651 47.8997C77.8687 47.9506 77.8178 47.9542 77.8214 48.0051L77.234 39.7041C77.2813 39.6496 77.2813 39.6496 77.2777 39.5987Z" fill="#3B9D7D"/>
<path d="M77.234 39.7041L77.8214 48.0051C77.825 48.056 77.7741 48.0596 77.7777 48.1106L77.1903 39.8096C77.2376 39.755 77.2376 39.755 77.234 39.7041Z" fill="#3DA281"/>
<path d="M77.1903 39.8096L77.7777 48.1106C77.7304 48.1651 77.734 48.216 77.683 48.2196L77.0956 39.9186C77.143 39.8641 77.1939 39.8605 77.1903 39.8096Z" fill="#3FA785"/>
<path d="M77.0956 39.9186L77.683 48.2196C77.6357 48.2741 77.5411 48.3832 77.4428 48.4413L76.8554 40.1403C76.9537 40.0822 77.0483 39.9731 77.0956 39.9186Z" fill="#40AC88"/>
<path d="M76.8554 40.1404L77.4428 48.4414C77.4428 48.4414 77.4428 48.4414 77.3919 48.445L76.8554 40.1404Z" fill="#42B18C"/>
<path d="M54.1255 45.1268L54.7129 53.4278C54.0765 53.1146 53.4438 52.8523 52.8692 52.6882L52.2818 44.3872C52.9073 44.5477 53.4891 44.8136 54.1255 45.1268Z" fill="#308065"/>
<path d="M52.2817 44.3872L52.8691 52.6882C52.5019 52.5606 52.1891 52.4804 51.8763 52.4002L51.2889 44.0992C51.6017 44.1794 51.9654 44.256 52.2817 44.3872Z" fill="#328569"/>
<path d="M51.2889 44.0992L51.8763 52.4002C51.6181 52.3672 51.4108 52.3307 51.2035 52.2942L50.6161 43.9932C50.8234 44.0297 51.0307 44.0662 51.2889 44.0992Z" fill="#348A6D"/>
<path d="M50.5651 43.9969L51.1526 52.2979C50.9452 52.2614 50.7925 52.2722 50.5852 52.2357L49.9977 43.9347C50.2014 43.9203 50.4088 43.9568 50.5651 43.9969Z" fill="#358F71"/>
<path d="M49.9978 43.9346L50.5852 52.2356C50.4324 52.2464 50.276 52.2063 50.0723 52.2207L49.4849 43.9197C49.6886 43.9053 49.8414 43.8945 49.9978 43.9346Z" fill="#379475"/>
<path d="M49.5358 43.9162L50.1232 52.2172C49.9704 52.228 49.8177 52.2388 49.6649 52.2496L49.0775 43.9486C49.2266 43.8869 49.3794 43.876 49.5358 43.9162Z" fill="#399979"/>
<path d="M49.0739 43.8977L49.6613 52.1987C49.5594 52.2059 49.5085 52.2095 49.4066 52.2167C49.3048 52.2239 49.2539 52.2275 49.152 52.2347L48.5646 43.9337C48.6665 43.9265 48.7174 43.9229 48.8192 43.9157C48.9211 43.9085 48.972 43.9049 49.0739 43.8977Z" fill="#3B9D7D"/>
<path d="M48.5646 43.9337L49.152 52.2347C48.9483 52.2492 48.7446 52.2636 48.5954 52.3253L48.008 44.0243C48.2117 44.0099 48.3609 43.9482 48.5646 43.9337Z" fill="#3DA281"/>
<path d="M48.008 44.0243L48.5954 52.3253C48.3408 52.3433 48.0898 52.4122 47.8388 52.4812L47.2513 44.1802C47.5024 44.1112 47.757 44.0932 48.008 44.0243Z" fill="#3FA785"/>
<path d="M47.2513 44.1802L47.8387 52.4812C47.3876 52.6155 46.9365 52.7498 46.4889 52.935L45.9015 44.634C46.4 44.4452 46.8511 44.3109 47.2513 44.1802Z" fill="#40AC88"/>
<path d="M45.9525 44.6304L46.5399 52.9314C45.794 53.2401 45.0517 53.5997 44.3167 54.0611L43.7293 45.7601C44.4643 45.2987 45.203 44.8881 45.9525 44.6304Z" fill="#42B18C"/>
<path d="M43.7293 45.7601L44.3167 54.0611L42.7992 55.0386L42.2118 46.7376L43.7293 45.7601Z" fill="#47BE97"/>
<path d="M76.8045 40.1439L77.3919 48.4449L69.6298 53.7541L69.0423 45.4531L76.8045 40.1439Z" fill="#47BE96"/>
<path d="M42.2118 46.7376L42.7992 55.0386C42.6537 55.1513 42.5554 55.2094 42.4098 55.3221L41.8224 47.0211C41.968 46.9084 42.0627 46.7993 42.2118 46.7376Z" fill="#42B18C"/>
<path d="M41.8224 47.0211L42.4098 55.3221C41.4819 55.9507 40.7576 56.565 40.2335 57.1139L39.6461 48.8129C40.1702 48.264 40.8945 47.6497 41.8224 47.0211Z" fill="#40AC88"/>
<path d="M39.646 48.8128L40.2334 57.1138C39.9932 57.3356 39.8075 57.6046 39.6692 57.8191L39.0818 49.5181C39.2201 49.3036 39.4094 49.0855 39.646 48.8128Z" fill="#3FA785"/>
<path d="M39.0818 49.5181L39.6692 57.8191C39.5781 57.9791 39.4871 58.1391 39.3961 58.2991L38.8086 49.9981C38.8997 49.8381 38.9907 49.6781 39.0818 49.5181Z" fill="#3DA281"/>
<path d="M38.8086 49.998L39.396 58.299C39.3523 58.4045 39.3086 58.51 39.2685 58.6663L38.6811 50.3653C38.7212 50.209 38.7649 50.1035 38.8086 49.998Z" fill="#3B9D7D"/>
<path d="M38.6775 50.3144L39.2649 58.6155C39.2212 58.7209 39.2284 58.8228 39.1847 58.9282L38.5973 50.6272C38.641 50.5218 38.6338 50.4199 38.6775 50.3144Z" fill="#399979"/>
<path d="M38.5973 50.6272L39.1847 58.9282C39.1919 59.03 39.1445 59.0846 39.1518 59.1864L38.5643 50.8854C38.6081 50.78 38.6045 50.729 38.5973 50.6272Z" fill="#379475"/>
<path d="M65.9933 52.2713L66.5807 60.5723L66.5771 60.5214C66.5086 59.5538 65.5235 58.6511 63.6654 57.7077L63.078 49.4067C64.9361 50.3501 65.8739 51.3073 65.9933 52.2713Z" fill="#308065"/>
<path d="M35.5153 57.7036L36.1028 66.0047C31.492 63.7719 28.8709 61.4494 28.2432 59.0883C28.1707 58.7864 28.0981 58.4844 28.0765 58.1789L27.4891 49.8779C27.5107 50.1834 27.5832 50.4854 27.6558 50.7873C28.2835 53.1484 30.9046 55.4709 35.5153 57.7036Z" fill="#308065"/>
<path d="M63.0816 49.4576L63.6181 57.7622L50.9687 66.3346L50.4322 58.03L63.0816 49.4576Z" fill="#47BE96"/>
<path d="M76.9266 53.4425L77.514 61.7435C77.5321 61.9981 77.4992 62.2564 77.4663 62.5146L76.8788 54.2136C76.9153 54.0063 76.9447 53.6971 76.9266 53.4425Z" fill="#379475"/>
<path d="M76.8825 54.2645L77.4699 62.5655C77.437 62.8238 77.4041 63.082 77.3202 63.3438L76.7328 55.0428C76.8166 54.781 76.8496 54.5228 76.8825 54.2645Z" fill="#399979"/>
<path d="M76.7328 55.0428L77.3202 63.3438C77.2364 63.6057 77.1525 63.8675 77.0178 64.133L76.4304 55.832C76.5142 55.5701 76.649 55.3047 76.7328 55.0428Z" fill="#3B9D7D"/>
<path d="M76.4304 55.8319L77.0178 64.1329C76.8866 64.4493 76.7009 64.7184 76.5189 65.0383L75.9314 56.7373C76.1135 56.4174 76.2483 56.1519 76.4304 55.8319Z" fill="#3DA281"/>
<path d="M75.8805 56.7409L76.4679 65.0419C76.1876 65.42 75.9073 65.7981 75.576 66.1798L74.9886 57.8788C75.3199 57.4971 75.6511 57.1154 75.8805 56.7409Z" fill="#3FA785"/>
<path d="M74.9886 57.8789L75.576 66.1799C75.1028 66.7252 74.4732 67.2304 73.7962 67.7901L73.2088 59.4891C73.8858 58.9294 74.4608 58.3768 74.9886 57.8789Z" fill="#40AC88"/>
<path d="M27.8541 64.4387L28.4415 72.7397C28.0706 72.5612 27.8525 72.3719 27.8308 72.0664L27.2434 63.7654C27.316 64.0673 27.4832 64.2602 27.8541 64.4387Z" fill="#308065"/>
<path d="M73.2052 59.4381L73.7926 67.7391C73.163 68.2443 72.679 68.6368 72.1877 68.9275L71.6003 60.6265C72.0407 60.3394 72.5756 59.9433 73.2052 59.4381Z" fill="#40AC88"/>
<path d="M71.6003 60.6265L72.1877 68.9275C72.0895 68.9857 71.9912 69.0438 71.8966 69.1529C71.4563 69.4399 70.7721 69.8978 69.786 70.4282C68.7089 71.1186 67.57 71.6598 66.424 72.0992L65.8365 63.7982C66.9826 63.3588 68.1179 62.7667 69.1986 62.1272C70.1302 61.5495 70.8689 61.1389 71.3092 60.8518C71.4074 60.7937 71.5057 60.7356 71.6003 60.6265Z" fill="#42B18C"/>
<path d="M65.8911 63.8455L66.4785 72.1465C65.5834 72.5169 64.6812 72.7855 63.728 73.0577L63.1406 64.7567C64.0428 64.4881 64.9924 64.165 65.8911 63.8455Z" fill="#40AC88"/>
<path d="M63.137 64.7058L63.7244 73.0068C63.1714 73.1483 62.6184 73.2898 62.0109 73.3839L61.4235 65.0829C62.031 64.9888 62.584 64.8473 63.137 64.7058Z" fill="#3FA785"/>
<path d="M61.4235 65.0829L62.0109 73.3839C61.5562 73.4673 61.0505 73.5543 60.5412 73.5903L59.9538 65.2893C60.4631 65.2533 60.9688 65.1663 61.4235 65.0829Z" fill="#3DA281"/>
<path d="M60.0047 65.2856L60.5921 73.5866C60.1338 73.6191 59.6755 73.6515 59.2171 73.6839L58.6297 65.3829C59.0881 65.3505 59.5464 65.3181 60.0047 65.2856Z" fill="#3B9D7D"/>
<path d="M58.5788 65.3865L59.1662 73.6875C58.8607 73.7091 58.5551 73.7308 58.2459 73.7015C58.0932 73.7123 57.9404 73.7231 57.784 73.683L57.1966 65.382C57.3494 65.3711 57.5022 65.3603 57.6585 65.4004C58.0186 65.4261 58.3242 65.4045 58.5788 65.3865Z" fill="#399979"/>
<path d="M57.2511 65.4293L57.8385 73.7303C57.3766 73.7118 56.9146 73.6933 56.4527 73.6748L55.8653 65.3738C56.3272 65.3923 56.7892 65.4108 57.2511 65.4293Z" fill="#379475"/>
<path d="M55.8653 65.3739L56.4527 73.6749C55.9398 73.66 55.4234 73.5942 54.9069 73.5284L54.3195 65.2274C54.7814 65.2458 55.2979 65.3117 55.8653 65.3739Z" fill="#358F71"/>
<path d="M54.2649 65.18L54.8524 73.481C54.2304 73.3714 53.5576 73.2655 52.9356 73.156L52.3482 64.855C52.9738 65.0154 53.6466 65.1214 54.2649 65.18Z" fill="#348A6D"/>
<path d="M52.3482 64.855L52.9357 73.156C52.001 72.9662 51.0627 72.7256 50.1208 72.4339L49.5334 64.1329C50.4753 64.4246 51.4136 64.6652 52.3482 64.855Z" fill="#328569"/>
<path d="M49.5334 64.1329L50.1208 72.434C48.4988 71.9346 46.8115 71.235 45.117 70.4337L44.5296 62.1327C46.2241 62.934 47.9078 63.5826 49.5334 64.1329Z" fill="#308065"/>
<path d="M44.526 62.0818L45.117 70.4337L37.3003 75.6955L36.7638 67.3909L44.526 62.0818Z" fill="#47BE96"/>
<path d="M34.2684 67.5675L34.8558 75.8685L28.3905 72.7433L27.8541 64.4387L34.2684 67.5675Z" fill="#318469"/>
<path d="M73.2052 59.4381C72.481 60.0524 71.8477 60.5066 71.3092 60.8518C70.8689 61.1389 70.1847 61.5968 69.1986 62.1272C65.6653 64.2709 61.8525 65.3596 57.6585 65.4005C53.4645 65.4414 49.0858 64.3182 44.475 62.0854L36.7129 67.3945C36.3708 67.6235 35.9706 67.7541 35.5123 67.7866C35.0539 67.819 34.6393 67.746 34.2684 67.5675L27.8031 64.4423C27.4322 64.2638 27.265 64.0709 27.2434 63.7654C27.2254 63.5107 27.3602 63.2453 27.7022 63.0164L35.5153 57.7036C30.9045 55.4708 28.2835 53.1484 27.6558 50.7873C27.028 48.4262 28.2409 46.0372 31.3524 43.7186C31.7382 43.3842 32.4224 42.9263 33.303 42.3522C34.231 41.7235 34.8642 41.2693 35.3081 41.0331C38.7905 38.893 42.6578 37.8516 46.9027 37.8071C51.2022 37.81 55.5773 38.8823 60.0281 41.024L67.7902 35.7149C68.1359 35.5369 68.587 35.4026 69.0454 35.3701C69.5037 35.3377 69.9183 35.4107 70.2892 35.5892L76.7545 38.7144C77.1254 38.8929 77.3471 39.1331 77.3651 39.3877C77.3832 39.6424 77.1975 39.9114 76.8554 40.1403L69.0933 45.4495C73.5477 47.6422 76.1142 49.9173 76.8 52.3766C77.4313 54.7887 76.2149 57.1267 73.2052 59.4381ZM41.527 53.6955L54.1764 45.1232C52.2673 44.1835 50.4998 43.7967 48.8702 43.912C47.1896 44.031 45.4941 44.6628 43.7802 45.7565L42.2627 46.734C40.0174 48.2747 38.7798 49.5907 38.6482 50.6236C38.4656 51.6602 39.4616 52.7157 41.527 53.6955ZM56.2441 59.1541C58.0157 58.8752 60.0532 58.0145 62.2476 56.4773C62.9317 56.0194 63.4194 55.6778 63.6596 55.4561C65.2645 54.2677 66.0582 53.1879 65.9388 52.2239C65.8703 51.2563 64.8851 50.3536 63.027 49.4103L50.3777 57.9826C52.5012 59.0607 54.4725 59.433 56.2441 59.1541Z" fill="#5CF6C3"/>
<path d="M35.5632 67.783L36.1506 76.084L36.0997 76.0876L35.5123 67.7866C35.5123 67.7866 35.5123 67.7866 35.5632 67.783Z" fill="#3B9D7D"/>
<path d="M35.4614 67.7902L36.0488 76.0912C35.9979 76.0948 35.9469 76.0984 35.896 76.102L35.3086 67.801C35.3595 67.7974 35.4104 67.7938 35.4614 67.7902Z" fill="#399979"/>
<path d="M35.3086 67.801L35.896 76.102C35.8451 76.1056 35.7942 76.1092 35.7432 76.1128L35.1558 67.8118C35.2067 67.8082 35.2577 67.8046 35.3086 67.801Z" fill="#379475"/>
<path d="M35.1558 67.8118L35.7432 76.1128C35.6923 76.1164 35.6414 76.12 35.5869 76.0727L34.9995 67.7717C35.0504 67.7681 35.1049 67.8154 35.1558 67.8118Z" fill="#358F71"/>
<path d="M34.9994 67.7717L35.5868 76.0727C35.5359 76.0763 35.4814 76.029 35.4305 76.0326L34.843 67.7316C34.8976 67.7789 34.9485 67.7753 34.9994 67.7717Z" fill="#348A6D"/>
<path d="M34.7921 67.7352L35.3795 76.0362C35.3286 76.0398 35.2231 75.9961 35.1722 75.9997L34.5848 67.6987C34.6867 67.6915 34.7412 67.7388 34.7921 67.7352Z" fill="#328569"/>
<path d="M34.5848 67.6987L35.1722 75.9997C35.0668 75.9559 34.9613 75.9122 34.8558 75.8685L34.2684 67.5675C34.3739 67.6112 34.4793 67.6549 34.5848 67.6987Z" fill="#308065"/>
<path d="M36.7638 67.391L37.3512 75.692C37.2057 75.8046 37.0565 75.8664 36.9073 75.9281L36.3199 67.6271C36.4691 67.5654 36.6182 67.5036 36.7638 67.391Z" fill="#42B18C"/>
<path d="M36.3199 67.6271L36.9073 75.9281C36.809 75.9862 36.7072 75.9934 36.6089 76.0515L36.0215 67.7505C36.1198 67.6924 36.2216 67.6852 36.3199 67.6271Z" fill="#40AC88"/>
<path d="M36.0179 67.6996L36.6054 76.0006C36.5544 76.0042 36.4526 76.0114 36.4053 76.066L35.8178 67.765C35.8688 67.7614 35.9706 67.7542 36.0179 67.6996Z" fill="#3FA785"/>
<path d="M35.8178 67.7649L36.4053 76.0659C36.3543 76.0695 36.3034 76.0732 36.2015 76.0804L35.6141 67.7794C35.6651 67.7758 35.7669 67.7685 35.8178 67.7649Z" fill="#3DA281"/>
<path d="M35.6142 67.7794L36.2016 76.0804C36.1506 76.084 36.1506 76.084 36.0997 76.0876L35.5123 67.7866C35.5632 67.783 35.6142 67.7794 35.6142 67.7794Z" fill="#3B9D7D"/>
<path d="M101.677 61.8249L102.265 70.126C102.268 70.1769 102.268 70.1769 102.221 70.2314L101.634 61.9304C101.681 61.8759 101.681 61.8759 101.677 61.8249Z" fill="#399979"/>
<path d="M101.685 61.9268L102.272 70.2278C102.276 70.2787 102.225 70.2823 102.228 70.3332L101.641 62.0322C101.637 61.9813 101.634 61.9304 101.685 61.9268Z" fill="#3B9D7D"/>
<path d="M101.641 62.0323L102.228 70.3333C102.232 70.3842 102.181 70.3878 102.185 70.4387L101.597 62.1377C101.594 62.0868 101.59 62.0359 101.641 62.0323Z" fill="#3DA281"/>
<path d="M101.594 62.0868L102.181 70.3878C102.134 70.4423 102.137 70.4932 102.086 70.4968L101.499 62.1958C101.499 62.1958 101.546 62.1413 101.594 62.0868Z" fill="#3FA785"/>
<path d="M101.452 62.2504L102.039 70.5514C101.992 70.6059 101.894 70.664 101.799 70.7731L101.211 62.4721C101.306 62.363 101.404 62.3049 101.452 62.2504Z" fill="#40AC88"/>
<path d="M101.208 62.4212L101.795 70.7222C101.795 70.7222 101.795 70.7222 101.744 70.7258L101.208 62.4212C101.211 62.4721 101.211 62.4721 101.208 62.4212Z" fill="#42B18C"/>
<path d="M101.211 62.4721L101.748 70.7767L100.089 71.9177L99.5011 63.6167L101.211 62.4721Z" fill="#47BE96"/>
<path d="M103.407 70.3522L103.994 78.6532C103.94 77.8893 103.224 77.1722 101.901 76.5494C101.53 76.3709 101.159 76.1924 100.74 76.0685L100.153 67.7675C100.52 67.895 100.939 68.019 101.313 68.2484C102.637 68.8712 103.353 69.5883 103.407 70.3522Z" fill="#308065"/>
<path d="M100.153 67.7675L100.74 76.0685C100.479 75.9846 100.271 75.9481 100.009 75.8643L99.4221 67.5633C99.6839 67.6471 99.8912 67.6836 100.153 67.7675Z" fill="#328569"/>
<path d="M99.4221 67.5633L100.01 75.8643C99.8531 75.8242 99.6458 75.7876 99.4385 75.7511L98.8511 67.4501C99.0584 67.4866 99.2148 67.5268 99.4221 67.5633Z" fill="#348A6D"/>
<path d="M98.8547 67.5011L99.4421 75.8021C99.2857 75.762 99.1329 75.7728 98.9766 75.7326L98.3891 67.4316C98.5455 67.4718 98.6983 67.4609 98.8547 67.5011Z" fill="#358F71"/>
<path d="M98.3892 67.4316L98.9766 75.7326C98.8238 75.7435 98.6674 75.7033 98.5146 75.7142L97.9272 67.4131C98.08 67.4023 98.2364 67.4425 98.3892 67.4316Z" fill="#379475"/>
<path d="M97.9781 67.4096L98.5655 75.7106C98.4128 75.7214 98.26 75.7322 98.1072 75.743L97.5198 67.442C97.6726 67.4312 97.8254 67.4204 97.9781 67.4096Z" fill="#399979"/>
<path d="M97.5198 67.442L98.1072 75.743C97.9544 75.7538 97.8016 75.7646 97.6489 75.7754L97.0614 67.4744C97.2142 67.4636 97.367 67.4528 97.5198 67.442Z" fill="#3B9D7D"/>
<path d="M97.0614 67.4745L97.6489 75.7755C97.547 75.7827 97.3942 75.7935 97.2924 75.8007C97.1905 75.8079 97.1396 75.8115 97.0377 75.8187L96.4503 67.5177C96.5522 67.5105 96.6031 67.5069 96.705 67.4997C96.8068 67.4925 96.9087 67.4853 97.0614 67.4745Z" fill="#3DA281"/>
<path d="M96.4539 67.5686L97.0413 75.8696C96.7394 75.9422 96.4338 75.9638 96.1319 76.0363L95.5445 67.7353C95.8464 67.6628 96.1484 67.5902 96.4539 67.5686Z" fill="#3FA785"/>
<path d="M95.5445 67.7353L96.1319 76.0363C95.6298 76.1742 95.1787 76.3085 94.6802 76.4973L94.0928 68.1963C94.5913 68.0075 95.0424 67.8732 95.5445 67.7353Z" fill="#40AC88"/>
<path d="M94.0928 68.1963L94.6803 76.4973C94.0326 76.7479 93.4395 77.0458 92.8027 77.4491L92.2153 69.1481C92.8557 68.7957 93.4452 68.4469 94.0928 68.1963Z" fill="#42B18C"/>
<path d="M92.2153 69.1481L92.8027 77.4491C92.3624 77.7362 91.722 78.0886 90.9432 78.6555C90.652 78.8808 90.3573 79.0553 90.1135 79.226L89.5261 70.925C89.7699 70.7542 90.0646 70.5798 90.3558 70.3545C91.1891 69.8349 91.775 69.4352 92.2153 69.1481Z" fill="#42B18C"/>
<path d="M89.577 70.9214L90.1644 79.2224C89.8223 79.4513 89.5312 79.6767 89.2874 79.8475L88.7 71.5465C88.9438 71.3757 89.2349 71.1503 89.577 70.9214Z" fill="#40AC88"/>
<path d="M88.7 71.5465L89.2874 79.8475C88.9489 80.1273 88.6068 80.3563 88.3702 80.6289L87.7828 72.3279C88.023 72.1062 88.3615 71.8263 88.7 71.5465Z" fill="#40AC88"/>
<path d="M87.7864 72.3788L88.3738 80.6798C88.1809 80.847 88.0426 81.0615 87.9515 81.2215L87.3641 72.9205C87.5025 72.706 87.6445 72.5424 87.7864 72.3788Z" fill="#3FA785"/>
<path d="M87.3641 72.9206L87.9515 81.2216C87.8605 81.3816 87.7658 81.4906 87.7257 81.647L87.1383 73.346C87.1784 73.1896 87.2695 73.0296 87.3641 72.9206Z" fill="#3DA281"/>
<path d="M87.1383 73.3459L87.7257 81.6469C87.682 81.7524 87.591 81.9124 87.5982 82.0142L87.0108 73.7132C86.9999 73.5605 87.0437 73.455 87.1383 73.3459Z" fill="#3B9D7D"/>
<path d="M86.9598 73.7169L87.5472 82.0179C87.5035 82.1233 87.4634 82.2797 87.4706 82.3816L86.8832 74.0805C86.9269 73.9751 86.9161 73.8223 86.9598 73.7169Z" fill="#399979"/>
<path d="M61.4604 80.793L62.0478 89.094C61.6769 88.9155 61.4552 88.6753 61.4372 88.4206C61.4372 88.4206 61.4372 88.4206 61.4336 88.3697L60.8462 80.0687C60.8462 80.0687 60.8462 80.0687 60.8498 80.1197C60.9187 80.3707 61.0895 80.6145 61.4604 80.793Z" fill="#308065"/>
<path d="M115.825 70.8042L116.412 79.1052C116.416 79.1561 116.419 79.2071 116.423 79.258C116.437 79.4617 116.397 79.6181 116.361 79.8254L115.773 71.5244C115.81 71.3171 115.799 71.1643 115.836 70.957C115.832 70.906 115.828 70.8551 115.825 70.8042Z" fill="#379475"/>
<path d="M115.828 71.5717L116.415 79.8727C116.382 80.1309 116.349 80.3892 116.266 80.651L115.678 72.35C115.711 72.0918 115.795 71.8299 115.828 71.5717Z" fill="#399979"/>
<path d="M115.627 72.3536L116.215 80.6546C116.131 80.9165 116 81.2328 115.865 81.4983L115.278 73.1973C115.46 72.8773 115.543 72.6155 115.627 72.3536Z" fill="#3B9D7D"/>
<path d="M115.328 73.1936L115.916 81.4946C115.734 81.8146 115.555 82.1855 115.322 82.5091L114.735 74.2081C114.964 73.8336 115.146 73.5136 115.328 73.1936Z" fill="#3DA281"/>
<path d="M114.735 74.2081L115.322 82.5091C114.995 82.9418 114.671 83.4253 114.241 83.8652L113.654 75.5642C114.08 75.0734 114.407 74.6408 114.735 74.2081Z" fill="#3FA785"/>
<path d="M113.65 75.5132L114.237 83.8142C113.477 84.6358 112.512 85.4717 111.391 86.2676L110.804 77.9666C111.925 77.1707 112.889 76.3348 113.65 75.5132Z" fill="#40AC88"/>
<path d="M110.757 78.0211L111.344 86.3221C111.1 86.4929 110.809 86.7183 110.42 87.0017L109.832 78.7007C110.222 78.4173 110.513 78.1919 110.757 78.0211Z" fill="#40AC88"/>
<path d="M109.832 78.7007L110.42 87.0017C110.176 87.1725 109.932 87.3433 109.637 87.5177C108.906 88.0301 108.269 88.4334 107.778 88.7241L107.19 80.4231C107.682 80.1324 108.268 79.7327 109.05 79.2167C109.345 79.0423 109.589 78.8715 109.832 78.7007Z" fill="#42B18C"/>
<path d="M81.0361 76.7975L81.5725 85.1021L71.1721 92.1845L70.5847 83.8835L81.0361 76.7975Z" fill="#47BE96"/>
<path d="M68.1402 84.0565L68.6767 92.3611L62.0478 89.094L61.4604 80.793L68.1402 84.0565Z" fill="#318469"/>
<path d="M70.5846 83.8836L71.1721 92.1846C71.0265 92.2973 70.8773 92.359 70.7281 92.4207L70.1407 84.1197C70.3408 84.0544 70.4355 83.9453 70.5846 83.8836Z" fill="#42B18C"/>
<path d="M70.1917 84.1161L70.7791 92.4171C70.6808 92.4753 70.579 92.4825 70.4807 92.5406L69.8933 84.2396C69.9916 84.1815 70.0898 84.1233 70.1917 84.1161Z" fill="#40AC88"/>
<path d="M69.8897 84.1886L70.4771 92.4897C70.4262 92.4933 70.3243 92.5005 70.277 92.555L69.6896 84.254C69.7369 84.1995 69.7878 84.1959 69.8897 84.1886Z" fill="#3FA785"/>
<path d="M69.6387 84.2576L70.2261 92.5586C70.1752 92.5622 70.1242 92.5658 70.0224 92.573L69.435 84.272C69.5368 84.2648 69.5878 84.2612 69.6387 84.2576Z" fill="#3DA281"/>
<path d="M69.4859 84.2684L70.0733 92.5694C70.0224 92.573 70.0224 92.573 69.9715 92.5766L69.9205 92.5802L69.3331 84.2792L69.3841 84.2756C69.435 84.272 69.435 84.272 69.4859 84.2684Z" fill="#3B9D7D"/>
<path d="M69.3331 84.2792L69.9205 92.5802C69.8696 92.5838 69.8187 92.5874 69.7677 92.591L69.1803 84.29C69.2313 84.2864 69.2822 84.2828 69.3331 84.2792Z" fill="#399979"/>
<path d="M69.1803 84.2901L69.7678 92.5911C69.7168 92.5947 69.6659 92.5983 69.615 92.6019L69.0276 84.3009C69.024 84.25 69.0785 84.2973 69.1803 84.2901Z" fill="#379475"/>
<path d="M68.973 84.2536L69.5604 92.5546C69.5095 92.5582 69.4586 92.5618 69.4041 92.5144L68.8167 84.2134C68.8712 84.2608 68.9221 84.2572 68.973 84.2536Z" fill="#358F71"/>
<path d="M68.8203 84.2643L69.4077 92.5653C69.3568 92.5689 69.3022 92.5216 69.2513 92.5252L68.6639 84.2242C68.7148 84.2206 68.7693 84.2679 68.8203 84.2643Z" fill="#348A6D"/>
<path d="M68.6639 84.2243L69.2513 92.5253C69.2004 92.5289 69.0949 92.4852 69.044 92.4888L68.4566 84.1877C68.5075 84.1841 68.562 84.2315 68.6639 84.2243Z" fill="#328569"/>
<path d="M68.4566 84.1877L69.044 92.4887C68.9385 92.445 68.8331 92.4013 68.7276 92.3576L68.1402 84.0566C68.2456 84.1003 68.3511 84.144 68.4566 84.1877Z" fill="#308065"/>
<path d="M107.241 80.4195L107.829 88.7205C106.359 89.6434 104.878 90.4136 103.335 91.0346L102.748 82.7336C104.29 82.1126 105.771 81.3424 107.241 80.4195Z" fill="#42B18C"/>
<path d="M102.748 82.7336L103.335 91.0346C102.291 91.4668 101.29 91.7935 100.235 92.0729L99.6478 83.7719C100.703 83.4925 101.751 83.1112 102.748 82.7336Z" fill="#40AC88"/>
<path d="M99.6442 83.7209L100.232 92.0219C99.6277 92.167 98.9728 92.3157 98.3653 92.4099L97.7779 84.1089C98.3854 84.0147 99.0439 83.9169 99.6442 83.7209Z" fill="#3FA785"/>
<path d="M97.7779 84.1089L98.3653 92.4099C97.8597 92.4968 97.354 92.5838 96.7938 92.6234L96.2064 84.3224C96.7666 84.2828 97.2759 84.2468 97.7779 84.1089Z" fill="#3DA281"/>
<path d="M96.21 84.3733L96.7974 92.6743C96.7465 92.6779 96.7465 92.6779 96.6956 92.6815C96.2882 92.7104 95.8808 92.7392 95.4224 92.7716L94.835 84.4706C95.2424 84.4418 95.6498 84.413 96.1082 84.3805C96.1591 84.3769 96.21 84.3733 96.21 84.3733Z" fill="#3B9D7D"/>
<path d="M94.8859 84.4671L95.4734 92.7681C95.0659 92.7969 94.6549 92.7748 94.2475 92.8036L93.6601 84.5026C94.0675 84.4738 94.4749 84.445 94.8859 84.4671Z" fill="#399979"/>
<path d="M93.6565 84.4517L94.2439 92.7527C93.8329 92.7306 93.4219 92.7085 93.0618 92.6828L92.4744 84.3818C92.8381 84.4585 93.2491 84.4806 93.6565 84.4517Z" fill="#379475"/>
<path d="M92.4271 84.4364L93.0145 92.7374C92.6035 92.7153 92.1888 92.6423 91.7778 92.6202L91.1904 84.3192C91.6014 84.3412 92.016 84.4143 92.4271 84.4364Z" fill="#358F71"/>
<path d="M91.1904 84.3191L91.7778 92.6201C91.3123 92.5507 90.8467 92.4813 90.3776 92.3609L89.7902 84.0599C90.2557 84.1294 90.7249 84.2497 91.1904 84.3191Z" fill="#348A6D"/>
<path d="M89.7902 84.0599L90.3776 92.3609C89.7557 92.2514 89.181 92.0873 88.6028 91.8723L88.0154 83.5714C88.5936 83.7863 89.2192 83.9468 89.7902 84.0599Z" fill="#328569"/>
<path d="M88.0154 83.5713L88.6028 91.8723C87.7119 91.5771 86.8173 91.231 85.97 90.8303C83.1592 89.4426 81.6653 87.8593 81.5391 86.0769L80.9517 77.7759C81.0779 79.5583 82.5718 81.1416 85.3826 82.5293C86.2299 82.93 87.1281 83.327 88.0154 83.5713Z" fill="#308065"/>
<path d="M110.757 78.0211C110.368 78.3046 109.833 78.7007 109.051 79.2167C108.319 79.7291 107.682 80.1324 107.191 80.4231C103.665 82.6687 99.9685 83.9539 96.1089 84.3806C92.2457 84.7563 88.6705 84.1392 85.3324 82.5329C81.9943 80.9266 80.5261 78.9832 80.9858 76.8011L70.5854 83.8835C70.2433 84.1125 69.8431 84.2432 69.3848 84.2756C68.9264 84.308 68.5118 84.235 68.1409 84.0565L61.5156 80.8403C61.1447 80.6618 60.923 80.4216 60.905 80.167C60.887 79.9123 61.0217 79.6469 61.3638 79.418L92.4705 58.2796C92.8126 58.0507 93.2128 57.92 93.7221 57.8839C94.1804 57.8515 94.646 57.9209 95.0169 58.0994L101.166 61.0934C101.537 61.2719 101.758 61.5121 101.776 61.7668C101.794 62.0214 101.66 62.2868 101.267 62.5194L99.5563 63.664C103.66 63.0666 107.431 63.5674 110.879 65.2684C114.217 66.8747 115.889 68.8036 115.894 71.0552C115.842 73.2085 114.164 75.5281 110.757 78.0211ZM98.148 75.5866C98.4937 75.4086 98.9813 75.067 99.6655 74.6091C100.35 74.1513 100.786 73.8133 101.077 73.588C102.435 72.5194 103.236 71.5415 103.378 70.6613C103.521 69.7812 102.848 68.9587 101.31 68.1974C99.8266 67.4835 98.3245 67.2315 96.7057 67.4996C95.1342 67.7132 93.6388 68.2797 92.2669 69.1445C91.8266 69.4315 91.1862 69.7839 90.4074 70.3509C89.6759 70.8633 89.0901 71.263 88.7007 71.5464C87.5325 72.3968 86.9317 73.3094 86.8911 74.1824C86.8032 75.1099 87.5229 75.8778 88.9556 76.5954C90.4937 77.3566 92.0467 77.605 93.5128 77.3477C95.0334 77.1377 96.5797 76.5677 98.148 75.5866Z" fill="#5CF6C3"/>
<path d="M139.793 80.4192L140.38 88.7203C140.384 88.7712 140.384 88.7712 140.336 88.8257L139.749 80.5247C139.796 80.4702 139.793 80.4192 139.793 80.4192Z" fill="#399979"/>
<path d="M139.745 80.4738L140.333 88.7748C140.336 88.8257 140.336 88.8257 140.289 88.8802L139.702 80.5792C139.753 80.5756 139.749 80.5247 139.745 80.4738Z" fill="#3B9D7D"/>
<path d="M139.753 80.5756L140.34 88.8766C140.344 88.9275 140.293 88.9311 140.296 88.9821L139.709 80.6811C139.705 80.6302 139.705 80.6301 139.753 80.5756Z" fill="#3DA281"/>
<path d="M139.658 80.6847L140.245 88.9857C140.198 89.0402 140.198 89.0402 140.151 89.0948L139.563 80.7937C139.611 80.7392 139.662 80.7356 139.658 80.6847Z" fill="#3FA785"/>
<path d="M139.563 80.7937L140.151 89.0948C140.103 89.1493 140.005 89.2074 139.91 89.3165L139.323 81.0155C139.421 80.9573 139.516 80.8483 139.563 80.7937Z" fill="#40AC88"/>
<path d="M139.374 81.0118L139.961 89.3128C139.961 89.3128 139.961 89.3128 139.911 89.3164L139.374 81.0118C139.323 81.0154 139.323 81.0154 139.374 81.0118Z" fill="#42B18C"/>
<path d="M139.323 81.0154L139.86 89.32L127.116 98.0014L126.528 89.7004L139.323 81.0154Z" fill="#47BE96"/>
<path d="M108.19 93.0965L108.777 101.398C108.457 101.215 108.239 101.026 108.217 100.721L107.63 92.4196C107.651 92.7252 107.87 92.9145 108.19 93.0965Z" fill="#308065"/>
<path d="M158.345 89.4451L158.932 97.7461C158.936 97.797 158.936 97.797 158.889 97.8515L158.301 89.5505C158.298 89.4996 158.345 89.4451 158.345 89.4451Z" fill="#399979"/>
<path d="M158.301 89.5505L158.889 97.8515C158.892 97.9024 158.892 97.9024 158.845 97.9569L158.257 89.6559C158.305 89.6014 158.301 89.5505 158.301 89.5505Z" fill="#3B9D7D"/>
<path d="M158.254 89.605L158.841 97.906C158.845 97.957 158.794 97.9606 158.798 98.0115L158.21 89.7105C158.261 89.7069 158.257 89.656 158.254 89.605Z" fill="#3DA281"/>
<path d="M158.21 89.7105L158.798 98.0115C158.75 98.066 158.75 98.066 158.703 98.1206L158.115 89.8196C158.163 89.765 158.214 89.7614 158.21 89.7105Z" fill="#3FA785"/>
<path d="M158.115 89.8196L158.703 98.1206C158.656 98.1751 158.557 98.2332 158.51 98.2878L157.923 89.9868C158.021 89.9286 158.068 89.8741 158.115 89.8196Z" fill="#40AC88"/>
<path d="M113.968 95.9121L114.555 104.213L108.777 101.398L108.19 93.0966L113.968 95.9121Z" fill="#318469"/>
<path d="M139.436 92.0114L139.972 100.316L116.719 104.418L116.183 96.1136L139.436 92.0114Z" fill="#43B38E"/>
<path d="M116.183 96.1137L116.77 104.415L116.719 104.418L116.183 96.1137C116.132 96.1173 116.132 96.1173 116.183 96.1137Z" fill="#3FA785"/>
<path d="M116.132 96.1172L116.719 104.418C116.617 104.425 116.465 104.436 116.363 104.443L115.775 96.1425C115.877 96.1352 115.979 96.128 116.132 96.1172Z" fill="#3DA281"/>
<path d="M115.775 96.1425L116.363 104.444C116.261 104.451 116.159 104.458 116.057 104.465L115.47 96.1641C115.572 96.1569 115.673 96.1497 115.775 96.1425Z" fill="#3B9D7D"/>
<path d="M115.47 96.1641L116.057 104.465C115.955 104.472 115.904 104.476 115.802 104.483L115.215 96.1821C115.317 96.1749 115.419 96.1677 115.47 96.1641Z" fill="#399979"/>
<path d="M115.215 96.1821L115.802 104.483C115.752 104.487 115.65 104.494 115.599 104.498L115.011 96.1965C115.113 96.1893 115.164 96.1857 115.215 96.1821Z" fill="#379475"/>
<path d="M115.008 96.1456L115.595 104.447C115.544 104.45 115.442 104.457 115.388 104.41L114.8 96.1091C114.855 96.1565 114.957 96.1492 115.008 96.1456Z" fill="#358F71"/>
<path d="M114.804 96.16L115.391 104.461C115.341 104.465 115.235 104.421 115.184 104.425L114.597 96.1235C114.648 96.1199 114.75 96.1127 114.804 96.16Z" fill="#348A6D"/>
<path d="M114.597 96.1236L115.184 104.425C115.082 104.432 115.028 104.384 114.922 104.341L114.335 96.0397C114.389 96.0871 114.491 96.0798 114.597 96.1236Z" fill="#328569"/>
<path d="M114.335 96.0397L114.922 104.341C114.817 104.297 114.711 104.253 114.555 104.213L113.968 95.9122C114.073 95.9559 114.179 95.9996 114.335 96.0397Z" fill="#308065"/>
<path d="M126.796 102.17L127.384 110.471C127.013 110.292 126.791 110.052 126.773 109.797L126.769 109.747L126.182 101.445L126.186 101.496C126.204 101.751 126.422 101.94 126.796 102.17Z" fill="#308065"/>
<path d="M157.923 89.9868L158.459 98.2914L136.293 113.423L135.706 105.122L157.923 89.9868Z" fill="#47BE96"/>
<path d="M133.262 105.295L133.798 113.6L127.384 110.471L126.796 102.17L133.262 105.295Z" fill="#318469"/>
<path d="M157.774 88.6153C158.145 88.7938 158.312 88.9867 158.334 89.2922C158.352 89.5469 158.217 89.8123 157.926 90.0377L135.706 105.122C135.415 105.347 135.015 105.478 134.505 105.514C134.047 105.546 133.582 105.477 133.211 105.299L126.796 102.17C126.425 101.991 126.204 101.751 126.186 101.496C126.168 101.242 126.302 100.976 126.644 100.747L139.439 92.0624L116.186 96.1646C115.328 96.3277 114.557 96.2799 113.971 95.9631L108.193 93.1475C107.873 92.9654 107.655 92.7761 107.633 92.4706C107.612 92.165 107.75 91.9505 108.092 91.7216L130.258 76.59C130.6 76.361 131 76.2303 131.509 76.1943C131.968 76.1619 132.382 76.2349 132.753 76.4134L139.219 79.5386C139.589 79.717 139.811 79.9573 139.829 80.2119C139.847 80.4665 139.712 80.732 139.37 80.9609L126.575 89.6459L149.829 85.5437C150.687 85.3806 151.458 85.4284 152.044 85.7452L157.774 88.6153Z" fill="#5CF6C3"/>
<path d="M135.706 105.122L136.293 113.423C136.195 113.481 136.05 113.594 135.897 113.605L135.309 105.304C135.459 105.242 135.608 105.18 135.706 105.122Z" fill="#42B18C"/>
<path d="M135.309 105.304L135.897 113.605C135.799 113.663 135.697 113.67 135.599 113.728L135.011 105.427C135.109 105.369 135.211 105.362 135.309 105.304Z" fill="#40AC88"/>
<path d="M135.011 105.427L135.599 113.728C135.548 113.732 135.446 113.739 135.398 113.793L134.811 105.492C134.858 105.438 134.96 105.431 135.011 105.427Z" fill="#3FA785"/>
<path d="M134.807 105.441L135.395 113.742C135.344 113.746 135.242 113.753 135.191 113.757L134.604 105.456C134.658 105.503 134.706 105.449 134.807 105.441Z" fill="#3DA281"/>
<path d="M134.556 105.51L135.144 113.811L135.093 113.815C135.042 113.819 134.991 113.822 134.94 113.826L134.353 105.525C134.404 105.521 134.455 105.518 134.505 105.514C134.556 105.51 134.556 105.51 134.556 105.51Z" fill="#3B9D7D"/>
<path d="M134.404 105.521L134.991 113.822C134.94 113.826 134.889 113.829 134.838 113.833L134.251 105.532C134.251 105.532 134.353 105.525 134.404 105.521Z" fill="#399979"/>
<path d="M134.196 105.485L134.784 113.786C134.733 113.789 134.682 113.793 134.631 113.797L134.044 105.496C134.094 105.492 134.145 105.488 134.196 105.485Z" fill="#379475"/>
<path d="M134.044 105.496L134.631 113.797C134.58 113.8 134.529 113.804 134.475 113.756L133.887 105.455C133.942 105.503 133.993 105.499 134.044 105.496Z" fill="#358F71"/>
<path d="M133.891 105.506L134.478 113.807C134.427 113.811 134.376 113.815 134.322 113.767L133.734 105.466C133.785 105.463 133.836 105.459 133.891 105.506Z" fill="#348A6D"/>
<path d="M133.734 105.466L134.322 113.767C134.271 113.771 134.165 113.727 134.114 113.731L133.527 105.43C133.578 105.426 133.68 105.419 133.734 105.466Z" fill="#328569"/>
<path d="M133.523 105.379L134.111 113.68C134.005 113.636 133.9 113.592 133.794 113.549L133.207 105.248C133.316 105.342 133.422 105.386 133.523 105.379Z" fill="#308065"/>
<path d="M177.846 98.8643L178.434 107.165C178.437 107.216 178.437 107.216 178.39 107.271L177.802 98.9698C177.802 98.9698 177.799 98.9188 177.846 98.8643Z" fill="#399979"/>
<path d="M177.802 98.9698L178.39 107.271C178.393 107.322 178.343 107.325 178.346 107.376L177.759 99.0752C177.806 99.0207 177.806 99.0207 177.802 98.9698Z" fill="#3B9D7D"/>
<path d="M177.759 99.0753L178.346 107.376C178.35 107.427 178.299 107.431 178.302 107.482L177.715 99.1807C177.711 99.1298 177.762 99.1262 177.759 99.0753Z" fill="#3DA281"/>
<path d="M177.715 99.1807L178.302 107.482C178.255 107.536 178.259 107.587 178.208 107.591L177.62 99.2898C177.668 99.2352 177.668 99.2352 177.715 99.1807Z" fill="#3FA785"/>
<path d="M177.62 99.2898L178.208 107.591C178.16 107.645 178.062 107.703 177.968 107.813L177.38 99.5115C177.478 99.4534 177.522 99.3479 177.62 99.2898Z" fill="#40AC88"/>
<path d="M177.38 99.5115L177.968 107.813C177.968 107.813 177.968 107.813 177.917 107.816L177.38 99.5115C177.38 99.5115 177.329 99.5151 177.38 99.5115Z" fill="#42B18C"/>
<path d="M177.329 99.5151L177.917 107.816L170.202 113.071L169.665 104.766L177.329 99.5151Z" fill="#47BE96"/>
<path d="M195.504 107.544L196.091 115.845C196.095 115.896 196.095 115.896 196.044 115.9L195.457 107.599C195.507 107.595 195.504 107.544 195.504 107.544Z" fill="#3B9D7D"/>
<path d="M195.456 107.599L196.044 115.9C196.048 115.95 195.997 115.954 196 116.005L195.413 107.704C195.46 107.649 195.46 107.649 195.456 107.599Z" fill="#3DA281"/>
<path d="M195.413 107.704L196 116.005C196.004 116.056 195.953 116.06 195.906 116.114L195.318 107.813C195.365 107.759 195.416 107.755 195.413 107.704Z" fill="#3FA785"/>
<path d="M195.369 107.809L195.956 116.11C195.909 116.165 195.862 116.22 195.764 116.278L195.176 107.977C195.223 107.922 195.322 107.864 195.369 107.809Z" fill="#40AC88"/>
<path d="M195.173 107.926L195.76 116.227C195.713 116.281 195.662 116.285 195.563 116.343L194.976 108.042C195.027 108.038 195.125 107.98 195.173 107.926C195.176 107.977 195.176 107.977 195.173 107.926Z" fill="#42B18C"/>
<path d="M194.925 108.046L195.513 116.347C195.363 116.408 195.112 116.477 194.81 116.55L194.223 108.249C194.529 108.227 194.776 108.107 194.925 108.046Z" fill="#40AC88"/>
<path d="M146.356 111.687L146.943 119.988C146.572 119.81 146.405 119.617 146.383 119.311L145.796 111.01C145.865 111.261 146.036 111.505 146.356 111.687Z" fill="#308065"/>
<path d="M165.762 110.365L166.353 118.717L163.753 117.417L163.217 109.112L165.762 110.365Z" fill="#318469"/>
<path d="M194.227 108.3L194.814 116.601L177.563 120.176L176.976 111.875L194.227 108.3Z" fill="#44B590"/>
<path d="M163.217 109.112L163.753 117.417L155.747 122.897L155.16 114.596L163.217 109.112Z" fill="#47BE96"/>
<path d="M152.716 114.769L153.252 123.073L146.943 119.988L146.356 111.687L152.716 114.769Z" fill="#318469"/>
<path d="M155.16 114.596L155.747 122.897C155.649 122.955 155.504 123.068 155.351 123.078L154.763 114.777C154.913 114.716 155.062 114.654 155.16 114.596Z" fill="#42B18C"/>
<path d="M154.814 114.774L155.402 123.075C155.304 123.133 155.202 123.14 155.103 123.198L154.516 114.897C154.614 114.839 154.716 114.832 154.814 114.774Z" fill="#40AC88"/>
<path d="M154.465 114.901L155.053 123.202C155.002 123.205 154.9 123.213 154.852 123.267L154.265 114.966C154.312 114.912 154.414 114.904 154.465 114.901Z" fill="#3FA785"/>
<path d="M154.261 114.915L154.849 123.216C154.798 123.22 154.696 123.227 154.645 123.231L154.058 114.93C154.112 114.977 154.214 114.97 154.261 114.915Z" fill="#3DA281"/>
<path d="M154.061 114.981L154.649 123.282L154.598 123.285C154.547 123.289 154.496 123.292 154.445 123.296L153.858 114.995C153.909 114.991 153.959 114.988 154.01 114.984C154.01 114.984 154.01 114.984 154.061 114.981Z" fill="#3B9D7D"/>
<path d="M153.858 114.995L154.445 123.296C154.394 123.3 154.343 123.303 154.292 123.307L153.705 115.006C153.756 115.002 153.807 114.999 153.858 114.995Z" fill="#399979"/>
<path d="M153.705 115.006L154.292 123.307C154.241 123.31 154.19 123.314 154.139 123.318L153.552 115.017C153.599 114.962 153.65 114.959 153.705 115.006Z" fill="#379475"/>
<path d="M153.548 114.966L154.136 123.267C154.085 123.27 154.034 123.274 153.979 123.227L153.392 114.926C153.447 114.973 153.497 114.969 153.548 114.966Z" fill="#358F71"/>
<path d="M153.396 114.977L153.983 123.278C153.932 123.281 153.881 123.285 153.827 123.237L153.239 114.936C153.29 114.933 153.341 114.929 153.396 114.977Z" fill="#348A6D"/>
<path d="M153.239 114.936L153.827 123.237C153.776 123.241 153.67 123.197 153.619 123.201L153.032 114.9C153.083 114.896 153.134 114.893 153.239 114.936Z" fill="#328569"/>
<path d="M153.032 114.9L153.619 123.201C153.514 123.157 153.408 123.113 153.303 123.07L152.716 114.769C152.821 114.812 152.926 114.856 153.032 114.9Z" fill="#308065"/>
<path d="M163.952 120.218L164.539 128.519C164.063 128.297 163.783 127.958 163.758 127.602L163.17 119.301C163.195 119.657 163.475 119.996 163.952 120.218Z" fill="#308065"/>
<path d="M176.976 111.875L177.563 120.176L174.74 131.635L174.153 123.334L176.976 111.875Z" fill="#3B9E7D"/>
<path d="M171.639 123.973L172.175 132.278L164.488 128.522L163.952 120.218L171.639 123.973Z" fill="#318469"/>
<path d="M194.933 106.714C195.253 106.896 195.471 107.086 195.489 107.34C195.507 107.595 195.42 107.806 195.125 107.98C194.98 108.093 194.678 108.165 194.227 108.3L176.979 111.926L174.153 123.335C174.112 123.491 173.974 123.705 173.73 123.876C173.436 124.051 173.086 124.178 172.73 124.203C172.322 124.232 171.959 124.155 171.639 123.973L163.952 120.218C163.315 119.905 163.083 119.512 163.2 118.991L165.766 110.416L163.17 109.167L155.16 114.596C154.869 114.821 154.469 114.952 153.959 114.988C153.501 115.02 153.036 114.951 152.665 114.772L146.305 111.691C145.934 111.512 145.767 111.319 145.745 111.014C145.723 110.708 145.862 110.494 146.204 110.265L168.373 95.1843C168.715 94.9553 169.115 94.8246 169.625 94.7886C170.083 94.7562 170.498 94.8292 170.869 95.0077L177.228 98.0891C177.599 98.2676 177.821 98.5078 177.839 98.7625C177.857 99.0171 177.722 99.2826 177.329 99.5151L169.662 104.715L172.364 106.008L185.875 103.107C186.733 102.944 187.504 102.992 188.09 103.309L194.933 106.714Z" fill="#5CF6C3"/>
<path d="M174.156 123.385L174.744 131.686C174.744 131.686 174.747 131.737 174.696 131.741L174.109 123.44C174.109 123.44 174.109 123.44 174.156 123.385Z" fill="#3B9D7D"/>
<path d="M174.109 123.44L174.696 131.741C174.7 131.792 174.649 131.795 174.653 131.846L174.065 123.545C174.062 123.494 174.112 123.491 174.109 123.44Z" fill="#3DA281"/>
<path d="M174.065 123.545L174.653 131.846C174.656 131.897 174.605 131.901 174.558 131.955L173.97 123.654C174.018 123.6 174.018 123.6 174.065 123.545Z" fill="#3FA785"/>
<path d="M173.97 123.655L174.558 131.956C174.511 132.01 174.412 132.068 174.365 132.123L173.778 123.822C173.876 123.764 173.923 123.709 173.97 123.655Z" fill="#40AC88"/>
<path d="M173.778 123.822L174.365 132.123C174.365 132.123 174.365 132.123 174.314 132.126C174.216 132.184 174.118 132.243 173.968 132.304L173.381 124.003C173.534 123.992 173.632 123.934 173.778 123.822Z" fill="#42B18C"/>
<path d="M173.381 124.003L173.968 132.304C173.87 132.362 173.819 132.366 173.717 132.373L173.13 124.072C173.232 124.065 173.334 124.058 173.381 124.003Z" fill="#40AC88"/>
<path d="M173.134 124.123L173.721 132.424C173.67 132.428 173.619 132.431 173.568 132.435L172.981 124.134C173.032 124.13 173.083 124.127 173.134 124.123Z" fill="#3FA785"/>
<path d="M172.981 124.134L173.568 132.435C173.517 132.439 173.466 132.442 173.415 132.446L172.828 124.145C172.879 124.141 172.93 124.138 172.981 124.134Z" fill="#3DA281"/>
<path d="M172.828 124.145L173.415 132.446C173.365 132.449 173.364 132.449 173.314 132.453L173.263 132.457L172.675 124.156L172.726 124.152C172.777 124.148 172.777 124.148 172.828 124.145Z" fill="#3B9D7D"/>
<path d="M172.675 124.156L173.263 132.457C173.212 132.46 173.161 132.464 173.11 132.467L172.522 124.166C172.573 124.163 172.624 124.159 172.675 124.156Z" fill="#399979"/>
<path d="M172.522 124.166L173.11 132.467C173.059 132.471 173.008 132.475 172.957 132.478L172.37 124.177C172.421 124.174 172.472 124.17 172.522 124.166Z" fill="#379475"/>
<path d="M172.421 124.174L173.008 132.475C172.957 132.478 172.906 132.482 172.855 132.485L172.268 124.184C172.319 124.181 172.37 124.177 172.421 124.174Z" fill="#358F71"/>
<path d="M172.264 124.133L172.852 132.434C172.801 132.438 172.75 132.442 172.695 132.394L172.108 124.093C172.162 124.141 172.213 124.137 172.264 124.133Z" fill="#348A6D"/>
<path d="M172.111 124.144L172.699 132.445C172.648 132.449 172.542 132.405 172.492 132.409L171.904 124.108C171.955 124.104 172.057 124.097 172.111 124.144Z" fill="#328569"/>
<path d="M171.901 124.057L172.488 132.358C172.382 132.314 172.277 132.27 172.172 132.227L171.584 123.926C171.693 124.02 171.799 124.064 171.901 124.057Z" fill="#308065"/>
<path d="M214.692 116.883L215.28 125.184C215.283 125.235 215.283 125.235 215.236 125.29L214.649 116.989C214.696 116.934 214.692 116.883 214.692 116.883Z" fill="#399979"/>
<path d="M214.645 116.938L215.232 125.239C215.236 125.29 215.236 125.29 215.189 125.344L214.601 117.043C214.649 116.989 214.649 116.989 214.645 116.938Z" fill="#3B9D7D"/>
<path d="M214.652 117.039L215.24 125.34C215.243 125.391 215.192 125.395 215.196 125.446L214.609 117.145C214.605 117.094 214.605 117.094 214.652 117.039Z" fill="#3DA281"/>
<path d="M214.558 117.148L215.145 125.449C215.098 125.504 215.098 125.504 215.05 125.559L214.463 117.258C214.51 117.203 214.561 117.199 214.558 117.148Z" fill="#3FA785"/>
<path d="M214.463 117.258L215.05 125.559C215.003 125.613 214.905 125.671 214.81 125.78L214.223 117.479C214.368 117.367 214.416 117.312 214.463 117.258Z" fill="#40AC88"/>
<path d="M214.27 117.425L214.857 125.726C214.857 125.726 214.857 125.726 214.807 125.729L214.27 117.425C214.223 117.479 214.223 117.479 214.27 117.425Z" fill="#42B18C"/>
<path d="M214.223 117.479L214.81 125.78L202.015 134.465L201.428 126.164L214.223 117.479Z" fill="#47BE96"/>
<path d="M183.089 129.56L183.677 137.861C183.357 137.679 183.139 137.49 183.117 137.185L182.53 128.884C182.598 129.135 182.769 129.378 183.089 129.56Z" fill="#308065"/>
<path d="M233.245 125.909L233.832 134.21C233.836 134.261 233.836 134.261 233.788 134.315L233.201 126.014C233.248 125.96 233.245 125.909 233.245 125.909Z" fill="#399979"/>
<path d="M233.201 126.014L233.788 134.315C233.792 134.366 233.792 134.366 233.745 134.421L233.157 126.12C233.204 126.065 233.201 126.014 233.201 126.014Z" fill="#3B9D7D"/>
<path d="M233.204 126.065L233.792 134.366C233.795 134.417 233.745 134.421 233.748 134.472L233.161 126.171C233.157 126.12 233.157 126.12 233.204 126.065Z" fill="#3DA281"/>
<path d="M233.11 126.174L233.697 134.475C233.65 134.53 233.65 134.53 233.603 134.584L233.015 126.283C233.062 126.229 233.113 126.225 233.11 126.174Z" fill="#3FA785"/>
<path d="M233.066 126.28L233.653 134.581C233.606 134.635 233.508 134.693 233.461 134.748L232.873 126.447C232.921 126.392 232.968 126.338 233.066 126.28Z" fill="#40AC88"/>
<path d="M188.867 132.376L189.455 140.677L183.677 137.861L183.089 129.56L188.867 132.376Z" fill="#318469"/>
<path d="M214.335 128.475L214.872 136.78L191.615 140.831L191.079 132.527L214.335 128.475Z" fill="#43B38E"/>
<path d="M191.079 132.527L191.666 140.828L191.615 140.831L191.028 132.53C191.031 132.581 191.028 132.53 191.079 132.527Z" fill="#3FA785"/>
<path d="M191.031 132.581L191.619 140.882C191.517 140.889 191.364 140.9 191.262 140.907L190.675 132.606C190.777 132.599 190.879 132.592 191.031 132.581Z" fill="#3DA281"/>
<path d="M190.675 132.606L191.262 140.907C191.16 140.915 191.059 140.922 191.008 140.925L190.42 132.624C190.471 132.621 190.573 132.614 190.675 132.606Z" fill="#3B9D7D"/>
<path d="M190.369 132.628L190.957 140.929C190.855 140.936 190.804 140.94 190.702 140.947L190.115 132.646C190.217 132.639 190.318 132.632 190.369 132.628Z" fill="#399979"/>
<path d="M190.115 132.646L190.702 140.947C190.651 140.951 190.549 140.958 190.498 140.961L189.911 132.66C190.013 132.653 190.064 132.65 190.115 132.646Z" fill="#379475"/>
<path d="M189.907 132.61L190.495 140.911C190.444 140.914 190.342 140.921 190.288 140.874L189.7 132.573C189.755 132.62 189.856 132.613 189.907 132.61Z" fill="#358F71"/>
<path d="M189.704 132.624L190.291 140.925C190.24 140.929 190.135 140.885 190.084 140.888L189.496 132.587C189.547 132.584 189.649 132.577 189.704 132.624Z" fill="#348A6D"/>
<path d="M189.496 132.587L190.084 140.888C189.982 140.896 189.927 140.848 189.822 140.805L189.235 132.504C189.289 132.551 189.391 132.544 189.496 132.587Z" fill="#328569"/>
<path d="M189.235 132.504L189.822 140.805C189.717 140.761 189.611 140.717 189.455 140.677L188.867 132.376C188.973 132.42 189.078 132.463 189.235 132.504Z" fill="#308065"/>
<path d="M201.692 138.583L202.28 146.884C201.909 146.705 201.687 146.465 201.669 146.21L201.666 146.159L201.078 137.858L201.082 137.909C201.103 138.215 201.321 138.404 201.692 138.583Z" fill="#308065"/>
<path d="M232.822 126.451L233.359 134.755L211.193 149.887L210.606 141.586L232.822 126.451Z" fill="#47BE96"/>
<path d="M208.161 141.759L208.698 150.063L202.28 146.884L201.692 138.583L208.161 141.759Z" fill="#318469"/>
<path d="M232.674 125.079C233.045 125.258 233.212 125.451 233.234 125.756C233.252 126.011 233.117 126.276 232.826 126.501L210.606 141.586C210.315 141.811 209.914 141.942 209.405 141.978C208.947 142.01 208.481 141.941 208.11 141.762L201.696 138.634C201.325 138.455 201.103 138.215 201.085 137.96C201.067 137.706 201.202 137.44 201.544 137.211L214.339 128.526L191.086 132.628C190.227 132.792 189.456 132.744 188.871 132.427L183.093 129.611C182.773 129.429 182.555 129.24 182.533 128.934C182.512 128.629 182.65 128.414 182.992 128.185L205.161 113.105C205.503 112.876 205.903 112.745 206.413 112.709C206.871 112.677 207.286 112.75 207.657 112.928L214.071 116.057C214.442 116.235 214.664 116.476 214.682 116.73C214.7 116.985 214.565 117.25 214.223 117.479L201.428 126.164L224.681 122.062C225.539 121.899 226.311 121.947 226.896 122.264L232.674 125.079Z" fill="#5CF6C3"/>
<path d="M210.606 141.586L211.193 149.887C211.095 149.945 210.949 150.058 210.797 150.068L210.209 141.767C210.358 141.706 210.507 141.644 210.606 141.586Z" fill="#42B18C"/>
<path d="M210.209 141.767L210.797 150.068C210.698 150.127 210.596 150.134 210.498 150.192L209.911 141.891C210.009 141.833 210.111 141.826 210.209 141.767Z" fill="#40AC88"/>
<path d="M209.911 141.891L210.498 150.192C210.447 150.195 210.345 150.203 210.298 150.257L209.711 141.956C209.758 141.902 209.86 141.894 209.911 141.891Z" fill="#3FA785"/>
<path d="M209.707 141.905L210.295 150.206C210.244 150.21 210.142 150.217 210.091 150.221L209.503 141.92C209.554 141.916 209.605 141.912 209.707 141.905Z" fill="#3DA281"/>
<path d="M209.452 141.923L210.04 150.224L209.989 150.228C209.938 150.232 209.887 150.235 209.836 150.239L209.249 141.938C209.3 141.934 209.351 141.931 209.402 141.927C209.452 141.923 209.452 141.923 209.452 141.923Z" fill="#3B9D7D"/>
<path d="M209.3 141.934L209.887 150.235C209.836 150.239 209.785 150.242 209.734 150.246L209.147 141.945C209.198 141.941 209.249 141.938 209.3 141.934Z" fill="#399979"/>
<path d="M209.147 141.945L209.734 150.246C209.683 150.25 209.632 150.253 209.582 150.257L208.994 141.956C209.045 141.952 209.096 141.949 209.147 141.945Z" fill="#379475"/>
<path d="M208.994 141.956L209.582 150.257C209.531 150.26 209.48 150.264 209.425 150.217L208.838 141.916C208.892 141.963 208.943 141.959 208.994 141.956Z" fill="#358F71"/>
<path d="M208.838 141.916L209.425 150.217C209.374 150.22 209.323 150.224 209.269 150.176L208.681 141.875C208.685 141.926 208.736 141.923 208.838 141.916Z" fill="#348A6D"/>
<path d="M208.634 141.93L209.221 150.231C209.171 150.235 209.065 150.191 209.014 150.195L208.427 141.893C208.529 141.886 208.579 141.883 208.634 141.93Z" fill="#328569"/>
<path d="M208.423 141.843L209.011 150.144C208.905 150.1 208.8 150.056 208.694 150.012L208.107 141.711C208.216 141.806 208.321 141.85 208.423 141.843Z" fill="#308065"/>
<path d="M237.251 134.787L237.838 143.088C237.467 142.909 237.246 142.669 237.228 142.415L237.224 142.364L236.637 134.063L236.64 134.114C236.658 134.368 236.825 134.561 237.251 134.787Z" fill="#308065"/>
<path d="M244.883 138.495L245.471 146.796L237.787 143.091L237.251 134.787L244.883 138.495Z" fill="#318469"/>
<path d="M268.542 143.014L269.129 151.315C269.133 151.366 269.133 151.366 269.085 151.42L268.498 143.119C268.549 143.115 268.545 143.065 268.542 143.014Z" fill="#399979"/>
<path d="M268.549 143.115L269.136 151.416C269.14 151.467 269.089 151.471 269.093 151.522L268.505 143.221C268.502 143.17 268.502 143.17 268.549 143.115Z" fill="#3B9D7D"/>
<path d="M268.505 143.221L269.093 151.522C269.096 151.573 269.045 151.576 269.049 151.627L268.462 143.326C268.458 143.275 268.458 143.275 268.505 143.221Z" fill="#3DA281"/>
<path d="M268.411 143.33L268.998 151.631C268.951 151.686 268.954 151.736 268.903 151.74L268.316 143.439C268.363 143.385 268.414 143.381 268.411 143.33Z" fill="#3FA785"/>
<path d="M268.316 143.439L268.903 151.74C268.856 151.795 268.758 151.853 268.663 151.962L268.076 143.661C268.174 143.603 268.269 143.494 268.316 143.439Z" fill="#40AC88"/>
<path d="M268.076 143.661L268.663 151.962C268.663 151.962 268.663 151.962 268.612 151.965L268.076 143.661Z" fill="#42B18C"/>
<path d="M268.076 143.661L268.612 151.965L264.558 154.709L264.022 146.404L268.076 143.661Z" fill="#47BE96"/>
<path d="M261.526 146.581L262.114 154.882L254.376 151.13L253.788 142.829L261.526 146.581Z" fill="#318469"/>
<path d="M264.022 146.404L264.609 154.705C264.511 154.763 264.365 154.876 264.213 154.887L263.625 146.586C263.778 146.575 263.876 146.517 264.022 146.404Z" fill="#42B18C"/>
<path d="M263.629 146.637L264.216 154.938C264.118 154.996 264.016 155.003 263.918 155.061L263.33 146.76C263.429 146.702 263.527 146.644 263.629 146.637Z" fill="#40AC88"/>
<path d="M263.327 146.709L263.914 155.01C263.863 155.014 263.762 155.021 263.714 155.076L263.127 146.775C263.178 146.771 263.229 146.768 263.327 146.709Z" fill="#3FA785"/>
<path d="M263.076 146.778L263.663 155.079C263.612 155.083 263.51 155.09 263.46 155.094L262.872 146.793C262.923 146.789 263.025 146.782 263.076 146.778Z" fill="#3DA281"/>
<path d="M262.872 146.793L263.46 155.094L263.409 155.097C263.358 155.101 263.307 155.105 263.256 155.108L262.668 146.807C262.719 146.804 262.77 146.8 262.821 146.796C262.821 146.796 262.872 146.793 262.872 146.793Z" fill="#3B9D7D"/>
<path d="M262.668 146.807L263.256 155.108C263.205 155.112 263.154 155.115 263.103 155.119L262.516 146.818C262.567 146.814 262.618 146.811 262.668 146.807Z" fill="#399979"/>
<path d="M262.516 146.818L263.103 155.119C263.052 155.123 263.001 155.126 262.95 155.13L262.363 146.829C262.414 146.825 262.465 146.822 262.516 146.818Z" fill="#379475"/>
<path d="M262.363 146.829L262.95 155.13C262.899 155.133 262.848 155.137 262.794 155.09L262.207 146.789C262.257 146.785 262.312 146.832 262.363 146.829Z" fill="#358F71"/>
<path d="M262.207 146.789L262.794 155.09C262.743 155.093 262.692 155.097 262.638 155.05L262.05 146.749C262.105 146.796 262.156 146.792 262.207 146.789Z" fill="#348A6D"/>
<path d="M262.05 146.749L262.638 155.05C262.587 155.053 262.481 155.009 262.43 155.013L261.843 146.712C261.897 146.759 261.948 146.756 262.05 146.749Z" fill="#328569"/>
<path d="M261.843 146.712L262.43 155.013C262.325 154.969 262.219 154.926 262.114 154.882L261.526 146.581C261.632 146.625 261.737 146.668 261.843 146.712Z" fill="#308065"/>
<path d="M228.143 151.451L228.73 159.752C228.359 159.574 228.137 159.333 228.119 159.079L228.116 159.028L227.528 150.727L227.532 150.778C227.55 151.032 227.772 151.273 228.143 151.451Z" fill="#308065"/>
<path d="M253.788 142.829L254.376 151.13L237.432 162.668L236.896 154.363L253.788 142.829Z" fill="#47BE96"/>
<path d="M234.401 154.54L234.988 162.841L228.679 159.756L228.143 151.451L234.401 154.54Z" fill="#318469"/>
<path d="M236.896 154.363L237.483 162.664C237.385 162.722 237.239 162.835 237.087 162.846L236.499 154.545C236.648 154.483 236.747 154.425 236.896 154.363Z" fill="#42B18C"/>
<path d="M236.499 154.545L237.087 162.846C236.988 162.904 236.887 162.911 236.788 162.969L236.201 154.668C236.299 154.61 236.401 154.603 236.499 154.545Z" fill="#40AC88"/>
<path d="M236.201 154.668L236.788 162.969C236.737 162.973 236.636 162.98 236.588 163.035L236.001 154.734C236.048 154.679 236.099 154.676 236.201 154.668Z" fill="#3FA785"/>
<path d="M235.946 154.686L236.534 162.987C236.483 162.991 236.381 162.998 236.33 163.002L235.743 154.701C235.848 154.745 235.895 154.69 235.946 154.686Z" fill="#3DA281"/>
<path d="M235.746 154.752L236.334 163.053L236.283 163.056C236.232 163.06 236.181 163.064 236.13 163.067L235.543 154.766C235.593 154.763 235.644 154.759 235.695 154.755L235.746 154.752Z" fill="#3B9D7D"/>
<path d="M235.543 154.766L236.13 163.067C236.079 163.071 236.028 163.074 235.977 163.078L235.39 154.777C235.441 154.773 235.492 154.77 235.543 154.766Z" fill="#399979"/>
<path d="M235.386 154.726L235.974 163.027C235.923 163.031 235.872 163.034 235.821 163.038L235.233 154.737C235.284 154.733 235.335 154.73 235.386 154.726Z" fill="#379475"/>
<path d="M235.233 154.737L235.821 163.038C235.77 163.041 235.719 163.045 235.664 162.998L235.077 154.697C235.131 154.744 235.182 154.74 235.233 154.737Z" fill="#358F71"/>
<path d="M235.081 154.748L235.668 163.049C235.617 163.052 235.566 163.056 235.512 163.009L234.924 154.708C234.975 154.704 235.026 154.7 235.081 154.748Z" fill="#348A6D"/>
<path d="M234.924 154.708L235.512 163.009C235.461 163.012 235.355 162.968 235.304 162.972L234.717 154.671C234.768 154.667 234.87 154.66 234.924 154.708Z" fill="#328569"/>
<path d="M234.713 154.62L235.301 162.921C235.195 162.877 235.09 162.834 234.984 162.79L234.397 154.489C234.506 154.584 234.611 154.627 234.713 154.62Z" fill="#308065"/>
<path d="M267.975 142.235C268.346 142.413 268.567 142.654 268.585 142.908C268.604 143.163 268.469 143.428 268.076 143.661L264.022 146.404C263.731 146.63 263.33 146.76 262.821 146.796C262.363 146.829 261.897 146.759 261.526 146.581L253.788 142.829L236.841 154.316C236.55 154.541 236.15 154.672 235.641 154.708C235.182 154.74 234.717 154.671 234.346 154.493L228.041 151.458C227.67 151.28 227.448 151.04 227.43 150.785C227.412 150.53 227.547 150.265 227.889 150.036L244.836 138.549L237.149 134.794C236.778 134.616 236.556 134.375 236.538 134.121C236.52 133.866 236.655 133.601 236.997 133.372L241.051 130.628C241.393 130.399 241.793 130.269 242.303 130.233C242.761 130.2 243.226 130.27 243.597 130.448L267.975 142.235Z" fill="#5CF6C3"/>
<path d="M286.461 151.777L287.049 160.078C287.052 160.129 287.052 160.129 287.005 160.184L286.418 151.883C286.465 151.828 286.465 151.828 286.461 151.777Z" fill="#399979"/>
<path d="M286.418 151.883L287.005 160.184C287.009 160.234 287.009 160.234 286.961 160.289L286.374 151.988C286.421 151.933 286.418 151.883 286.418 151.883Z" fill="#3B9D7D"/>
<path d="M286.374 151.988L286.961 160.289C286.965 160.34 286.914 160.344 286.918 160.394L286.33 152.093C286.377 152.039 286.374 151.988 286.374 151.988Z" fill="#3DA281"/>
<path d="M286.326 152.043L286.914 160.344C286.867 160.398 286.867 160.398 286.819 160.453L286.232 152.152C286.283 152.148 286.33 152.093 286.326 152.043Z" fill="#3FA785"/>
<path d="M286.235 152.203L286.823 160.504C286.776 160.558 286.677 160.616 286.583 160.725L285.995 152.424C286.09 152.315 286.188 152.257 286.235 152.203Z" fill="#40AC88"/>
<path d="M285.992 152.373L286.579 160.674C286.579 160.674 286.579 160.674 286.528 160.678L285.992 152.373Z" fill="#42B18C"/>
<path d="M285.992 152.373L286.528 160.678L273.788 169.41L273.2 161.109L285.992 152.373Z" fill="#47BE96"/>
<path d="M254.862 164.505L255.449 172.806C255.078 172.628 254.911 172.435 254.889 172.129L254.302 163.828C254.32 164.083 254.542 164.323 254.862 164.505Z" fill="#308065"/>
<path d="M305.013 160.803L305.601 169.104C305.604 169.155 305.604 169.155 305.557 169.209L304.97 160.908C304.97 160.908 305.017 160.854 305.013 160.803Z" fill="#399979"/>
<path d="M304.97 160.908L305.557 169.209C305.561 169.26 305.561 169.26 305.513 169.315L304.926 161.014C304.973 160.959 304.973 160.959 304.97 160.908Z" fill="#3B9D7D"/>
<path d="M304.926 161.014L305.513 169.315C305.517 169.366 305.466 169.369 305.47 169.42L304.882 161.119C304.93 161.065 304.926 161.014 304.926 161.014Z" fill="#3DA281"/>
<path d="M304.882 161.119L305.47 169.42C305.422 169.475 305.422 169.475 305.375 169.529L304.788 161.228C304.835 161.174 304.882 161.119 304.882 161.119Z" fill="#3FA785"/>
<path d="M304.788 161.228L305.375 169.529C305.328 169.584 305.229 169.642 305.182 169.697L304.595 161.396C304.693 161.337 304.74 161.283 304.788 161.228Z" fill="#40AC88"/>
<path d="M260.636 167.27L261.224 175.571L255.449 172.806L254.862 164.505L260.636 167.27Z" fill="#318469"/>
<path d="M286.104 163.369L286.641 171.674L263.388 175.776L262.851 167.472L286.104 163.369Z" fill="#43B38E"/>
<path d="M262.851 167.472L263.439 175.773L263.388 175.776L262.851 167.472C262.8 167.475 262.8 167.475 262.851 167.472Z" fill="#3FA785"/>
<path d="M262.8 167.475L263.388 175.776C263.286 175.783 263.133 175.794 263.031 175.801L262.444 167.5C262.549 167.544 262.647 167.486 262.8 167.475Z" fill="#3DA281"/>
<path d="M262.447 167.551L263.035 175.852C262.933 175.86 262.831 175.867 262.729 175.874L262.142 167.573C262.244 167.566 262.346 167.559 262.447 167.551Z" fill="#3B9D7D"/>
<path d="M262.142 167.573L262.729 175.874C262.627 175.881 262.576 175.885 262.475 175.892L261.887 167.591C261.989 167.584 262.04 167.58 262.142 167.573Z" fill="#399979"/>
<path d="M261.884 167.54L262.471 175.841C262.42 175.845 262.318 175.852 262.267 175.855L261.68 167.554C261.731 167.551 261.833 167.544 261.884 167.54Z" fill="#379475"/>
<path d="M261.68 167.554L262.267 175.855C262.216 175.859 262.115 175.866 262.06 175.819L261.473 167.518C261.527 167.565 261.629 167.558 261.68 167.554Z" fill="#358F71"/>
<path d="M261.473 167.518L262.06 175.819C262.009 175.823 261.904 175.779 261.853 175.782L261.265 167.481C261.32 167.529 261.371 167.525 261.473 167.518Z" fill="#348A6D"/>
<path d="M261.265 167.481L261.853 175.782C261.751 175.79 261.696 175.742 261.591 175.699L261.003 167.398C261.058 167.445 261.163 167.489 261.265 167.481Z" fill="#328569"/>
<path d="M261.003 167.398L261.591 175.699C261.485 175.655 261.38 175.611 261.224 175.571L260.636 167.27C260.745 167.365 260.851 167.408 261.003 167.398Z" fill="#308065"/>
<path d="M273.465 173.528L274.052 181.829C273.681 181.65 273.46 181.41 273.442 181.155L273.438 181.104L272.851 172.803L272.854 172.854C272.872 173.109 273.094 173.349 273.465 173.528Z" fill="#308065"/>
<path d="M304.595 161.396L305.131 169.7L282.962 184.781L282.375 176.48L304.595 161.396Z" fill="#47BE96"/>
<path d="M279.93 176.653L280.467 184.957L274.052 181.829L273.465 173.528L279.93 176.653Z" fill="#318469"/>
<path d="M304.443 159.973C304.763 160.155 304.981 160.345 305.003 160.65C305.021 160.905 304.886 161.17 304.595 161.396L282.375 176.48C282.083 176.705 281.683 176.836 281.174 176.872C280.716 176.904 280.25 176.835 279.879 176.656L273.465 173.528C273.094 173.349 272.872 173.109 272.854 172.854C272.836 172.6 272.971 172.334 273.313 172.105L286.108 163.42L262.855 167.522C261.996 167.686 261.225 167.638 260.64 167.321L254.862 164.505C254.491 164.327 254.324 164.134 254.302 163.828C254.28 163.523 254.419 163.308 254.761 163.079L276.93 147.999C277.272 147.77 277.672 147.639 278.182 147.603C278.64 147.571 279.055 147.644 279.425 147.822L285.84 150.951C286.211 151.129 286.432 151.37 286.45 151.624C286.468 151.879 286.334 152.144 285.992 152.373L273.197 161.058L296.45 156.956C297.308 156.793 298.079 156.841 298.665 157.158L304.443 159.973Z" fill="#5CF6C3"/>
<path d="M282.375 176.48L282.962 184.781C282.864 184.839 282.718 184.952 282.565 184.962L281.978 176.661C282.131 176.651 282.28 176.589 282.375 176.48Z" fill="#42B18C"/>
<path d="M281.982 176.712L282.569 185.013C282.471 185.071 282.369 185.079 282.271 185.137L281.683 176.836C281.782 176.778 281.88 176.72 281.982 176.712Z" fill="#40AC88"/>
<path d="M281.68 176.785L282.267 185.086C282.216 185.09 282.114 185.097 282.016 185.155L281.429 176.854C281.53 176.847 281.578 176.792 281.68 176.785Z" fill="#3FA785"/>
<path d="M281.429 176.854L282.016 185.155C281.965 185.159 281.863 185.166 281.812 185.169L281.225 176.868C281.327 176.861 281.378 176.857 281.429 176.854Z" fill="#3DA281"/>
<path d="M281.225 176.868L281.812 185.169L281.761 185.173C281.71 185.176 281.66 185.18 281.609 185.184L281.021 176.883C281.123 176.875 281.123 176.875 281.225 176.868Z" fill="#3B9D7D"/>
<path d="M281.072 176.879L281.66 185.18C281.609 185.184 281.558 185.187 281.507 185.191L280.919 176.89C280.97 176.886 281.021 176.883 281.072 176.879Z" fill="#399979"/>
<path d="M280.868 176.893L281.456 185.195C281.405 185.198 281.354 185.202 281.303 185.205L280.716 176.904C280.767 176.901 280.818 176.897 280.868 176.893Z" fill="#379475"/>
<path d="M280.716 176.904L281.303 185.205C281.252 185.209 281.201 185.213 281.147 185.165L280.559 176.864C280.61 176.861 280.661 176.857 280.716 176.904Z" fill="#358F71"/>
<path d="M280.559 176.864L281.147 185.165C281.096 185.169 281.045 185.172 280.99 185.125L280.403 176.824C280.457 176.871 280.508 176.868 280.559 176.864Z" fill="#348A6D"/>
<path d="M280.403 176.824L280.99 185.125C280.939 185.129 280.834 185.085 280.783 185.089L280.196 176.788C280.247 176.784 280.352 176.828 280.403 176.824Z" fill="#328569"/>
<path d="M280.196 176.788L280.783 185.089C280.678 185.045 280.572 185.001 280.467 184.957L279.879 176.656C279.985 176.7 280.09 176.744 280.196 176.788Z" fill="#308065"/>
</g>
<defs>
<filter id="filter0_d" x="-18.5781" y="-12.5193" width="369.222" height="250.921" filterUnits="userSpaceOnUse" color-interpolation-filters="sRGB">
<feFlood flood-opacity="0" result="BackgroundImageFix"/>
<feColorMatrix in="SourceAlpha" type="matrix" values="0 0 0 0 0 0 0 0 0 0 0 0 0 0 0 0 0 0 127 0"/>
<feOffset dy="2"/>
<feGaussianBlur stdDeviation="7.5"/>
<feColorMatrix type="matrix" values="0 0 0 0 0.0125 0 0 0 0 0.0125 0 0 0 0 0.0125 0 0 0 0.5 0"/>
<feBlend mode="normal" in2="BackgroundImageFix" result="effect1_dropShadow"/>
<feBlend mode="normal" in="SourceGraphic" in2="effect1_dropShadow" result="shape"/>
</filter>
</defs>
</svg>
