<svg width="461" height="302" viewBox="0 0 461 302" fill="none" xmlns="http://www.w3.org/2000/svg">
<g clip-path="url(#clip0_907_2667)" filter="url(#filter0_d_907_2667)">
<path d="M64.2507 51.4423L67.0594 77.5159L66.6099 76.5852L63.8126 50.4972L64.2507 51.4423Z" fill="#2E7B62"/>
<path d="M82.4857 59.3023L85.2959 85.3888L67.0595 77.5161L64.2509 51.4425L82.4857 59.3023Z" fill="#318469"/>
<path d="M122.23 77.2477L125.041 103.334L85.2959 85.3885L82.4857 59.3019L122.23 77.2477Z" fill="#318368"/>
<path d="M19.2896 102.771L22.0983 128.844L17.8286 114.844L15.0199 88.7707L19.2896 102.771Z" fill="#2E7B62"/>
<path d="M79.587 39.754L97.0965 48.0262L158.872 75.9186L159.102 76.8749C138.951 90.2133 115.579 99.8772 88.7799 104.671C69.1827 108.271 48.1412 108.145 23.4607 105.259C21.9989 105.089 21.2132 104.984 20.6178 104.713C19.9129 104.402 19.6312 103.897 19.2883 102.758L15.0201 88.7705C40.891 93.4314 60.973 93.9835 80.7372 90.6925C96.2275 88.0709 109.853 83.74 122.23 77.2477L82.4857 59.3019L64.2365 51.4307L63.7984 50.4856L77.9355 39.8682L79.587 39.754Z" fill="#5CF6C3"/>
<mask id="mask0_907_2667" style="mask-type:luminance" maskUnits="userSpaceOnUse" x="19" y="76" width="143" height="58">
<path d="M159.102 76.875L161.912 102.962C141.761 116.3 118.389 125.964 91.59 130.758C71.9928 134.357 50.9513 134.232 26.2709 131.346C24.809 131.176 24.0233 131.071 23.428 130.8C22.7231 130.489 22.4413 129.984 22.0985 128.844L19.2883 102.758C19.6326 103.91 19.9129 104.402 20.6178 104.713C21.2131 104.984 21.9988 105.089 23.4607 105.259C48.1411 108.145 69.1827 108.271 88.7798 104.671C115.591 99.8758 138.949 90.2005 159.102 76.875Z" fill="white"/>
</mask>
<g mask="url(#mask0_907_2667)">
<path d="M159.102 76.8748L161.912 102.961C149.609 111.097 136.112 117.877 121.36 123.008L118.55 96.9214C133.301 91.7905 146.798 85.0102 159.102 76.8748Z" fill="#40AC88"/>
<path d="M118.551 96.9345L121.362 123.021C115.78 124.957 110.028 126.665 104.091 128.131L101.281 102.045C107.22 100.591 112.972 98.8838 118.551 96.9345Z" fill="#3FA785"/>
<path d="M101.279 102.032L104.089 128.119C100.011 129.119 95.8405 130 91.5899 130.758C90.922 130.876 90.254 130.993 89.586 131.11L86.7758 105.024C87.4438 104.906 88.1118 104.789 88.7798 104.672C93.0303 103.913 97.201 103.033 101.279 102.032Z" fill="#3DA281"/>
<path d="M86.7775 105.036L89.5877 131.123C86.2593 131.695 82.8785 132.155 79.4468 132.517L76.6366 106.43C80.0683 106.069 83.4362 105.61 86.7775 105.036Z" fill="#3B9D7D"/>
<path d="M76.6479 106.416L79.4581 132.502C75.8971 132.879 72.2837 133.143 68.5921 133.299L65.7819 107.213C69.4735 107.057 73.0869 106.792 76.6479 106.416Z" fill="#399979"/>
<path d="M65.7818 107.213L68.592 133.299C64.3785 133.477 60.0594 133.536 55.6445 133.448L52.8344 107.361C57.2477 107.436 61.5683 107.39 65.7818 107.213Z" fill="#379475"/>
<path d="M52.8359 107.374L55.6461 133.461C49.9183 133.356 43.9953 133.038 37.8655 132.522L35.0553 106.435C41.198 106.95 47.1081 107.269 52.8359 107.374Z" fill="#358F71"/>
<path d="M35.0423 106.437L37.8524 132.524C34.079 132.204 30.219 131.816 26.2723 131.359C25.6478 131.288 25.1428 131.229 24.7283 131.159L21.9181 105.072C22.3326 105.142 22.8376 105.201 23.4621 105.272C27.4088 105.729 31.2704 106.13 35.0423 106.437Z" fill="#348A6D"/>
<path d="M21.9183 105.072L24.7285 131.159C24.4349 131.114 24.193 131.064 23.9771 131.011L21.1669 104.924C21.3829 104.977 21.6376 105.026 21.9183 105.072Z" fill="#328569"/>
<path d="M21.1654 104.911L23.9756 130.998C23.7725 130.943 23.5954 130.885 23.4296 130.813C22.7247 130.502 22.4429 129.997 22.1001 128.857L19.2899 102.771C19.6343 103.923 19.9145 104.415 20.6194 104.726C20.7852 104.798 20.9623 104.856 21.1654 104.911Z" fill="#308065"/>
</g>
<path d="M203.481 90.5042L206.277 116.579L188.673 129.843L185.863 103.757L203.481 90.5042Z" fill="#46BC95"/>
<path d="M185.863 103.757L157.258 125.974L137.567 117.091L167.129 95.549L185.061 82.0634L186.712 81.9492L203.359 89.4569L203.481 90.5045L185.863 103.757Z" fill="#5CF6C3"/>
<path d="M157.258 125.974L160.068 152.061L140.375 143.165L137.567 117.091L157.258 125.974Z" fill="#318368"/>
<path d="M185.863 103.757L188.673 129.843L160.068 152.06L157.258 125.974L185.863 103.757Z" fill="#46BC95"/>
<path d="M244.817 106.809L247.614 132.897L217.513 155.551L214.703 129.465L244.817 106.809Z" fill="#46BC95"/>
<path d="M119.937 150.677L122.746 176.751L117.796 163.551L114.986 137.465L119.937 150.677Z" fill="#2E7B62"/>
<mask id="mask1_907_2667" style="mask-type:luminance" maskUnits="userSpaceOnUse" x="119" y="150" width="8" height="30">
<path d="M123.999 153.126L126.809 179.213C125.347 179.042 124.561 178.937 123.979 178.665C123.397 178.392 123.214 177.836 122.748 176.763L119.937 150.677C120.404 151.75 120.575 152.32 121.169 152.578C121.763 152.837 122.537 152.956 123.999 153.126Z" fill="white"/>
</mask>
<g mask="url(#mask1_907_2667)">
<path d="M123.999 153.126L126.809 179.212C126.21 179.138 125.718 179.077 125.318 179.019L122.508 152.933C122.91 153.004 123.402 153.064 123.999 153.126Z" fill="#348A6D"/>
<path d="M122.495 152.935L125.305 179.021C125.012 178.977 124.757 178.928 124.526 178.863L121.716 152.777C121.947 152.841 122.201 152.89 122.495 152.935Z" fill="#328569"/>
<path d="M121.729 152.775L124.539 178.861C124.336 178.806 124.145 178.737 123.979 178.665C123.384 178.393 123.214 177.836 122.748 176.763L119.937 150.677C120.404 151.75 120.575 152.32 121.169 152.578C121.335 152.651 121.513 152.721 121.729 152.775Z" fill="#308065"/>
</g>
<path d="M244.696 105.774L244.817 106.809L214.703 129.465C197.194 142.639 187.858 147.557 171.955 151.472C158.648 154.717 141.071 155.524 123.999 153.126C122.537 152.956 121.751 152.851 121.169 152.578C120.586 152.305 120.403 151.75 119.937 150.677L114.986 137.464C135.118 141.367 151.801 140.533 162.637 138.022C175.643 135.009 182.482 130.71 194.063 122.004L225.804 98.1225L227.455 98.0083L244.685 105.789L244.696 105.774Z" fill="#5CF6C3"/>
<mask id="mask2_907_2667" style="mask-type:luminance" maskUnits="userSpaceOnUse" x="123" y="129" width="95" height="52">
<path d="M214.703 129.465L217.513 155.551C200.004 168.725 190.668 173.643 174.765 177.558C161.458 180.803 143.882 181.61 126.809 179.213L123.999 153.126C141.071 155.524 158.648 154.717 171.955 151.472C187.858 147.557 197.194 142.639 214.703 129.465Z" fill="white"/>
</mask>
<g mask="url(#mask2_907_2667)">
<path d="M214.703 129.465L217.513 155.551C204.016 165.7 195.374 170.944 184.856 174.61L182.046 148.524C192.576 144.856 201.219 139.612 214.703 129.465Z" fill="#40AC88"/>
<path d="M182.047 148.537L184.857 174.623C181.783 175.69 178.55 176.631 174.995 177.505L172.185 151.419C175.739 150.532 178.973 149.604 182.047 148.537Z" fill="#3FA785"/>
<path d="M172.172 151.42L174.982 177.507C174.904 177.516 174.828 177.538 174.765 177.558C172.7 178.062 170.537 178.511 168.288 178.892L165.478 152.805C167.727 152.424 169.89 151.975 171.955 151.472C172.033 151.463 172.109 151.441 172.172 151.42Z" fill="#3DA281"/>
<path d="M165.478 152.805L168.288 178.892C165.96 179.282 163.535 179.617 161.049 179.881L158.239 153.795C160.725 153.531 163.152 153.208 165.478 152.805Z" fill="#3B9D7D"/>
<path d="M158.239 153.794L161.049 179.881C158.459 180.157 155.782 180.352 153.056 180.473L150.246 154.387C152.972 154.265 155.636 154.072 158.239 153.794Z" fill="#399979"/>
<path d="M150.244 154.374L153.055 180.461C150.185 180.586 147.241 180.628 144.271 180.569L141.461 154.482C144.429 154.529 147.375 154.499 150.244 154.374Z" fill="#379475"/>
<path d="M141.462 154.495L144.273 180.581C141.106 180.519 137.89 180.37 134.672 180.09L131.862 154.004C135.078 154.27 138.296 154.432 141.462 154.495Z" fill="#358F71"/>
<path d="M131.862 154.004L134.672 180.09C132.051 179.872 129.421 179.576 126.809 179.213L123.999 153.126C126.61 153.49 129.241 153.786 131.862 154.004Z" fill="#348A6D"/>
</g>
<path d="M240.244 141.741L243.04 167.816L242.396 166.908L239.586 140.821L240.244 141.741Z" fill="#2E7B62"/>
<path d="M256.102 146.313L258.911 172.387L243.04 167.816L240.244 141.741L256.102 146.313Z" fill="#348C6F"/>
<path d="M311.857 134.991L314.652 161.066L304.759 171.765L301.95 145.692L311.857 134.991Z" fill="#45B892"/>
<path d="M270.292 150.738L273.102 176.825L258.911 172.386L256.102 146.313L270.292 150.738Z" fill="#348A6E"/>
<path d="M210.003 160.387L212.813 186.474L212.17 185.684L209.361 159.61L210.003 160.387Z" fill="#2E7B62"/>
<path d="M226.565 165.152L229.375 191.239L212.813 186.474L210.003 160.387L226.565 165.152Z" fill="#348C6F"/>
<path d="M306.948 162.11L309.759 188.197L293.952 183.278L291.156 157.203L306.948 162.11Z" fill="#348A6E"/>
<path d="M291.156 157.203L293.951 183.278L284.341 193.485L281.531 167.398L291.156 157.203Z" fill="#45B892"/>
<path d="M249.985 172.511L252.782 198.599L229.375 191.239L226.565 165.152L249.985 172.511Z" fill="#348A6D"/>
<path d="M334.177 156.165L336.985 182.238L326.652 192.988L323.842 166.902L334.177 156.165Z" fill="#45B892"/>
<path d="M322.317 167.198L325.127 193.284L309.759 188.197L306.949 162.11L322.317 167.198Z" fill="#33896D"/>
<path d="M323.842 166.902L326.652 192.989L325.126 193.285L322.316 167.198L323.842 166.902Z" fill="#42B08C"/>
<path d="M270.836 178.977L273.645 205.051L268.392 210.698L265.597 184.623L270.836 178.977Z" fill="#45B892"/>
<path d="M292.64 185.857L295.45 211.943L273.645 205.051L270.836 178.977L292.64 185.857Z" fill="#348A6D"/>
<path d="M320.088 179.885L322.898 205.972L312.564 216.709L309.754 190.622L320.088 179.885Z" fill="#45B892"/>
<path d="M308.243 191.048L311.054 217.134L295.451 211.943L292.64 185.857L308.243 191.048Z" fill="#33896D"/>
<path d="M309.754 190.622L312.564 216.709L311.054 217.134L308.243 191.048L309.754 190.622Z" fill="#44B58F"/>
<path d="M247.546 204.834L250.355 230.908L227.636 224.725L224.826 198.639L247.546 204.834Z" fill="#358D6F"/>
<path d="M265.597 184.623L268.392 210.698L250.355 230.908L247.546 204.834L265.597 184.623Z" fill="#45B791"/>
<path d="M311.515 133.969L311.857 134.991L301.95 145.691L318.337 150.857L333.96 155.325L334.176 156.165L323.842 166.902L322.316 167.198L306.948 162.11L291.156 157.203L281.531 167.398L302.646 174.096L319.554 179.017L320.088 179.885L309.753 190.622L308.243 191.048L292.64 185.856L270.836 178.977L265.596 184.623L247.546 204.834L224.825 198.639L243.549 179.476L249.985 172.511L226.565 165.152L210.003 160.387L209.361 159.61L219.333 148.574L220.968 148.2L237.484 153.691L260.669 160.947L270.292 150.738L256.102 146.313L240.244 141.741L239.586 140.822L249.56 129.917L251.194 129.542L267.019 134.839L280.975 139.174L290.788 128.681L292.407 128.178L311.515 133.969Z" fill="#5CF6C3"/>
<path d="M379.642 186.171L382.453 212.258L366.543 205.45L363.733 179.364L379.642 186.171Z" fill="#318469"/>
<path d="M412.109 200.837L414.917 226.911L382.453 212.258L379.642 186.171L412.109 200.837Z" fill="#318368"/>
<path d="M442.497 198.154L445.307 224.241L432.195 234.096L429.387 208.023L442.497 198.154Z" fill="#46BC95"/>
<path d="M379.643 186.171L363.733 179.364L363.736 178.38L376.942 168.435L378.609 168.45L392.728 175.191L426.025 190.233L442.267 197.198L442.497 198.154L429.387 208.022L427.749 208.253L412.109 200.837L379.643 186.171Z" fill="#5CF6C3"/>
<path d="M429.387 208.023L432.195 234.096L430.546 234.341L427.749 208.253L429.387 208.023Z" fill="#41AD89"/>
<path d="M427.749 208.253L430.546 234.341L414.917 226.911L412.109 200.838L427.749 208.253Z" fill="#318267"/>
<path d="M346.107 198.28L348.905 224.368L330.905 216.612L328.095 190.526L346.107 198.28Z" fill="#318469"/>
<path d="M365.8 207.176L368.611 233.262L348.905 224.368L346.108 198.28L365.8 207.176Z" fill="#318368"/>
<path d="M303.596 233.094L306.406 259.18L299.6 246.355L296.791 220.281L303.596 233.094Z" fill="#2E7B62"/>
<path d="M401.324 223.216L404.133 249.289L387.832 241.938L385.022 215.851L401.324 223.216Z" fill="#318368"/>
<mask id="mask3_907_2667" style="mask-type:luminance" maskUnits="userSpaceOnUse" x="303" y="233" width="8" height="29">
<path d="M307.643 235.414L310.453 261.5C309.102 261.383 308.428 261.33 307.845 261.058C307.263 260.785 306.871 260.24 306.407 259.18L303.597 233.094C304.048 234.155 304.454 234.711 305.035 234.971C305.616 235.231 306.292 235.296 307.643 235.414Z" fill="white"/>
</mask>
<g mask="url(#mask3_907_2667)">
<path d="M307.643 235.414L310.453 261.5C309.738 261.44 309.209 261.396 308.781 261.328L305.971 235.242C306.399 235.31 306.915 235.354 307.643 235.414Z" fill="#348A6D"/>
<path d="M305.969 235.229L308.78 261.315C308.605 261.283 308.444 261.25 308.296 261.215L305.486 235.128C305.634 235.163 305.782 235.198 305.969 235.229Z" fill="#328569"/>
<path d="M305.5 235.139L308.31 261.226C308.148 261.179 307.998 261.131 307.845 261.058C307.264 260.798 306.871 260.24 306.407 259.18L303.597 233.094C304.048 234.155 304.454 234.711 305.035 234.971C305.186 235.032 305.338 235.093 305.5 235.139Z" fill="#308065"/>
</g>
<mask id="mask4_907_2667" style="mask-type:luminance" maskUnits="userSpaceOnUse" x="307" y="215" width="81" height="47">
<path d="M385.022 215.851L387.832 241.938C373.194 251.971 353.225 259.232 332 261.239C324.723 261.905 317.726 261.817 310.453 261.5L307.643 235.413C314.916 235.731 321.913 235.818 329.19 235.152C350.415 233.146 370.384 225.885 385.022 215.851Z" fill="white"/>
</mask>
<g mask="url(#mask4_907_2667)">
<path d="M385.022 215.851L387.832 241.938C380.452 246.994 371.707 251.358 362.133 254.692L359.323 228.605C368.897 225.272 377.631 220.922 385.022 215.851Z" fill="#40AC88"/>
<path d="M359.323 228.605L362.134 254.692C358.418 255.991 354.565 257.122 350.628 258.093L347.818 232.007C351.755 231.036 355.608 229.904 359.323 228.605Z" fill="#3FA785"/>
<path d="M347.816 231.994L350.626 258.081C347.618 258.812 344.56 259.458 341.461 259.977L338.651 233.89C341.748 233.358 344.808 232.726 347.816 231.994Z" fill="#3DA281"/>
<path d="M338.666 233.901L341.476 259.988C338.854 260.438 336.209 260.8 333.529 261.086L330.719 235C333.386 234.715 336.044 234.352 338.666 233.901Z" fill="#3B9D7D"/>
<path d="M330.719 235L333.529 261.086C333.025 261.145 332.506 261.193 332 261.239C330.132 261.405 328.272 261.53 326.433 261.614L323.623 235.527C325.462 235.443 327.321 235.318 329.19 235.152C329.694 235.093 330.215 235.059 330.719 235Z" fill="#399979"/>
<path d="M323.623 235.527L326.433 261.613C323.317 261.754 320.225 261.774 317.112 261.719L314.302 235.632C317.415 235.688 320.506 235.668 323.623 235.527Z" fill="#379475"/>
<path d="M314.3 235.619L317.11 261.706C314.902 261.662 312.692 261.592 310.451 261.487L307.641 235.401C309.88 235.493 312.092 235.576 314.3 235.619Z" fill="#358F71"/>
</g>
<path d="M432.296 220.923L435.106 247.009L422.103 256.787L419.294 230.713L432.296 220.923Z" fill="#46BC95"/>
<path d="M432.092 219.964L432.295 220.923L419.294 230.713L417.658 230.956L401.324 223.216L385.022 215.851C370.384 225.885 350.415 233.145 329.19 235.152C321.913 235.818 314.916 235.731 307.643 235.413C306.292 235.296 305.617 235.243 305.035 234.971C304.452 234.698 304.061 234.154 303.597 233.094L296.791 220.281C321.466 224.02 345.635 220.503 365.788 207.177L346.095 198.282L328.082 190.527L328.071 189.532L341.072 179.742L342.737 179.626L359.887 187.744L415.228 212.73L432.077 219.952L432.092 219.964Z" fill="#5CF6C3"/>
<path d="M417.657 230.956L420.468 257.043L404.133 249.289L401.324 223.215L417.657 230.956Z" fill="#318367"/>
<path d="M419.294 230.713L422.103 256.787L420.468 257.043L417.658 230.957L419.294 230.713Z" fill="#41AD89"/>
</g>
<defs>
<filter id="filter0_d_907_2667" x="-5" y="-13" width="468.984" height="331.515" filterUnits="userSpaceOnUse" color-interpolation-filters="sRGB">
<feFlood flood-opacity="0" result="BackgroundImageFix"/>
<feColorMatrix in="SourceAlpha" type="matrix" values="0 0 0 0 0 0 0 0 0 0 0 0 0 0 0 0 0 0 127 0" result="hardAlpha"/>
<feOffset dy="2"/>
<feGaussianBlur stdDeviation="7.5"/>
<feColorMatrix type="matrix" values="0 0 0 0 0 0 0 0 0 0 0 0 0 0 0 0 0 0 1 0"/>
<feBlend mode="normal" in2="BackgroundImageFix" result="effect1_dropShadow_907_2667"/>
<feBlend mode="normal" in="SourceGraphic" in2="effect1_dropShadow_907_2667" result="shape"/>
</filter>
<clipPath id="clip0_907_2667">
<rect width="412.139" height="255.437" fill="white" transform="translate(10 47.8013) rotate(-6.66033)"/>
</clipPath>
</defs>
</svg>
