<svg width="708" height="431" viewBox="0 0 708 431" fill="none" xmlns="http://www.w3.org/2000/svg">
<g filter="url(#filter0_d)">
<path d="M162.489 37.626V56.6807C162.489 56.7976 162.489 56.7976 162.372 56.9145V37.8598C162.489 37.7429 162.489 37.7429 162.489 37.626Z" fill="#399979"/>
<path d="M162.372 37.8599V56.9146C162.372 57.0315 162.255 57.0315 162.255 57.1484V38.0937C162.372 37.9768 162.372 37.9768 162.372 37.8599Z" fill="#3B9D7D"/>
<path d="M162.255 38.0938V57.1485C162.255 57.2654 162.138 57.2654 162.138 57.3823V38.3276C162.255 38.2107 162.255 38.2107 162.255 38.0938Z" fill="#3DA281"/>
<path d="M162.138 38.3274V57.3821C162.021 57.499 162.021 57.6159 161.904 57.6159V38.5612C162.021 38.4443 162.138 38.4443 162.138 38.3274Z" fill="#3FA785"/>
<path d="M161.905 38.5613V57.616C161.788 57.7329 161.554 57.9667 161.32 58.0836V39.0289C161.554 38.912 161.788 38.6782 161.905 38.5613Z" fill="#40AC88"/>
<path d="M161.32 39.0288V58.0836C161.32 58.0836 161.32 58.0836 161.203 58.0836L161.32 39.0288Z" fill="#42B18C"/>
<path d="M108.598 46.7444V65.7991C107.195 64.9808 105.792 64.2794 104.506 63.8118V44.7571C105.909 45.2247 107.195 45.9261 108.598 46.7444Z" fill="#308065"/>
<path d="M104.507 44.757V63.8118C103.688 63.4611 102.987 63.2273 102.285 62.9935V43.9387C102.987 44.1725 103.805 44.4063 104.507 44.757Z" fill="#328569"/>
<path d="M102.286 43.9388V62.9936C101.701 62.8767 101.233 62.7598 100.766 62.6429V43.5881C101.233 43.705 101.701 43.8219 102.286 43.9388Z" fill="#348A6D"/>
<path d="M100.649 43.588V62.6428C100.181 62.5259 99.8306 62.5259 99.363 62.409V43.3542C99.8306 43.3542 100.298 43.4711 100.649 43.588Z" fill="#358F71"/>
<path d="M99.3631 43.3542V62.409C99.0124 62.409 98.6617 62.2921 98.1941 62.2921V43.2373C98.6617 43.2373 99.0124 43.2373 99.3631 43.3542Z" fill="#379475"/>
<path d="M98.3106 43.2376V62.2923C97.9599 62.2923 97.6092 62.2923 97.2585 62.2923V43.2376C97.6092 43.1207 97.9599 43.1207 98.3106 43.2376Z" fill="#399979"/>
<path d="M97.2589 43.1206V62.1754C97.025 62.1754 96.9081 62.1754 96.6743 62.1754C96.4405 62.1754 96.3236 62.1754 96.0898 62.1754V43.1206C96.3236 43.1206 96.4405 43.1206 96.6743 43.1206C96.9081 43.1206 97.025 43.1206 97.2589 43.1206Z" fill="#3B9D7D"/>
<path d="M96.0896 43.1206V62.1754C95.622 62.1754 95.1544 62.1754 94.8037 62.2923V43.2375C95.2713 43.2375 95.622 43.1206 96.0896 43.1206Z" fill="#3DA281"/>
<path d="M94.8038 43.2375V62.2923C94.2193 62.2923 93.6348 62.4092 93.0503 62.5261V43.4713C93.6348 43.3544 94.2193 43.3544 94.8038 43.2375Z" fill="#3FA785"/>
<path d="M93.0501 43.4712V62.5259C91.998 62.7597 90.9459 62.9935 89.8938 63.3443V44.2895C91.0628 43.9388 92.1149 43.705 93.0501 43.4712Z" fill="#40AC88"/>
<path d="M90.011 44.2896V63.3443C88.2575 63.9288 86.504 64.6302 84.7505 65.5654V46.5107C86.504 45.5755 88.2575 44.7572 90.011 44.2896Z" fill="#42B18C"/>
<path d="M84.7506 46.5105V65.5652L81.1267 67.5526V48.4978L84.7506 46.5105Z" fill="#47BE97"/>
<path d="M161.203 39.0288V58.0836L142.616 68.9553V49.9005L161.203 39.0288Z" fill="#47BE96"/>
<path d="M81.1264 48.4978V67.5526C80.7757 67.7864 80.5419 67.9033 80.1912 68.1371V49.0823C80.5419 48.8485 80.7757 48.6147 81.1264 48.4978Z" fill="#42B18C"/>
<path d="M80.1909 49.0823V68.137C77.9698 69.4229 76.2163 70.7088 74.9304 71.8778V52.8231C76.2163 51.6541 77.9698 50.3682 80.1909 49.0823Z" fill="#40AC88"/>
<path d="M74.9306 52.823V71.8778C74.3461 72.3454 73.8785 72.9299 73.5278 73.3975V54.3427C73.8785 53.8751 74.3461 53.4075 74.9306 52.823Z" fill="#3FA785"/>
<path d="M73.5278 54.3428V73.3975C73.294 73.7482 73.0602 74.0989 72.8264 74.4496V55.3949C73.0602 55.0442 73.294 54.6935 73.5278 54.3428Z" fill="#3DA281"/>
<path d="M72.8263 55.3948V74.4495C72.7094 74.6833 72.5925 74.9171 72.4756 75.2678V56.2131C72.5925 55.8624 72.7094 55.6286 72.8263 55.3948Z" fill="#3B9D7D"/>
<path d="M72.4755 56.0962V75.1509C72.3586 75.3847 72.3586 75.6185 72.2417 75.8524V56.7976C72.3586 56.5638 72.3586 56.33 72.4755 56.0962Z" fill="#399979"/>
<path d="M72.2419 56.7976V75.8524C72.2419 76.0862 72.125 76.2031 72.125 76.4369V57.3821C72.2419 57.1483 72.2419 57.0314 72.2419 56.7976Z" fill="#379475"/>
<path d="M134.55 64.9808V84.0356V83.9187C134.55 81.6976 132.446 79.4765 128.354 77.0216V57.9668C132.446 60.4217 134.433 62.7597 134.55 64.9808Z" fill="#308065"/>
<path d="M64.0591 72.4624V91.5172C53.8888 85.6722 48.2776 79.944 47.2255 74.4497C47.1086 73.7483 46.9917 73.0469 46.9917 72.3455V53.2908C46.9917 53.9922 47.1086 54.6936 47.2255 55.395C48.2776 60.8893 53.8888 66.6174 64.0591 72.4624Z" fill="#308065"/>
<path d="M128.354 58.0835L128.237 77.1382L97.9602 94.6733L98.0771 75.6185L128.354 58.0835Z" fill="#47BE96"/>
<path d="M159.333 69.4229V88.4776C159.333 89.0621 159.216 89.6466 159.099 90.2311V71.1764C159.216 70.7088 159.333 70.0074 159.333 69.4229Z" fill="#379475"/>
<path d="M159.099 71.2935V90.3482C158.982 90.9327 158.865 91.5172 158.631 92.1017V73.047C158.865 72.4625 158.982 71.878 159.099 71.2935Z" fill="#399979"/>
<path d="M158.632 73.0469V92.1016C158.398 92.6861 158.164 93.2706 157.813 93.8551V74.8004C158.047 74.2159 158.398 73.6314 158.632 73.0469Z" fill="#3B9D7D"/>
<path d="M157.813 74.8003V93.855C157.462 94.5564 156.995 95.141 156.527 95.8424V76.7876C156.995 76.0862 157.345 75.5017 157.813 74.8003Z" fill="#3DA281"/>
<path d="M156.41 76.7876V95.8423C155.709 96.6606 155.008 97.479 154.189 98.2973V79.2425C155.008 78.4242 155.826 77.6059 156.41 76.7876Z" fill="#3FA785"/>
<path d="M154.189 79.2424V98.2972C153.02 99.4662 151.501 100.518 149.864 101.687V82.6325C151.501 81.4635 152.903 80.2945 154.189 79.2424Z" fill="#40AC88"/>
<path d="M45.4719 86.6073V105.662C44.6536 105.194 44.186 104.727 44.186 104.025V84.9707C44.3029 85.6721 44.6536 86.1397 45.4719 86.6073Z" fill="#308065"/>
<path d="M149.864 82.5159V101.571C148.344 102.623 147.175 103.441 146.006 104.026V84.9708C147.058 84.3863 148.344 83.568 149.864 82.5159Z" fill="#40AC88"/>
<path d="M146.006 84.9707V104.025C145.773 104.142 145.539 104.259 145.305 104.493C144.253 105.078 142.616 106.013 140.278 107.065C137.707 108.468 135.018 109.52 132.329 110.338V91.2833C135.018 90.465 137.707 89.296 140.278 88.0101C142.499 86.8411 144.253 86.0228 145.305 85.4383C145.539 85.3214 145.773 85.2045 146.006 84.9707Z" fill="#42B18C"/>
<path d="M132.446 91.4004V110.455C130.342 111.157 128.237 111.624 126.016 112.092V93.037C128.121 92.5694 130.342 91.9849 132.446 91.4004Z" fill="#40AC88"/>
<path d="M126.016 92.9199V111.975C124.73 112.208 123.445 112.442 122.042 112.559V93.5044C123.445 93.3875 124.73 93.1537 126.016 92.9199Z" fill="#3FA785"/>
<path d="M122.041 93.5046V112.559C120.989 112.676 119.82 112.793 118.651 112.793V93.7384C119.82 93.7384 120.989 93.6215 122.041 93.5046Z" fill="#3DA281"/>
<path d="M118.768 93.7383V112.793C117.716 112.793 116.664 112.793 115.612 112.793V93.7383C116.664 93.7383 117.716 93.7383 118.768 93.7383Z" fill="#3B9D7D"/>
<path d="M115.495 93.7382V112.793C114.794 112.793 114.092 112.793 113.391 112.676C113.04 112.676 112.69 112.676 112.339 112.559V93.5044C112.69 93.5044 113.04 93.5044 113.391 93.6213C114.209 93.7382 114.911 93.7382 115.495 93.7382Z" fill="#399979"/>
<path d="M112.456 93.6215V112.676C111.404 112.559 110.352 112.442 109.3 112.325V93.2708C110.352 93.3877 111.404 93.5046 112.456 93.6215Z" fill="#379475"/>
<path d="M109.299 93.2708V112.326C108.13 112.209 106.961 111.975 105.792 111.741V92.6863C106.845 92.8032 108.014 93.037 109.299 93.2708Z" fill="#358F71"/>
<path d="M105.676 92.5694V111.624C104.273 111.273 102.753 110.923 101.35 110.572V91.5173C102.753 91.9849 104.273 92.3356 105.676 92.5694Z" fill="#348A6D"/>
<path d="M101.35 91.5173V110.572C99.246 109.988 97.1418 109.286 95.0376 108.468V89.4131C97.1418 90.2314 99.246 90.9328 101.35 91.5173Z" fill="#328569"/>
<path d="M95.0377 89.4131V108.468C91.4138 107.065 87.6729 105.195 83.9321 103.09V84.0356C87.6729 86.1399 91.4138 87.8934 95.0377 89.4131Z" fill="#308065"/>
<path d="M83.9321 83.9187V103.09L65.228 113.845L65.3449 94.7904L83.9321 83.9187Z" fill="#47BE96"/>
<path d="M59.6168 94.7904V113.845L45.355 105.662L45.4719 86.6074L59.6168 94.7904Z" fill="#318469"/>
<path d="M149.864 82.5159C148.11 83.8018 146.591 84.737 145.305 85.4384C144.253 86.0229 142.616 86.9581 140.278 88.0102C131.861 92.3355 122.977 94.2059 113.391 93.6214C103.805 93.0369 93.9856 89.7637 83.8152 83.9187L65.2281 94.7904C64.4098 95.258 63.4746 95.4918 62.4225 95.4918C61.3704 95.4918 60.4352 95.258 59.6169 94.7904L45.355 86.6074C44.5367 86.1398 44.186 85.6722 44.186 84.9708C44.186 84.3863 44.5367 83.8018 45.355 83.3342L64.0591 72.4625C53.8888 66.6174 48.2775 60.8893 47.2254 55.395C46.1733 49.9007 49.3296 44.6402 56.8113 39.8473C57.7465 39.1459 59.3831 38.2107 61.4873 37.0417C63.7084 35.7558 65.2281 34.8206 66.2802 34.353C74.5801 30.0276 83.5814 28.2741 93.2842 28.8586C103.104 29.56 112.923 32.7164 122.743 38.3276L141.33 27.4558C142.149 27.1051 143.201 26.8713 144.253 26.8713C145.305 26.8713 146.24 27.1051 147.058 27.5727L161.32 35.7558C162.138 36.2234 162.606 36.8079 162.606 37.3924C162.606 37.9769 162.138 38.5614 161.32 39.029L142.733 49.9007C152.553 55.6288 158.047 61.24 159.216 66.9681C160.268 72.5794 157.112 77.723 149.864 82.5159ZM78.4378 64.2794L108.715 46.7444C104.507 44.2895 100.532 43.1205 96.7912 43.1205C92.9335 43.1205 88.9589 44.2895 84.8673 46.5106L81.2434 48.4979C75.866 51.6542 72.8266 54.4598 72.359 56.7978C71.7745 59.1358 73.8787 61.7076 78.4378 64.2794ZM111.17 79.1258C115.261 78.7751 120.054 77.1385 125.315 73.9822C126.951 73.047 128.12 72.3456 128.705 71.878C132.563 69.4231 134.55 67.085 134.433 64.8639C134.433 62.6428 132.329 60.4217 128.237 57.9668L97.9602 75.5019C102.636 78.3075 107.078 79.4765 111.17 79.1258Z" fill="#5CF6C3"/>
<path d="M62.5393 95.4917V114.546H62.4224V95.4917C62.4224 95.4917 62.4224 95.4917 62.5393 95.4917Z" fill="#3B9D7D"/>
<path d="M62.3053 95.4917V114.546C62.1884 114.546 62.0715 114.546 61.9546 114.546V95.4917C62.0715 95.4917 62.1884 95.4917 62.3053 95.4917Z" fill="#399979"/>
<path d="M61.9545 95.4917V114.546C61.8376 114.546 61.7207 114.546 61.6038 114.546V95.4917C61.7207 95.4917 61.8376 95.4917 61.9545 95.4917Z" fill="#379475"/>
<path d="M61.6039 95.4919V114.547C61.487 114.547 61.3701 114.547 61.2532 114.43V95.375C61.3701 95.375 61.487 95.4919 61.6039 95.4919Z" fill="#358F71"/>
<path d="M61.2535 95.375V114.43C61.1366 114.43 61.0197 114.313 60.9028 114.313V95.2581C61.0197 95.375 61.1366 95.375 61.2535 95.375Z" fill="#348A6D"/>
<path d="M60.7857 95.258V114.313C60.6688 114.313 60.435 114.196 60.3181 114.196V95.1411C60.5519 95.1411 60.6688 95.258 60.7857 95.258Z" fill="#328569"/>
<path d="M60.3181 95.141V114.196C60.0843 114.079 59.8505 113.962 59.6167 113.845V94.7903C59.8505 94.9072 60.0843 95.0241 60.3181 95.141Z" fill="#308065"/>
<path d="M65.3451 94.7903V113.845C64.9944 114.079 64.6437 114.196 64.293 114.313V95.2579C64.6437 95.141 64.9944 95.0241 65.3451 94.7903Z" fill="#42B18C"/>
<path d="M64.293 95.2581V114.313C64.0592 114.43 63.8254 114.43 63.5916 114.547V95.4919C63.8254 95.375 64.0592 95.375 64.293 95.2581Z" fill="#40AC88"/>
<path d="M63.5916 95.375V114.43C63.4747 114.43 63.2409 114.43 63.124 114.547V95.4919C63.2409 95.4919 63.4747 95.4919 63.5916 95.375Z" fill="#3FA785"/>
<path d="M63.1239 95.4919V114.547C63.007 114.547 62.8901 114.547 62.6562 114.547V95.4919C62.7732 95.4919 63.007 95.4919 63.1239 95.4919Z" fill="#3DA281"/>
<path d="M62.6564 95.4917V114.546C62.5395 114.546 62.5395 114.546 62.4226 114.546V95.4917C62.5395 95.4917 62.6564 95.4917 62.6564 95.4917Z" fill="#3B9D7D"/>
<path d="M214.509 92.5691V111.624C214.509 111.741 214.509 111.741 214.393 111.858V92.8029C214.509 92.686 214.509 92.686 214.509 92.5691Z" fill="#399979"/>
<path d="M214.51 92.803V111.858C214.51 111.975 214.393 111.975 214.393 112.092V93.0368C214.393 92.9199 214.393 92.803 214.51 92.803Z" fill="#3B9D7D"/>
<path d="M214.393 93.0369V112.092C214.393 112.209 214.276 112.209 214.276 112.325V93.2707C214.276 93.1538 214.276 93.0369 214.393 93.0369Z" fill="#3DA281"/>
<path d="M214.276 93.1538V112.209C214.159 112.325 214.159 112.442 214.042 112.442V93.3876C214.042 93.3876 214.159 93.2707 214.276 93.1538Z" fill="#3FA785"/>
<path d="M213.925 93.5044V112.559C213.808 112.676 213.574 112.793 213.341 113.027V93.972C213.574 93.7382 213.808 93.6213 213.925 93.5044Z" fill="#40AC88"/>
<path d="M213.341 93.855V112.91C213.341 112.91 213.341 112.91 213.224 112.91L213.341 93.855C213.341 93.9719 213.341 93.9719 213.341 93.855Z" fill="#42B18C"/>
<path d="M213.341 93.9719L213.224 113.027L209.249 115.365V96.3099L213.341 93.9719Z" fill="#47BE96"/>
<path d="M217.081 112.326V131.38C217.081 129.627 215.562 127.873 212.639 126.237C211.821 125.769 211.003 125.301 210.067 124.951V105.896C210.886 106.247 211.821 106.597 212.639 107.182C215.562 108.819 217.081 110.572 217.081 112.326Z" fill="#308065"/>
<path d="M210.068 105.896V124.951C209.483 124.717 209.015 124.6 208.431 124.366V105.311C209.015 105.545 209.483 105.662 210.068 105.896Z" fill="#328569"/>
<path d="M208.431 105.311V124.366C208.08 124.249 207.613 124.132 207.145 124.015V104.961C207.613 105.078 207.963 105.194 208.431 105.311Z" fill="#348A6D"/>
<path d="M207.145 105.078V124.132C206.794 124.015 206.444 124.015 206.093 123.899V104.844C206.444 104.961 206.794 104.961 207.145 105.078Z" fill="#358F71"/>
<path d="M206.093 104.844V123.899C205.742 123.899 205.392 123.782 205.041 123.782V104.727C205.392 104.727 205.742 104.844 206.093 104.844Z" fill="#379475"/>
<path d="M205.158 104.727V123.782C204.807 123.782 204.456 123.782 204.105 123.782V104.727C204.456 104.727 204.807 104.727 205.158 104.727Z" fill="#399979"/>
<path d="M204.106 104.727V123.782C203.755 123.782 203.404 123.782 203.053 123.782V104.727C203.404 104.727 203.755 104.727 204.106 104.727Z" fill="#3B9D7D"/>
<path d="M203.053 104.727V123.782C202.82 123.782 202.469 123.782 202.235 123.782C202.001 123.782 201.884 123.782 201.651 123.782V104.727C201.884 104.727 202.001 104.727 202.235 104.727C202.469 104.727 202.703 104.727 203.053 104.727Z" fill="#3DA281"/>
<path d="M201.651 104.844V123.899C200.949 124.015 200.248 124.015 199.546 124.132V105.078C200.248 104.961 200.949 104.844 201.651 104.844Z" fill="#3FA785"/>
<path d="M199.546 105.078V124.132C198.377 124.366 197.325 124.6 196.156 124.951V105.896C197.325 105.545 198.377 105.311 199.546 105.078Z" fill="#40AC88"/>
<path d="M196.157 105.896V124.951C194.637 125.418 193.234 126.003 191.714 126.821V107.766C193.234 107.065 194.637 106.364 196.157 105.896Z" fill="#42B18C"/>
<path d="M191.714 107.766V126.821C190.662 127.405 189.142 128.107 187.272 129.276C186.57 129.743 185.869 130.094 185.284 130.445V111.39C185.869 111.039 186.57 110.689 187.272 110.221C189.259 109.169 190.662 108.351 191.714 107.766Z" fill="#42B18C"/>
<path d="M185.402 111.39V130.445C184.583 130.912 183.882 131.38 183.297 131.731V112.676C183.882 112.325 184.583 111.858 185.402 111.39Z" fill="#40AC88"/>
<path d="M183.297 112.676V131.731C182.479 132.315 181.661 132.783 181.076 133.367V114.313C181.661 113.845 182.479 113.261 183.297 112.676Z" fill="#40AC88"/>
<path d="M181.076 114.429V133.484C180.608 133.835 180.258 134.302 180.024 134.653V115.598C180.375 115.131 180.725 114.78 181.076 114.429Z" fill="#3FA785"/>
<path d="M180.024 115.599V134.653C179.79 135.004 179.557 135.238 179.44 135.589V116.534C179.557 116.183 179.79 115.832 180.024 115.599Z" fill="#3DA281"/>
<path d="M179.44 116.534V135.588C179.323 135.822 179.089 136.173 179.089 136.407V117.352C179.089 117.001 179.206 116.767 179.44 116.534Z" fill="#3B9D7D"/>
<path d="M178.972 117.352V136.407C178.855 136.641 178.738 136.991 178.738 137.225V118.17C178.855 117.937 178.855 117.586 178.972 117.352Z" fill="#399979"/>
<path d="M119.586 129.393V148.448C118.768 147.98 118.301 147.396 118.301 146.811C118.301 146.811 118.301 146.811 118.301 146.694V127.639C118.301 127.639 118.301 127.639 118.301 127.756C118.417 128.341 118.768 128.925 119.586 129.393Z" fill="#308065"/>
<path d="M245.371 115.365V134.419C245.371 134.536 245.371 134.653 245.371 134.77C245.371 135.238 245.254 135.588 245.137 136.056V117.001C245.254 116.534 245.254 116.183 245.371 115.715C245.371 115.598 245.371 115.481 245.371 115.365Z" fill="#379475"/>
<path d="M245.254 117.118V136.173C245.137 136.757 245.02 137.342 244.787 137.926V118.872C244.904 118.287 245.137 117.703 245.254 117.118Z" fill="#399979"/>
<path d="M244.67 118.872V137.927C244.436 138.511 244.086 139.212 243.735 139.797V120.742C244.202 120.041 244.436 119.456 244.67 118.872Z" fill="#3B9D7D"/>
<path d="M243.852 120.742V139.797C243.384 140.498 242.916 141.316 242.332 142.018V122.963C242.916 122.145 243.384 121.443 243.852 120.742Z" fill="#3DA281"/>
<path d="M242.332 122.963V142.018C241.513 142.953 240.695 144.005 239.643 144.94V125.886C240.695 124.834 241.513 123.898 242.332 122.963Z" fill="#3FA785"/>
<path d="M239.643 125.769V144.824C237.773 146.577 235.435 148.331 232.746 149.967V130.912C235.435 129.276 237.773 127.522 239.643 125.769Z" fill="#40AC88"/>
<path d="M232.629 131.029V150.084C232.045 150.435 231.343 150.902 230.408 151.487V132.432C231.343 131.848 232.045 131.38 232.629 131.029Z" fill="#40AC88"/>
<path d="M230.408 132.432V151.487C229.823 151.838 229.239 152.188 228.537 152.539C226.784 153.591 225.264 154.409 224.095 154.994V135.939C225.264 135.355 226.667 134.536 228.537 133.484C229.239 133.134 229.823 132.783 230.408 132.432Z" fill="#42B18C"/>
<path d="M164.944 123.431L164.827 142.486L139.927 156.981V137.927L164.944 123.431Z" fill="#47BE96"/>
<path d="M134.316 137.927L134.199 156.981L119.587 148.448V129.393L134.316 137.927Z" fill="#318469"/>
<path d="M139.927 137.927V156.981C139.577 157.215 139.226 157.332 138.875 157.449V138.394C139.343 138.277 139.577 138.043 139.927 137.927Z" fill="#42B18C"/>
<path d="M138.992 138.394V157.449C138.758 157.566 138.524 157.566 138.291 157.683V138.628C138.524 138.511 138.758 138.394 138.992 138.394Z" fill="#40AC88"/>
<path d="M138.291 138.511V157.566C138.174 157.566 137.94 157.566 137.823 157.683V138.628C137.94 138.511 138.057 138.511 138.291 138.511Z" fill="#3FA785"/>
<path d="M137.706 138.628V157.683C137.589 157.683 137.472 157.683 137.239 157.683V138.628C137.472 138.628 137.589 138.628 137.706 138.628Z" fill="#3DA281"/>
<path d="M137.356 138.628V157.683C137.239 157.683 137.239 157.683 137.122 157.683H137.005V138.628H137.122C137.239 138.628 137.239 138.628 137.356 138.628Z" fill="#3B9D7D"/>
<path d="M137.005 138.628V157.683C136.888 157.683 136.771 157.683 136.654 157.683V138.628C136.771 138.628 136.888 138.628 137.005 138.628Z" fill="#399979"/>
<path d="M136.654 138.628V157.683C136.537 157.683 136.42 157.683 136.303 157.683V138.628C136.303 138.511 136.42 138.628 136.654 138.628Z" fill="#379475"/>
<path d="M136.187 138.511V157.566C136.07 157.566 135.953 157.566 135.836 157.449V138.394C135.953 138.511 136.07 138.511 136.187 138.511Z" fill="#358F71"/>
<path d="M135.836 138.511V157.566C135.719 157.566 135.602 157.449 135.485 157.449V138.394C135.602 138.394 135.719 138.511 135.836 138.511Z" fill="#348A6D"/>
<path d="M135.485 138.394V157.449C135.368 157.449 135.134 157.332 135.018 157.332V138.277C135.134 138.277 135.251 138.394 135.485 138.394Z" fill="#328569"/>
<path d="M135.018 138.277V157.332C134.784 157.215 134.55 157.098 134.316 156.981V137.927C134.55 138.043 134.784 138.16 135.018 138.277Z" fill="#308065"/>
<path d="M224.213 135.939V154.994C220.706 156.864 217.199 158.384 213.575 159.553V140.498C217.199 139.329 220.706 137.81 224.213 135.939Z" fill="#42B18C"/>
<path d="M213.574 140.498V159.553C211.12 160.371 208.782 160.956 206.327 161.423V142.369C208.782 141.901 211.236 141.2 213.574 140.498Z" fill="#40AC88"/>
<path d="M206.327 142.252V161.307C204.924 161.541 203.405 161.774 202.002 161.891V142.836C203.405 142.72 204.924 142.603 206.327 142.252Z" fill="#3FA785"/>
<path d="M202.002 142.836V161.891C200.833 162.008 199.664 162.125 198.378 162.125V143.07C199.664 143.07 200.833 143.07 202.002 142.836Z" fill="#3DA281"/>
<path d="M198.377 143.187V162.242C198.261 162.242 198.261 162.242 198.144 162.242C197.208 162.242 196.273 162.242 195.221 162.242V143.187C196.156 143.187 197.092 143.187 198.144 143.187C198.261 143.187 198.377 143.187 198.377 143.187Z" fill="#3B9D7D"/>
<path d="M195.338 143.187V162.242C194.403 162.242 193.468 162.125 192.532 162.125V143.07C193.468 143.07 194.403 143.07 195.338 143.187Z" fill="#399979"/>
<path d="M192.532 142.953V162.008C191.597 161.891 190.662 161.774 189.844 161.657V142.603C190.662 142.836 191.597 142.953 192.532 142.953Z" fill="#379475"/>
<path d="M189.727 142.719V161.774C188.792 161.657 187.857 161.423 186.921 161.306V142.252C187.857 142.369 188.792 142.602 189.727 142.719Z" fill="#358F71"/>
<path d="M186.921 142.252V161.306C185.869 161.073 184.817 160.839 183.765 160.488V141.433C184.817 141.667 185.869 142.018 186.921 142.252Z" fill="#348A6D"/>
<path d="M183.765 141.434V160.488C182.362 160.138 181.076 159.67 179.791 159.086V140.031C181.076 140.615 182.479 141.083 183.765 141.434Z" fill="#328569"/>
<path d="M179.791 140.031V159.085C177.803 158.267 175.816 157.332 173.946 156.28C167.75 152.656 164.594 148.798 164.594 144.707V125.652C164.594 129.743 167.75 133.601 173.946 137.225C175.816 138.277 177.803 139.329 179.791 140.031Z" fill="#308065"/>
<path d="M232.629 131.029C231.693 131.614 230.407 132.432 228.537 133.484C226.784 134.536 225.264 135.355 224.095 135.939C215.678 140.498 207.027 142.836 198.143 143.187C189.259 143.421 181.192 141.434 173.828 137.225C166.463 133.017 163.424 128.341 164.826 123.431L139.927 137.927C139.108 138.394 138.173 138.628 137.121 138.628C136.069 138.628 135.134 138.394 134.315 137.927L119.703 129.51C118.885 129.042 118.417 128.458 118.417 127.873C118.417 127.289 118.768 126.704 119.586 126.237L194.051 82.9834C194.87 82.5158 195.805 82.282 196.974 82.282C198.026 82.282 199.078 82.5158 199.897 82.9834L213.457 90.8157C214.275 91.2833 214.743 91.8678 214.743 92.4523C214.743 93.0368 214.392 93.6213 213.457 94.0889L209.365 96.4269C218.834 95.7255 227.368 97.479 234.967 101.921C242.331 106.13 245.838 110.806 245.488 115.949C245.02 120.859 240.812 125.886 232.629 131.029ZM204.222 123.431C205.04 123.08 206.209 122.379 207.846 121.444C209.482 120.508 210.534 119.807 211.236 119.339C214.509 117.118 216.496 115.014 216.964 113.027C217.432 111.039 216.029 109.052 212.639 107.065C209.365 105.194 205.975 104.376 202.235 104.727C198.611 104.961 195.104 106.013 191.83 107.766C190.778 108.351 189.259 109.052 187.388 110.221C185.635 111.273 184.232 112.092 183.297 112.676C180.491 114.43 178.971 116.417 178.738 118.404C178.387 120.508 179.907 122.379 183.063 124.249C186.453 126.237 189.96 127.055 193.35 126.704C196.857 126.47 200.481 125.418 204.222 123.431Z" fill="#5CF6C3"/>
<path d="M298.561 141.2V160.254C298.561 160.371 298.561 160.371 298.444 160.488V141.434C298.561 141.317 298.561 141.2 298.561 141.2Z" fill="#399979"/>
<path d="M298.444 141.317V160.371C298.444 160.488 298.444 160.488 298.327 160.605V141.55C298.444 141.55 298.444 141.434 298.444 141.317Z" fill="#3B9D7D"/>
<path d="M298.444 141.55V160.605C298.444 160.722 298.327 160.722 298.327 160.839V141.784C298.327 141.667 298.327 141.667 298.444 141.55Z" fill="#3DA281"/>
<path d="M298.21 141.784V160.839C298.093 160.956 298.093 160.956 297.976 161.073V142.018C298.093 141.901 298.21 141.901 298.21 141.784Z" fill="#3FA785"/>
<path d="M297.977 142.018V161.073C297.86 161.189 297.626 161.306 297.392 161.54V142.485C297.626 142.369 297.86 142.135 297.977 142.018Z" fill="#40AC88"/>
<path d="M297.509 142.486V161.54C297.509 161.54 297.509 161.54 297.392 161.54L297.509 142.486C297.392 142.486 297.392 142.486 297.509 142.486Z" fill="#42B18C"/>
<path d="M297.392 142.486L297.275 161.54L266.764 179.309V160.254L297.392 142.486Z" fill="#47BE96"/>
<path d="M224.329 165.047V184.102C223.628 183.635 223.16 183.167 223.16 182.466V163.411C223.16 164.112 223.628 164.58 224.329 165.047Z" fill="#308065"/>
<path d="M339.476 164.813V183.868C339.476 183.985 339.476 183.985 339.359 184.102V165.047C339.359 164.93 339.476 164.813 339.476 164.813Z" fill="#399979"/>
<path d="M339.359 165.047V184.102C339.359 184.219 339.359 184.219 339.242 184.336V165.281C339.359 165.164 339.359 165.047 339.359 165.047Z" fill="#3B9D7D"/>
<path d="M339.242 165.165V184.219C339.242 184.336 339.125 184.336 339.125 184.453V165.398C339.242 165.398 339.242 165.281 339.242 165.165Z" fill="#3DA281"/>
<path d="M339.125 165.398V184.453C339.008 184.57 339.008 184.57 338.891 184.687V165.632C339.008 165.515 339.125 165.515 339.125 165.398Z" fill="#3FA785"/>
<path d="M338.891 165.632V184.687C338.775 184.804 338.541 184.921 338.424 185.038V165.983C338.658 165.866 338.775 165.749 338.891 165.632Z" fill="#40AC88"/>
<path d="M237.071 172.412V191.467L224.329 184.102V165.047L237.071 172.412Z" fill="#318469"/>
<path d="M295.873 167.619L295.756 186.674L241.981 192.285L242.098 173.23L295.873 167.619Z" fill="#43B38E"/>
<path d="M242.098 173.23V192.285H241.981L242.098 173.23C241.981 173.23 241.981 173.23 242.098 173.23Z" fill="#3FA785"/>
<path d="M241.981 173.23V192.285C241.747 192.285 241.397 192.285 241.163 192.285V173.23C241.397 173.23 241.63 173.23 241.981 173.23Z" fill="#3DA281"/>
<path d="M241.163 173.23V192.285C240.929 192.285 240.695 192.285 240.461 192.285V173.23C240.695 173.23 240.929 173.23 241.163 173.23Z" fill="#3B9D7D"/>
<path d="M240.461 173.23V192.285C240.228 192.285 240.111 192.285 239.877 192.285V173.23C240.111 173.23 240.345 173.23 240.461 173.23Z" fill="#399979"/>
<path d="M239.877 173.23V192.285C239.76 192.285 239.526 192.285 239.409 192.285V173.23C239.643 173.23 239.76 173.23 239.877 173.23Z" fill="#379475"/>
<path d="M239.409 173.113V192.168C239.292 192.168 239.059 192.168 238.942 192.051V172.997C239.059 173.113 239.292 173.113 239.409 173.113Z" fill="#358F71"/>
<path d="M238.942 173.113V192.168C238.825 192.168 238.591 192.051 238.474 192.051V172.997C238.591 172.997 238.825 172.997 238.942 173.113Z" fill="#348A6D"/>
<path d="M238.474 172.997V192.052C238.24 192.052 238.123 191.935 237.89 191.818V172.763C238.007 172.88 238.24 172.88 238.474 172.997Z" fill="#328569"/>
<path d="M237.89 172.763V191.818C237.656 191.701 237.422 191.584 237.072 191.467V172.412C237.305 172.529 237.539 172.646 237.89 172.763Z" fill="#308065"/>
<path d="M265.361 188.778V207.833C264.543 207.365 264.075 206.781 264.075 206.196V206.079V187.025V187.142C264.075 187.726 264.543 188.194 265.361 188.778Z" fill="#308065"/>
<path d="M338.424 165.983L338.307 185.037L285.234 216.016V196.961L338.424 165.983Z" fill="#47BE96"/>
<path d="M279.623 196.961L279.506 216.016L265.361 207.833V188.778L279.623 196.961Z" fill="#318469"/>
<path d="M338.308 162.826C339.126 163.294 339.477 163.762 339.477 164.463C339.477 165.047 339.126 165.632 338.425 166.1L285.235 196.961C284.534 197.429 283.598 197.663 282.429 197.663C281.377 197.663 280.325 197.429 279.507 196.961L265.362 188.778C264.544 188.311 264.076 187.726 264.076 187.142C264.076 186.557 264.427 185.973 265.245 185.505L295.873 167.736L242.099 173.347C240.111 173.581 238.358 173.347 237.072 172.529L224.33 165.164C223.628 164.697 223.161 164.229 223.161 163.528C223.161 162.826 223.512 162.359 224.33 161.891L277.403 130.913C278.221 130.445 279.156 130.211 280.325 130.211C281.377 130.211 282.312 130.445 283.131 130.913L297.393 139.096C298.211 139.563 298.678 140.148 298.678 140.732C298.678 141.317 298.328 141.901 297.509 142.369L266.882 160.138L320.656 154.526C322.643 154.293 324.397 154.526 325.682 155.345L338.308 162.826Z" fill="#5CF6C3"/>
<path d="M285.235 196.961V216.016C285.001 216.133 284.65 216.367 284.299 216.367V197.312C284.65 197.195 285.001 197.078 285.235 196.961Z" fill="#42B18C"/>
<path d="M284.299 197.312V216.367C284.065 216.483 283.832 216.483 283.598 216.6V197.546C283.832 197.429 284.065 197.429 284.299 197.312Z" fill="#40AC88"/>
<path d="M283.598 197.546V216.6C283.481 216.6 283.247 216.6 283.13 216.717V197.663C283.247 197.546 283.481 197.546 283.598 197.546Z" fill="#3FA785"/>
<path d="M283.13 197.546V216.6C283.013 216.6 282.779 216.6 282.663 216.6V197.546C282.779 197.663 282.896 197.546 283.13 197.546Z" fill="#3DA281"/>
<path d="M282.546 197.663V216.717H282.429C282.312 216.717 282.195 216.717 282.078 216.717V197.663C282.195 197.663 282.312 197.663 282.429 197.663C282.546 197.663 282.546 197.663 282.546 197.663Z" fill="#3B9D7D"/>
<path d="M282.195 197.663V216.717C282.078 216.717 281.961 216.717 281.844 216.717V197.663C281.844 197.663 282.078 197.663 282.195 197.663Z" fill="#399979"/>
<path d="M281.727 197.546V216.6C281.611 216.6 281.494 216.6 281.377 216.6V197.546C281.494 197.546 281.611 197.546 281.727 197.546Z" fill="#379475"/>
<path d="M281.377 197.546V216.6C281.26 216.6 281.143 216.6 281.026 216.483V197.429C281.143 197.546 281.26 197.546 281.377 197.546Z" fill="#358F71"/>
<path d="M281.026 197.546V216.6C280.909 216.6 280.792 216.6 280.675 216.483V197.429C280.792 197.429 280.909 197.429 281.026 197.546Z" fill="#348A6D"/>
<path d="M280.675 197.429V216.483C280.558 216.483 280.325 216.367 280.208 216.367V197.312C280.325 197.312 280.558 197.312 280.675 197.429Z" fill="#328569"/>
<path d="M280.208 197.195V216.25C279.974 216.133 279.74 216.016 279.506 215.899V196.844C279.74 197.078 279.974 197.195 280.208 197.195Z" fill="#308065"/>
<path d="M382.495 189.48V208.534C382.495 208.651 382.495 208.651 382.378 208.768V189.714C382.378 189.714 382.378 189.597 382.495 189.48Z" fill="#399979"/>
<path d="M382.378 189.713V208.768C382.378 208.885 382.261 208.885 382.261 209.002V189.947C382.378 189.83 382.378 189.83 382.378 189.713Z" fill="#3B9D7D"/>
<path d="M382.262 189.947V209.002C382.262 209.119 382.145 209.119 382.145 209.236V190.181C382.145 190.064 382.262 190.064 382.262 189.947Z" fill="#3DA281"/>
<path d="M382.144 190.181V209.236C382.028 209.353 382.028 209.469 381.911 209.469V190.415C382.028 190.298 382.028 190.298 382.144 190.181Z" fill="#3FA785"/>
<path d="M381.911 190.415V209.47C381.794 209.586 381.56 209.703 381.326 209.937V190.882C381.56 190.766 381.677 190.532 381.911 190.415Z" fill="#40AC88"/>
<path d="M381.326 190.882V209.937C381.326 209.937 381.326 209.937 381.209 209.937L381.326 190.882C381.326 190.882 381.209 190.882 381.326 190.882Z" fill="#42B18C"/>
<path d="M381.209 190.883V209.937L362.739 220.692L362.856 201.637L381.209 190.883Z" fill="#47BE96"/>
<path d="M421.423 212.158V231.213C421.423 231.33 421.423 231.33 421.306 231.33V212.275C421.423 212.275 421.423 212.158 421.423 212.158Z" fill="#3B9D7D"/>
<path d="M421.306 212.275V231.33C421.306 231.447 421.189 231.447 421.189 231.564V212.509C421.306 212.392 421.306 212.392 421.306 212.275Z" fill="#3DA281"/>
<path d="M421.189 212.509V231.564C421.189 231.681 421.072 231.681 420.956 231.798V212.743C421.072 212.626 421.189 212.626 421.189 212.509Z" fill="#3FA785"/>
<path d="M421.073 212.743V231.797C420.956 231.914 420.839 232.031 420.605 232.148V213.093C420.722 212.976 420.956 212.86 421.073 212.743Z" fill="#40AC88"/>
<path d="M420.605 212.977V232.031C420.488 232.148 420.371 232.148 420.137 232.265V213.21C420.254 213.21 420.488 213.093 420.605 212.977C420.605 213.093 420.605 213.093 420.605 212.977Z" fill="#42B18C"/>
<path d="M420.02 213.21V232.265C419.67 232.382 419.085 232.499 418.384 232.616V213.561C419.085 213.561 419.67 213.327 420.02 213.21Z" fill="#40AC88"/>
<path d="M308.497 213.678V232.733C307.679 232.265 307.328 231.798 307.328 231.096V212.042C307.445 212.626 307.796 213.211 308.497 213.678Z" fill="#308065"/>
<path d="M353.036 213.795V232.967L347.308 229.576L347.425 210.522L353.036 213.795Z" fill="#318469"/>
<path d="M418.384 213.678V232.733L378.404 238.11V219.055L418.384 213.678Z" fill="#44B590"/>
<path d="M347.425 210.522L347.308 229.576L328.136 240.799V221.744L347.425 210.522Z" fill="#47BE96"/>
<path d="M322.525 221.744L322.408 240.799L308.497 232.733V213.678L322.525 221.744Z" fill="#318469"/>
<path d="M328.137 221.744V240.799C327.903 240.916 327.552 241.15 327.202 241.15V222.095C327.552 221.978 327.903 221.861 328.137 221.744Z" fill="#42B18C"/>
<path d="M327.318 222.095V241.149C327.085 241.266 326.851 241.266 326.617 241.383V222.329C326.851 222.212 327.085 222.212 327.318 222.095Z" fill="#40AC88"/>
<path d="M326.5 222.329V241.383C326.383 241.383 326.15 241.383 326.033 241.5V222.446C326.15 222.329 326.383 222.329 326.5 222.329Z" fill="#3FA785"/>
<path d="M326.033 222.329V241.383C325.916 241.383 325.682 241.383 325.565 241.383V222.329C325.682 222.446 325.916 222.446 326.033 222.329Z" fill="#3DA281"/>
<path d="M325.565 222.446V241.5H325.448C325.331 241.5 325.214 241.5 325.097 241.5V222.446C325.214 222.446 325.331 222.446 325.448 222.446C325.448 222.446 325.448 222.446 325.565 222.446Z" fill="#3B9D7D"/>
<path d="M325.097 222.446V241.5C324.98 241.5 324.863 241.5 324.747 241.5V222.446C324.863 222.446 324.98 222.446 325.097 222.446Z" fill="#399979"/>
<path d="M324.747 222.446V241.5C324.63 241.5 324.513 241.5 324.396 241.5V222.446C324.513 222.329 324.63 222.329 324.747 222.446Z" fill="#379475"/>
<path d="M324.396 222.329V241.383C324.279 241.383 324.162 241.383 324.045 241.266V222.212C324.162 222.329 324.279 222.329 324.396 222.329Z" fill="#358F71"/>
<path d="M324.045 222.329V241.383C323.928 241.383 323.811 241.383 323.695 241.266V222.212C323.811 222.212 323.928 222.212 324.045 222.329Z" fill="#348A6D"/>
<path d="M323.695 222.212V241.266C323.578 241.266 323.344 241.149 323.227 241.149V222.095C323.344 222.095 323.461 222.095 323.695 222.212Z" fill="#328569"/>
<path d="M323.227 222.095V241.15C322.993 241.033 322.759 240.916 322.526 240.799V221.744C322.759 221.861 322.993 221.978 323.227 222.095Z" fill="#308065"/>
<path d="M347.308 236.006V255.061C346.256 254.476 345.672 253.658 345.672 252.84V233.785C345.672 234.603 346.256 235.422 347.308 236.006Z" fill="#308065"/>
<path d="M378.404 219.055V238.11L370.104 263.828V244.773L378.404 219.055Z" fill="#3B9E7D"/>
<path d="M364.259 245.825L364.142 264.88L347.191 255.061L347.308 236.006L364.259 245.825Z" fill="#318469"/>
<path d="M420.254 210.171C420.956 210.639 421.423 211.106 421.423 211.691C421.423 212.275 421.189 212.743 420.488 213.094C420.137 213.327 419.436 213.444 418.384 213.678L378.404 219.172L370.104 244.774C369.987 245.124 369.636 245.592 369.052 245.943C368.351 246.293 367.532 246.527 366.714 246.527C365.779 246.527 364.96 246.293 364.259 245.826L347.308 236.006C345.906 235.188 345.438 234.253 345.789 233.084L353.037 213.912L347.308 210.639L328.137 221.744C327.435 222.212 326.5 222.446 325.331 222.446C324.279 222.446 323.227 222.212 322.409 221.744L308.381 213.678C307.562 213.211 307.212 212.743 307.212 212.041C307.212 211.34 307.562 210.872 308.381 210.405L361.453 179.543C362.272 179.076 363.207 178.842 364.376 178.842C365.428 178.842 366.363 179.076 367.182 179.543L381.21 187.609C382.028 188.077 382.495 188.661 382.495 189.246C382.495 189.83 382.145 190.415 381.21 190.883L362.856 201.52L368.818 204.911L400.147 200.468C402.135 200.235 403.888 200.468 405.174 201.287L420.254 210.171Z" fill="#5CF6C3"/>
<path d="M370.104 244.89V263.945C370.104 263.945 370.104 264.062 369.987 264.062V245.007C369.987 245.007 369.987 245.007 370.104 244.89Z" fill="#3B9D7D"/>
<path d="M369.987 245.007V264.062C369.987 264.179 369.87 264.179 369.87 264.296V245.241C369.87 245.124 369.987 245.124 369.987 245.007Z" fill="#3DA281"/>
<path d="M369.87 245.241V264.296C369.87 264.413 369.753 264.413 369.636 264.53V245.475C369.753 245.358 369.753 245.358 369.87 245.241Z" fill="#3FA785"/>
<path d="M369.636 245.475V264.53C369.519 264.646 369.286 264.763 369.169 264.88V245.826C369.403 245.709 369.519 245.592 369.636 245.475Z" fill="#40AC88"/>
<path d="M369.169 245.826V264.88C369.169 264.88 369.169 264.88 369.052 264.88C368.818 264.997 368.584 265.114 368.234 265.231V246.176C368.584 246.176 368.818 246.059 369.169 245.826Z" fill="#42B18C"/>
<path d="M368.234 246.176V265.231C368 265.348 367.883 265.348 367.649 265.348V246.293C367.883 246.293 368.117 246.293 368.234 246.176Z" fill="#40AC88"/>
<path d="M367.649 246.41V265.465C367.532 265.465 367.415 265.465 367.298 265.465V246.41C367.415 246.41 367.532 246.41 367.649 246.41Z" fill="#3FA785"/>
<path d="M367.298 246.41V265.465C367.182 265.465 367.065 265.465 366.948 265.465V246.41C367.065 246.41 367.182 246.41 367.298 246.41Z" fill="#3DA281"/>
<path d="M366.948 246.41V265.465C366.831 265.465 366.831 265.465 366.714 265.465H366.597V246.41H366.714C366.831 246.41 366.831 246.41 366.948 246.41Z" fill="#3B9D7D"/>
<path d="M366.597 246.41V265.465C366.48 265.465 366.363 265.465 366.246 265.465V246.41C366.363 246.41 366.48 246.41 366.597 246.41Z" fill="#399979"/>
<path d="M366.246 246.41V265.465C366.129 265.465 366.012 265.465 365.896 265.465V246.41C366.012 246.41 366.129 246.41 366.246 246.41Z" fill="#379475"/>
<path d="M366.012 246.41V265.465C365.895 265.465 365.779 265.465 365.662 265.465V246.41C365.779 246.41 365.895 246.41 366.012 246.41Z" fill="#358F71"/>
<path d="M365.662 246.293V265.348C365.545 265.348 365.428 265.348 365.311 265.231V246.176C365.428 246.293 365.545 246.293 365.662 246.293Z" fill="#348A6D"/>
<path d="M365.311 246.293V265.348C365.194 265.348 364.96 265.231 364.843 265.231V246.176C364.96 246.176 365.194 246.176 365.311 246.293Z" fill="#328569"/>
<path d="M364.843 246.059V265.114C364.61 264.997 364.376 264.88 364.142 264.764V245.709C364.376 245.943 364.61 246.059 364.843 246.059Z" fill="#308065"/>
<path d="M463.741 236.59V255.645C463.741 255.762 463.741 255.762 463.625 255.879V236.824C463.741 236.707 463.741 236.59 463.741 236.59Z" fill="#399979"/>
<path d="M463.625 236.707V255.762C463.625 255.879 463.625 255.879 463.508 255.996V236.941C463.625 236.824 463.625 236.824 463.625 236.707Z" fill="#3B9D7D"/>
<path d="M463.625 236.941V255.996C463.625 256.113 463.508 256.113 463.508 256.23V237.175C463.508 237.058 463.508 237.058 463.625 236.941Z" fill="#3DA281"/>
<path d="M463.391 237.175V256.23C463.274 256.346 463.274 256.346 463.157 256.463V237.409C463.274 237.292 463.391 237.292 463.391 237.175Z" fill="#3FA785"/>
<path d="M463.157 237.409V256.463C463.04 256.58 462.806 256.697 462.572 256.931V237.876C462.923 237.642 463.04 237.526 463.157 237.409Z" fill="#40AC88"/>
<path d="M462.689 237.759V256.814C462.689 256.814 462.689 256.814 462.572 256.814L462.689 237.759C462.572 237.876 462.572 237.876 462.689 237.759Z" fill="#42B18C"/>
<path d="M462.572 237.876V256.931L431.944 274.7V255.645L462.572 237.876Z" fill="#47BE96"/>
<path d="M389.51 260.438V279.493C388.808 279.025 388.341 278.558 388.341 277.856V258.802C388.457 259.386 388.808 259.971 389.51 260.438Z" fill="#308065"/>
<path d="M504.657 260.204V279.259C504.657 279.376 504.657 279.376 504.54 279.493V260.438C504.657 260.321 504.657 260.204 504.657 260.204Z" fill="#399979"/>
<path d="M504.54 260.438V279.493C504.54 279.61 504.54 279.61 504.423 279.727V260.672C504.54 260.555 504.54 260.438 504.54 260.438Z" fill="#3B9D7D"/>
<path d="M504.54 260.555V279.61C504.54 279.727 504.423 279.727 504.423 279.843V260.789C504.423 260.672 504.423 260.672 504.54 260.555Z" fill="#3DA281"/>
<path d="M504.306 260.789V279.844C504.189 279.96 504.189 279.96 504.072 280.077V261.023C504.189 260.906 504.306 260.906 504.306 260.789Z" fill="#3FA785"/>
<path d="M504.189 261.023V280.077C504.072 280.194 503.838 280.311 503.721 280.428V261.373C503.838 261.257 503.955 261.14 504.189 261.023Z" fill="#40AC88"/>
<path d="M402.252 267.803V286.857L389.51 279.493V260.438L402.252 267.803Z" fill="#318469"/>
<path d="M461.053 263.01L460.936 282.065L407.162 287.559L407.279 268.504L461.053 263.01Z" fill="#43B38E"/>
<path d="M407.278 268.504V287.559H407.161V268.504C407.161 268.621 407.161 268.504 407.278 268.504Z" fill="#3FA785"/>
<path d="M407.162 268.621V287.676C406.928 287.676 406.577 287.676 406.344 287.676V268.621C406.577 268.621 406.811 268.621 407.162 268.621Z" fill="#3DA281"/>
<path d="M406.343 268.621V287.676C406.109 287.676 405.875 287.676 405.759 287.676V268.621C405.875 268.621 406.109 268.621 406.343 268.621Z" fill="#3B9D7D"/>
<path d="M405.642 268.621V287.676C405.408 287.676 405.291 287.676 405.057 287.676V268.621C405.291 268.621 405.525 268.621 405.642 268.621Z" fill="#399979"/>
<path d="M405.057 268.621V287.676C404.94 287.676 404.706 287.676 404.59 287.676V268.621C404.823 268.621 404.94 268.621 405.057 268.621Z" fill="#379475"/>
<path d="M404.59 268.504V287.559C404.473 287.559 404.239 287.559 404.122 287.442V268.387C404.239 268.504 404.473 268.504 404.59 268.504Z" fill="#358F71"/>
<path d="M404.122 268.504V287.559C404.005 287.559 403.771 287.442 403.655 287.442V268.387C403.771 268.387 404.005 268.387 404.122 268.504Z" fill="#348A6D"/>
<path d="M403.655 268.387V287.442C403.421 287.442 403.304 287.325 403.07 287.208V268.154C403.187 268.27 403.421 268.27 403.655 268.387Z" fill="#328569"/>
<path d="M403.07 268.154V287.208C402.836 287.092 402.602 286.975 402.252 286.858V267.803C402.486 267.92 402.719 268.037 403.07 268.154Z" fill="#308065"/>
<path d="M430.542 284.052V303.107C429.723 302.639 429.256 302.055 429.256 301.47V301.353V282.298V282.415C429.256 283.117 429.723 283.584 430.542 284.052Z" fill="#308065"/>
<path d="M503.604 261.373L503.487 280.428L450.415 311.407V292.352L503.604 261.373Z" fill="#47BE96"/>
<path d="M444.804 292.352L444.687 311.407L430.542 303.107V284.052L444.804 292.352Z" fill="#318469"/>
<path d="M503.487 258.217C504.306 258.685 504.656 259.152 504.656 259.854C504.656 260.438 504.306 261.023 503.604 261.49L450.415 292.352C449.713 292.82 448.778 293.053 447.609 293.053C446.557 293.053 445.505 292.82 444.687 292.352L430.542 284.169C429.723 283.701 429.256 283.117 429.256 282.532C429.256 281.948 429.606 281.363 430.425 280.896L461.053 263.127L407.278 268.738C405.291 268.972 403.538 268.738 402.252 267.92L389.51 260.555C388.808 260.087 388.341 259.62 388.341 258.918C388.341 258.217 388.691 257.749 389.51 257.282L442.582 226.42C443.401 225.953 444.336 225.719 445.505 225.719C446.557 225.719 447.492 225.953 448.31 226.42L462.455 234.603C463.274 235.071 463.741 235.655 463.741 236.24C463.741 236.824 463.391 237.409 462.572 237.876L431.944 255.645L485.719 250.034C487.706 249.8 489.459 250.034 490.745 250.852L503.487 258.217Z" fill="#5CF6C3"/>
<path d="M450.415 292.352V311.407C450.181 311.523 449.83 311.757 449.479 311.757V292.702C449.83 292.586 450.181 292.469 450.415 292.352Z" fill="#42B18C"/>
<path d="M449.479 292.702V311.757C449.245 311.874 449.011 311.874 448.778 311.991V292.936C449.011 292.819 449.245 292.819 449.479 292.702Z" fill="#40AC88"/>
<path d="M448.778 292.936V311.991C448.661 311.991 448.427 311.991 448.31 312.108V293.053C448.427 292.936 448.661 292.936 448.778 292.936Z" fill="#3FA785"/>
<path d="M448.31 292.936V311.991C448.193 311.991 447.959 311.991 447.843 311.991V292.936C447.959 292.936 448.076 292.936 448.31 292.936Z" fill="#3DA281"/>
<path d="M447.725 292.936V311.991H447.609C447.492 311.991 447.375 311.991 447.258 311.991V292.936C447.375 292.936 447.492 292.936 447.609 292.936C447.725 292.936 447.725 292.936 447.725 292.936Z" fill="#3B9D7D"/>
<path d="M447.375 292.936V311.991C447.258 311.991 447.142 311.991 447.025 311.991V292.936C447.142 292.936 447.258 292.936 447.375 292.936Z" fill="#399979"/>
<path d="M447.025 292.936V311.991C446.908 311.991 446.791 311.991 446.674 311.991V292.936C446.791 292.936 446.908 292.936 447.025 292.936Z" fill="#379475"/>
<path d="M446.673 292.936V311.991C446.557 311.991 446.44 311.991 446.323 311.874V292.819C446.44 292.936 446.557 292.936 446.673 292.936Z" fill="#358F71"/>
<path d="M446.323 292.82V311.874C446.206 311.874 446.089 311.874 445.972 311.757V292.703C445.972 292.82 446.089 292.82 446.323 292.82Z" fill="#348A6D"/>
<path d="M445.855 292.82V311.874C445.738 311.874 445.505 311.757 445.388 311.757V292.703C445.622 292.703 445.738 292.703 445.855 292.82Z" fill="#328569"/>
<path d="M445.388 292.586V311.64C445.154 311.523 444.92 311.407 444.687 311.29V292.235C444.92 292.469 445.154 292.586 445.388 292.586Z" fill="#308065"/>
<path d="M512.371 281.129V300.184C511.553 299.717 511.085 299.132 511.085 298.548V298.431V279.376V279.493C511.085 280.077 511.436 280.545 512.371 281.129Z" fill="#308065"/>
<path d="M529.205 290.832V309.887L512.254 300.184L512.371 281.129L529.205 290.832Z" fill="#318469"/>
<path d="M582.512 304.977V324.032C582.512 324.149 582.512 324.149 582.395 324.266V305.211C582.512 305.211 582.512 305.094 582.512 304.977Z" fill="#399979"/>
<path d="M582.512 305.211V324.266C582.512 324.383 582.395 324.383 582.395 324.5V305.445C582.395 305.328 582.395 305.328 582.512 305.211Z" fill="#3B9D7D"/>
<path d="M582.395 305.445V324.5C582.395 324.616 582.278 324.616 582.278 324.733V305.679C582.278 305.562 582.278 305.562 582.395 305.445Z" fill="#3DA281"/>
<path d="M582.161 305.679V324.733C582.044 324.85 582.044 324.967 581.927 324.967V305.913C582.044 305.796 582.161 305.796 582.161 305.679Z" fill="#3FA785"/>
<path d="M581.927 305.912V324.967C581.81 325.084 581.577 325.201 581.343 325.435V306.38C581.577 306.263 581.81 306.029 581.927 305.912Z" fill="#40AC88"/>
<path d="M581.343 306.38V325.435C581.343 325.435 581.343 325.435 581.226 325.435L581.343 306.38Z" fill="#42B18C"/>
<path d="M581.342 306.38L581.225 325.435L571.522 331.046L571.639 311.991L581.342 306.38Z" fill="#47BE96"/>
<path d="M565.912 311.991V331.046L548.845 321.226V302.172L565.912 311.991Z" fill="#318469"/>
<path d="M571.64 311.991V331.046C571.406 331.163 571.055 331.396 570.705 331.396V312.342C571.055 312.342 571.289 312.225 571.64 311.991Z" fill="#42B18C"/>
<path d="M570.705 312.458V331.513C570.471 331.63 570.237 331.63 570.003 331.747V312.692C570.237 312.575 570.471 312.458 570.705 312.458Z" fill="#40AC88"/>
<path d="M570.003 312.575V331.63C569.886 331.63 569.653 331.63 569.536 331.747V312.692C569.653 312.692 569.769 312.692 570.003 312.575Z" fill="#3FA785"/>
<path d="M569.418 312.692V331.747C569.301 331.747 569.068 331.747 568.951 331.747V312.692C569.068 312.692 569.301 312.692 569.418 312.692Z" fill="#3DA281"/>
<path d="M568.951 312.692V331.747H568.834C568.717 331.747 568.6 331.747 568.483 331.747V312.692C568.6 312.692 568.717 312.692 568.834 312.692C568.834 312.692 568.951 312.692 568.951 312.692Z" fill="#3B9D7D"/>
<path d="M568.484 312.692V331.747C568.367 331.747 568.25 331.747 568.133 331.747V312.692C568.25 312.692 568.367 312.692 568.484 312.692Z" fill="#399979"/>
<path d="M568.132 312.692V331.747C568.016 331.747 567.899 331.747 567.782 331.747V312.692C567.899 312.692 568.016 312.692 568.132 312.692Z" fill="#379475"/>
<path d="M567.782 312.692V331.747C567.665 331.747 567.548 331.747 567.431 331.63V312.575C567.548 312.575 567.665 312.692 567.782 312.692Z" fill="#358F71"/>
<path d="M567.431 312.576V331.63C567.314 331.63 567.197 331.63 567.081 331.513V312.459C567.197 312.576 567.314 312.576 567.431 312.576Z" fill="#348A6D"/>
<path d="M567.08 312.458V331.513C566.963 331.513 566.73 331.396 566.613 331.396V312.342C566.73 312.458 566.847 312.458 567.08 312.458Z" fill="#328569"/>
<path d="M566.613 312.342V331.397C566.379 331.28 566.145 331.163 565.912 331.046V311.991C566.145 312.108 566.379 312.225 566.613 312.342Z" fill="#308065"/>
<path d="M488.875 317.719V336.774C488.056 336.306 487.589 335.722 487.589 335.137V335.021V315.966V316.083C487.589 316.667 488.056 317.252 488.875 317.719Z" fill="#308065"/>
<path d="M548.845 302.172V321.226L508.28 344.84L508.397 325.786L548.845 302.172Z" fill="#47BE96"/>
<path d="M502.668 325.786V344.84L488.757 336.774L488.874 317.719L502.668 325.786Z" fill="#318469"/>
<path d="M508.396 325.785V344.84C508.162 344.957 507.812 345.191 507.461 345.191V326.136C507.812 326.019 508.045 325.902 508.396 325.785Z" fill="#42B18C"/>
<path d="M507.462 326.136V345.191C507.228 345.308 506.994 345.308 506.76 345.425V326.37C506.994 326.253 507.228 326.253 507.462 326.136Z" fill="#40AC88"/>
<path d="M506.761 326.37V345.425C506.644 345.425 506.41 345.425 506.293 345.542V326.487C506.41 326.37 506.527 326.37 506.761 326.37Z" fill="#3FA785"/>
<path d="M506.176 326.37V345.425C506.059 345.425 505.825 345.425 505.708 345.425V326.37C505.942 326.487 506.059 326.37 506.176 326.37Z" fill="#3DA281"/>
<path d="M505.708 326.487V345.542H505.591C505.474 345.542 505.357 345.542 505.24 345.542V326.487C505.357 326.487 505.474 326.487 505.591 326.487H505.708Z" fill="#3B9D7D"/>
<path d="M505.241 326.487V345.542C505.124 345.542 505.007 345.542 504.89 345.542V326.487C505.007 326.487 505.124 326.487 505.241 326.487Z" fill="#399979"/>
<path d="M504.89 326.37V345.425C504.773 345.425 504.656 345.425 504.54 345.425V326.37C504.656 326.37 504.773 326.37 504.89 326.37Z" fill="#379475"/>
<path d="M504.539 326.37V345.425C504.422 345.425 504.305 345.425 504.188 345.308V326.253C504.305 326.37 504.422 326.37 504.539 326.37Z" fill="#358F71"/>
<path d="M504.189 326.37V345.425C504.072 345.425 503.955 345.425 503.838 345.308V326.253C503.955 326.253 504.072 326.253 504.189 326.37Z" fill="#348A6D"/>
<path d="M503.838 326.253V345.308C503.721 345.308 503.487 345.191 503.37 345.191V326.136C503.487 326.136 503.721 326.136 503.838 326.253Z" fill="#328569"/>
<path d="M503.37 326.019V345.074C503.137 344.957 502.903 344.84 502.669 344.723V325.669C502.903 325.903 503.137 326.019 503.37 326.019Z" fill="#308065"/>
<path d="M581.343 303.107C582.161 303.574 582.629 304.159 582.629 304.743C582.629 305.328 582.278 305.912 581.343 306.38L571.64 311.991C570.939 312.459 570.003 312.693 568.834 312.693C567.782 312.693 566.73 312.459 565.912 311.991L548.845 302.172L508.28 325.669C507.579 326.136 506.644 326.37 505.475 326.37C504.422 326.37 503.37 326.136 502.552 325.669L488.641 317.719C487.823 317.252 487.355 316.667 487.355 316.083C487.355 315.498 487.706 314.914 488.524 314.446L529.088 290.949L512.138 281.13C511.32 280.662 510.852 280.077 510.852 279.493C510.852 278.908 511.203 278.324 512.021 277.856L521.724 272.245C522.542 271.777 523.477 271.544 524.646 271.544C525.698 271.544 526.75 271.777 527.569 272.245L581.343 303.107Z" fill="#5CF6C3"/>
<path d="M622.024 327.89V346.944C622.024 347.061 622.024 347.061 621.907 347.178V328.123C622.024 328.007 622.024 328.007 622.024 327.89Z" fill="#399979"/>
<path d="M621.907 328.124V347.178C621.907 347.295 621.907 347.295 621.791 347.412V328.357C621.907 328.24 621.907 328.124 621.907 328.124Z" fill="#3B9D7D"/>
<path d="M621.79 328.357V347.412C621.79 347.529 621.673 347.529 621.673 347.646V328.591C621.79 328.474 621.79 328.357 621.79 328.357Z" fill="#3DA281"/>
<path d="M621.673 328.474V347.529C621.556 347.646 621.556 347.646 621.439 347.763V328.708C621.556 328.708 621.673 328.591 621.673 328.474Z" fill="#3FA785"/>
<path d="M621.439 328.825V347.88C621.323 347.997 621.089 348.113 620.855 348.347V329.293C621.089 329.059 621.323 328.942 621.439 328.825Z" fill="#40AC88"/>
<path d="M620.855 329.176V348.231C620.855 348.231 620.855 348.231 620.738 348.231L620.855 329.176Z" fill="#42B18C"/>
<path d="M620.855 329.176L620.738 348.231L590.228 366.116V347.062L620.855 329.176Z" fill="#47BE96"/>
<path d="M547.793 351.854V370.909C546.974 370.442 546.624 369.974 546.624 369.273V350.218C546.624 350.802 547.091 351.387 547.793 351.854Z" fill="#308065"/>
<path d="M662.94 351.503V370.558C662.94 370.675 662.94 370.675 662.823 370.792V351.737C662.823 351.737 662.94 351.62 662.94 351.503Z" fill="#399979"/>
<path d="M662.823 351.737V370.792C662.823 370.909 662.823 370.909 662.706 371.026V351.971C662.823 351.854 662.823 351.854 662.823 351.737Z" fill="#3B9D7D"/>
<path d="M662.706 351.971V371.026C662.706 371.143 662.589 371.143 662.589 371.259V352.205C662.706 352.088 662.706 351.971 662.706 351.971Z" fill="#3DA281"/>
<path d="M662.589 352.205V371.26C662.472 371.377 662.472 371.376 662.355 371.493V352.439C662.472 352.322 662.589 352.205 662.589 352.205Z" fill="#3FA785"/>
<path d="M662.355 352.439V371.493C662.238 371.61 662.005 371.727 661.888 371.844V352.789C662.121 352.673 662.238 352.556 662.355 352.439Z" fill="#40AC88"/>
<path d="M560.535 359.102V378.157L547.792 370.909V351.854L560.535 359.102Z" fill="#318469"/>
<path d="M619.336 354.309L619.219 373.364L565.445 378.975L565.562 359.921L619.336 354.309Z" fill="#43B38E"/>
<path d="M565.562 359.92V378.975H565.445L565.562 359.92C565.445 359.92 565.445 359.92 565.562 359.92Z" fill="#3FA785"/>
<path d="M565.445 359.92V378.975C565.211 378.975 564.86 378.975 564.626 378.975V359.92C564.86 360.037 565.094 359.92 565.445 359.92Z" fill="#3DA281"/>
<path d="M564.627 360.037V379.092C564.393 379.092 564.159 379.092 563.925 379.092V360.037C564.159 360.037 564.393 360.037 564.627 360.037Z" fill="#3B9D7D"/>
<path d="M563.925 360.037V379.092C563.691 379.092 563.574 379.092 563.34 379.092V360.037C563.574 360.037 563.691 360.037 563.925 360.037Z" fill="#399979"/>
<path d="M563.341 359.92V378.975C563.224 378.975 562.99 378.975 562.873 378.975V359.92C562.99 359.92 563.224 359.92 563.341 359.92Z" fill="#379475"/>
<path d="M562.873 359.921V378.975C562.756 378.975 562.523 378.975 562.406 378.858V359.804C562.523 359.921 562.756 359.921 562.873 359.921Z" fill="#358F71"/>
<path d="M562.406 359.804V378.858C562.289 378.858 562.055 378.741 561.938 378.741V359.687C562.055 359.804 562.172 359.804 562.406 359.804Z" fill="#348A6D"/>
<path d="M561.938 359.687V378.741C561.704 378.741 561.587 378.625 561.354 378.508V359.453C561.47 359.57 561.704 359.687 561.938 359.687Z" fill="#328569"/>
<path d="M561.353 359.453V378.508C561.12 378.391 560.886 378.274 560.535 378.157V359.102C560.769 359.336 561.003 359.453 561.353 359.453Z" fill="#308065"/>
<path d="M588.824 375.468V394.523C588.006 394.055 587.539 393.471 587.539 392.886V392.77V373.715V373.832C587.539 374.416 588.006 375.001 588.824 375.468Z" fill="#308065"/>
<path d="M661.887 352.79L661.77 371.844L608.698 402.706V383.651L661.887 352.79Z" fill="#47BE96"/>
<path d="M603.087 383.651L602.97 402.706L588.825 394.523V375.468L603.087 383.651Z" fill="#318469"/>
<path d="M661.771 349.516C662.472 349.984 662.94 350.452 662.94 351.153C662.94 351.737 662.589 352.322 661.888 352.79L608.698 383.651C607.997 384.119 607.062 384.353 605.893 384.353C604.84 384.353 603.788 384.119 602.97 383.651L588.825 375.468C588.007 375.001 587.539 374.416 587.539 373.832C587.539 373.247 587.89 372.663 588.708 372.195L619.336 354.426L565.562 360.037C563.575 360.271 561.821 360.037 560.535 359.219L547.793 351.854C546.975 351.387 546.624 350.919 546.624 350.218C546.624 349.516 546.975 349.049 547.793 348.581L600.866 317.719C601.684 317.252 602.619 317.018 603.788 317.018C604.84 317.018 605.776 317.252 606.594 317.719L620.739 325.902C621.557 326.37 622.025 326.955 622.025 327.539C622.025 328.124 621.674 328.708 620.856 329.176L590.228 346.945L644.002 341.333C645.989 341.1 647.743 341.333 649.029 342.152L661.771 349.516Z" fill="#5CF6C3"/>
<path d="M608.698 383.651V402.706C608.465 402.823 608.114 403.057 607.763 403.057V384.002C608.114 384.002 608.465 383.885 608.698 383.651Z" fill="#42B18C"/>
<path d="M607.763 384.119V403.173C607.529 403.29 607.295 403.29 607.062 403.407V384.352C607.295 384.236 607.529 384.119 607.763 384.119Z" fill="#40AC88"/>
<path d="M607.062 384.236V403.29C606.945 403.29 606.711 403.29 606.477 403.407V384.352C606.711 384.352 606.828 384.236 607.062 384.236Z" fill="#3FA785"/>
<path d="M606.477 384.353V403.407C606.36 403.407 606.126 403.407 606.009 403.407V384.353C606.243 384.353 606.36 384.353 606.477 384.353Z" fill="#3DA281"/>
<path d="M606.01 384.353V403.407H605.893C605.776 403.407 605.659 403.407 605.542 403.407V384.353C605.776 384.353 605.776 384.353 606.01 384.353Z" fill="#3B9D7D"/>
<path d="M605.658 384.353V403.407C605.541 403.407 605.425 403.407 605.308 403.407V384.353C605.425 384.353 605.541 384.353 605.658 384.353Z" fill="#399979"/>
<path d="M605.191 384.353V403.407C605.074 403.407 604.957 403.407 604.84 403.407V384.353C604.957 384.353 605.074 384.353 605.191 384.353Z" fill="#379475"/>
<path d="M604.84 384.352V403.407C604.724 403.407 604.607 403.407 604.49 403.29V384.236C604.607 384.236 604.724 384.236 604.84 384.352Z" fill="#358F71"/>
<path d="M604.49 384.236V403.29C604.373 403.29 604.256 403.29 604.139 403.173V384.119C604.256 384.236 604.373 384.236 604.49 384.236Z" fill="#348A6D"/>
<path d="M604.139 384.119V403.174C604.022 403.174 603.788 403.057 603.671 403.057V384.002C603.788 384.002 604.022 384.119 604.139 384.119Z" fill="#328569"/>
<path d="M603.671 384.002V403.057C603.437 402.94 603.204 402.823 602.97 402.706V383.651C603.204 383.768 603.437 383.885 603.671 384.002Z" fill="#308065"/>
</g>
<defs>
<filter id="filter0_d" x="-15" y="-13" width="737.122" height="460.312" filterUnits="userSpaceOnUse" color-interpolation-filters="sRGB">
<feFlood flood-opacity="0" result="BackgroundImageFix"/>
<feColorMatrix in="SourceAlpha" type="matrix" values="0 0 0 0 0 0 0 0 0 0 0 0 0 0 0 0 0 0 127 0"/>
<feOffset dy="2"/>
<feGaussianBlur stdDeviation="7.5"/>
<feColorMatrix type="matrix" values="0 0 0 0 0.0125 0 0 0 0 0.0125 0 0 0 0 0.0125 0 0 0 0.5 0"/>
<feBlend mode="normal" in2="BackgroundImageFix" result="effect1_dropShadow"/>
<feBlend mode="normal" in="SourceGraphic" in2="effect1_dropShadow" result="shape"/>
</filter>
</defs>
</svg>
