<svg width="708" height="431" xmlns="http://www.w3.org/2000/svg">
<g filter="url(#filter0_d)">
<path d="M163.03 38.2485V57.3033C163.03 57.4202 163.03 57.4202 162.913 57.5371V38.4823C163.03 38.3654 163.03 38.3654 163.03 38.2485Z" fill="#399979"/>
<path d="M162.913 38.4824V57.5372C162.913 57.6541 162.796 57.6541 162.796 57.771V38.7162C162.913 38.5993 162.913 38.5993 162.913 38.4824Z" fill="#3B9D7D"/>
<path d="M162.796 38.7163V57.7711C162.796 57.888 162.679 57.888 162.679 58.0049V38.9501C162.796 38.8332 162.796 38.8332 162.796 38.7163Z" fill="#3DA281"/>
<path d="M162.679 38.95V58.0047C162.562 58.1216 162.562 58.2385 162.445 58.2385V39.1838C162.562 39.0669 162.679 39.0669 162.679 38.95Z" fill="#3FA785"/>
<path d="M162.446 39.1838V58.2386C162.329 58.3555 162.095 58.5893 161.861 58.7062V39.6514C162.095 39.5345 162.329 39.3007 162.446 39.1838Z" fill="#40AC88"/>
<path d="M161.861 39.6514V58.7061C161.861 58.7061 161.861 58.7061 161.744 58.7061L161.861 39.6514Z" fill="#42B18C"/>
<path d="M109.139 47.3669V66.4217C107.736 65.6034 106.333 64.902 105.047 64.4344V45.3796C106.45 45.8472 107.736 46.5486 109.139 47.3669Z" fill="#308065"/>
<path d="M105.048 45.3796V64.4343C104.229 64.0836 103.528 63.8498 102.826 63.616V44.5613C103.528 44.7951 104.346 45.0289 105.048 45.3796Z" fill="#328569"/>
<path d="M102.827 44.5614V63.6161C102.242 63.4992 101.774 63.3823 101.307 63.2654V44.2107C101.774 44.3276 102.242 44.4445 102.827 44.5614Z" fill="#348A6D"/>
<path d="M101.19 44.2106V63.2654C100.722 63.1485 100.372 63.1485 99.9041 63.0316V43.9768C100.372 43.9768 100.839 44.0937 101.19 44.2106Z" fill="#358F71"/>
<path d="M99.9041 43.9768V63.0315C99.5534 63.0315 99.2027 62.9146 98.7351 62.9146V43.8599C99.2027 43.8599 99.5534 43.8599 99.9041 43.9768Z" fill="#379475"/>
<path d="M98.8517 43.8601V62.9149C98.501 62.9149 98.1503 62.9149 97.7996 62.9149V43.8601C98.1503 43.7432 98.501 43.7432 98.8517 43.8601Z" fill="#399979"/>
<path d="M97.7999 43.7432V62.7979C97.5661 62.7979 97.4492 62.7979 97.2154 62.7979C96.9816 62.7979 96.8647 62.7979 96.6309 62.7979V43.7432C96.8647 43.7432 96.9816 43.7432 97.2154 43.7432C97.4492 43.7432 97.5661 43.7432 97.7999 43.7432Z" fill="#3B9D7D"/>
<path d="M96.6306 43.7432V62.7979C96.163 62.7979 95.6954 62.7979 95.3447 62.9148V43.8601C95.8123 43.8601 96.163 43.7432 96.6306 43.7432Z" fill="#3DA281"/>
<path d="M95.3448 43.8601V62.9149C94.7603 62.9149 94.1758 63.0318 93.5913 63.1487V44.0939C94.1758 43.977 94.7603 43.977 95.3448 43.8601Z" fill="#3FA785"/>
<path d="M93.5911 44.0938V63.1485C92.539 63.3823 91.4869 63.6161 90.4348 63.9668V44.9121C91.6038 44.5614 92.6559 44.3276 93.5911 44.0938Z" fill="#40AC88"/>
<path d="M90.552 44.9121V63.9669C88.7985 64.5514 87.045 65.2528 85.2915 66.188V47.1332C87.045 46.198 88.7985 45.3797 90.552 44.9121Z" fill="#42B18C"/>
<path d="M85.2916 47.1331V66.1878L81.6677 68.1751V49.1204L85.2916 47.1331Z" fill="#47BE97"/>
<path d="M161.744 39.6514V58.7061L143.157 69.5779V50.5231L161.744 39.6514Z" fill="#47BE96"/>
<path d="M81.6674 49.1204V68.1751C81.3167 68.4089 81.0829 68.5258 80.7322 68.7596V49.7049C81.0829 49.4711 81.3167 49.2373 81.6674 49.1204Z" fill="#42B18C"/>
<path d="M80.7319 49.7048V68.7596C78.5108 70.0455 76.7573 71.3314 75.4714 72.5004V53.4456C76.7573 52.2766 78.5108 50.9907 80.7319 49.7048Z" fill="#40AC88"/>
<path d="M75.4717 53.4456V72.5003C74.8872 72.9679 74.4195 73.5524 74.0688 74.02V54.9653C74.4195 54.4977 74.8872 54.0301 75.4717 53.4456Z" fill="#3FA785"/>
<path d="M74.0688 54.9653V74.0201C73.835 74.3708 73.6012 74.7215 73.3674 75.0722V56.0174C73.6012 55.6667 73.835 55.316 74.0688 54.9653Z" fill="#3DA281"/>
<path d="M73.3673 56.0173V75.0721C73.2504 75.3059 73.1335 75.5397 73.0166 75.8904V56.8356C73.1335 56.4849 73.2504 56.2511 73.3673 56.0173Z" fill="#3B9D7D"/>
<path d="M73.0165 56.7188V75.7735C72.8996 76.0073 72.8996 76.2411 72.7827 76.4749V57.4202C72.8996 57.1864 72.8996 56.9526 73.0165 56.7188Z" fill="#399979"/>
<path d="M72.7829 57.4202V76.4749C72.7829 76.7087 72.666 76.8256 72.666 77.0594V58.0047C72.7829 57.7709 72.7829 57.654 72.7829 57.4202Z" fill="#379475"/>
<path d="M135.091 65.6034V84.6581V84.5412C135.091 82.3201 132.987 80.099 128.895 77.6441V58.5894C132.987 61.0443 134.974 63.3823 135.091 65.6034Z" fill="#308065"/>
<path d="M64.6002 73.085V92.1397C54.4298 86.2947 48.8186 80.5666 47.7665 75.0723C47.6496 74.3709 47.5327 73.6695 47.5327 72.9681V53.9133C47.5327 54.6147 47.6496 55.3161 47.7665 56.0175C48.8186 61.5119 54.4298 67.24 64.6002 73.085Z" fill="#308065"/>
<path d="M128.895 58.7061L128.778 77.7608L98.5012 95.2959L98.6181 76.2411L128.895 58.7061Z" fill="#47BE96"/>
<path d="M159.874 70.0454V89.1002C159.874 89.6847 159.757 90.2692 159.64 90.8537V71.7989C159.757 71.3313 159.874 70.6299 159.874 70.0454Z" fill="#379475"/>
<path d="M159.64 71.916V90.9708C159.523 91.5553 159.406 92.1398 159.172 92.7243V73.6695C159.406 73.085 159.523 72.5005 159.64 71.916Z" fill="#399979"/>
<path d="M159.173 73.6694V92.7242C158.939 93.3087 158.705 93.8932 158.354 94.4777V75.4229C158.588 74.8384 158.939 74.2539 159.173 73.6694Z" fill="#3B9D7D"/>
<path d="M158.354 75.4229V94.4776C158.003 95.179 157.536 95.7635 157.068 96.4649V77.4102C157.536 76.7088 157.886 76.1243 158.354 75.4229Z" fill="#3DA281"/>
<path d="M156.951 77.4102V96.4649C156.25 97.2832 155.549 98.1015 154.73 98.9198V79.8651C155.549 79.0468 156.367 78.2285 156.951 77.4102Z" fill="#3FA785"/>
<path d="M154.73 79.865V98.9197C153.561 100.089 152.042 101.141 150.405 102.31V83.2551C152.042 82.0861 153.444 80.9171 154.73 79.865Z" fill="#40AC88"/>
<path d="M46.013 87.2299V106.285C45.1947 105.817 44.7271 105.349 44.7271 104.648V85.5933C44.844 86.2947 45.1947 86.7623 46.013 87.2299Z" fill="#308065"/>
<path d="M150.405 83.1384V102.193C148.885 103.245 147.716 104.064 146.547 104.648V85.5933C147.599 85.0088 148.885 84.1905 150.405 83.1384Z" fill="#40AC88"/>
<path d="M146.547 85.5933V104.648C146.314 104.765 146.08 104.882 145.846 105.116C144.794 105.7 143.157 106.635 140.819 107.687C138.248 109.09 135.559 110.142 132.87 110.961V91.9059C135.559 91.0876 138.248 89.9186 140.819 88.6327C143.04 87.4637 144.794 86.6454 145.846 86.0609C146.08 85.944 146.314 85.8271 146.547 85.5933Z" fill="#42B18C"/>
<path d="M132.987 92.0229V111.078C130.883 111.779 128.778 112.247 126.557 112.714V93.6596C128.662 93.1919 130.883 92.6075 132.987 92.0229Z" fill="#40AC88"/>
<path d="M126.557 93.5425V112.597C125.271 112.831 123.986 113.065 122.583 113.182V94.127C123.986 94.0101 125.271 93.7763 126.557 93.5425Z" fill="#3FA785"/>
<path d="M122.582 94.1272V113.182C121.53 113.299 120.361 113.416 119.192 113.416V94.361C120.361 94.361 121.53 94.2441 122.582 94.1272Z" fill="#3DA281"/>
<path d="M119.309 94.3608V113.416C118.257 113.416 117.205 113.416 116.153 113.416V94.3608C117.205 94.3608 118.257 94.3608 119.309 94.3608Z" fill="#3B9D7D"/>
<path d="M116.036 94.3608V113.416C115.335 113.416 114.633 113.416 113.932 113.299C113.581 113.299 113.231 113.299 112.88 113.182V94.127C113.231 94.127 113.581 94.127 113.932 94.2439C114.75 94.3608 115.452 94.3608 116.036 94.3608Z" fill="#399979"/>
<path d="M112.997 94.244V113.299C111.945 113.182 110.893 113.065 109.841 112.948V93.8933C110.893 94.0102 111.945 94.1271 112.997 94.244Z" fill="#379475"/>
<path d="M109.841 93.8933V112.948C108.672 112.831 107.502 112.597 106.333 112.364V93.3088C107.386 93.4257 108.555 93.6595 109.841 93.8933Z" fill="#358F71"/>
<path d="M106.217 93.192V112.247C104.814 111.896 103.294 111.545 101.891 111.195V92.1399C103.294 92.6075 104.814 92.9582 106.217 93.192Z" fill="#348A6D"/>
<path d="M101.891 92.1399V111.195C99.787 110.61 97.6828 109.909 95.5786 109.09V90.0356C97.6828 90.8539 99.787 91.5553 101.891 92.1399Z" fill="#328569"/>
<path d="M95.5787 90.0356V109.09C91.9548 107.688 88.214 105.817 84.4731 103.713V84.6582C88.214 86.7624 91.9548 88.5159 95.5787 90.0356Z" fill="#308065"/>
<path d="M84.4731 84.5413V103.713L65.769 114.468L65.8859 95.413L84.4731 84.5413Z" fill="#47BE96"/>
<path d="M60.1578 95.413V114.468L45.896 106.285L46.0129 87.23L60.1578 95.413Z" fill="#318469"/>
<path d="M150.405 83.1384C148.651 84.4244 147.132 85.3596 145.846 86.061C144.794 86.6455 143.157 87.5807 140.819 88.6328C132.402 92.9581 123.518 94.8285 113.932 94.244C104.346 93.6595 94.5266 90.3863 84.3563 84.5413L65.7691 95.413C64.9508 95.8806 64.0156 96.1144 62.9635 96.1144C61.9114 96.1144 60.9762 95.8806 60.1579 95.413L45.8961 87.23C45.0778 86.7624 44.7271 86.2948 44.7271 85.5934C44.7271 85.0089 45.0778 84.4244 45.8961 83.9568L64.6001 73.085C54.4298 67.24 48.8186 61.5119 47.7665 56.0176C46.7144 50.5233 49.8707 45.2627 57.3523 40.4698C58.2875 39.7684 59.9241 38.8332 62.0283 37.6642C64.2494 36.3783 65.7691 35.4431 66.8212 34.9755C75.1211 30.6502 84.1225 28.8967 93.8252 29.4812C103.645 30.1826 113.464 33.3389 123.284 38.9501L141.871 28.0784C142.69 27.7277 143.742 27.4939 144.794 27.4939C145.846 27.4939 146.781 27.7277 147.599 28.1953L161.861 36.3783C162.679 36.8459 163.147 37.4304 163.147 38.0149C163.147 38.5994 162.679 39.1839 161.861 39.6515L143.274 50.5233C153.094 56.2514 158.588 61.8626 159.757 67.5907C160.809 73.2019 157.653 78.3455 150.405 83.1384ZM78.9788 64.902L109.256 47.367C105.048 44.912 101.073 43.743 97.3322 43.743C93.4745 43.743 89.4999 44.912 85.4084 47.1332L81.7845 49.1205C76.407 52.2768 73.3676 55.0824 72.9 57.4204C72.3155 59.7584 74.4197 62.3302 78.9788 64.902ZM111.711 79.7483C115.802 79.3976 120.595 77.761 125.856 74.6047C127.492 73.6695 128.661 72.9681 129.246 72.5005C133.104 70.0456 135.091 67.7076 134.974 65.4865C134.974 63.2654 132.87 61.0443 128.778 58.5894L98.5012 76.1244C103.177 78.93 107.619 80.099 111.711 79.7483Z" fill="#5CF6C3"/>
<path d="M63.0803 96.1143V115.169H62.9634V96.1143C62.9634 96.1143 62.9634 96.1143 63.0803 96.1143Z" fill="#3B9D7D"/>
<path d="M62.8463 96.1143V115.169C62.7294 115.169 62.6125 115.169 62.4956 115.169V96.1143C62.6125 96.1143 62.7294 96.1143 62.8463 96.1143Z" fill="#399979"/>
<path d="M62.4955 96.1143V115.169C62.3786 115.169 62.2617 115.169 62.1448 115.169V96.1143C62.2617 96.1143 62.3786 96.1143 62.4955 96.1143Z" fill="#379475"/>
<path d="M62.1449 96.1145V115.169C62.028 115.169 61.9111 115.169 61.7942 115.052V95.9976C61.9111 95.9976 62.028 96.1145 62.1449 96.1145Z" fill="#358F71"/>
<path d="M61.7945 95.9975V115.052C61.6776 115.052 61.5607 114.935 61.4438 114.935V95.8806C61.5607 95.9975 61.6776 95.9975 61.7945 95.9975Z" fill="#348A6D"/>
<path d="M61.3267 95.8806V114.935C61.2098 114.935 60.976 114.818 60.8591 114.818V95.7637C61.0929 95.7637 61.2098 95.8806 61.3267 95.8806Z" fill="#328569"/>
<path d="M60.8591 95.7635V114.818C60.6253 114.701 60.3915 114.584 60.1577 114.468V95.4128C60.3915 95.5297 60.6253 95.6466 60.8591 95.7635Z" fill="#308065"/>
<path d="M65.8861 95.4128V114.468C65.5354 114.701 65.1847 114.818 64.834 114.935V95.8804C65.1847 95.7635 65.5354 95.6466 65.8861 95.4128Z" fill="#42B18C"/>
<path d="M64.834 95.8806V114.935C64.6002 115.052 64.3664 115.052 64.1326 115.169V96.1144C64.3664 95.9975 64.6002 95.9975 64.834 95.8806Z" fill="#40AC88"/>
<path d="M64.1326 95.9976V115.052C64.0157 115.052 63.7819 115.052 63.665 115.169V96.1145C63.7819 96.1145 64.0157 96.1145 64.1326 95.9976Z" fill="#3FA785"/>
<path d="M63.6649 96.1145V115.169C63.548 115.169 63.4311 115.169 63.1973 115.169V96.1145C63.3142 96.1145 63.548 96.1145 63.6649 96.1145Z" fill="#3DA281"/>
<path d="M63.1974 96.1143V115.169C63.0805 115.169 63.0805 115.169 62.9636 115.169V96.1143C63.0805 96.1143 63.1974 96.1143 63.1974 96.1143Z" fill="#3B9D7D"/>
<path d="M215.05 93.1917V112.246C215.05 112.363 215.051 112.363 214.934 112.48V93.4255C215.051 93.3086 215.05 93.3086 215.05 93.1917Z" fill="#399979"/>
<path d="M215.051 93.4255V112.48C215.051 112.597 214.934 112.597 214.934 112.714V93.6593C214.934 93.5424 214.934 93.4255 215.051 93.4255Z" fill="#3B9D7D"/>
<path d="M214.934 93.6594V112.714C214.934 112.831 214.817 112.831 214.817 112.948V93.8932C214.817 93.7763 214.817 93.6594 214.934 93.6594Z" fill="#3DA281"/>
<path d="M214.817 93.7764V112.831C214.7 112.948 214.7 113.065 214.583 113.065V94.0102C214.583 94.0102 214.7 93.8933 214.817 93.7764Z" fill="#3FA785"/>
<path d="M214.466 94.127V113.182C214.349 113.299 214.115 113.415 213.882 113.649V94.5946C214.115 94.3608 214.349 94.2439 214.466 94.127Z" fill="#40AC88"/>
<path d="M213.882 94.4775V113.532C213.882 113.532 213.882 113.532 213.765 113.532L213.882 94.4775C213.882 94.5944 213.882 94.5944 213.882 94.4775Z" fill="#42B18C"/>
<path d="M213.882 94.5945L213.765 113.649L209.79 115.987V96.9325L213.882 94.5945Z" fill="#47BE96"/>
<path d="M217.622 112.948V132.003C217.622 130.249 216.103 128.496 213.18 126.859C212.362 126.392 211.544 125.924 210.608 125.573V106.519C211.427 106.869 212.362 107.22 213.18 107.804C216.103 109.441 217.622 111.195 217.622 112.948Z" fill="#308065"/>
<path d="M210.609 106.518V125.573C210.024 125.339 209.556 125.222 208.972 124.989V105.934C209.556 106.168 210.024 106.285 210.609 106.518Z" fill="#328569"/>
<path d="M208.972 105.934V124.989C208.621 124.872 208.154 124.755 207.686 124.638V105.583C208.154 105.7 208.504 105.817 208.972 105.934Z" fill="#348A6D"/>
<path d="M207.686 105.7V124.755C207.335 124.638 206.985 124.638 206.634 124.521V105.466C206.985 105.583 207.335 105.583 207.686 105.7Z" fill="#358F71"/>
<path d="M206.634 105.467V124.521C206.283 124.521 205.933 124.404 205.582 124.404V105.35C205.933 105.35 206.283 105.467 206.634 105.467Z" fill="#379475"/>
<path d="M205.699 105.349V124.404C205.348 124.404 204.997 124.404 204.646 124.404V105.349C204.997 105.349 205.348 105.349 205.699 105.349Z" fill="#399979"/>
<path d="M204.647 105.35V124.404C204.296 124.404 203.945 124.404 203.594 124.404V105.35C203.945 105.35 204.296 105.35 204.647 105.35Z" fill="#3B9D7D"/>
<path d="M203.594 105.35V124.404C203.361 124.404 203.01 124.404 202.776 124.404C202.542 124.404 202.425 124.404 202.192 124.404V105.35C202.425 105.35 202.542 105.35 202.776 105.35C203.01 105.35 203.244 105.35 203.594 105.35Z" fill="#3DA281"/>
<path d="M202.192 105.466V124.521C201.49 124.638 200.789 124.638 200.087 124.755V105.7C200.789 105.583 201.49 105.466 202.192 105.466Z" fill="#3FA785"/>
<path d="M200.087 105.7V124.755C198.918 124.989 197.866 125.223 196.697 125.573V106.518C197.866 106.168 198.918 105.934 200.087 105.7Z" fill="#40AC88"/>
<path d="M196.698 106.519V125.573C195.178 126.041 193.775 126.625 192.255 127.444V108.389C193.775 107.688 195.178 106.986 196.698 106.519Z" fill="#42B18C"/>
<path d="M192.255 108.389V127.443C191.203 128.028 189.683 128.729 187.813 129.898C187.111 130.366 186.41 130.717 185.825 131.067V112.013C186.41 111.662 187.111 111.311 187.813 110.844C189.8 109.791 191.203 108.973 192.255 108.389Z" fill="#42B18C"/>
<path d="M185.943 112.013V131.067C185.124 131.535 184.423 132.003 183.838 132.353V113.299C184.423 112.948 185.124 112.48 185.943 112.013Z" fill="#40AC88"/>
<path d="M183.838 113.299V132.353C183.02 132.938 182.202 133.405 181.617 133.99V114.935C182.202 114.468 183.02 113.883 183.838 113.299Z" fill="#40AC88"/>
<path d="M181.617 115.052V134.107C181.149 134.457 180.799 134.925 180.565 135.276V116.221C180.916 115.753 181.266 115.403 181.617 115.052Z" fill="#3FA785"/>
<path d="M180.565 116.221V135.276C180.331 135.627 180.098 135.86 179.981 136.211V117.156C180.098 116.806 180.331 116.455 180.565 116.221Z" fill="#3DA281"/>
<path d="M179.981 117.156V136.211C179.864 136.445 179.63 136.796 179.63 137.029V117.975C179.63 117.624 179.747 117.39 179.981 117.156Z" fill="#3B9D7D"/>
<path d="M179.513 117.975V137.029C179.396 137.263 179.279 137.614 179.279 137.848V118.793C179.396 118.559 179.396 118.208 179.513 117.975Z" fill="#399979"/>
<path d="M120.127 130.015V149.07C119.309 148.603 118.842 148.018 118.842 147.434C118.842 147.434 118.842 147.434 118.842 147.317V128.262C118.842 128.262 118.842 128.262 118.842 128.379C118.958 128.963 119.309 129.548 120.127 130.015Z" fill="#308065"/>
<path d="M245.912 115.987V135.042C245.912 135.159 245.912 135.276 245.912 135.393C245.912 135.86 245.795 136.211 245.678 136.678V117.624C245.795 117.156 245.795 116.805 245.912 116.338C245.912 116.221 245.912 116.104 245.912 115.987Z" fill="#379475"/>
<path d="M245.795 117.741V136.795C245.678 137.38 245.561 137.964 245.328 138.549V119.494C245.445 118.91 245.678 118.325 245.795 117.741Z" fill="#399979"/>
<path d="M245.211 119.494V138.549C244.977 139.134 244.627 139.835 244.276 140.42V121.365C244.743 120.663 244.977 120.079 245.211 119.494Z" fill="#3B9D7D"/>
<path d="M244.393 121.365V140.419C243.925 141.121 243.457 141.939 242.873 142.64V123.586C243.457 122.767 243.925 122.066 244.393 121.365Z" fill="#3DA281"/>
<path d="M242.873 123.586V142.64C242.054 143.576 241.236 144.628 240.184 145.563V126.508C241.236 125.456 242.054 124.521 242.873 123.586Z" fill="#3FA785"/>
<path d="M240.184 126.391V145.446C238.314 147.2 235.976 148.953 233.287 150.59V131.535C235.976 129.898 238.314 128.145 240.184 126.391Z" fill="#40AC88"/>
<path d="M233.17 131.652V150.707C232.586 151.057 231.884 151.525 230.949 152.109V133.055C231.884 132.47 232.586 132.003 233.17 131.652Z" fill="#40AC88"/>
<path d="M230.949 133.055V152.109C230.364 152.46 229.78 152.811 229.078 153.162C227.325 154.214 225.805 155.032 224.636 155.616V136.562C225.805 135.977 227.208 135.159 229.078 134.107C229.78 133.756 230.364 133.405 230.949 133.055Z" fill="#42B18C"/>
<path d="M165.485 124.053L165.368 143.108L140.468 157.604V138.549L165.485 124.053Z" fill="#47BE96"/>
<path d="M134.857 138.549L134.74 157.604L120.128 149.07V130.015L134.857 138.549Z" fill="#318469"/>
<path d="M140.468 138.549V157.604C140.118 157.838 139.767 157.955 139.416 158.071V139.017C139.884 138.9 140.118 138.666 140.468 138.549Z" fill="#42B18C"/>
<path d="M139.533 139.017V158.071C139.299 158.188 139.065 158.188 138.832 158.305V139.25C139.065 139.133 139.299 139.017 139.533 139.017Z" fill="#40AC88"/>
<path d="M138.832 139.134V158.188C138.715 158.188 138.481 158.188 138.364 158.305V139.25C138.481 139.134 138.598 139.134 138.832 139.134Z" fill="#3FA785"/>
<path d="M138.247 139.25V158.305C138.13 158.305 138.013 158.305 137.78 158.305V139.25C138.013 139.25 138.13 139.25 138.247 139.25Z" fill="#3DA281"/>
<path d="M137.897 139.25V158.305C137.78 158.305 137.78 158.305 137.663 158.305H137.546V139.25H137.663C137.78 139.25 137.78 139.25 137.897 139.25Z" fill="#3B9D7D"/>
<path d="M137.546 139.25V158.305C137.429 158.305 137.312 158.305 137.195 158.305V139.25C137.312 139.25 137.429 139.25 137.546 139.25Z" fill="#399979"/>
<path d="M137.195 139.25V158.305C137.078 158.305 136.961 158.305 136.844 158.305V139.25C136.844 139.134 136.961 139.25 137.195 139.25Z" fill="#379475"/>
<path d="M136.728 139.134V158.188C136.611 158.188 136.494 158.188 136.377 158.071V139.017C136.494 139.134 136.611 139.134 136.728 139.134Z" fill="#358F71"/>
<path d="M136.377 139.134V158.188C136.26 158.188 136.143 158.071 136.026 158.071V139.017C136.143 139.017 136.26 139.134 136.377 139.134Z" fill="#348A6D"/>
<path d="M136.026 139.017V158.071C135.909 158.071 135.675 157.954 135.559 157.954V138.9C135.675 138.9 135.792 139.017 136.026 139.017Z" fill="#328569"/>
<path d="M135.559 138.9V157.955C135.325 157.838 135.091 157.721 134.857 157.604V138.549C135.091 138.666 135.325 138.783 135.559 138.9Z" fill="#308065"/>
<path d="M224.754 136.562V155.617C221.247 157.487 217.74 159.007 214.116 160.176V141.121C217.74 139.952 221.247 138.432 224.754 136.562Z" fill="#42B18C"/>
<path d="M214.115 141.121V160.176C211.661 160.994 209.323 161.578 206.868 162.046V142.991C209.323 142.524 211.777 141.822 214.115 141.121Z" fill="#40AC88"/>
<path d="M206.868 142.875V161.929C205.465 162.163 203.946 162.397 202.543 162.514V143.459C203.946 143.342 205.465 143.225 206.868 142.875Z" fill="#3FA785"/>
<path d="M202.543 143.459V162.514C201.374 162.631 200.205 162.748 198.919 162.748V143.693C200.205 143.693 201.374 143.693 202.543 143.459Z" fill="#3DA281"/>
<path d="M198.919 143.81V162.864C198.802 162.864 198.802 162.864 198.685 162.864C197.75 162.864 196.814 162.864 195.762 162.864V143.81C196.697 143.81 197.633 143.81 198.685 143.81C198.802 143.81 198.919 143.81 198.919 143.81Z" fill="#3B9D7D"/>
<path d="M195.879 143.81V162.864C194.944 162.864 194.009 162.747 193.073 162.747V143.693C194.009 143.693 194.944 143.693 195.879 143.81Z" fill="#399979"/>
<path d="M193.073 143.576V162.631C192.138 162.514 191.203 162.397 190.385 162.28V143.225C191.203 143.459 192.138 143.576 193.073 143.576Z" fill="#379475"/>
<path d="M190.268 143.342V162.397C189.333 162.28 188.398 162.046 187.462 161.929V142.874C188.398 142.991 189.333 143.225 190.268 143.342Z" fill="#358F71"/>
<path d="M187.462 142.874V161.929C186.41 161.695 185.358 161.461 184.306 161.111V142.056C185.358 142.29 186.41 142.64 187.462 142.874Z" fill="#348A6D"/>
<path d="M184.306 142.056V161.111C182.903 160.76 181.617 160.293 180.332 159.708V140.653C181.617 141.238 183.02 141.705 184.306 142.056Z" fill="#328569"/>
<path d="M180.332 140.653V159.708C178.344 158.89 176.357 157.954 174.487 156.902C168.291 153.278 165.135 149.421 165.135 145.329V126.274C165.135 130.366 168.291 134.224 174.487 137.848C176.357 138.9 178.344 139.952 180.332 140.653Z" fill="#308065"/>
<path d="M233.17 131.652C232.234 132.236 230.949 133.055 229.078 134.107C227.325 135.159 225.805 135.977 224.636 136.562C216.219 141.121 207.568 143.459 198.684 143.81C189.8 144.043 181.733 142.056 174.369 137.848C167.004 133.639 163.965 128.963 165.367 124.053L140.468 138.549C139.649 139.017 138.714 139.25 137.662 139.25C136.61 139.25 135.675 139.017 134.856 138.549L120.244 130.132C119.426 129.665 118.958 129.08 118.958 128.496C118.958 127.911 119.309 127.327 120.127 126.859L194.593 83.6059C195.411 83.1383 196.346 82.9045 197.515 82.9045C198.567 82.9045 199.619 83.1383 200.438 83.6059L213.998 91.4383C214.816 91.9059 215.284 92.4904 215.284 93.0749C215.284 93.6594 214.933 94.2439 213.998 94.7115L209.906 97.0495C219.375 96.3481 227.909 98.1016 235.508 102.544C242.872 106.752 246.379 111.428 246.029 116.572C245.561 121.482 241.353 126.508 233.17 131.652ZM204.763 124.053C205.581 123.703 206.75 123.001 208.387 122.066C210.023 121.131 211.075 120.43 211.777 119.962C215.05 117.741 217.037 115.637 217.505 113.649C217.973 111.662 216.57 109.675 213.18 107.687C209.906 105.817 206.516 104.999 202.776 105.349C199.152 105.583 195.645 106.635 192.371 108.389C191.319 108.973 189.8 109.675 187.929 110.844C186.176 111.896 184.773 112.714 183.838 113.299C181.032 115.052 179.512 117.039 179.279 119.027C178.928 121.131 180.448 123.001 183.604 124.872C186.994 126.859 190.501 127.677 193.891 127.327C197.398 127.093 201.022 126.041 204.763 124.053Z" fill="#5CF6C3"/>
<path d="M299.102 141.822V160.877C299.102 160.994 299.102 160.994 298.985 161.111V142.056C299.102 141.939 299.102 141.822 299.102 141.822Z" fill="#399979"/>
<path d="M298.985 141.939V160.994C298.985 161.111 298.985 161.111 298.868 161.228V142.173C298.985 142.173 298.985 142.056 298.985 141.939Z" fill="#3B9D7D"/>
<path d="M298.985 142.173V161.228C298.985 161.345 298.868 161.345 298.868 161.461V142.407C298.868 142.29 298.868 142.29 298.985 142.173Z" fill="#3DA281"/>
<path d="M298.751 142.407V161.461C298.634 161.578 298.634 161.578 298.517 161.695V142.641C298.634 142.524 298.751 142.524 298.751 142.407Z" fill="#3FA785"/>
<path d="M298.518 142.64V161.695C298.401 161.812 298.167 161.929 297.933 162.163V143.108C298.167 142.991 298.401 142.757 298.518 142.64Z" fill="#40AC88"/>
<path d="M298.05 143.108V162.163C298.05 162.163 298.05 162.163 297.933 162.163L298.05 143.108C297.933 143.108 297.933 143.108 298.05 143.108Z" fill="#42B18C"/>
<path d="M297.933 143.108L297.816 162.163L267.305 179.932V160.877L297.933 143.108Z" fill="#47BE96"/>
<path d="M224.87 165.67V184.725C224.169 184.257 223.701 183.79 223.701 183.088V164.033C223.701 164.735 224.169 165.202 224.87 165.67Z" fill="#308065"/>
<path d="M340.017 165.436V184.491C340.017 184.608 340.017 184.608 339.9 184.725V165.67C339.9 165.553 340.017 165.436 340.017 165.436Z" fill="#399979"/>
<path d="M339.9 165.67V184.725C339.9 184.842 339.9 184.842 339.783 184.958V165.904C339.9 165.787 339.9 165.67 339.9 165.67Z" fill="#3B9D7D"/>
<path d="M339.783 165.787V184.842C339.783 184.959 339.667 184.959 339.667 185.076V166.021C339.783 166.021 339.783 165.904 339.783 165.787Z" fill="#3DA281"/>
<path d="M339.666 166.021V185.076C339.549 185.192 339.549 185.192 339.432 185.309V166.255C339.549 166.138 339.666 166.138 339.666 166.021Z" fill="#3FA785"/>
<path d="M339.432 166.255V185.309C339.316 185.426 339.082 185.543 338.965 185.66V166.605C339.199 166.488 339.316 166.372 339.432 166.255Z" fill="#40AC88"/>
<path d="M237.612 173.035V192.089L224.87 184.725V165.67L237.612 173.035Z" fill="#318469"/>
<path d="M296.414 168.242L296.297 187.296L242.522 192.908L242.639 173.853L296.414 168.242Z" fill="#43B38E"/>
<path d="M242.639 173.853V192.908H242.522L242.639 173.853C242.522 173.853 242.522 173.853 242.639 173.853Z" fill="#3FA785"/>
<path d="M242.522 173.853V192.908C242.288 192.908 241.938 192.908 241.704 192.908V173.853C241.938 173.853 242.171 173.853 242.522 173.853Z" fill="#3DA281"/>
<path d="M241.704 173.853V192.908C241.47 192.908 241.236 192.908 241.002 192.908V173.853C241.236 173.853 241.47 173.853 241.704 173.853Z" fill="#3B9D7D"/>
<path d="M241.002 173.853V192.908C240.769 192.908 240.652 192.908 240.418 192.908V173.853C240.652 173.853 240.886 173.853 241.002 173.853Z" fill="#399979"/>
<path d="M240.418 173.853V192.908C240.301 192.908 240.067 192.908 239.95 192.908V173.853C240.184 173.853 240.301 173.853 240.418 173.853Z" fill="#379475"/>
<path d="M239.95 173.736V192.791C239.833 192.791 239.6 192.791 239.483 192.674V173.619C239.6 173.736 239.833 173.736 239.95 173.736Z" fill="#358F71"/>
<path d="M239.483 173.736V192.791C239.366 192.791 239.132 192.674 239.015 192.674V173.619C239.132 173.619 239.366 173.619 239.483 173.736Z" fill="#348A6D"/>
<path d="M239.015 173.619V192.674C238.781 192.674 238.664 192.557 238.431 192.44V173.385C238.548 173.502 238.781 173.502 239.015 173.619Z" fill="#328569"/>
<path d="M238.431 173.385V192.44C238.197 192.323 237.963 192.206 237.613 192.089V173.035C237.846 173.152 238.08 173.268 238.431 173.385Z" fill="#308065"/>
<path d="M265.902 189.401V208.455C265.084 207.988 264.616 207.403 264.616 206.819V206.702V187.647V187.764C264.616 188.349 265.084 188.816 265.902 189.401Z" fill="#308065"/>
<path d="M338.965 166.605L338.848 185.66L285.775 216.639V197.584L338.965 166.605Z" fill="#47BE96"/>
<path d="M280.164 197.584L280.047 216.638L265.902 208.455V189.401L280.164 197.584Z" fill="#318469"/>
<path d="M338.849 163.449C339.667 163.917 340.018 164.384 340.018 165.086C340.018 165.67 339.667 166.255 338.966 166.722L285.776 197.584C285.075 198.051 284.139 198.285 282.97 198.285C281.918 198.285 280.866 198.051 280.048 197.584L265.903 189.401C265.085 188.933 264.617 188.349 264.617 187.764C264.617 187.18 264.968 186.595 265.786 186.128L296.414 168.359L242.64 173.97C240.652 174.204 238.899 173.97 237.613 173.152L224.871 165.787C224.17 165.319 223.702 164.852 223.702 164.15C223.702 163.449 224.053 162.981 224.871 162.514L277.944 131.535C278.762 131.068 279.697 130.834 280.866 130.834C281.918 130.834 282.853 131.068 283.672 131.535L297.934 139.718C298.752 140.186 299.22 140.77 299.22 141.355C299.22 141.939 298.869 142.524 298.051 142.991L267.423 160.76L321.197 155.149C323.184 154.915 324.938 155.149 326.223 155.967L338.849 163.449Z" fill="#5CF6C3"/>
<path d="M285.776 197.584V216.638C285.542 216.755 285.191 216.989 284.84 216.989V197.934C285.191 197.818 285.542 197.701 285.776 197.584Z" fill="#42B18C"/>
<path d="M284.84 197.934V216.989C284.606 217.106 284.373 217.106 284.139 217.223V198.168C284.373 198.051 284.606 198.051 284.84 197.934Z" fill="#40AC88"/>
<path d="M284.139 198.168V217.223C284.022 217.223 283.788 217.223 283.671 217.34V198.285C283.788 198.168 284.022 198.168 284.139 198.168Z" fill="#3FA785"/>
<path d="M283.671 198.168V217.223C283.554 217.223 283.321 217.223 283.204 217.223V198.168C283.321 198.285 283.437 198.168 283.671 198.168Z" fill="#3DA281"/>
<path d="M283.087 198.285V217.34H282.97C282.853 217.34 282.736 217.34 282.619 217.34V198.285C282.736 198.285 282.853 198.285 282.97 198.285C283.087 198.285 283.087 198.285 283.087 198.285Z" fill="#3B9D7D"/>
<path d="M282.736 198.285V217.34C282.619 217.34 282.502 217.34 282.385 217.34V198.285C282.385 198.285 282.619 198.285 282.736 198.285Z" fill="#399979"/>
<path d="M282.268 198.168V217.223C282.152 217.223 282.035 217.223 281.918 217.223V198.168C282.035 198.168 282.152 198.168 282.268 198.168Z" fill="#379475"/>
<path d="M281.918 198.168V217.223C281.801 217.223 281.684 217.223 281.567 217.106V198.051C281.684 198.168 281.801 198.168 281.918 198.168Z" fill="#358F71"/>
<path d="M281.567 198.168V217.223C281.45 217.223 281.333 217.223 281.216 217.106V198.051C281.333 198.051 281.45 198.051 281.567 198.168Z" fill="#348A6D"/>
<path d="M281.216 198.051V217.106C281.099 217.106 280.866 216.989 280.749 216.989V197.934C280.866 197.934 281.099 197.934 281.216 198.051Z" fill="#328569"/>
<path d="M280.749 197.818V216.872C280.515 216.755 280.281 216.638 280.047 216.522V197.467C280.281 197.701 280.515 197.818 280.749 197.818Z" fill="#308065"/>
<path d="M383.036 190.102V209.157C383.036 209.274 383.036 209.274 382.919 209.391V190.336C382.919 190.336 382.919 190.219 383.036 190.102Z" fill="#399979"/>
<path d="M382.919 190.336V209.391C382.919 209.508 382.802 209.508 382.802 209.624V190.57C382.919 190.453 382.919 190.453 382.919 190.336Z" fill="#3B9D7D"/>
<path d="M382.803 190.57V209.625C382.803 209.741 382.686 209.741 382.686 209.858V190.804C382.686 190.687 382.803 190.687 382.803 190.57Z" fill="#3DA281"/>
<path d="M382.685 190.803V209.858C382.569 209.975 382.569 210.092 382.452 210.092V191.037C382.569 190.92 382.569 190.92 382.685 190.803Z" fill="#3FA785"/>
<path d="M382.452 191.037V210.092C382.335 210.209 382.101 210.326 381.867 210.56V191.505C382.101 191.388 382.218 191.154 382.452 191.037Z" fill="#40AC88"/>
<path d="M381.867 191.505V210.56C381.867 210.56 381.867 210.56 381.75 210.56L381.867 191.505C381.867 191.505 381.75 191.505 381.867 191.505Z" fill="#42B18C"/>
<path d="M381.75 191.505V210.56L363.28 221.315L363.397 202.26L381.75 191.505Z" fill="#47BE96"/>
<path d="M421.964 212.781V231.836C421.964 231.953 421.964 231.953 421.847 231.953V212.898C421.964 212.898 421.964 212.781 421.964 212.781Z" fill="#3B9D7D"/>
<path d="M421.847 212.898V231.953C421.847 232.07 421.73 232.07 421.73 232.187V213.132C421.847 213.015 421.847 213.015 421.847 212.898Z" fill="#3DA281"/>
<path d="M421.73 213.132V232.186C421.73 232.303 421.613 232.303 421.497 232.42V213.365C421.613 213.248 421.73 213.248 421.73 213.132Z" fill="#3FA785"/>
<path d="M421.614 213.365V232.42C421.497 232.537 421.38 232.654 421.146 232.771V213.716C421.263 213.599 421.497 213.482 421.614 213.365Z" fill="#40AC88"/>
<path d="M421.146 213.599V232.654C421.029 232.771 420.912 232.771 420.678 232.888V213.833C420.795 213.833 421.029 213.716 421.146 213.599C421.146 213.716 421.146 213.716 421.146 213.599Z" fill="#42B18C"/>
<path d="M420.561 213.833V232.888C420.211 233.005 419.626 233.122 418.925 233.238V214.184C419.626 214.184 420.211 213.95 420.561 213.833Z" fill="#40AC88"/>
<path d="M309.038 214.301V233.355C308.22 232.888 307.869 232.42 307.869 231.719V212.664C307.986 213.249 308.337 213.833 309.038 214.301Z" fill="#308065"/>
<path d="M353.577 214.417V233.589L347.849 230.199L347.966 211.144L353.577 214.417Z" fill="#318469"/>
<path d="M418.925 214.301V233.355L378.945 238.733V219.678L418.925 214.301Z" fill="#44B590"/>
<path d="M347.966 211.144L347.849 230.199L328.677 241.421V222.367L347.966 211.144Z" fill="#47BE96"/>
<path d="M323.066 222.367L322.949 241.421L309.038 233.355V214.301L323.066 222.367Z" fill="#318469"/>
<path d="M328.678 222.367V241.421C328.444 241.538 328.093 241.772 327.743 241.772V222.717C328.093 222.601 328.444 222.484 328.678 222.367Z" fill="#42B18C"/>
<path d="M327.859 222.717V241.772C327.626 241.889 327.392 241.889 327.158 242.006V222.951C327.392 222.834 327.626 222.834 327.859 222.717Z" fill="#40AC88"/>
<path d="M327.041 222.951V242.006C326.924 242.006 326.691 242.006 326.574 242.123V223.068C326.691 222.951 326.924 222.951 327.041 222.951Z" fill="#3FA785"/>
<path d="M326.574 222.951V242.006C326.457 242.006 326.223 242.006 326.106 242.006V222.951C326.223 223.068 326.457 223.068 326.574 222.951Z" fill="#3DA281"/>
<path d="M326.106 223.068V242.123H325.989C325.872 242.123 325.755 242.123 325.638 242.123V223.068C325.755 223.068 325.872 223.068 325.989 223.068C325.989 223.068 325.989 223.068 326.106 223.068Z" fill="#3B9D7D"/>
<path d="M325.638 223.068V242.123C325.521 242.123 325.405 242.123 325.288 242.123V223.068C325.405 223.068 325.521 223.068 325.638 223.068Z" fill="#399979"/>
<path d="M325.288 223.068V242.123C325.171 242.123 325.054 242.123 324.937 242.123V223.068C325.054 222.951 325.171 222.951 325.288 223.068Z" fill="#379475"/>
<path d="M324.937 222.951V242.006C324.82 242.006 324.703 242.006 324.586 241.889V222.834C324.703 222.951 324.82 222.951 324.937 222.951Z" fill="#358F71"/>
<path d="M324.586 222.951V242.006C324.469 242.006 324.353 242.006 324.236 241.889V222.834C324.353 222.834 324.469 222.834 324.586 222.951Z" fill="#348A6D"/>
<path d="M324.236 222.834V241.889C324.119 241.889 323.885 241.772 323.768 241.772V222.717C323.885 222.717 324.002 222.717 324.236 222.834Z" fill="#328569"/>
<path d="M323.768 222.717V241.772C323.534 241.655 323.3 241.538 323.067 241.421V222.367C323.3 222.484 323.534 222.601 323.768 222.717Z" fill="#308065"/>
<path d="M347.849 236.629V255.683C346.797 255.099 346.213 254.281 346.213 253.462V234.407C346.213 235.226 346.797 236.044 347.849 236.629Z" fill="#308065"/>
<path d="M378.945 219.678V238.733L370.645 264.451V245.396L378.945 219.678Z" fill="#3B9E7D"/>
<path d="M364.8 246.448L364.683 265.503L347.732 255.683L347.849 236.628L364.8 246.448Z" fill="#318469"/>
<path d="M420.795 210.794C421.497 211.261 421.964 211.729 421.964 212.313C421.964 212.898 421.73 213.365 421.029 213.716C420.678 213.95 419.977 214.067 418.925 214.301L378.945 219.795L370.645 245.396C370.528 245.747 370.177 246.214 369.593 246.565C368.892 246.916 368.073 247.15 367.255 247.15C366.32 247.15 365.501 246.916 364.8 246.448L347.849 236.629C346.447 235.81 345.979 234.875 346.33 233.706L353.578 214.534L347.849 211.261L328.678 222.367C327.976 222.834 327.041 223.068 325.872 223.068C324.82 223.068 323.768 222.834 322.95 222.367L308.922 214.301C308.103 213.833 307.753 213.365 307.753 212.664C307.753 211.963 308.103 211.495 308.922 211.027L361.994 180.166C362.813 179.698 363.748 179.464 364.917 179.464C365.969 179.464 366.904 179.698 367.723 180.166L381.751 188.232C382.569 188.699 383.036 189.284 383.036 189.868C383.036 190.453 382.686 191.037 381.751 191.505L363.397 202.143L369.359 205.533L400.688 201.091C402.676 200.857 404.429 201.091 405.715 201.909L420.795 210.794Z" fill="#5CF6C3"/>
<path d="M370.645 245.513V264.568C370.645 264.568 370.645 264.685 370.528 264.685V245.63C370.528 245.63 370.528 245.63 370.645 245.513Z" fill="#3B9D7D"/>
<path d="M370.528 245.63V264.685C370.528 264.802 370.411 264.802 370.411 264.918V245.864C370.411 245.747 370.528 245.747 370.528 245.63Z" fill="#3DA281"/>
<path d="M370.411 245.864V264.918C370.411 265.035 370.294 265.035 370.177 265.152V246.097C370.294 245.98 370.294 245.98 370.411 245.864Z" fill="#3FA785"/>
<path d="M370.177 246.097V265.152C370.06 265.269 369.827 265.386 369.71 265.503V246.448C369.944 246.331 370.06 246.214 370.177 246.097Z" fill="#40AC88"/>
<path d="M369.71 246.448V265.503C369.71 265.503 369.71 265.503 369.593 265.503C369.359 265.62 369.125 265.737 368.775 265.854V246.799C369.125 246.799 369.359 246.682 369.71 246.448Z" fill="#42B18C"/>
<path d="M368.775 246.799V265.854C368.541 265.971 368.424 265.971 368.19 265.971V246.916C368.424 246.916 368.658 246.916 368.775 246.799Z" fill="#40AC88"/>
<path d="M368.19 247.033V266.087C368.073 266.087 367.956 266.087 367.839 266.087V247.033C367.956 247.033 368.073 247.033 368.19 247.033Z" fill="#3FA785"/>
<path d="M367.839 247.033V266.087C367.723 266.087 367.606 266.087 367.489 266.087V247.033C367.606 247.033 367.723 247.033 367.839 247.033Z" fill="#3DA281"/>
<path d="M367.489 247.032V266.087C367.372 266.087 367.372 266.087 367.255 266.087H367.138V247.032H367.255C367.372 247.032 367.372 247.032 367.489 247.032Z" fill="#3B9D7D"/>
<path d="M367.138 247.032V266.087C367.021 266.087 366.904 266.087 366.787 266.087V247.032C366.904 247.032 367.021 247.032 367.138 247.032Z" fill="#399979"/>
<path d="M366.787 247.032V266.087C366.67 266.087 366.553 266.087 366.437 266.087V247.032C366.553 247.032 366.67 247.032 366.787 247.032Z" fill="#379475"/>
<path d="M366.553 247.033V266.087C366.436 266.087 366.32 266.087 366.203 266.087V247.033C366.32 247.033 366.436 247.033 366.553 247.033Z" fill="#358F71"/>
<path d="M366.203 246.916V265.97C366.086 265.97 365.969 265.97 365.852 265.854V246.799C365.969 246.916 366.086 246.916 366.203 246.916Z" fill="#348A6D"/>
<path d="M365.852 246.916V265.97C365.735 265.97 365.501 265.854 365.384 265.854V246.799C365.501 246.799 365.735 246.799 365.852 246.916Z" fill="#328569"/>
<path d="M365.385 246.682V265.737C365.151 265.62 364.917 265.503 364.683 265.386V246.331C364.917 246.565 365.151 246.682 365.385 246.682Z" fill="#308065"/>
<path d="M464.282 237.213V256.268C464.282 256.385 464.282 256.385 464.166 256.501V237.447C464.282 237.33 464.282 237.213 464.282 237.213Z" fill="#399979"/>
<path d="M464.166 237.33V256.385C464.166 256.501 464.166 256.501 464.049 256.618V237.564C464.166 237.447 464.166 237.447 464.166 237.33Z" fill="#3B9D7D"/>
<path d="M464.166 237.564V256.618C464.166 256.735 464.049 256.735 464.049 256.852V237.798C464.049 237.681 464.049 237.681 464.166 237.564Z" fill="#3DA281"/>
<path d="M463.932 237.797V256.852C463.815 256.969 463.815 256.969 463.698 257.086V238.031C463.815 237.914 463.932 237.914 463.932 237.797Z" fill="#3FA785"/>
<path d="M463.698 238.031V257.086C463.581 257.203 463.347 257.32 463.113 257.554V238.499C463.464 238.265 463.581 238.148 463.698 238.031Z" fill="#40AC88"/>
<path d="M463.23 238.382V257.437C463.23 257.437 463.23 257.437 463.113 257.437L463.23 238.382C463.113 238.499 463.113 238.499 463.23 238.382Z" fill="#42B18C"/>
<path d="M463.113 238.499V257.554L432.485 275.323V256.268L463.113 238.499Z" fill="#47BE96"/>
<path d="M390.051 261.061V280.115C389.349 279.648 388.882 279.18 388.882 278.479V259.424C388.998 260.009 389.349 260.593 390.051 261.061Z" fill="#308065"/>
<path d="M505.198 260.827V279.882C505.198 279.999 505.198 279.999 505.081 280.115V261.061C505.198 260.944 505.198 260.827 505.198 260.827Z" fill="#399979"/>
<path d="M505.081 261.061V280.115C505.081 280.232 505.081 280.232 504.964 280.349V261.294C505.081 261.177 505.081 261.061 505.081 261.061Z" fill="#3B9D7D"/>
<path d="M505.081 261.177V280.232C505.081 280.349 504.964 280.349 504.964 280.466V261.411C504.964 261.294 504.964 261.294 505.081 261.177Z" fill="#3DA281"/>
<path d="M504.847 261.411V280.466C504.73 280.583 504.73 280.583 504.613 280.7V261.645C504.73 261.528 504.847 261.528 504.847 261.411Z" fill="#3FA785"/>
<path d="M504.73 261.645V280.7C504.613 280.817 504.379 280.934 504.262 281.051V261.996C504.379 261.879 504.496 261.762 504.73 261.645Z" fill="#40AC88"/>
<path d="M402.793 268.425V287.48L390.051 280.115V261.061L402.793 268.425Z" fill="#318469"/>
<path d="M461.594 263.633L461.477 282.687L407.703 288.182L407.82 269.127L461.594 263.633Z" fill="#43B38E"/>
<path d="M407.819 269.127V288.181H407.702V269.127C407.702 269.244 407.702 269.127 407.819 269.127Z" fill="#3FA785"/>
<path d="M407.703 269.244V288.298C407.469 288.298 407.118 288.298 406.885 288.298V269.244C407.118 269.244 407.352 269.244 407.703 269.244Z" fill="#3DA281"/>
<path d="M406.884 269.244V288.298C406.65 288.298 406.416 288.298 406.3 288.298V269.244C406.416 269.244 406.65 269.244 406.884 269.244Z" fill="#3B9D7D"/>
<path d="M406.183 269.244V288.299C405.949 288.299 405.832 288.299 405.598 288.299V269.244C405.832 269.244 406.066 269.244 406.183 269.244Z" fill="#399979"/>
<path d="M405.598 269.244V288.298C405.481 288.298 405.248 288.298 405.131 288.298V269.244C405.364 269.244 405.481 269.244 405.598 269.244Z" fill="#379475"/>
<path d="M405.131 269.127V288.182C405.014 288.182 404.78 288.182 404.663 288.065V269.01C404.78 269.127 405.014 269.127 405.131 269.127Z" fill="#358F71"/>
<path d="M404.663 269.127V288.182C404.546 288.182 404.312 288.065 404.196 288.065V269.01C404.312 269.01 404.546 269.01 404.663 269.127Z" fill="#348A6D"/>
<path d="M404.196 269.01V288.065C403.962 288.065 403.845 287.948 403.611 287.831V268.776C403.728 268.893 403.962 268.893 404.196 269.01Z" fill="#328569"/>
<path d="M403.611 268.776V287.831C403.377 287.714 403.143 287.597 402.793 287.48V268.426C403.027 268.542 403.26 268.659 403.611 268.776Z" fill="#308065"/>
<path d="M431.083 284.674V303.729C430.264 303.262 429.797 302.677 429.797 302.093V301.976V282.921V283.038C429.797 283.739 430.264 284.207 431.083 284.674Z" fill="#308065"/>
<path d="M504.145 261.996L504.028 281.051L450.956 312.029V292.974L504.145 261.996Z" fill="#47BE96"/>
<path d="M445.345 292.974L445.228 312.029L431.083 303.729V284.675L445.345 292.974Z" fill="#318469"/>
<path d="M504.028 258.84C504.847 259.307 505.197 259.775 505.197 260.476C505.197 261.061 504.847 261.645 504.145 262.113L450.956 292.974C450.254 293.442 449.319 293.676 448.15 293.676C447.098 293.676 446.046 293.442 445.228 292.974L431.083 284.791C430.264 284.324 429.797 283.739 429.797 283.155C429.797 282.57 430.147 281.986 430.966 281.518L461.594 263.749L407.819 269.361C405.832 269.594 404.079 269.361 402.793 268.542L390.051 261.178C389.349 260.71 388.882 260.242 388.882 259.541C388.882 258.84 389.232 258.372 390.051 257.904L443.123 227.043C443.942 226.575 444.877 226.341 446.046 226.341C447.098 226.341 448.033 226.575 448.851 227.043L462.996 235.226C463.815 235.693 464.282 236.278 464.282 236.862C464.282 237.447 463.932 238.031 463.113 238.499L432.485 256.268L486.26 250.657C488.247 250.423 490 250.657 491.286 251.475L504.028 258.84Z" fill="#5CF6C3"/>
<path d="M450.956 292.974V312.029C450.722 312.146 450.371 312.38 450.021 312.38V293.325C450.371 293.208 450.722 293.091 450.956 292.974Z" fill="#42B18C"/>
<path d="M450.02 293.325V312.38C449.786 312.497 449.552 312.497 449.319 312.614V293.559C449.552 293.442 449.786 293.442 450.02 293.325Z" fill="#40AC88"/>
<path d="M449.319 293.559V312.614C449.202 312.614 448.968 312.614 448.851 312.731V293.676C448.968 293.559 449.202 293.559 449.319 293.559Z" fill="#3FA785"/>
<path d="M448.851 293.559V312.614C448.734 312.614 448.5 312.614 448.384 312.614V293.559C448.5 293.559 448.617 293.559 448.851 293.559Z" fill="#3DA281"/>
<path d="M448.266 293.559V312.614H448.15C448.033 312.614 447.916 312.614 447.799 312.614V293.559C447.916 293.559 448.033 293.559 448.15 293.559C448.266 293.559 448.266 293.559 448.266 293.559Z" fill="#3B9D7D"/>
<path d="M447.916 293.559V312.614C447.799 312.614 447.683 312.614 447.566 312.614V293.559C447.683 293.559 447.799 293.559 447.916 293.559Z" fill="#399979"/>
<path d="M447.566 293.559V312.614C447.449 312.614 447.332 312.614 447.215 312.614V293.559C447.332 293.559 447.449 293.559 447.566 293.559Z" fill="#379475"/>
<path d="M447.214 293.559V312.614C447.098 312.614 446.981 312.614 446.864 312.497V293.442C446.981 293.559 447.098 293.559 447.214 293.559Z" fill="#358F71"/>
<path d="M446.864 293.442V312.497C446.747 312.497 446.63 312.497 446.513 312.38V293.325C446.513 293.442 446.63 293.442 446.864 293.442Z" fill="#348A6D"/>
<path d="M446.396 293.442V312.497C446.279 312.497 446.046 312.38 445.929 312.38V293.325C446.163 293.325 446.279 293.325 446.396 293.442Z" fill="#328569"/>
<path d="M445.929 293.208V312.263C445.695 312.146 445.461 312.029 445.228 311.912V292.857C445.461 293.091 445.695 293.208 445.929 293.208Z" fill="#308065"/>
<path d="M512.912 281.752V300.807C512.094 300.339 511.626 299.755 511.626 299.17V299.053V279.999V280.115C511.626 280.7 511.977 281.168 512.912 281.752Z" fill="#308065"/>
<path d="M529.746 291.455V310.509L512.795 300.807L512.912 281.752L529.746 291.455Z" fill="#318469"/>
<path d="M583.053 305.6V324.655C583.053 324.772 583.053 324.772 582.936 324.888V305.834C583.053 305.834 583.053 305.717 583.053 305.6Z" fill="#399979"/>
<path d="M583.053 305.834V324.888C583.053 325.005 582.936 325.005 582.936 325.122V306.068C582.936 305.951 582.936 305.951 583.053 305.834Z" fill="#3B9D7D"/>
<path d="M582.936 306.067V325.122C582.936 325.239 582.819 325.239 582.819 325.356V306.301C582.819 306.184 582.819 306.184 582.936 306.067Z" fill="#3DA281"/>
<path d="M582.702 306.301V325.356C582.585 325.473 582.585 325.59 582.468 325.59V306.535C582.585 306.418 582.702 306.418 582.702 306.301Z" fill="#3FA785"/>
<path d="M582.468 306.535V325.59C582.351 325.707 582.118 325.823 581.884 326.057V307.003C582.118 306.886 582.351 306.652 582.468 306.535Z" fill="#40AC88"/>
<path d="M581.884 307.003V326.057C581.884 326.057 581.884 326.057 581.767 326.057L581.884 307.003Z" fill="#42B18C"/>
<path d="M581.883 307.002L581.766 326.057L572.063 331.668L572.18 312.614L581.883 307.002Z" fill="#47BE96"/>
<path d="M566.453 312.614V331.669L549.386 321.849V302.794L566.453 312.614Z" fill="#318469"/>
<path d="M572.181 312.614V331.668C571.947 331.785 571.596 332.019 571.246 332.019V312.964C571.596 312.964 571.83 312.847 572.181 312.614Z" fill="#42B18C"/>
<path d="M571.246 313.081V332.136C571.012 332.253 570.778 332.253 570.544 332.37V313.315C570.778 313.198 571.012 313.081 571.246 313.081Z" fill="#40AC88"/>
<path d="M570.544 313.198V332.253C570.427 332.253 570.194 332.253 570.077 332.37V313.315C570.194 313.315 570.31 313.315 570.544 313.198Z" fill="#3FA785"/>
<path d="M569.959 313.315V332.37C569.842 332.37 569.609 332.37 569.492 332.37V313.315C569.609 313.315 569.842 313.315 569.959 313.315Z" fill="#3DA281"/>
<path d="M569.492 313.315V332.37H569.375C569.258 332.37 569.141 332.37 569.024 332.37V313.315C569.141 313.315 569.258 313.315 569.375 313.315C569.375 313.315 569.492 313.315 569.492 313.315Z" fill="#3B9D7D"/>
<path d="M569.025 313.315V332.37C568.908 332.37 568.791 332.37 568.674 332.37V313.315C568.791 313.315 568.908 313.315 569.025 313.315Z" fill="#399979"/>
<path d="M568.673 313.315V332.37C568.557 332.37 568.44 332.37 568.323 332.37V313.315C568.44 313.315 568.557 313.315 568.673 313.315Z" fill="#379475"/>
<path d="M568.323 313.315V332.37C568.206 332.37 568.089 332.37 567.972 332.253V313.198C568.089 313.198 568.206 313.315 568.323 313.315Z" fill="#358F71"/>
<path d="M567.972 313.198V332.253C567.855 332.253 567.738 332.253 567.622 332.136V313.081C567.738 313.198 567.855 313.198 567.972 313.198Z" fill="#348A6D"/>
<path d="M567.621 313.081V332.136C567.504 332.136 567.271 332.019 567.154 332.019V312.964C567.271 313.081 567.388 313.081 567.621 313.081Z" fill="#328569"/>
<path d="M567.154 312.964V332.019C566.92 331.902 566.686 331.785 566.453 331.669V312.614C566.686 312.731 566.92 312.848 567.154 312.964Z" fill="#308065"/>
<path d="M489.416 318.342V337.397C488.597 336.929 488.13 336.345 488.13 335.76V335.643V316.588V316.705C488.13 317.29 488.597 317.874 489.416 318.342Z" fill="#308065"/>
<path d="M549.386 302.794V321.849L508.821 345.463L508.938 326.408L549.386 302.794Z" fill="#47BE96"/>
<path d="M503.21 326.408V345.463L489.298 337.397L489.415 318.342L503.21 326.408Z" fill="#318469"/>
<path d="M508.937 326.408V345.463C508.703 345.58 508.353 345.813 508.002 345.813V326.759C508.353 326.642 508.587 326.525 508.937 326.408Z" fill="#42B18C"/>
<path d="M508.003 326.759V345.814C507.769 345.93 507.535 345.93 507.301 346.047V326.993C507.535 326.876 507.769 326.876 508.003 326.759Z" fill="#40AC88"/>
<path d="M507.302 326.993V346.047C507.185 346.047 506.951 346.047 506.834 346.164V327.11C506.951 326.993 507.068 326.993 507.302 326.993Z" fill="#3FA785"/>
<path d="M506.717 326.992V346.047C506.6 346.047 506.366 346.047 506.249 346.047V326.992C506.483 327.109 506.6 326.992 506.717 326.992Z" fill="#3DA281"/>
<path d="M506.249 327.109V346.164H506.132C506.015 346.164 505.898 346.164 505.781 346.164V327.109C505.898 327.109 506.015 327.109 506.132 327.109H506.249Z" fill="#3B9D7D"/>
<path d="M505.782 327.11V346.164C505.665 346.164 505.548 346.164 505.431 346.164V327.11C505.548 327.11 505.665 327.11 505.782 327.11Z" fill="#399979"/>
<path d="M505.431 326.993V346.047C505.314 346.047 505.197 346.047 505.081 346.047V326.993C505.197 326.993 505.314 326.993 505.431 326.993Z" fill="#379475"/>
<path d="M505.08 326.992V346.047C504.963 346.047 504.846 346.047 504.729 345.93V326.875C504.846 326.992 504.963 326.992 505.08 326.992Z" fill="#358F71"/>
<path d="M504.73 326.993V346.047C504.613 346.047 504.496 346.047 504.379 345.93V326.876C504.496 326.876 504.613 326.876 504.73 326.993Z" fill="#348A6D"/>
<path d="M504.379 326.876V345.93C504.262 345.93 504.028 345.814 503.911 345.814V326.759C504.028 326.759 504.262 326.759 504.379 326.876Z" fill="#328569"/>
<path d="M503.911 326.642V345.697C503.678 345.58 503.444 345.463 503.21 345.346V326.291C503.444 326.525 503.678 326.642 503.911 326.642Z" fill="#308065"/>
<path d="M581.884 303.729C582.702 304.197 583.17 304.781 583.17 305.366C583.17 305.95 582.819 306.535 581.884 307.003L572.181 312.614C571.48 313.081 570.544 313.315 569.375 313.315C568.323 313.315 567.271 313.081 566.453 312.614L549.386 302.794L508.821 326.291C508.12 326.759 507.185 326.993 506.016 326.993C504.963 326.993 503.911 326.759 503.093 326.291L489.182 318.342C488.364 317.874 487.896 317.29 487.896 316.705C487.896 316.121 488.247 315.536 489.065 315.069L529.629 291.572L512.679 281.752C511.861 281.284 511.393 280.7 511.393 280.115C511.393 279.531 511.744 278.946 512.562 278.479L522.265 272.868C523.083 272.4 524.018 272.166 525.187 272.166C526.239 272.166 527.291 272.4 528.11 272.868L581.884 303.729Z" fill="#5CF6C3"/>
<path d="M622.565 328.512V347.567C622.565 347.684 622.565 347.684 622.448 347.801V328.746C622.565 328.629 622.565 328.629 622.565 328.512Z" fill="#399979"/>
<path d="M622.448 328.746V347.801C622.448 347.918 622.448 347.918 622.332 348.035V328.98C622.448 328.863 622.448 328.746 622.448 328.746Z" fill="#3B9D7D"/>
<path d="M622.331 328.98V348.035C622.331 348.152 622.214 348.152 622.214 348.269V329.214C622.331 329.097 622.331 328.98 622.331 328.98Z" fill="#3DA281"/>
<path d="M622.214 329.097V348.151C622.097 348.268 622.097 348.268 621.98 348.385V329.33C622.097 329.33 622.214 329.214 622.214 329.097Z" fill="#3FA785"/>
<path d="M621.98 329.448V348.502C621.864 348.619 621.63 348.736 621.396 348.97V329.915C621.63 329.681 621.864 329.564 621.98 329.448Z" fill="#40AC88"/>
<path d="M621.396 329.798V348.853C621.396 348.853 621.396 348.853 621.279 348.853L621.396 329.798Z" fill="#42B18C"/>
<path d="M621.396 329.798L621.279 348.853L590.769 366.739V347.684L621.396 329.798Z" fill="#47BE96"/>
<path d="M548.334 352.477V371.532C547.515 371.064 547.165 370.596 547.165 369.895V350.84C547.165 351.425 547.632 352.009 548.334 352.477Z" fill="#308065"/>
<path d="M663.481 352.126V371.181C663.481 371.298 663.481 371.298 663.364 371.415V352.36C663.364 352.36 663.481 352.243 663.481 352.126Z" fill="#399979"/>
<path d="M663.364 352.36V371.414C663.364 371.531 663.364 371.531 663.247 371.648V352.593C663.364 352.477 663.364 352.477 663.364 352.36Z" fill="#3B9D7D"/>
<path d="M663.247 352.594V371.648C663.247 371.765 663.13 371.765 663.13 371.882V352.827C663.247 352.71 663.247 352.594 663.247 352.594Z" fill="#3DA281"/>
<path d="M663.13 352.827V371.882C663.013 371.999 663.013 371.999 662.896 372.116V353.061C663.013 352.944 663.13 352.827 663.13 352.827Z" fill="#3FA785"/>
<path d="M662.896 353.061V372.116C662.779 372.233 662.546 372.35 662.429 372.467V353.412C662.662 353.295 662.779 353.178 662.896 353.061Z" fill="#40AC88"/>
<path d="M561.076 359.725V378.78L548.333 371.532V352.477L561.076 359.725Z" fill="#318469"/>
<path d="M619.877 354.932L619.76 373.987L565.986 379.598L566.103 360.543L619.877 354.932Z" fill="#43B38E"/>
<path d="M566.103 360.543V379.598H565.986L566.103 360.543C565.986 360.543 565.986 360.543 566.103 360.543Z" fill="#3FA785"/>
<path d="M565.986 360.543V379.598C565.752 379.598 565.401 379.598 565.167 379.598V360.543C565.401 360.66 565.635 360.543 565.986 360.543Z" fill="#3DA281"/>
<path d="M565.168 360.66V379.715C564.934 379.715 564.7 379.715 564.466 379.715V360.66C564.7 360.66 564.934 360.66 565.168 360.66Z" fill="#3B9D7D"/>
<path d="M564.466 360.66V379.715C564.232 379.715 564.115 379.715 563.881 379.715V360.66C564.115 360.66 564.232 360.66 564.466 360.66Z" fill="#399979"/>
<path d="M563.882 360.543V379.598C563.765 379.598 563.531 379.598 563.414 379.598V360.543C563.531 360.543 563.765 360.543 563.882 360.543Z" fill="#379475"/>
<path d="M563.414 360.543V379.598C563.298 379.598 563.064 379.598 562.947 379.481V360.426C563.064 360.543 563.298 360.543 563.414 360.543Z" fill="#358F71"/>
<path d="M562.947 360.426V379.481C562.83 379.481 562.596 379.364 562.479 379.364V360.309C562.596 360.426 562.713 360.426 562.947 360.426Z" fill="#348A6D"/>
<path d="M562.479 360.309V379.364C562.245 379.364 562.128 379.247 561.895 379.13V360.075C562.011 360.192 562.245 360.309 562.479 360.309Z" fill="#328569"/>
<path d="M561.894 360.076V379.13C561.661 379.013 561.427 378.896 561.076 378.78V359.725C561.31 359.959 561.544 360.076 561.894 360.076Z" fill="#308065"/>
<path d="M589.365 376.091V395.146C588.547 394.678 588.08 394.094 588.08 393.509V393.392V374.337V374.454C588.08 375.039 588.547 375.623 589.365 376.091Z" fill="#308065"/>
<path d="M662.428 353.412L662.311 372.467L609.239 403.329V384.274L662.428 353.412Z" fill="#47BE96"/>
<path d="M603.628 384.274L603.511 403.329L589.366 395.146V376.091L603.628 384.274Z" fill="#318469"/>
<path d="M662.312 350.139C663.013 350.607 663.481 351.074 663.481 351.776C663.481 352.36 663.13 352.945 662.429 353.412L609.239 384.274C608.538 384.741 607.603 384.975 606.434 384.975C605.381 384.975 604.329 384.741 603.511 384.274L589.366 376.091C588.548 375.623 588.08 375.039 588.08 374.454C588.08 373.87 588.431 373.285 589.249 372.818L619.877 355.049L566.103 360.66C564.116 360.894 562.362 360.66 561.076 359.842L548.334 352.477C547.516 352.009 547.165 351.542 547.165 350.84C547.165 350.139 547.516 349.671 548.334 349.204L601.407 318.342C602.225 317.874 603.16 317.641 604.329 317.641C605.381 317.641 606.317 317.874 607.135 318.342L621.28 326.525C622.098 326.993 622.566 327.577 622.566 328.162C622.566 328.746 622.215 329.331 621.397 329.798L590.769 347.567L644.543 341.956C646.53 341.722 648.284 341.956 649.57 342.774L662.312 350.139Z" fill="#5CF6C3"/>
<path d="M609.239 384.274V403.328C609.006 403.445 608.655 403.679 608.304 403.679V384.624C608.655 384.624 609.006 384.507 609.239 384.274Z" fill="#42B18C"/>
<path d="M608.304 384.741V403.796C608.07 403.913 607.836 403.913 607.603 404.03V384.975C607.836 384.858 608.07 384.741 608.304 384.741Z" fill="#40AC88"/>
<path d="M607.603 384.858V403.913C607.486 403.913 607.252 403.913 607.018 404.03V384.975C607.252 384.975 607.369 384.858 607.603 384.858Z" fill="#3FA785"/>
<path d="M607.018 384.975V404.03C606.901 404.03 606.667 404.03 606.55 404.03V384.975C606.784 384.975 606.901 384.975 607.018 384.975Z" fill="#3DA281"/>
<path d="M606.551 384.975V404.03H606.434C606.317 404.03 606.2 404.03 606.083 404.03V384.975C606.317 384.975 606.317 384.975 606.551 384.975Z" fill="#3B9D7D"/>
<path d="M606.199 384.975V404.03C606.082 404.03 605.966 404.03 605.849 404.03V384.975C605.966 384.975 606.082 384.975 606.199 384.975Z" fill="#399979"/>
<path d="M605.732 384.975V404.03C605.615 404.03 605.498 404.03 605.381 404.03V384.975C605.498 384.975 605.615 384.975 605.732 384.975Z" fill="#379475"/>
<path d="M605.381 384.975V404.03C605.265 404.03 605.148 404.03 605.031 403.913V384.858C605.148 384.858 605.265 384.858 605.381 384.975Z" fill="#358F71"/>
<path d="M605.031 384.858V403.913C604.914 403.913 604.797 403.913 604.68 403.796V384.741C604.797 384.858 604.914 384.858 605.031 384.858Z" fill="#348A6D"/>
<path d="M604.68 384.741V403.796C604.563 403.796 604.329 403.679 604.212 403.679V384.625C604.329 384.625 604.563 384.741 604.68 384.741Z" fill="#328569"/>
<path d="M604.212 384.624V403.679C603.978 403.562 603.745 403.445 603.511 403.328V384.274C603.745 384.391 603.978 384.507 604.212 384.624Z" fill="#308065"/>
</g>
<defs>
<filter id="filter0_d" x="-14.459" y="-12.3774" width="737.122" height="460.312" filterUnits="userSpaceOnUse" color-interpolation-filters="sRGB">
<feFlood flood-opacity="0" result="BackgroundImageFix"/>
<feColorMatrix in="SourceAlpha" type="matrix" values="0 0 0 0 0 0 0 0 0 0 0 0 0 0 0 0 0 0 127 0"/>
<feOffset dy="2"/>
<feGaussianBlur stdDeviation="7.5"/>
<feColorMatrix type="matrix" values="0 0 0 0 0.768627 0 0 0 0 0.768627 0 0 0 0 0.768627 0 0 0 0.5 0"/>
<feBlend mode="normal" in2="BackgroundImageFix" result="effect1_dropShadow"/>
<feBlend mode="normal" in="SourceGraphic" in2="effect1_dropShadow" result="shape"/>
</filter>
</defs>
</svg>
