<svg width="866" height="586" viewBox="0 0 866 586" fill="none" xmlns="http://www.w3.org/2000/svg">
<g clip-path="url(#clip0_1278_2699)" filter="url(#filter0_d_1278_2699)">
<path d="M111.306 99.854L116.758 150.465L115.885 148.659L110.455 98.0194L111.306 99.854Z" fill="#2E7B62"/>
<path d="M146.701 115.111L152.156 165.747L116.758 150.465L111.306 99.854L146.701 115.111Z" fill="#318469"/>
<path d="M223.849 149.945L229.304 200.581L152.156 165.747L146.701 115.111L223.849 149.945Z" fill="#318368"/>
<path d="M24.0322 199.487L29.4841 250.098L21.1962 222.923L15.7443 172.312L24.0322 199.487Z" fill="#2E7B62"/>
<path d="M141.074 77.1663L175.062 93.2234L294.974 147.365L295.42 149.221C256.305 175.112 210.937 193.871 158.919 203.177C120.879 210.163 80.0352 209.92 32.1282 204.318C29.2906 203.988 27.7656 203.784 26.6099 203.257C25.2417 202.654 24.6947 201.674 24.0293 199.462L15.7443 172.312C65.962 181.359 104.943 182.431 143.307 176.042C173.375 170.954 199.824 162.547 223.849 149.945L146.701 115.111L111.278 99.8318L110.427 97.9973L137.869 77.388L141.074 77.1663Z" fill="#8BF9D4"/>
<mask id="mask0_1278_2699" style="mask-type:luminance" maskUnits="userSpaceOnUse" x="24" y="149" width="277" height="111">
<path d="M295.42 149.221L300.875 199.858C261.76 225.749 216.392 244.507 164.373 253.813C126.334 260.8 85.4901 260.556 37.5831 254.954C34.7455 254.624 33.2204 254.42 32.0647 253.894C30.6965 253.29 30.1496 252.311 29.4841 250.098L24.0293 199.462C24.6977 201.699 25.2417 202.654 26.6099 203.257C27.7656 203.784 29.2906 203.988 32.1282 204.318C80.0352 209.92 120.879 210.163 158.919 203.177C210.962 193.868 256.302 175.087 295.42 149.221Z" fill="white"/>
</mask>
<g mask="url(#mask0_1278_2699)">
<path d="M295.42 149.221L300.875 199.858C276.993 215.649 250.794 228.81 222.16 238.77L216.705 188.134C245.339 178.174 271.538 165.013 295.42 149.221Z" fill="#40AC88"/>
<path d="M216.708 188.159L222.163 238.795C211.329 242.554 200.164 245.868 188.639 248.715L183.184 198.079C194.712 195.257 205.878 191.943 216.708 188.159Z" fill="#3FA785"/>
<path d="M183.181 198.054L188.636 248.69C180.72 250.632 172.624 252.341 164.373 253.813C163.077 254.041 161.78 254.269 160.484 254.496L155.029 203.86C156.325 203.632 157.622 203.405 158.919 203.177C167.169 201.704 175.265 199.996 183.181 198.054Z" fill="#3DA281"/>
<path d="M155.032 203.885L160.487 254.521C154.026 255.632 147.463 256.526 140.802 257.227L135.347 206.591C142.009 205.889 148.546 204.999 155.032 203.885Z" fill="#3B9D7D"/>
<path d="M135.37 206.563L140.824 257.199C133.912 257.93 126.898 258.444 119.732 258.746L114.277 208.11C121.443 207.807 128.457 207.294 135.37 206.563Z" fill="#399979"/>
<path d="M114.277 208.11L119.732 258.746C111.553 259.09 103.17 259.204 94.6001 259.034L89.1452 208.398C97.7119 208.543 106.099 208.454 114.277 208.11Z" fill="#379475"/>
<path d="M89.1482 208.423L94.603 259.059C83.4849 258.856 71.9878 258.24 60.0893 257.237L54.6345 206.601C66.558 207.6 78.0301 208.22 89.1482 208.423Z" fill="#358F71"/>
<path d="M54.6093 206.604L60.0642 257.24C52.7397 256.619 45.2469 255.866 37.586 254.979C36.3739 254.841 35.3936 254.726 34.589 254.591L29.1341 203.955C29.9387 204.09 30.9191 204.205 32.1312 204.343C39.7921 205.23 47.2877 206.008 54.6093 206.604Z" fill="#348A6D"/>
<path d="M29.1341 203.955L34.589 254.591C34.0191 254.505 33.5497 254.407 33.1304 254.304L27.6756 203.667C28.0948 203.771 28.5894 203.866 29.1341 203.955Z" fill="#328569"/>
<path d="M27.6727 203.642L33.1275 254.278C32.7334 254.172 32.3894 254.059 32.0677 253.919C30.6994 253.315 30.1525 252.336 29.487 250.123L24.0322 199.487C24.7006 201.725 25.2446 202.679 26.6128 203.282C26.9346 203.423 27.2785 203.536 27.6727 203.642Z" fill="#308065"/>
</g>
<path d="M381.564 175.677L386.991 226.291L352.821 252.037L347.366 201.401L381.564 175.677Z" fill="#46BC95"/>
<path d="M347.366 201.401L291.841 244.527L253.618 227.285L311.001 185.469L345.808 159.292L349.014 159.07L381.327 173.643L381.564 175.677L347.366 201.401Z" fill="#8BF9D4"/>
<path d="M291.841 244.527L297.296 295.163L259.07 277.896L253.618 227.285L291.841 244.527Z" fill="#318368"/>
<path d="M347.366 201.401L352.821 252.037L297.296 295.163L291.841 244.527L347.366 201.401Z" fill="#46BC95"/>
<path d="M461.801 207.326L467.231 257.965L408.802 301.939L403.347 251.303L461.801 207.326Z" fill="#46BC95"/>
<path d="M219.398 292.478L224.85 343.089L215.242 317.467L209.788 266.831L219.398 292.478Z" fill="#2E7B62"/>
<mask id="mask1_1278_2699" style="mask-type:luminance" maskUnits="userSpaceOnUse" x="219" y="292" width="14" height="56">
<path d="M227.282 297.232L232.737 347.868C229.899 347.538 228.374 347.334 227.243 346.804C226.113 346.275 225.758 345.197 224.853 343.114L219.398 292.478C220.303 294.56 220.636 295.667 221.788 296.168C222.941 296.67 224.444 296.901 227.282 297.232Z" fill="white"/>
</mask>
<g mask="url(#mask1_1278_2699)">
<path d="M227.282 297.232L232.737 347.868C231.575 347.724 230.619 347.606 229.843 347.493L224.388 296.857C225.168 296.995 226.123 297.112 227.282 297.232Z" fill="#348A6D"/>
<path d="M224.363 296.86L229.818 347.496C229.248 347.41 228.753 347.315 228.306 347.189L222.851 296.553C223.299 296.679 223.793 296.774 224.363 296.86Z" fill="#328569"/>
<path d="M222.876 296.55L228.331 347.186C227.937 347.08 227.565 346.945 227.243 346.804C226.088 346.278 225.758 345.197 224.853 343.114L219.398 292.478C220.303 294.56 220.636 295.667 221.788 296.168C222.11 296.309 222.457 296.446 222.876 296.55Z" fill="#308065"/>
</g>
<path d="M461.566 205.318L461.801 207.326L403.347 251.303C369.36 276.875 351.238 286.421 320.369 294.021C294.539 300.319 260.421 301.886 227.282 297.232C224.444 296.901 222.919 296.698 221.789 296.168C220.658 295.639 220.303 294.56 219.398 292.478L209.788 266.831C248.866 274.405 281.248 272.787 302.282 267.913C327.528 262.065 340.804 253.72 363.284 236.82L424.895 190.465L428.101 190.243L461.544 205.346L461.566 205.318Z" fill="#8BF9D4"/>
<mask id="mask2_1278_2699" style="mask-type:luminance" maskUnits="userSpaceOnUse" x="227" y="251" width="182" height="100">
<path d="M403.347 251.303L408.802 301.939C374.815 327.511 356.693 337.058 325.824 344.657C299.994 350.956 265.876 352.522 232.737 347.868L227.282 297.232C260.421 301.886 294.539 300.319 320.369 294.021C351.238 286.421 369.361 276.875 403.347 251.303Z" fill="white"/>
</mask>
<g mask="url(#mask2_1278_2699)">
<path d="M403.347 251.303L408.802 301.939C382.603 321.64 365.827 331.818 345.411 338.935L339.956 288.298C360.397 281.179 377.173 271.001 403.347 251.303Z" fill="#40AC88"/>
<path d="M339.959 288.324L345.414 338.96C339.447 341.031 333.171 342.858 326.27 344.554L320.815 293.918C327.714 292.196 333.992 290.394 339.959 288.324Z" fill="#3FA785"/>
<path d="M320.79 293.921L326.245 344.557C326.094 344.575 325.947 344.617 325.824 344.657C321.816 345.634 317.617 346.506 313.251 347.245L307.796 296.609C312.163 295.87 316.361 294.998 320.369 294.021C320.52 294.003 320.668 293.96 320.79 293.921Z" fill="#3DA281"/>
<path d="M307.796 296.609L313.251 347.245C308.733 348.001 304.026 348.653 299.2 349.166L293.745 298.529C298.571 298.017 303.281 297.39 307.796 296.609Z" fill="#3B9D7D"/>
<path d="M293.745 298.529L299.2 349.166C294.173 349.702 288.976 350.08 283.685 350.316L278.23 299.679C283.521 299.443 288.693 299.068 293.745 298.529Z" fill="#399979"/>
<path d="M278.227 299.654L283.682 350.291C278.112 350.534 272.397 350.616 266.632 350.5L261.178 299.864C266.939 299.955 272.658 299.897 278.227 299.654Z" fill="#379475"/>
<path d="M261.181 299.889L266.635 350.525C260.489 350.403 254.246 350.114 247.999 349.572L242.545 298.935C248.788 299.453 255.034 299.767 261.181 299.889Z" fill="#358F71"/>
<path d="M242.545 298.935L247.999 349.572C242.912 349.148 237.806 348.574 232.737 347.868L227.282 297.232C232.352 297.937 237.457 298.512 242.545 298.935Z" fill="#348A6D"/>
</g>
<path d="M452.925 275.132L458.351 325.747L457.102 323.984L451.648 273.348L452.925 275.132Z" fill="#2E7B62"/>
<path d="M483.707 284.006L489.159 334.618L458.351 325.747L452.925 275.132L483.707 284.006Z" fill="#348C6F"/>
<path d="M591.932 262.03L597.359 312.644L578.155 333.411L572.703 282.8L591.932 262.03Z" fill="#45B892"/>
<path d="M511.25 292.597L516.705 343.233L489.159 334.618L483.707 284.006L511.25 292.597Z" fill="#348A6E"/>
<path d="M394.224 311.326L399.678 361.962L398.431 360.429L392.979 309.817L394.224 311.326Z" fill="#2E7B62"/>
<path d="M426.373 320.575L431.828 371.211L399.678 361.962L394.224 311.326L426.373 320.575Z" fill="#348C6F"/>
<path d="M582.404 314.671L587.859 365.307L557.176 355.76L551.749 305.146L582.404 314.671Z" fill="#348A6E"/>
<path d="M551.749 305.146L557.176 355.76L538.522 375.572L533.067 324.936L551.749 305.146Z" fill="#45B892"/>
<path d="M471.833 334.86L477.263 385.499L431.828 371.211L426.373 320.575L471.833 334.86Z" fill="#348A6D"/>
<path d="M635.256 303.13L640.708 353.741L620.65 374.608L615.196 323.971L635.256 303.13Z" fill="#45B892"/>
<path d="M612.235 324.546L617.689 375.183L587.859 365.307L582.404 314.671L612.235 324.546Z" fill="#33896D"/>
<path d="M615.196 323.972L620.65 374.608L617.689 375.183L612.235 324.546L615.196 323.972Z" fill="#42B08C"/>
<path d="M512.307 347.411L517.759 398.022L507.563 408.984L502.136 358.37L512.307 347.411Z" fill="#45B892"/>
<path d="M554.631 360.764L560.085 411.401L517.759 398.022L512.307 347.411L554.631 360.764Z" fill="#348A6D"/>
<path d="M607.909 349.174L613.364 399.81L593.304 420.652L587.849 370.016L607.909 349.174Z" fill="#45B892"/>
<path d="M584.917 370.841L590.372 421.478L560.085 411.401L554.631 360.764L584.917 370.841Z" fill="#33896D"/>
<path d="M587.849 370.015L593.304 420.652L590.372 421.478L584.917 370.841L587.849 370.015Z" fill="#44B58F"/>
<path d="M467.098 397.602L472.55 448.213L428.451 436.212L422.996 385.576L467.098 397.602Z" fill="#358D6F"/>
<path d="M502.136 358.37L507.563 408.984L472.55 448.213L467.098 397.602L502.136 358.37Z" fill="#45B791"/>
<path d="M591.268 260.047L591.932 262.03L572.703 282.8L604.51 292.827L634.837 301.499L635.256 303.13L615.196 323.971L612.235 324.546L582.404 314.671L551.749 305.146L533.067 324.936L574.052 337.936L606.873 347.488L607.909 349.174L587.849 370.015L584.917 370.841L554.631 360.764L512.307 347.411L502.136 358.37L467.098 397.602L422.996 385.576L459.34 348.38L471.833 334.86L426.373 320.575L394.224 311.326L392.979 309.817L412.335 288.396L415.507 287.67L447.567 298.329L492.571 312.412L511.25 292.597L483.707 284.006L452.925 275.132L451.647 273.348L471.008 252.181L474.18 251.454L504.898 261.735L531.988 270.15L551.035 249.783L554.178 248.805L591.268 260.047Z" fill="#8BF9D4"/>
<path d="M723.509 361.375L728.964 412.012L698.082 398.798L692.627 348.162L723.509 361.375Z" fill="#318469"/>
<path d="M786.529 389.844L791.981 440.455L728.964 412.012L723.509 361.375L786.529 389.844Z" fill="#318368"/>
<path d="M845.515 384.636L850.97 435.272L825.519 454.402L820.067 403.791L845.515 384.636Z" fill="#46BC95"/>
<path d="M723.509 361.375L692.627 348.162L692.633 346.253L718.268 326.949L721.503 326.978L748.909 340.063L813.541 369.26L845.07 382.779L845.515 384.636L820.067 403.791L816.888 404.239L786.53 389.844L723.509 361.375Z" fill="#8BF9D4"/>
<path d="M820.067 403.791L825.519 454.402L822.317 454.878L816.888 404.239L820.067 403.791Z" fill="#41AD89"/>
<path d="M816.888 404.239L822.318 454.878L791.981 440.455L786.529 389.844L816.888 404.239Z" fill="#318267"/>
<path d="M658.415 384.88L663.845 435.519L628.906 420.464L623.451 369.828L658.415 384.88Z" fill="#318469"/>
<path d="M696.641 402.147L702.096 452.784L663.845 435.519L658.415 384.88L696.641 402.147Z" fill="#318368"/>
<path d="M575.897 452.456L581.352 503.092L568.14 478.197L562.688 427.586L575.897 452.456Z" fill="#2E7B62"/>
<path d="M765.596 433.282L771.048 483.893L739.407 469.623L733.952 418.987L765.596 433.282Z" fill="#318368"/>
<mask id="mask3_1278_2699" style="mask-type:luminance" maskUnits="userSpaceOnUse" x="575" y="452" width="15" height="56">
<path d="M583.752 456.959L589.206 507.595C586.584 507.367 585.275 507.265 584.144 506.736C583.014 506.206 582.254 505.15 581.352 503.092L575.897 452.456C576.774 454.516 577.562 455.595 578.689 456.099C579.817 456.604 581.129 456.731 583.752 456.959Z" fill="white"/>
</mask>
<g mask="url(#mask3_1278_2699)">
<path d="M583.752 456.959L589.206 507.595C587.819 507.477 586.791 507.394 585.961 507.262L580.506 456.625C581.336 456.757 582.339 456.844 583.752 456.959Z" fill="#348A6D"/>
<path d="M580.504 456.6L585.958 507.236C585.62 507.174 585.307 507.109 585.019 507.041L579.565 456.404C579.853 456.473 580.14 456.541 580.504 456.6Z" fill="#328569"/>
<path d="M579.593 456.427L585.048 507.063C584.732 506.973 584.441 506.879 584.144 506.736C583.017 506.231 582.254 505.15 581.352 503.092L575.897 452.456C576.774 454.516 577.562 455.595 578.689 456.099C578.983 456.218 579.277 456.336 579.593 456.427Z" fill="#308065"/>
</g>
<mask id="mask4_1278_2699" style="mask-type:luminance" maskUnits="userSpaceOnUse" x="583" y="418" width="157" height="91">
<path d="M733.952 418.987L739.407 469.623C710.993 489.099 672.231 503.193 631.031 507.088C616.907 508.381 603.325 508.211 589.207 507.595L583.752 456.959C597.87 457.575 611.452 457.745 625.576 456.452C666.776 452.557 705.538 438.463 733.952 418.987Z" fill="white"/>
</mask>
<g mask="url(#mask4_1278_2699)">
<path d="M733.952 418.987L739.406 469.623C725.082 479.438 708.106 487.909 689.523 494.38L684.068 443.743C702.651 437.273 719.605 428.83 733.952 418.987Z" fill="#40AC88"/>
<path d="M684.068 443.743L689.523 494.38C682.311 496.901 674.832 499.098 667.189 500.983L661.734 450.346C669.377 448.462 676.856 446.265 684.068 443.743Z" fill="#3FA785"/>
<path d="M661.731 450.321L667.186 500.958C661.347 502.377 655.411 503.63 649.397 504.638L643.942 454.002C649.954 452.969 655.892 451.741 661.731 450.321Z" fill="#3DA281"/>
<path d="M643.97 454.024L649.425 504.66C644.336 505.534 639.201 506.236 633.999 506.792L628.544 456.156C633.721 455.602 638.881 454.898 643.97 454.024Z" fill="#3B9D7D"/>
<path d="M628.544 456.156L633.999 506.792C633.02 506.906 632.013 506.999 631.031 507.088C627.404 507.41 623.794 507.653 620.225 507.815L614.77 457.179C618.339 457.017 621.95 456.773 625.576 456.452C626.555 456.337 627.565 456.27 628.544 456.156Z" fill="#399979"/>
<path d="M614.77 457.179L620.225 507.815C614.176 508.089 608.175 508.128 602.132 508.02L596.677 457.383C602.72 457.492 608.721 457.453 614.77 457.179Z" fill="#379475"/>
<path d="M596.674 457.358L602.129 507.995C597.844 507.91 593.553 507.775 589.204 507.57L583.749 456.934C588.095 457.113 592.389 457.273 596.674 457.358Z" fill="#358F71"/>
</g>
<path d="M825.714 428.832L831.169 479.468L805.929 498.446L800.477 447.835L825.714 428.832Z" fill="#46BC95"/>
<path d="M825.318 426.97L825.714 428.832L800.477 447.835L797.3 448.308L765.596 433.282L733.952 418.987C705.538 438.463 666.776 452.557 625.576 456.452C611.452 457.745 597.87 457.575 583.752 456.959C581.13 456.731 579.82 456.629 578.689 456.099C577.559 455.57 576.799 454.514 575.897 452.456L562.688 427.586C610.585 434.843 657.498 428.016 696.616 402.15L658.39 384.883L623.426 369.831L623.404 367.899L648.641 348.896L651.872 348.672L685.163 364.428L792.584 412.929L825.29 426.947L825.318 426.97Z" fill="#8BF9D4"/>
<path d="M797.3 448.308L802.755 498.944L771.048 483.893L765.596 433.282L797.3 448.308Z" fill="#318367"/>
<path d="M800.477 447.835L805.929 498.446L802.755 498.944L797.3 448.308L800.477 447.835Z" fill="#41AD89"/>
</g>
<defs>
<filter id="filter0_d_1278_2699" x="-9" y="-13" width="882.108" height="615.267" filterUnits="userSpaceOnUse" color-interpolation-filters="sRGB">
<feFlood flood-opacity="0" result="BackgroundImageFix"/>
<feColorMatrix in="SourceAlpha" type="matrix" values="0 0 0 0 0 0 0 0 0 0 0 0 0 0 0 0 0 0 127 0" result="hardAlpha"/>
<feOffset dy="2"/>
<feGaussianBlur stdDeviation="7.5"/>
<feColorMatrix type="matrix" values="0 0 0 0 0.303511 0 0 0 0 0.430355 0 0 0 0 0.389092 0 0 0 0.5 0"/>
<feBlend mode="normal" in2="BackgroundImageFix" result="effect1_dropShadow_1278_2699"/>
<feBlend mode="normal" in="SourceGraphic" in2="effect1_dropShadow_1278_2699" result="shape"/>
</filter>
<clipPath id="clip0_1278_2699">
<rect width="800" height="495.827" fill="white" transform="translate(6 92.7864) rotate(-6.66033)"/>
</clipPath>
</defs>
</svg>
