<svg width="1440" height="900" xmlns="http://www.w3.org/2000/svg">
<path d="M-477 195L1291 971" stroke="#23D198"/>
<path d="M-444 181L1324 957" stroke="#23D198"/>
<path d="M-411 167L1357 943" stroke="#23D198"/>
<path d="M-378 153L1390 929" stroke="#23D198"/>
<path d="M-345 139L1423 915" stroke="#23D198"/>
<path d="M-312 125L1456 901" stroke="#23D198"/>
<path d="M-279 111L1489 887" stroke="#23D198"/>
<path d="M-246 97L1522 873" stroke="#23D198"/>
<path d="M-213 83L1555 859" stroke="#23D198"/>
<path d="M-180 69L1588 845" stroke="#23D198"/>
<path d="M-147 55L1621 831" stroke="#23D198"/>
<path d="M-114 41L1654 817" stroke="#23D198"/>
<path d="M-81 27L1687 803" stroke="#23D198"/>
<path d="M-48 13L1720 789" stroke="#23D198"/>
<path d="M-15 -1L1753 775" stroke="#23D198"/>
<path d="M18 -15L1786 761" stroke="#23D198"/>
<path d="M51 -29L1819 747" stroke="#23D198"/>
<path d="M84 -43L1852 733" stroke="#23D198"/>
<path d="M117 -57L1885 719" stroke="#23D198"/>
<path d="M150 -71L1918 705" stroke="#23D198"/>
</svg>
