<svg width="320" height="568" xmlns="http://www.w3.org/2000/svg">
<path d="M-354.256 211.174L407.504 579.072" stroke="#4A4A4A"/>
<path d="M-344.936 198.696L416.824 566.594" stroke="#4A4A4A"/>
<path d="M-335.616 186.219L426.144 554.117" stroke="#4A4A4A"/>
<path d="M-326.296 173.742L435.464 541.639" stroke="#4A4A4A"/>
<path d="M-316.976 161.264L444.784 529.162" stroke="#4A4A4A"/>
<path d="M-307.656 148.787L454.104 516.685" stroke="#4A4A4A"/>
<path d="M-298.336 136.309L463.424 504.207" stroke="#4A4A4A"/>
<path d="M-289.016 123.832L472.744 491.73" stroke="#4A4A4A"/>
<path d="M-279.696 111.354L482.064 479.252" stroke="#4A4A4A"/>
<path d="M-270.376 98.877L491.384 466.775" stroke="#4A4A4A"/>
<path d="M-261.056 86.3996L500.704 454.298" stroke="#4A4A4A"/>
<path d="M-251.736 73.9222L510.024 441.82" stroke="#4A4A4A"/>
<path d="M-242.416 61.4447L519.344 429.343" stroke="#4A4A4A"/>
<path d="M-233.096 48.9673L528.664 416.865" stroke="#4A4A4A"/>
<path d="M-223.776 36.4899L537.984 404.388" stroke="#4A4A4A"/>
<path d="M-214.457 24.0125L547.304 391.91" stroke="#4A4A4A"/>
<path d="M-205.137 11.5351L556.624 379.433" stroke="#4A4A4A"/>
<path d="M-195.817 -0.942352L565.944 366.956" stroke="#4A4A4A"/>
<path d="M-186.497 -13.4198L575.264 354.478" stroke="#4A4A4A"/>
<path d="M-177.176 -25.8973L584.584 342.001" stroke="#4A4A4A"/>
</svg>
