
<svg width="1438" height="477" viewBox="0 0 1438 477" fill="none" xmlns="http://www.w3.org/2000/svg">
<path d="M-4 1H1438" stroke="#5CF6C3"/>

<path d="M-4 26H1438" stroke="#5CF6C3"/>
<path d="M-4 51H1438" stroke="#5CF6C3"/>
<path d="M-4 76H1438" stroke="#5CF6C3"/>
<path d="M-4 101H1438" stroke="#5CF6C3"/>
<path d="M-4 126H1438" stroke="#5CF6C3"/>
<path d="M-4 151H1438" stroke="#5CF6C3"/>
<path d="M-4 176H1438" stroke="#5CF6C3"/>
<path d="M-4 201H1438" stroke="#5CF6C3"/>
<path d="M-4 226H1438" stroke="#5CF6C3"/>
<path d="M-4 251H1438" stroke="#5CF6C3"/>
<path d="M-4 276H1438" stroke="#5CF6C3"/>
<path d="M-4 301H1438" stroke="#5CF6C3"/>
<path d="M-4 326H1438" stroke="#5CF6C3"/>
<path d="M-4 351H1438" stroke="#5CF6C3"/>
<path d="M-4 376H1438" stroke="#5CF6C3"/>
<path d="M-4 401H1438" stroke="#5CF6C3"/>
<path d="M-4 426H1438" stroke="#5CF6C3"/>
<path d="M-4 451H1438" stroke="#5CF6C3"/>
<path d="M-4 476H1438" stroke="#5CF6C3"/>
</svg>




<svg width="320" height="568" xmlns="http://www.w3.org/2000/svg">
<path id="line01" d="M-354.256 211.174L407.504 579.072" stroke="#23D198"/>
<animate xlink:href="#line01" attributeName="d" from="M-354.256 211.174L407.504 579.072" to="M-4 211.174L407.504 579.072" dur="2s"  fill="freeze" />
<path id="line02" d="M-344.936 198.696L416.824 566.594" stroke="#23D198"/>
<path d="M-335.616 186.219L426.144 554.117" stroke="#23D198"/>
<path d="M-326.296 173.742L435.464 541.639" stroke="#23D198"/>
<path d="M-316.976 161.264L444.784 529.162" stroke="#23D198"/>
<path d="M-307.656 148.787L454.104 516.685" stroke="#23D198"/>
<path d="M-298.336 136.309L463.424 504.207" stroke="#23D198"/>
<path d="M-289.016 123.832L472.744 491.73" stroke="#23D198"/>
<path d="M-279.696 111.354L482.064 479.252" stroke="#23D198"/>
<path d="M-270.376 98.877L491.384 466.775" stroke="#23D198"/>
<path d="M-261.056 86.3996L500.704 454.298" stroke="#23D198"/>
<path d="M-251.736 73.9222L510.024 441.82" stroke="#23D198"/>
<path d="M-242.416 61.4448L519.344 429.343" stroke="#23D198"/>
<path d="M-233.096 48.9673L528.664 416.865" stroke="#23D198"/>
<path d="M-223.777 36.4899L537.984 404.388" stroke="#23D198"/>
<path d="M-214.457 24.0125L547.304 391.91" stroke="#23D198"/>
<path d="M-205.137 11.5351L556.624 379.433" stroke="#23D198"/>
<path d="M-195.817 -0.942322L565.944 366.956" stroke="#23D198"/>
<path d="M-186.497 -13.4197L575.264 354.478" stroke="#23D198"/>
<path d="M-177.176 -25.8973L584.584 342.001" stroke="#23D198"/>
</svg>