<svg width="192" height="132" xmlns="http://www.w3.org/2000/svg">
<g filter="url(#filter0_d)">
<path d="M42.8365 16.9141V25.0324L27.7311 33.4169V25.2986L42.8365 16.9141Z" fill="#C5C5C5"/>
<path d="M27.7311 25.2986V33.417L25.3356 34.9475V26.8291L27.7311 25.2986Z" fill="#C4C4C4"/>
<path d="M32.3227 30.8217L32.2561 39.0066L32.1896 39.4058L32.2561 31.2875L32.3227 30.8217Z" fill="#9B9B9B"/>
<path d="M42.8365 16.9141L27.7311 25.2986L25.3356 26.8291L32.3226 30.8217L32.2561 31.2875L27.7977 33.4169L15.4206 26.2968L22.208 22.77L37.2469 13.6535L42.8365 16.9141Z" fill="white"/>
<path d="M32.2561 31.2875L32.1896 39.4058L27.7311 41.6018L27.7977 33.4169L32.2561 31.2875Z" fill="#C5C5C5"/>
<path d="M27.7977 33.4169L27.7311 41.6018L15.4206 34.4151V26.2968L27.7977 33.4169Z" fill="#898989"/>
<path d="M58.0085 25.6313L57.9419 33.7497L42.9031 42.2007V34.0824L58.0085 25.6313Z" fill="#C5C5C5"/>
<path d="M58.0085 25.6314L42.9031 34.0824L36.1156 38.2746L30.5925 35.014L37.3134 31.4872L52.3523 22.3707L58.0085 25.6314Z" fill="white"/>
<path d="M42.9031 34.0824V42.2007L36.1157 46.3929V38.2746L42.9031 34.0824Z" fill="#C4C4C4"/>
<path d="M36.1157 38.2746V46.3929L30.526 43.1988L30.5925 35.014L36.1157 38.2746Z" fill="#898989"/>
<path d="M59.7386 36.2783L59.6721 44.3966L59.3394 44.197V36.0787L59.7386 36.2783Z" fill="#898989"/>
<path d="M59.3393 36.0787V44.197L53.4835 47.5242L53.5501 39.4058L59.3393 36.0787Z" fill="#C5C5C5"/>
<path d="M46.0972 43.9974L46.0306 52.1157L41.0399 49.2543V41.136L46.0972 43.9974Z" fill="#898989"/>
<path d="M53.5501 39.4058L53.4835 47.5241L46.0306 52.1156L46.0972 43.9973L53.5501 39.4058Z" fill="#C4C4C4"/>
<path d="M68.7885 31.8864V40.0047L63.1323 52.3818V44.197L68.7885 31.8864Z" fill="#AAAAAA"/>
<path d="M81.9641 39.4058V47.5241L66.6591 56.0417V47.9234L81.9641 39.4058Z" fill="#C5C5C5"/>
<path d="M60.0048 52.0491V60.1674L54.0159 56.7071V48.5888L60.0048 52.0491Z" fill="#898989"/>
<path d="M66.6591 47.9234V56.0417L60.0048 60.1674V52.0491L66.6591 47.9234Z" fill="#C4C4C4"/>
<path d="M81.9641 39.4058L66.6591 47.9234L60.0048 52.0491L54.0158 48.5888L59.7386 36.2783L59.3393 36.0787L53.55 39.4058L46.0972 43.9973L41.0399 41.136L47.7607 37.5426L62.8661 28.4261L68.7885 31.8864L63.1323 44.197L63.465 44.3966L76.6406 36.611L81.9641 39.4058Z" fill="white"/>
<path d="M92.2784 45.3948L92.2118 53.5796L82.3634 59.1027V50.9844L92.2784 45.3948Z" fill="#C5C5C5"/>
<path d="M81.0325 51.7164L80.966 59.8347L77.173 62.0307V53.8458L81.0325 51.7164Z" fill="#C5C5C5"/>
<path d="M104.522 52.515V60.6333L87.0214 62.4299V54.3116L104.522 52.515Z" fill="#BABABA"/>
<path d="M70.3855 58.038V66.1563L64.8624 63.0288L64.929 54.8439L70.3855 58.038Z" fill="#898989"/>
<path d="M77.173 53.8458V62.0306L70.3856 66.1563V58.038L77.173 53.8458Z" fill="#C4C4C4"/>
<path d="M77.5057 62.563V70.6813L77.173 70.149V62.0306L77.5057 62.563Z" fill="#808080"/>
<path d="M87.0214 54.3116V62.4299C86.2229 64.8255 85.5575 67.3541 85.0251 70.0159V61.8975C85.624 59.2358 86.2895 56.7072 87.0214 54.3116Z" fill="#9E9E9E"/>
<path d="M85.0917 61.8976V70.0159C84.892 71.014 84.6924 72.0122 84.5593 73.0103V64.892C84.6924 63.8273 84.892 62.8292 85.0917 61.8976Z" fill="#999999"/>
<path d="M104.522 52.5149L87.0214 54.3116C85.9567 57.6388 85.0917 61.1656 84.4928 64.892L83.8273 65.2247C81.6314 64.4262 79.502 63.5611 77.5057 62.6295L77.173 62.0306C78.4373 58.038 79.7016 54.6443 80.966 51.7164L77.173 53.8458L70.3855 58.038L64.8624 54.844L71.5833 51.2506L86.6222 42.2007L92.2118 45.3948L82.2968 50.9179L95.1397 49.6536L98.5334 49.0547L104.522 52.5149Z" fill="white"/>
<path d="M83.8273 65.1582V73.2765C83.0288 73.0103 82.2968 72.7442 81.5648 72.4114V64.2931C82.2968 64.6258 83.0953 64.892 83.8273 65.1582Z" fill="#8A8A8A"/>
<path d="M81.5648 64.3597V72.478C80.1674 71.9456 78.8365 71.3468 77.5057 70.7479V62.6295C78.8365 63.2284 80.1674 63.7608 81.5648 64.3597Z" fill="#858585"/>
<path d="M84.5593 64.892L84.4928 73.0103L83.8273 73.343V65.1582L84.5593 64.892Z" fill="#C5C5C5"/>
<path d="M112.108 61.831V69.9493L108.315 67.8199L108.382 59.7016L112.108 61.831Z" fill="#898989"/>
<path d="M108.382 59.7016L108.315 67.8199L103.923 70.3486V62.1637L108.382 59.7016Z" fill="#C5C5C5"/>
<path d="M121.757 62.4965V70.6148L121.691 71.014V62.8957L121.757 62.4965Z" fill="#9F9F9F"/>
<path d="M121.691 62.8957V71.014L117.232 73.1434V65.0251L121.691 62.8957Z" fill="#C5C5C5"/>
<path d="M117.232 65.0251V73.1434L112.108 69.9493V61.831L117.232 65.0251Z" fill="#878787"/>
<path d="M99.5981 64.6259L99.5316 72.7442L97.6018 73.8089L97.6683 65.6905L99.5981 64.6259Z" fill="#C5C5C5"/>
<path d="M102.859 66.4891V74.6074L99.5316 72.7442L99.5981 64.6259L102.859 66.4891Z" fill="#898989"/>
<path d="M111.177 66.2229V74.4078L111.044 74.807V66.6887L111.177 66.2229Z" fill="#9F9F9F"/>
<path d="M97.6683 65.6906L97.6018 73.8089L95.0066 75.4059V67.2876L97.6683 65.6906Z" fill="#C4C4C4"/>
<path d="M106.652 68.8181V76.9364L102.859 74.6074V66.4891L106.652 68.8181Z" fill="#888888"/>
<path d="M111.044 66.6887V74.807L106.652 76.9364V68.8181L111.044 66.6887Z" fill="#C5C5C5"/>
<path d="M104.323 72.478L104.256 80.5963L104.19 80.9955V72.8772L104.323 72.478Z" fill="#9F9F9F"/>
<path d="M99.7977 75.0066V83.1249L85.2913 74.807V66.6887L99.7977 75.0066Z" fill="#898989"/>
<path d="M104.19 72.8773V80.9956L99.7977 83.125V75.0066L104.19 72.8773Z" fill="#C5C5C5"/>
<path d="M121.757 62.4965L121.691 62.8957L117.232 65.0251L112.108 61.831L108.382 59.7016L103.923 62.1637L107.517 64.2266L111.177 66.2229L111.044 66.6887L106.652 68.8181L102.859 66.4891L99.5981 64.6258L97.6684 65.6905L95.0066 67.2876L98.6 69.417L104.323 72.478L104.19 72.8772L99.7977 75.0066L85.2913 66.6887L92.0787 63.0953L107.118 53.9789L121.757 62.4965Z" fill="white"/>
<path d="M131.472 74.2081V82.3264C131.472 81.4613 130.807 80.6628 129.476 79.9308C128.278 79.2654 127.147 78.6 126.016 78.1341V70.0158C127.081 70.5482 128.278 71.1471 129.476 71.8125C130.807 72.5445 131.472 73.343 131.472 74.2081Z" fill="#858585"/>
<path d="M126.082 69.9493L126.016 78.0676L115.369 84.0565V75.9382L126.082 69.9493Z" fill="#C5C5C5"/>
<path d="M115.369 75.9382V84.0565L112.574 85.7201L112.641 77.6018L115.369 75.9382Z" fill="#C4C4C4"/>
<path d="M138.992 75.2728C138.925 77.2691 137.262 79.1988 134.001 81.1286C130.142 83.3911 126.149 84.5223 122.156 84.5889C118.164 84.6554 114.304 83.6573 110.711 81.5944C108.648 80.3966 106.119 78.7996 103.125 76.8698L109.846 73.2765L124.818 64.2266L134.201 69.4835C137.461 71.3467 139.058 73.2765 138.992 75.2728ZM115.901 79.7977C118.896 81.5279 122.622 81.1286 126.948 78.6C129.543 77.136 131.007 75.8051 131.339 74.7404C131.739 73.6757 131.073 72.6776 129.476 71.746C128.278 71.0805 127.147 70.4151 126.016 69.9493L115.369 75.9382L112.574 77.6018C113.772 78.4669 114.837 79.1988 115.901 79.7977Z" fill="white"/>
<path d="M138.992 75.3393V83.4576C138.992 83.6573 138.992 83.8569 138.925 84.0565V75.9382C138.992 75.7386 138.992 75.539 138.992 75.3393Z" fill="#999999"/>
<path d="M138.925 75.9382V84.0565C138.859 84.2562 138.792 84.4558 138.726 84.6554V76.5371C138.859 76.3375 138.925 76.1379 138.925 75.9382Z" fill="#9E9E9E"/>
<path d="M138.792 76.6037V84.722C138.726 84.9216 138.593 85.1878 138.46 85.3874V77.2691C138.593 77.0029 138.659 76.8033 138.792 76.6037Z" fill="#A3A3A3"/>
<path d="M138.46 77.2691V85.3874C138.326 85.6536 138.127 85.9198 137.927 86.1859V78.0676C138.127 77.8015 138.326 77.5353 138.46 77.2691Z" fill="#A8A8A8"/>
<path d="M137.927 78.0011V86.1194C137.661 86.4521 137.328 86.7848 136.996 87.1175V78.9992C137.328 78.733 137.661 78.3338 137.927 78.0011Z" fill="#ADADAD"/>
<path d="M136.996 79.0658V87.1841C136.33 87.8495 135.465 88.4484 134.4 89.1139V80.9956C135.399 80.3301 136.264 79.6647 136.996 79.0658Z" fill="#B3B3B3"/>
<path d="M134.4 80.929V89.0473C134.267 89.1138 134.134 89.1804 134.001 89.2469C132.271 90.2451 130.474 91.0436 128.678 91.6425V83.5242C130.474 82.9253 132.271 82.1268 134.001 81.1286C134.134 81.0621 134.267 80.9955 134.4 80.929Z" fill="#B8B8B8"/>
<path d="M128.678 83.5242V91.6425C127.679 91.9752 126.681 92.2414 125.683 92.3745V84.2561C126.681 84.1231 127.679 83.8569 128.678 83.5242Z" fill="#B3B3B3"/>
<path d="M125.683 84.3227V92.441C125.084 92.5741 124.485 92.6406 123.886 92.7072V84.5889C124.552 84.4558 125.151 84.3892 125.683 84.3227Z" fill="#ADADAD"/>
<path d="M123.953 84.5223V92.6406C123.487 92.7072 123.021 92.7072 122.489 92.7072V84.5889C122.955 84.6554 123.487 84.5889 123.953 84.5223Z" fill="#A8A8A8"/>
<path d="M122.489 84.6554V92.7737C122.356 92.7737 122.289 92.7737 122.156 92.7737C121.824 92.7737 121.491 92.7737 121.158 92.7737V84.6554C121.491 84.6554 121.824 84.6554 122.156 84.6554C122.289 84.6554 122.423 84.6554 122.489 84.6554Z" fill="#A3A3A3"/>
<path d="M121.225 84.6554V92.7738C120.826 92.7738 120.426 92.7738 119.96 92.7072V84.5889C120.36 84.5889 120.759 84.6554 121.225 84.6554Z" fill="#9E9E9E"/>
<path d="M119.96 84.5889V92.7072C119.561 92.6407 119.162 92.6407 118.696 92.5741V84.4558C119.162 84.5224 119.561 84.5224 119.96 84.5889Z" fill="#999999"/>
<path d="M118.696 84.4558V92.5741C118.23 92.5076 117.831 92.441 117.365 92.3745V84.2562C117.831 84.3227 118.297 84.3893 118.696 84.4558Z" fill="#949494"/>
<path d="M117.432 84.1896V92.3079C116.899 92.1749 116.434 92.1083 115.901 91.9087V83.7904C116.367 83.99 116.899 84.1231 117.432 84.1896Z" fill="#8F8F8F"/>
<path d="M115.901 83.8569V91.9752C115.236 91.7756 114.57 91.576 113.905 91.3098V83.1915C114.57 83.3911 115.236 83.6573 115.901 83.8569Z" fill="#8A8A8A"/>
<path d="M113.905 83.1915V91.3098C112.84 90.9105 111.776 90.3782 110.777 89.7793C108.715 88.5815 106.186 86.9845 103.191 85.0547V76.9364C106.186 78.8662 108.715 80.4632 110.777 81.661C111.776 82.2599 112.774 82.7257 113.905 83.1915Z" fill="#858585"/>
<path d="M152.633 80.2635V88.4484L137.528 96.8329V88.7146L152.633 80.2635Z" fill="#C5C5C5"/>
<path d="M152.633 80.2635L137.528 88.7146L130.741 92.9068L125.217 89.7127L132.005 86.1194L146.977 77.0695L152.633 80.2635Z" fill="white"/>
<path d="M137.528 88.7146V96.8329L130.74 101.025V92.9068L137.528 88.7146Z" fill="#C4C4C4"/>
<path d="M130.741 92.9068V101.025L125.217 97.831V89.7127L130.741 92.9068Z" fill="#898989"/>
<path d="M154.363 90.9105V99.0288L154.031 98.8292V90.7109L154.363 90.9105Z" fill="#898989"/>
<path d="M154.031 90.7109V98.8292L148.175 102.223V94.0381L154.031 90.7109Z" fill="#C5C5C5"/>
<path d="M140.722 98.6296V106.748L135.731 103.887V95.7682L140.722 98.6296Z" fill="#898989"/>
<path d="M148.175 94.0381V102.223L140.722 106.748V98.6296L148.175 94.0381Z" fill="#C4C4C4"/>
<path d="M163.48 86.5187L163.413 94.7035L157.757 107.014L157.824 98.8958L163.48 86.5187Z" fill="#AAAAAA"/>
<path d="M176.656 94.0381L176.589 102.156L161.351 110.674V102.556L176.656 94.0381Z" fill="#C5C5C5"/>
<path d="M154.63 106.681V114.8L148.641 111.339L148.707 103.221L154.63 106.681Z" fill="#898989"/>
<path d="M161.35 102.556V110.674L154.63 114.8V106.681L161.35 102.556Z" fill="#C4C4C4"/>
<path d="M176.656 94.0381L161.351 102.556L154.63 106.681L148.707 103.221L154.363 90.9105L154.031 90.7109L148.175 94.0381L140.722 98.6296L135.731 95.7682L142.386 92.1749L157.491 83.1249L163.48 86.5187L157.824 98.8957L158.156 99.0954L171.265 91.3098L176.656 94.0381Z" fill="white"/>
</g>
<defs>
<filter id="filter0_d" x="0.420593" y="0.653503" width="191.235" height="131.146" filterUnits="userSpaceOnUse" color-interpolation-filters="sRGB">
<feFlood flood-opacity="0" result="BackgroundImageFix"/>
<feColorMatrix in="SourceAlpha" type="matrix" values="0 0 0 0 0 0 0 0 0 0 0 0 0 0 0 0 0 0 127 0"/>
<feOffset dy="2"/>
<feGaussianBlur stdDeviation="7.5"/>
<feColorMatrix type="matrix" values="0 0 0 0 0.768627 0 0 0 0 0.768627 0 0 0 0 0.768627 0 0 0 0.5 0"/>
<feBlend mode="normal" in2="BackgroundImageFix" result="effect1_dropShadow"/>
<feBlend mode="normal" in="SourceGraphic" in2="effect1_dropShadow" result="shape"/>
</filter>
</defs>
</svg>
