<svg width="273" height="183" xmlns="http://www.w3.org/2000/svg">
<g clip-path="url(#clip0)" filter="url(#filter0_d)">
<path d="M56.8094 18.7374V30.9374L34.1094 43.5374V31.3374L56.8094 18.7374Z" fill="#C5C5C5"/>
<path d="M34.1093 31.3374V43.5374L30.5093 45.8374V33.6374L34.1093 31.3374Z" fill="#C4C4C4"/>
<path d="M41.0096 39.6374L40.9096 51.9374L40.8096 52.5374L40.9096 40.3374L41.0096 39.6374Z" fill="#9B9B9B"/>
<path d="M56.8094 18.7374L34.1094 31.3374L30.5094 33.6374L41.0094 39.6374L40.9094 40.3374L34.2094 43.5374L15.6094 32.8374L25.8094 27.5374L48.4094 13.8374L56.8094 18.7374Z" fill="white"/>
<path d="M40.9094 40.3374L40.8094 52.5374L34.1094 55.8374L34.2094 43.5374L40.9094 40.3374Z" fill="#C5C5C5"/>
<path d="M34.2094 43.5374L34.1094 55.8374L15.6094 45.0374V32.8374L34.2094 43.5374Z" fill="#898989"/>
<path d="M79.6097 31.8374L79.5097 44.0374L56.9097 56.7374V44.5374L79.6097 31.8374Z" fill="#C5C5C5"/>
<path d="M79.6097 31.8374L56.9097 44.5374L46.7097 50.8374L38.4097 45.9374L48.5097 40.6374L71.1097 26.9374L79.6097 31.8374Z" fill="white"/>
<path d="M56.9095 44.5374V56.7374L46.7095 63.0374V50.8374L56.9095 44.5374Z" fill="#C4C4C4"/>
<path d="M46.7096 50.8374V63.0374L38.3096 58.2374L38.4096 45.9374L46.7096 50.8374Z" fill="#898989"/>
<path d="M82.2094 47.8374L82.1094 60.0374L81.6094 59.7374V47.5374L82.2094 47.8374Z" fill="#898989"/>
<path d="M81.6096 47.5374V59.7374L72.8096 64.7374L72.9096 52.5374L81.6096 47.5374Z" fill="#C5C5C5"/>
<path d="M61.7094 59.4374L61.6094 71.6374L54.1094 67.3374V55.1374L61.7094 59.4374Z" fill="#898989"/>
<path d="M72.9094 52.5374L72.8094 64.7374L61.6094 71.6374L61.7094 59.4374L72.9094 52.5374Z" fill="#C4C4C4"/>
<path d="M95.8096 41.2374V53.4374L87.3096 72.0374V59.7374L95.8096 41.2374Z" fill="#AAAAAA"/>
<path d="M115.609 52.5374V64.7374L92.6094 77.5374V65.3374L115.609 52.5374Z" fill="#C5C5C5"/>
<path d="M82.6094 71.5374V83.7374L73.6094 78.5374V66.3374L82.6094 71.5374Z" fill="#898989"/>
<path d="M92.6094 65.3374V77.5374L82.6094 83.7374V71.5374L92.6094 65.3374Z" fill="#C4C4C4"/>
<path d="M115.609 52.5374L92.6094 65.3374L82.6094 71.5374L73.6094 66.3374L82.2094 47.8374L81.6094 47.5374L72.9094 52.5374L61.7094 59.4374L54.1094 55.1374L64.2094 49.7374L86.9094 36.0374L95.8094 41.2374L87.3094 59.7374L87.8094 60.0374L107.609 48.3374L115.609 52.5374Z" fill="white"/>
<path d="M131.109 61.5374L131.009 73.8374L116.209 82.1374V69.9374L131.109 61.5374Z" fill="#C5C5C5"/>
<path d="M114.209 71.0374L114.109 83.2374L108.409 86.5374V74.2374L114.209 71.0374Z" fill="#C5C5C5"/>
<path d="M149.509 72.2374V84.4374L123.209 87.1374V74.9374L149.509 72.2374Z" fill="#BABABA"/>
<path d="M98.2092 80.5374V92.7374L89.9092 88.0374L90.0092 75.7374L98.2092 80.5374Z" fill="#898989"/>
<path d="M108.409 74.2374V86.5374L98.209 92.7374V80.5374L108.409 74.2374Z" fill="#C4C4C4"/>
<path d="M108.909 87.3374V99.5374L108.409 98.7374V86.5374L108.909 87.3374Z" fill="#808080"/>
<path d="M123.209 74.9374V87.1374C122.009 90.7374 121.009 94.5374 120.209 98.5374V86.3374C121.109 82.3374 122.109 78.5374 123.209 74.9374Z" fill="#9E9E9E"/>
<path d="M120.309 86.3375V98.5375C120.009 100.037 119.709 101.537 119.509 103.037V90.8375C119.709 89.2375 120.009 87.7375 120.309 86.3375Z" fill="#999999"/>
<path d="M149.509 72.2374L123.209 74.9374C121.609 79.9374 120.309 85.2374 119.409 90.8374L118.409 91.3374C115.109 90.1374 111.909 88.8374 108.909 87.4374L108.409 86.5374C110.309 80.5374 112.209 75.4374 114.109 71.0374L108.409 74.2374L98.2092 80.5374L89.9092 75.7374L100.009 70.3374L122.609 56.7374L131.009 61.5374L116.109 69.8374L135.409 67.9374L140.509 67.0374L149.509 72.2374Z" fill="white"/>
<path d="M118.409 91.2374V103.437C117.209 103.037 116.109 102.637 115.009 102.137V89.9374C116.109 90.4374 117.309 90.8374 118.409 91.2374Z" fill="#8A8A8A"/>
<path d="M115.009 90.0374V102.237C112.909 101.437 110.909 100.537 108.909 99.6374V87.4374C110.909 88.3374 112.909 89.1374 115.009 90.0374Z" fill="#858585"/>
<path d="M119.509 90.8374L119.409 103.037L118.409 103.537V91.2374L119.509 90.8374Z" fill="#C5C5C5"/>
<path d="M160.909 86.2374V98.4374L155.209 95.2374L155.309 83.0374L160.909 86.2374Z" fill="#898989"/>
<path d="M155.309 83.0374L155.209 95.2374L148.609 99.0374V86.7374L155.309 83.0374Z" fill="#C5C5C5"/>
<path d="M175.41 87.2374V99.4374L175.31 100.037V87.8374L175.41 87.2374Z" fill="#9F9F9F"/>
<path d="M175.309 87.8374V100.037L168.609 103.237V91.0374L175.309 87.8374Z" fill="#C5C5C5"/>
<path d="M168.609 91.0374V103.237L160.909 98.4374V86.2374L168.609 91.0374Z" fill="#878787"/>
<path d="M142.109 90.4374L142.009 102.637L139.109 104.237L139.209 92.0374L142.109 90.4374Z" fill="#C5C5C5"/>
<path d="M147.009 93.2374V105.437L142.009 102.637L142.109 90.4374L147.009 93.2374Z" fill="#898989"/>
<path d="M159.51 92.8374V105.137L159.31 105.737V93.5374L159.51 92.8374Z" fill="#9F9F9F"/>
<path d="M139.209 92.0374L139.109 104.237L135.209 106.637V94.4374L139.209 92.0374Z" fill="#C4C4C4"/>
<path d="M152.709 96.7374V108.937L147.009 105.437V93.2374L152.709 96.7374Z" fill="#888888"/>
<path d="M159.309 93.5374V105.737L152.709 108.937V96.7374L159.309 93.5374Z" fill="#C5C5C5"/>
<path d="M149.209 102.237L149.109 114.437L149.009 115.037V102.837L149.209 102.237Z" fill="#9F9F9F"/>
<path d="M142.409 106.037V118.237L120.609 105.737V93.5374L142.409 106.037Z" fill="#898989"/>
<path d="M149.009 102.837V115.037L142.409 118.237V106.037L149.009 102.837Z" fill="#C5C5C5"/>
<path d="M175.409 87.2374L175.309 87.8374L168.609 91.0374L160.909 86.2374L155.309 83.0374L148.609 86.7374L154.009 89.8374L159.509 92.8374L159.309 93.5374L152.709 96.7374L147.009 93.2374L142.109 90.4374L139.209 92.0374L135.209 94.4374L140.609 97.6374L149.209 102.237L149.009 102.837L142.409 106.037L120.609 93.5374L130.809 88.1374L153.409 74.4374L175.409 87.2374Z" fill="white"/>
<path d="M190.009 104.837V117.037C190.009 115.737 189.009 114.537 187.009 113.437C185.209 112.437 183.509 111.437 181.809 110.737V98.5374C183.409 99.3374 185.209 100.237 187.009 101.237C189.009 102.337 190.009 103.537 190.009 104.837Z" fill="#858585"/>
<path d="M181.909 98.4374L181.809 110.637L165.809 119.637V107.437L181.909 98.4374Z" fill="#C5C5C5"/>
<path d="M165.809 107.437V119.637L161.609 122.137L161.709 109.937L165.809 107.437Z" fill="#C4C4C4"/>
<path d="M201.309 106.437C201.209 109.437 198.709 112.337 193.809 115.237C188.009 118.637 182.009 120.337 176.009 120.437C170.009 120.537 164.209 119.037 158.809 115.937C155.709 114.137 151.909 111.737 147.409 108.837L157.509 103.437L180.009 89.8374L194.109 97.7374C199.009 100.537 201.409 103.437 201.309 106.437ZM166.609 113.237C171.109 115.837 176.709 115.237 183.209 111.437C187.109 109.237 189.309 107.237 189.809 105.637C190.409 104.037 189.409 102.537 187.009 101.137C185.209 100.137 183.509 99.1374 181.809 98.4374L165.809 107.437L161.609 109.937C163.409 111.237 165.009 112.337 166.609 113.237Z" fill="white"/>
<path d="M201.309 106.537V118.737C201.309 119.037 201.309 119.337 201.209 119.637V107.437C201.309 107.137 201.309 106.837 201.309 106.537Z" fill="#999999"/>
<path d="M201.209 107.437V119.637C201.109 119.937 201.009 120.237 200.909 120.537V108.337C201.109 108.037 201.209 107.737 201.209 107.437Z" fill="#9E9E9E"/>
<path d="M201.009 108.437V120.637C200.909 120.937 200.709 121.337 200.509 121.637V109.437C200.709 109.037 200.809 108.737 201.009 108.437Z" fill="#A3A3A3"/>
<path d="M200.509 109.437V121.637C200.309 122.037 200.009 122.437 199.709 122.837V110.637C200.009 110.237 200.309 109.837 200.509 109.437Z" fill="#A8A8A8"/>
<path d="M199.709 110.537V122.737C199.309 123.237 198.809 123.737 198.309 124.237V112.037C198.809 111.637 199.309 111.037 199.709 110.537Z" fill="#ADADAD"/>
<path d="M198.309 112.137V124.337C197.309 125.337 196.009 126.237 194.409 127.237V115.037C195.909 114.037 197.209 113.037 198.309 112.137Z" fill="#B3B3B3"/>
<path d="M194.409 114.937V127.137C194.209 127.237 194.009 127.337 193.809 127.437C191.209 128.937 188.509 130.137 185.809 131.037V118.837C188.509 117.937 191.209 116.737 193.809 115.237C194.009 115.137 194.209 115.037 194.409 114.937Z" fill="#B8B8B8"/>
<path d="M185.809 118.837V131.037C184.309 131.537 182.809 131.937 181.309 132.137V119.937C182.809 119.737 184.309 119.337 185.809 118.837Z" fill="#B3B3B3"/>
<path d="M181.309 120.037V132.237C180.409 132.437 179.509 132.537 178.609 132.637V120.437C179.609 120.237 180.509 120.137 181.309 120.037Z" fill="#ADADAD"/>
<path d="M178.709 120.337V132.537C178.009 132.637 177.309 132.637 176.509 132.637V120.437C177.209 120.537 178.009 120.437 178.709 120.337Z" fill="#A8A8A8"/>
<path d="M176.509 120.537V132.737C176.309 132.737 176.209 132.737 176.009 132.737C175.509 132.737 175.009 132.737 174.509 132.737V120.537C175.009 120.537 175.509 120.537 176.009 120.537C176.209 120.537 176.409 120.537 176.509 120.537Z" fill="#A3A3A3"/>
<path d="M174.609 120.537V132.737C174.009 132.737 173.409 132.737 172.709 132.637V120.437C173.309 120.437 173.909 120.537 174.609 120.537Z" fill="#9E9E9E"/>
<path d="M172.709 120.437V132.637C172.109 132.537 171.509 132.537 170.809 132.437V120.237C171.509 120.337 172.109 120.337 172.709 120.437Z" fill="#999999"/>
<path d="M170.809 120.237V132.437C170.109 132.337 169.509 132.237 168.809 132.137V119.937C169.509 120.037 170.209 120.137 170.809 120.237Z" fill="#949494"/>
<path d="M168.909 119.837V132.037C168.109 131.837 167.409 131.737 166.609 131.437V119.237C167.309 119.537 168.109 119.737 168.909 119.837Z" fill="#8F8F8F"/>
<path d="M166.609 119.337V131.537C165.609 131.237 164.609 130.937 163.609 130.537V118.337C164.609 118.637 165.609 119.037 166.609 119.337Z" fill="#8A8A8A"/>
<path d="M163.609 118.337V130.537C162.009 129.937 160.409 129.137 158.909 128.237C155.809 126.437 152.009 124.037 147.509 121.137V108.937C152.009 111.837 155.809 114.237 158.909 116.037C160.409 116.937 161.909 117.637 163.609 118.337Z" fill="#858585"/>
<path d="M221.809 113.937V126.237L199.109 138.837V126.637L221.809 113.937Z" fill="#C5C5C5"/>
<path d="M221.809 113.937L199.109 126.637L188.909 132.937L180.609 128.137L190.809 122.737L213.309 109.137L221.809 113.937Z" fill="white"/>
<path d="M199.109 126.637V138.837L188.909 145.137V132.937L199.109 126.637Z" fill="#C4C4C4"/>
<path d="M188.909 132.937V145.137L180.609 140.337V128.137L188.909 132.937Z" fill="#898989"/>
<path d="M224.409 129.937V142.137L223.909 141.837V129.637L224.409 129.937Z" fill="#898989"/>
<path d="M223.909 129.637V141.837L215.109 146.937V134.637L223.909 129.637Z" fill="#C5C5C5"/>
<path d="M203.909 141.537V153.737L196.409 149.437V137.237L203.909 141.537Z" fill="#898989"/>
<path d="M215.109 134.637V146.937L203.909 153.737V141.537L215.109 134.637Z" fill="#C4C4C4"/>
<path d="M238.109 123.337L238.009 135.637L229.509 154.137L229.609 141.937L238.109 123.337Z" fill="#AAAAAA"/>
<path d="M257.909 134.637L257.809 146.837L234.909 159.637V147.437L257.909 134.637Z" fill="#C5C5C5"/>
<path d="M224.809 153.637V165.837L215.809 160.637L215.909 148.437L224.809 153.637Z" fill="#898989"/>
<path d="M234.909 147.437V159.637L224.809 165.837V153.637L234.909 147.437Z" fill="#C4C4C4"/>
<path d="M257.909 134.637L234.909 147.437L224.809 153.637L215.909 148.437L224.409 129.937L223.909 129.637L215.109 134.637L203.909 141.537L196.409 137.237L206.409 131.837L229.109 118.237L238.109 123.337L229.609 141.937L230.109 142.237L249.809 130.537L257.909 134.637Z" fill="white"/>
</g>
<defs>
<filter id="filter0_d" x="0.609375" y="0.837402" width="272.3" height="182" filterUnits="userSpaceOnUse" color-interpolation-filters="sRGB">
<feFlood flood-opacity="0" result="BackgroundImageFix"/>
<feColorMatrix in="SourceAlpha" type="matrix" values="0 0 0 0 0 0 0 0 0 0 0 0 0 0 0 0 0 0 127 0"/>
<feOffset dy="2"/>
<feGaussianBlur stdDeviation="7.5"/>
<feColorMatrix type="matrix" values="0 0 0 0 0.768627 0 0 0 0 0.768627 0 0 0 0 0.768627 0 0 0 0.5 0"/>
<feBlend mode="normal" in2="BackgroundImageFix" result="effect1_dropShadow"/>
<feBlend mode="normal" in="SourceGraphic" in2="effect1_dropShadow" result="shape"/>
</filter>
<clipPath id="clip0">
<rect width="242.3" height="152" fill="white" transform="translate(15.6094 13.8374)"/>
</clipPath>
</defs>
</svg>
