<svg width="30" height="23" xmlns="http://www.w3.org/2000/svg">
<g clip-path="url(#clip0)">
<path d="M28.9286 9.21509V13.8226C28.9286 11.6322 27.5714 9.40393 24.8214 7.74219C24.1786 7.36452 23.5357 7.02462 22.8214 6.72248V2.11493C23.5357 2.41706 24.2143 2.75697 24.8214 3.13463C27.5714 4.83414 28.9286 7.02462 28.9286 9.21509Z" fill="#141414"/>
<path d="M22.8214 2.1527V6.76025C22.2857 6.53365 21.7143 6.34482 21.1429 6.15598V1.54843C21.7143 1.6995 22.2857 1.9261 22.8214 2.1527Z" fill="#151515"/>
<path d="M21.1429 1.54841V6.15597C20.6786 6.0049 20.1786 5.8916 19.6786 5.7783V1.17075C20.1786 1.28405 20.6786 1.39735 21.1429 1.54841Z" fill="#161616"/>
<path d="M19.6786 1.17074V5.77829C19.2143 5.66499 18.75 5.58946 18.2857 5.51393V0.906372C18.7857 0.981906 19.2143 1.05744 19.6786 1.17074Z" fill="#171717"/>
<path d="M18.3214 0.906377V5.51393C17.8572 5.4384 17.4286 5.40063 16.9643 5.36286V0.75531C17.3929 0.793077 17.8572 0.830844 18.3214 0.906377Z" fill="#171717"/>
<path d="M16.9643 0.755313V5.36287C16.5 5.3251 16.0357 5.28733 15.5714 5.28733V0.679779C16.0357 0.679779 16.5 0.717546 16.9643 0.755313Z" fill="#181818"/>
<path d="M15.5715 0.679784V5.28734C15.1072 5.28734 14.6072 5.28734 14.1429 5.28734V0.679784C14.6072 0.642017 15.1072 0.642017 15.5715 0.679784Z" fill="#191919"/>
<path d="M14.1429 0.679779V5.28733C13.6071 5.28733 13.1071 5.3251 12.6071 5.40063V0.79308C13.1071 0.717546 13.6071 0.679779 14.1429 0.679779Z" fill="#1A1A1A"/>
<path d="M12.6072 0.793091V5.40064C12 5.47618 11.4286 5.55171 10.8214 5.66501V1.05746C11.3929 0.944158 12 0.830858 12.6072 0.793091Z" fill="#1B1B1B"/>
<path d="M10.8214 1.05746V5.66502C9.92859 5.85385 9.03573 6.08045 8.17859 6.34482V1.73727C9.03573 1.43513 9.89287 1.20853 10.8214 1.05746Z" fill="#1B1B1B"/>
<path d="M8.17858 1.73724V6.3448C7.07144 6.72247 6.07144 7.17567 5.14287 7.74217C5.07144 7.77994 5.03572 7.8177 4.96429 7.85547V3.24792C5.03572 3.21015 5.07144 3.17238 5.14287 3.13462C6.07144 2.56811 7.07144 2.11491 8.17858 1.73724Z" fill="#1C1C1C"/>
<path d="M4.96429 3.24792V7.85548C4.28572 8.27091 3.71429 8.76188 3.21429 9.21508V4.60753C3.71429 4.15433 4.28572 3.70113 4.96429 3.24792Z" fill="#1B1B1B"/>
<path d="M3.21429 4.64529V9.25285C2.89286 9.55498 2.60715 9.89488 2.35715 10.2348V5.62723C2.60715 5.28733 2.89286 4.94743 3.21429 4.64529Z" fill="#1B1B1B"/>
<path d="M2.35716 5.62723V10.2348C2.14288 10.5369 1.96431 10.8013 1.78574 11.1034V6.49587C1.92859 6.19373 2.14288 5.8916 2.35716 5.62723Z" fill="#1A1A1A"/>
<path d="M1.78573 6.49588V11.1034C1.64287 11.3678 1.50002 11.6699 1.42859 11.9343V7.32675C1.50002 7.06238 1.64287 6.76025 1.78573 6.49588Z" fill="#191919"/>
<path d="M1.39287 7.32675V11.9343C1.28573 12.1987 1.2143 12.5008 1.17859 12.7652V8.15762C1.25002 7.89325 1.32145 7.62889 1.39287 7.32675Z" fill="#181818"/>
<path d="M1.17858 8.15762V12.7652C1.10716 13.0673 1.07144 13.3694 1.07144 13.6338V9.02626C1.10716 8.72413 1.14287 8.45976 1.17858 8.15762Z" fill="#171717"/>
<path d="M25.6786 9.29065V13.8982C25.6786 14.1248 25.6429 14.3136 25.6071 14.5402V9.93269C25.6429 9.74385 25.6786 9.51725 25.6786 9.29065Z" fill="#171717"/>
<path d="M25.6072 9.97046V14.578C25.5714 14.8046 25.5 14.9934 25.4286 15.22V10.6125C25.5357 10.3859 25.5714 10.1593 25.6072 9.97046Z" fill="#181818"/>
<path d="M25.4286 10.5747V15.1823C25.3572 15.4089 25.25 15.5977 25.1429 15.8243V11.2167C25.2857 11.0279 25.3572 10.8013 25.4286 10.5747Z" fill="#191919"/>
<path d="M25.1429 11.2167V15.8243C25.0357 16.0509 24.8929 16.2775 24.7143 16.5041V11.8965C24.8929 11.7077 25.0357 11.4811 25.1429 11.2167Z" fill="#1A1A1A"/>
<path d="M24.7143 11.8965V16.5041C24.5357 16.7685 24.2857 17.0328 24.0357 17.2594V12.6519C24.3214 12.4253 24.5357 12.1609 24.7143 11.8965Z" fill="#1B1B1B"/>
<path d="M24.0714 12.6519V17.2594C23.6786 17.6371 23.25 17.977 22.7143 18.3169V13.7094C23.2143 13.4072 23.6786 13.0296 24.0714 12.6519Z" fill="#1B1B1B"/>
<path d="M22.7143 13.7471V18.3547C22.6786 18.3924 22.6429 18.3925 22.5714 18.4302C21.8572 18.8834 21.0714 19.2233 20.2143 19.5255V14.9179C21.0714 14.6158 21.8572 14.2759 22.5714 13.8227C22.6072 13.7849 22.6786 13.7471 22.7143 13.7471Z" fill="#1C1C1C"/>
<path d="M20.2143 14.9179V19.5255C19.5714 19.7521 18.8928 19.9409 18.1786 20.0542V15.4466C18.8928 15.2956 19.5714 15.1067 20.2143 14.9179Z" fill="#1B1B1B"/>
<path d="M18.2143 15.4466V20.0542C17.75 20.1297 17.3214 20.2052 16.8571 20.243V15.6355C17.2857 15.5977 17.75 15.5222 18.2143 15.4466Z" fill="#1B1B1B"/>
<path d="M16.8214 15.6355V20.243C16.4286 20.2808 16.0357 20.3186 15.6429 20.3186V15.711C16.0357 15.711 16.4286 15.6732 16.8214 15.6355Z" fill="#1A1A1A"/>
<path d="M15.6428 15.711V20.3186C15.2857 20.3186 14.9286 20.3186 14.5357 20.3186V15.711C14.9286 15.7488 15.2857 15.7488 15.6428 15.711Z" fill="#191919"/>
<path d="M14.5357 15.711V20.3186C14.1786 20.3186 13.8214 20.2808 13.4643 20.243V15.6355C13.8572 15.711 14.2143 15.711 14.5357 15.711Z" fill="#181818"/>
<path d="M13.5 15.6732V20.2808C13.1429 20.243 12.7857 20.2053 12.4643 20.1675V15.5599C12.7857 15.5977 13.1429 15.6355 13.5 15.6732Z" fill="#171717"/>
<path d="M12.4643 15.5599V20.1675C12.1071 20.1297 11.75 20.0542 11.3929 19.9786V15.3711C11.75 15.4089 12.1071 15.4844 12.4643 15.5599Z" fill="#171717"/>
<path d="M11.3928 15.3333V19.9409C11 19.8653 10.6428 19.752 10.2857 19.6387V15.0312C10.6428 15.1823 11 15.2578 11.3928 15.3333Z" fill="#161616"/>
<path d="M10.2857 15.069V19.6765C9.82143 19.5254 9.39286 19.3744 9 19.2233V14.6158C9.39286 14.7668 9.82143 14.9179 10.2857 15.069Z" fill="#151515"/>
<path d="M8.96429 14.578V19.1856C8.42857 18.9589 7.89286 18.6946 7.42857 18.3924C5.32143 17.1084 4.25 15.4089 4.25 13.7094V9.10181C4.25 10.8013 5.28571 12.5008 7.42857 13.7849C7.89286 14.1248 8.42857 14.3514 8.96429 14.578Z" fill="#141414"/>
<path d="M30 9.36615V13.9737C30 14.2758 29.9643 14.578 29.8929 14.8801V10.2726C29.9643 9.97042 30 9.66828 30 9.36615Z" fill="#171717"/>
<path d="M29.9286 10.2726V14.8801C29.8572 15.1822 29.7857 15.4844 29.6786 15.7865V11.179C29.7857 10.8768 29.8572 10.5747 29.9286 10.2726Z" fill="#181818"/>
<path d="M29.6786 11.179V15.7865C29.5714 16.0886 29.4286 16.3908 29.2857 16.6929V12.0854C29.4286 11.7832 29.5714 11.4811 29.6786 11.179Z" fill="#191919"/>
<path d="M29.2857 12.0854V16.6929C29.1072 17.0328 28.9286 17.3349 28.6786 17.6371V13.0295C28.8929 12.7274 29.1072 12.3875 29.2857 12.0854Z" fill="#1A1A1A"/>
<path d="M28.6786 13.0295V17.6371C28.3929 18.0148 28.1071 18.3547 27.75 18.6946V14.087C28.0714 13.7471 28.3929 13.3694 28.6786 13.0295Z" fill="#1B1B1B"/>
<path d="M27.75 14.087V18.6946C27.2143 19.2233 26.5714 19.7143 25.8571 20.1675V15.5599C26.5714 15.1067 27.2143 14.6157 27.75 14.087Z" fill="#1B1B1B"/>
<path d="M25.8214 15.5599V20.1675C25.75 20.2052 25.7143 20.243 25.6429 20.2808C24.6429 20.885 23.5357 21.4138 22.3571 21.7914V17.1839C23.5357 16.7684 24.6429 16.2775 25.6429 15.6732C25.7143 15.6354 25.7857 15.5977 25.8214 15.5599Z" fill="#1C1C1C"/>
<path d="M22.3571 17.2216V21.8292C21.4643 22.1313 20.5 22.3957 19.5 22.5845V17.977C20.5 17.7882 21.4643 17.5238 22.3571 17.2216Z" fill="#1B1B1B"/>
<path d="M19.5357 17.977V22.5845C18.8929 22.6978 18.25 22.8111 17.6071 22.8489V18.2414C18.25 18.1658 18.8929 18.0903 19.5357 17.977Z" fill="#1B1B1B"/>
<path d="M17.6072 18.2414V22.8489C17.0714 22.9245 16.5 22.9622 15.9286 22.9622V18.3547C16.5 18.3547 17.0714 18.3169 17.6072 18.2414Z" fill="#1A1A1A"/>
<path d="M15.9643 18.3547V22.9622C15.4643 22.9622 14.9286 23 14.4286 22.9622V18.3547C14.9286 18.3924 15.4286 18.3924 15.9643 18.3547Z" fill="#191919"/>
<path d="M14.4285 18.3547V22.9622C13.9285 22.9622 13.4285 22.9245 12.9643 22.8867V18.2791C13.4285 18.3169 13.9285 18.3547 14.4285 18.3547Z" fill="#181818"/>
<path d="M12.9286 18.2791V22.8867C12.4286 22.8489 11.9643 22.7734 11.4643 22.6979V18.0903C11.9643 18.1658 12.4643 18.2414 12.9286 18.2791Z" fill="#171717"/>
<path d="M11.4643 18.128V22.7356C10.9643 22.6601 10.4643 22.5845 9.96429 22.4712V17.8637C10.4643 17.9392 10.9643 18.0525 11.4643 18.128Z" fill="#171717"/>
<path d="M10 17.8259V22.4335C9.4643 22.3202 8.9643 22.1691 8.42859 22.018V17.4105C8.92859 17.5993 9.4643 17.7126 10 17.8259Z" fill="#161616"/>
<path d="M8.42858 17.4483V22.0558C7.78572 21.867 7.17858 21.6404 6.60715 21.4138V16.8062C7.17858 17.0328 7.78572 17.2594 8.42858 17.4483Z" fill="#151515"/>
<path d="M6.60714 16.7685V21.376C5.85714 21.0739 5.10714 20.6962 4.42857 20.2808C1.46429 18.5057 0 16.1264 0 13.7471V9.13956C0 11.5189 1.46429 13.8604 4.42857 15.6732C5.10714 16.0887 5.85714 16.4663 6.60714 16.7685Z" fill="#141414"/>
<path d="M25.5709 2.68195C31.4637 6.26979 31.4637 12.0859 25.6423 15.6737C19.7852 19.2616 10.3209 19.2616 4.42803 15.6737C-1.42912 12.0859 -1.46483 6.26979 4.3566 2.68195C10.2137 -0.905904 19.7137 -0.905904 25.5709 2.68195ZM5.17803 15.2205C10.6423 18.544 19.4637 18.544 24.8923 15.2205C30.3209 11.8971 30.2852 6.4964 24.8209 3.17291C19.3566 -0.150568 10.5352 -0.150568 5.14231 3.17291C-0.286259 6.4964 -0.250544 11.8971 5.17803 15.2205Z" fill="#5E5D5D"/>
<path d="M22.5357 4.532C26.75 7.10015 26.75 11.2545 22.5714 13.8226C18.3928 16.3908 11.6071 16.3908 7.42856 13.8226C3.21427 11.2545 3.21427 7.10015 7.39285 4.532C11.5357 1.96386 18.3214 1.96386 22.5357 4.532Z" fill="#5E5D5D"/>
</g>
<defs>
<clipPath id="clip0">
<rect width="30" height="23" fill="white"/>
</clipPath>
</defs>
</svg>
