<svg width="30" height="23" xmlns="http://www.w3.org/2000/svg">
<g clip-path="url(#clip0)">
<path d="M28.9286 9.21509V13.8226C28.9286 11.6322 27.5715 9.40393 24.8215 7.74219C24.1786 7.36452 23.5358 7.02462 22.8215 6.72248V2.11493C23.5358 2.41706 24.2143 2.75697 24.8215 3.13463C27.5715 4.83414 28.9286 7.02462 28.9286 9.21509Z" fill="#858585"/>
<path d="M22.8215 2.1527V6.76025C22.2857 6.53365 21.7143 6.34482 21.1429 6.15598V1.54843C21.7143 1.6995 22.2857 1.9261 22.8215 2.1527Z" fill="#8A8A8A"/>
<path d="M21.1428 1.54843V6.15598C20.6786 6.00492 20.1786 5.89162 19.6786 5.77832V1.17076C20.1786 1.28406 20.6786 1.39736 21.1428 1.54843Z" fill="#8F8F8F"/>
<path d="M19.6786 1.17076V5.77831C19.2143 5.66501 18.75 5.58947 18.2857 5.51394V0.906387C18.7857 0.981921 19.2143 1.05745 19.6786 1.17076Z" fill="#949494"/>
<path d="M18.2858 0.906393V5.51395C17.8215 5.43841 17.3929 5.40065 16.9286 5.36288V0.755325C17.3929 0.793092 17.8572 0.830859 18.2858 0.906393Z" fill="#999999"/>
<path d="M16.9286 0.755343V5.3629C16.4643 5.32513 16 5.28736 15.5357 5.28736V0.67981C16.0357 0.67981 16.5 0.717576 16.9286 0.755343Z" fill="#9E9E9E"/>
<path d="M15.5714 0.679799V5.28735C15.1071 5.28735 14.6071 5.28735 14.1428 5.28735V0.679799C14.6071 0.642032 15.1071 0.642032 15.5714 0.679799Z" fill="#A3A3A3"/>
<path d="M14.1429 0.67981V5.28736C13.6071 5.28736 13.1071 5.32513 12.6071 5.40066V0.79311C13.1071 0.717576 13.6071 0.67981 14.1429 0.67981Z" fill="#A8A8A8"/>
<path d="M12.6071 0.793091V5.40064C12 5.47618 11.4286 5.55171 10.8214 5.66501V1.05746C11.3928 0.944158 12 0.830858 12.6071 0.793091Z" fill="#ADADAD"/>
<path d="M10.8215 1.05748V5.66503C9.92862 5.85387 9.03576 6.08047 8.17862 6.34483V1.73728C9.03576 1.43515 9.89291 1.20855 10.8215 1.05748Z" fill="#B3B3B3"/>
<path d="M8.17861 1.73727V6.34483C7.07147 6.72249 6.07147 7.1757 5.1429 7.7422C5.07147 7.77997 5.03575 7.81773 4.96432 7.8555V3.24795C5.03575 3.21018 5.07147 3.17241 5.1429 3.13465C6.07147 2.56814 7.07147 2.11494 8.17861 1.73727Z" fill="#B8B8B8"/>
<path d="M4.96429 3.24794V7.85549C4.28572 8.27093 3.71429 8.7619 3.21429 9.2151V4.60755C3.71429 4.15434 4.28572 3.70114 4.96429 3.24794Z" fill="#B3B3B3"/>
<path d="M3.21426 4.64532V9.25288C2.89283 9.55501 2.60712 9.89491 2.35712 10.2348V5.62726C2.60712 5.28736 2.89283 4.94746 3.21426 4.64532Z" fill="#ADADAD"/>
<path d="M2.35716 5.62724V10.2348C2.14288 10.5369 1.96431 10.8013 1.78574 11.1034V6.49588C1.92859 6.19375 2.14288 5.89161 2.35716 5.62724Z" fill="#A8A8A8"/>
<path d="M1.78573 6.4959V11.1035C1.64287 11.3678 1.50002 11.67 1.42859 11.9343V7.32677C1.50002 7.0624 1.64287 6.76026 1.78573 6.4959Z" fill="#A3A3A3"/>
<path d="M1.39287 7.32675V11.9343C1.28573 12.1987 1.2143 12.5008 1.17859 12.7652V8.15762C1.25002 7.89325 1.32145 7.62889 1.39287 7.32675Z" fill="#9E9E9E"/>
<path d="M1.17858 8.15762V12.7652C1.10716 13.0673 1.07144 13.3694 1.07144 13.6338V9.02626C1.10716 8.72413 1.14287 8.45976 1.17858 8.15762Z" fill="#999999"/>
<path d="M30 9.36618V13.9737C30 14.2759 29.9643 14.578 29.8929 14.8801V10.2726C29.9643 9.97045 30 9.66832 30 9.36618Z" fill="#999999"/>
<path d="M29.9286 10.2726V14.8801C29.8571 15.1823 29.7857 15.4844 29.6786 15.7865V11.179C29.7857 10.8769 29.8571 10.5747 29.9286 10.2726Z" fill="#9E9E9E"/>
<path d="M29.6786 11.179V15.7865C29.5714 16.0887 29.4286 16.3908 29.2857 16.6929V12.0854C29.4286 11.7832 29.5714 11.4811 29.6786 11.179Z" fill="#A3A3A3"/>
<path d="M29.2857 12.0854V16.6929C29.1071 17.0328 28.9286 17.335 28.6786 17.6371V13.0295C28.8928 12.7274 29.1071 12.3875 29.2857 12.0854Z" fill="#A8A8A8"/>
<path d="M28.6786 13.0295V17.6371C28.3929 18.0148 28.1071 18.3547 27.75 18.6946V14.087C28.0714 13.7471 28.3929 13.3694 28.6786 13.0295Z" fill="#ADADAD"/>
<path d="M27.75 14.087V18.6946C27.2143 19.2233 26.5715 19.7143 25.8572 20.1675V15.5599C26.5715 15.1067 27.2143 14.6158 27.75 14.087Z" fill="#B3B3B3"/>
<path d="M25.8214 15.5599V20.1675C25.75 20.2053 25.7143 20.243 25.6428 20.2808C24.6428 20.8851 23.5357 21.4138 22.3571 21.7915V17.1839C23.5357 16.7685 24.6428 16.2775 25.6428 15.6732C25.7143 15.6355 25.7857 15.5977 25.8214 15.5599Z" fill="#B8B8B8"/>
<path d="M22.3571 17.2217V21.8292C21.4643 22.1314 20.5 22.3957 19.5 22.5846V17.977C20.5 17.7882 21.4643 17.5238 22.3571 17.2217Z" fill="#B3B3B3"/>
<path d="M19.5357 17.977V22.5846C18.8928 22.6979 18.25 22.8112 17.6071 22.8489V18.2414C18.25 18.1658 18.8928 18.0903 19.5357 17.977Z" fill="#ADADAD"/>
<path d="M17.6071 18.2414V22.8489C17.0714 22.9245 16.5 22.9622 15.9285 22.9622V18.3547C16.5 18.3547 17.0714 18.3169 17.6071 18.2414Z" fill="#A8A8A8"/>
<path d="M15.9643 18.3547V22.9622C15.4643 22.9622 14.9286 23 14.4286 22.9622V18.3547C14.9286 18.3924 15.4286 18.3924 15.9643 18.3547Z" fill="#A3A3A3"/>
<path d="M14.4285 18.3547V22.9622C13.9286 22.9622 13.4285 22.9245 12.9643 22.8867V18.2792C13.4285 18.3169 13.9286 18.3547 14.4285 18.3547Z" fill="#9E9E9E"/>
<path d="M12.9285 18.2792V22.8867C12.4285 22.8489 11.9643 22.7734 11.4643 22.6979V18.0903C11.9643 18.1659 12.4285 18.2414 12.9285 18.2792Z" fill="#999999"/>
<path d="M11.4643 18.1281V22.7356C10.9643 22.6601 10.4643 22.5846 9.96429 22.4713V17.8637C10.4643 17.9393 10.9643 18.0526 11.4643 18.1281Z" fill="#949494"/>
<path d="M9.99996 17.8259V22.4335C9.46424 22.3202 8.96424 22.1691 8.42853 22.018V17.4105C8.92853 17.5993 9.46424 17.7126 9.99996 17.8259Z" fill="#8F8F8F"/>
<path d="M8.42858 17.4483V22.0558C7.78572 21.867 7.17858 21.6404 6.60715 21.4138V16.8062C7.17858 17.0328 7.78572 17.2594 8.42858 17.4483Z" fill="#8A8A8A"/>
<path d="M6.60714 16.7685V21.376C5.85714 21.0739 5.10714 20.6962 4.42857 20.2808C1.46429 18.5057 0 16.1264 0 13.7471V9.13957C0 11.5189 1.46429 13.8604 4.42857 15.6732C5.10714 16.0887 5.85714 16.4663 6.60714 16.7685Z" fill="#858585"/>
<path d="M25.5714 2.68144C31.4643 6.26929 31.4643 12.0854 25.6428 15.6732C19.7857 19.2611 10.3214 19.2611 4.42855 15.6732C-1.4286 12.0854 -1.46431 6.26929 4.35712 2.68144C10.2143 -0.906407 19.7143 -0.906407 25.5714 2.68144ZM5.17855 15.22C10.6428 18.5435 19.4643 18.5435 24.8928 15.22C30.3214 11.8965 30.2857 6.49589 24.8214 3.17241C19.3571 -0.151071 10.5357 -0.151071 5.10712 3.17241C-0.28574 6.49589 -0.250026 11.8965 5.17855 15.22Z" fill="white"/>
</g>
<defs>
<clipPath id="clip0">
<rect width="30" height="23" fill="white"/>
</clipPath>
</defs>
</svg>
