<svg width="50" height="37" xmlns="http://www.w3.org/2000/svg">
<g clip-path="url(#clip0)">
<path d="M48.2142 14.8242V22.2364C48.2142 18.7126 45.9523 15.128 41.369 12.4548C40.2975 11.8472 39.2261 11.3004 38.0356 10.8144V3.40222C39.2261 3.88826 40.3571 4.43506 41.369 5.04262C45.9523 7.77661 48.2142 11.3004 48.2142 14.8242Z" fill="#141414"/>
<path d="M38.0354 3.46305V10.8752C37.1426 10.5107 36.1902 10.2069 35.2378 9.90312V2.49097C36.1902 2.73399 37.1426 3.09852 38.0354 3.46305Z" fill="#151515"/>
<path d="M35.2378 2.49085V9.903C34.464 9.65998 33.6307 9.47772 32.7974 9.29545V1.8833C33.6307 2.06557 34.464 2.24783 35.2378 2.49085Z" fill="#161616"/>
<path d="M32.7975 1.88342V9.29557C32.0237 9.1133 31.2499 8.99179 30.4761 8.87028V1.45813C31.3094 1.57964 32.0237 1.70115 32.7975 1.88342Z" fill="#171717"/>
<path d="M30.5358 1.45811V8.87026C29.762 8.74875 29.0477 8.68799 28.2739 8.62724V1.21509C28.9882 1.27584 29.762 1.3366 30.5358 1.45811Z" fill="#171717"/>
<path d="M28.2736 1.21502V8.62717C27.4998 8.56641 26.726 8.50566 25.9521 8.50566V1.09351C26.726 1.09351 27.4998 1.15426 28.2736 1.21502Z" fill="#181818"/>
<path d="M25.9522 1.09354V8.50569C25.1784 8.50569 24.3451 8.50569 23.5713 8.50569V1.09354C24.3451 1.03278 25.1784 1.03278 25.9522 1.09354Z" fill="#191919"/>
<path d="M23.5712 1.09351V8.50566C22.6784 8.50566 21.8451 8.56641 21.0117 8.68792V1.27577C21.8451 1.15426 22.6784 1.09351 23.5712 1.09351Z" fill="#1A1A1A"/>
<path d="M21.0118 1.27576V8.68791C19.9999 8.80942 19.0475 8.93093 18.0356 9.1132V1.70104C18.988 1.51878 19.9999 1.33651 21.0118 1.27576Z" fill="#1B1B1B"/>
<path d="M18.0356 1.70105V9.1132C16.5475 9.41698 15.0594 9.78151 13.6309 10.2068V2.79465C15.0594 2.3086 16.488 1.94407 18.0356 1.70105Z" fill="#1B1B1B"/>
<path d="M13.6311 2.79468V10.2068C11.7858 10.8144 10.1192 11.5434 8.57154 12.4548C8.4525 12.5155 8.39297 12.5763 8.27393 12.637V5.22489C8.39297 5.16414 8.4525 5.10338 8.57154 5.04263C10.1192 4.1313 11.7858 3.40223 13.6311 2.79468Z" fill="#1C1C1C"/>
<path d="M8.2736 5.22485V12.637C7.14265 13.3053 6.19027 14.0951 5.35693 14.8242V7.41205C6.19027 6.68298 7.14265 5.95392 8.2736 5.22485Z" fill="#1B1B1B"/>
<path d="M5.35728 7.4729V14.8851C4.82157 15.3711 4.34538 15.9179 3.92871 16.4647V9.05254C4.34538 8.50574 4.82157 7.95894 5.35728 7.4729Z" fill="#1B1B1B"/>
<path d="M3.92846 9.05249V16.4646C3.57131 16.9507 3.27369 17.376 2.97607 17.862V10.4499C3.21417 9.96382 3.57131 9.47778 3.92846 9.05249Z" fill="#1A1A1A"/>
<path d="M2.9761 10.4498V17.862C2.738 18.2873 2.49991 18.7733 2.38086 19.1986V11.7864C2.49991 11.3612 2.738 10.8751 2.9761 10.4498Z" fill="#191919"/>
<path d="M2.3215 11.7865V19.1987C2.14293 19.6239 2.02388 20.11 1.96436 20.5353V13.1231C2.0834 12.6978 2.20245 12.2725 2.3215 11.7865Z" fill="#181818"/>
<path d="M1.96422 13.123V20.5352C1.84517 21.0212 1.78564 21.5073 1.78564 21.9326V14.5204C1.84517 14.0344 1.90469 13.6091 1.96422 13.123Z" fill="#171717"/>
<path d="M42.7978 14.9458V22.358C42.7978 22.7225 42.7382 23.0263 42.6787 23.3908V15.9786C42.7382 15.6749 42.7978 15.3103 42.7978 14.9458Z" fill="#171717"/>
<path d="M42.679 16.0393V23.4515C42.6194 23.816 42.5004 24.1198 42.3813 24.4843V17.0721C42.5599 16.7076 42.6194 16.3431 42.679 16.0393Z" fill="#181818"/>
<path d="M42.381 17.0115V24.4236C42.2619 24.7882 42.0834 25.0919 41.9048 25.4565V18.0443C42.1429 17.7405 42.2619 17.376 42.381 17.0115Z" fill="#191919"/>
<path d="M41.9047 18.0443V25.4565C41.7261 25.821 41.488 26.1855 41.1904 26.5501V19.1379C41.488 18.8341 41.7261 18.4696 41.9047 18.0443Z" fill="#1A1A1A"/>
<path d="M41.1905 19.1378V26.55C40.8929 26.9753 40.4762 27.4005 40.0596 27.7651V20.3529C40.5358 19.9884 40.8929 19.5631 41.1905 19.1378Z" fill="#1B1B1B"/>
<path d="M40.1193 20.353V27.7652C39.4646 28.3727 38.7503 28.9195 37.8574 29.4663V22.0542C38.6908 21.5681 39.4646 20.9606 40.1193 20.353Z" fill="#1B1B1B"/>
<path d="M37.8571 22.1149V29.527C37.7976 29.5878 37.738 29.5878 37.619 29.6485C36.4285 30.3776 35.119 30.9244 33.6904 31.4104V23.9983C35.119 23.5122 36.4285 22.9654 37.619 22.2364C37.6785 22.1756 37.7976 22.1149 37.8571 22.1149Z" fill="#1C1C1C"/>
<path d="M33.6907 23.9983V31.4104C32.6193 31.775 31.4883 32.0787 30.2979 32.261V24.8489C31.4883 24.6058 32.6193 24.3021 33.6907 23.9983Z" fill="#1B1B1B"/>
<path d="M30.3571 24.8489V32.261C29.5833 32.3825 28.869 32.504 28.0952 32.5648V25.1527C28.8095 25.0919 29.5833 24.9704 30.3571 24.8489Z" fill="#1B1B1B"/>
<path d="M28.0361 25.1526V32.5647C27.3813 32.6255 26.7265 32.6862 26.0718 32.6862V25.2741C26.7265 25.2741 27.3813 25.2133 28.0361 25.1526Z" fill="#1A1A1A"/>
<path d="M26.0718 25.2742V32.6863C25.4766 32.6863 24.8813 32.6863 24.2266 32.6863V25.2742C24.8813 25.3349 25.4766 25.3349 26.0718 25.2742Z" fill="#191919"/>
<path d="M24.2261 25.2741V32.6862C23.6309 32.6862 23.0357 32.6255 22.4404 32.5647V25.1526C23.0952 25.2741 23.6904 25.2741 24.2261 25.2741Z" fill="#181818"/>
<path d="M22.5001 25.2134V32.6255C21.9049 32.5648 21.3096 32.504 20.7739 32.4433V25.0311C21.3096 25.0919 21.9049 25.1526 22.5001 25.2134Z" fill="#171717"/>
<path d="M20.774 25.0311V32.4432C20.1788 32.3825 19.5835 32.261 18.9883 32.1394V24.7273C19.5835 24.7881 20.1788 24.9096 20.774 25.0311Z" fill="#171717"/>
<path d="M18.9883 24.6666V32.0787C18.3335 31.9572 17.7383 31.775 17.1431 31.5927V24.1805C17.7383 24.4236 18.3335 24.5451 18.9883 24.6666Z" fill="#161616"/>
<path d="M17.1429 24.2413V31.6534C16.369 31.4104 15.6548 31.1674 15 30.9244V23.5122C15.6548 23.7552 16.369 23.9982 17.1429 24.2413Z" fill="#151515"/>
<path d="M14.9406 23.4515V30.8636C14.0478 30.4991 13.1549 30.0738 12.3811 29.5878C8.86921 27.5221 7.0835 24.7881 7.0835 22.0541V14.642C7.0835 17.376 8.80969 20.1099 12.3811 22.1756C13.1549 22.7224 14.0478 23.087 14.9406 23.4515Z" fill="#141414"/>
<path d="M49.9999 15.0673V22.4794C49.9999 22.9655 49.9403 23.4515 49.8213 23.9375V16.5254C49.9403 16.0393 49.9999 15.5533 49.9999 15.0673Z" fill="#171717"/>
<path d="M49.881 16.5254V23.9375C49.762 24.4236 49.6429 24.9096 49.4644 25.3957V17.9835C49.6429 17.4975 49.762 17.0114 49.881 16.5254Z" fill="#181818"/>
<path d="M49.4643 17.9835V25.3957C49.2858 25.8817 49.0477 26.3678 48.8096 26.8538V19.4416C49.0477 18.9556 49.2858 18.4696 49.4643 17.9835Z" fill="#191919"/>
<path d="M48.8098 19.4417V26.8538C48.5121 27.4006 48.2145 27.8866 47.7979 28.3727V20.9605C48.155 20.4745 48.5121 19.9277 48.8098 19.4417Z" fill="#1A1A1A"/>
<path d="M47.7976 20.9606V28.3727C47.3214 28.9803 46.8452 29.5271 46.25 30.0739V22.6617C46.7857 22.1149 47.3214 21.5074 47.7976 20.9606Z" fill="#1B1B1B"/>
<path d="M46.25 22.6617V30.0739C45.3571 30.9245 44.2857 31.7143 43.0952 32.4434V25.0312C44.2857 24.3021 45.3571 23.5123 46.25 22.6617Z" fill="#1B1B1B"/>
<path d="M43.0355 25.0311V32.4433C42.9165 32.504 42.857 32.5648 42.7379 32.6255C41.0712 33.5976 39.226 34.4482 37.2617 35.0558V27.6436C39.226 26.9753 41.0712 26.1855 42.7379 25.2134C42.857 25.1526 42.976 25.0919 43.0355 25.0311Z" fill="#1C1C1C"/>
<path d="M37.2619 27.7043V35.1165C35.7738 35.6025 34.1667 36.0278 32.5 36.3316V28.9195C34.1667 28.6157 35.7738 28.1904 37.2619 27.7043Z" fill="#1B1B1B"/>
<path d="M32.5595 28.9196V36.3317C31.4881 36.514 30.4166 36.6962 29.3452 36.757V29.3448C30.4166 29.2233 31.4881 29.1018 32.5595 28.9196Z" fill="#1B1B1B"/>
<path d="M29.3455 29.3448V36.757C28.4526 36.8785 27.5002 36.9393 26.5479 36.9393V29.5271C27.5002 29.5271 28.4526 29.4664 29.3455 29.3448Z" fill="#1A1A1A"/>
<path d="M26.6074 29.5271V36.9393C25.774 36.9393 24.8812 37 24.0479 36.9393V29.5271C24.8812 29.5879 25.7145 29.5879 26.6074 29.5271Z" fill="#191919"/>
<path d="M24.0474 29.527V36.9392C23.2141 36.9392 22.3807 36.8784 21.6069 36.8177V29.4055C22.3807 29.4663 23.2141 29.527 24.0474 29.527Z" fill="#181818"/>
<path d="M21.5474 29.4056V36.8177C20.7141 36.757 19.9403 36.6355 19.1069 36.514V29.1018C19.9403 29.2233 20.7736 29.3448 21.5474 29.4056Z" fill="#171717"/>
<path d="M19.1069 29.1625V36.5746C18.2736 36.4531 17.4403 36.3316 16.6069 36.1493V28.7372C17.4403 28.8587 18.2736 29.041 19.1069 29.1625Z" fill="#171717"/>
<path d="M16.6669 28.6765V36.0886C15.774 35.9064 14.9407 35.6633 14.0479 35.4203V28.0082C14.8812 28.312 15.774 28.4942 16.6669 28.6765Z" fill="#161616"/>
<path d="M14.0474 28.069V35.4811C12.976 35.1773 11.9641 34.8128 11.0117 34.4483V27.0361C11.9641 27.4007 12.976 27.7652 14.0474 28.069Z" fill="#151515"/>
<path d="M11.0119 26.9753V34.3875C9.7619 33.9014 8.5119 33.2939 7.38095 32.6256C2.44048 29.7701 0 25.9425 0 22.1149V14.7028C0 18.5303 2.44048 22.2972 7.38095 25.2134C8.5119 25.8817 9.7619 26.4893 11.0119 26.9753Z" fill="#141414"/>
<path d="M42.6184 4.31441C52.4398 10.0862 52.4398 19.4425 42.7374 25.2143C32.9755 30.986 17.2017 30.986 7.38027 25.2143C-2.38164 19.4425 -2.44116 10.0862 7.26122 4.31441C17.0231 -1.45734 32.8565 -1.45734 42.6184 4.31441ZM8.63027 24.4852C17.7374 29.8317 32.4398 29.8317 41.4874 24.4852C50.535 19.1387 50.4755 10.4507 41.3684 5.10423C32.2612 -0.242238 17.5588 -0.242238 8.57075 5.10423C-0.476874 10.4507 -0.41735 19.1387 8.63027 24.4852Z" fill="#5E5D5D"/>
<path d="M37.5594 7.29066C44.5832 11.422 44.5832 18.1051 37.6189 22.2365C30.6546 26.3678 19.3451 26.3678 12.3808 22.2365C5.35698 18.1051 5.35698 11.422 12.3213 7.29066C19.226 3.1593 30.5355 3.1593 37.5594 7.29066Z" fill="#5E5D5D"/>
</g>
<defs>
<clipPath id="clip0">
<rect width="50" height="37" fill="white"/>
</clipPath>
</defs>
</svg>
