<svg width="50" height="37" xmlns="http://www.w3.org/2000/svg">
<g clip-path="url(#clip0)">
<path d="M48.2142 14.8243V22.2365C48.2142 18.7127 45.9523 15.1281 41.369 12.4549C40.2975 11.8473 39.2261 11.3005 38.0356 10.8145V3.40234C39.2261 3.88839 40.3571 4.43518 41.369 5.04274C45.9523 7.77673 48.2142 11.3005 48.2142 14.8243Z" fill="#858585"/>
<path d="M38.0359 3.46305V10.8752C37.143 10.5107 36.1907 10.2069 35.2383 9.90312V2.49097C36.1907 2.73399 37.143 3.09852 38.0359 3.46305Z" fill="#8A8A8A"/>
<path d="M35.2378 2.4911V9.90325C34.464 9.66023 33.6307 9.47796 32.7974 9.2957V1.88354C33.6307 2.06581 34.464 2.24808 35.2378 2.4911Z" fill="#8F8F8F"/>
<path d="M32.7975 1.88354V9.29569C32.0237 9.11342 31.2499 8.99191 30.4761 8.8704V1.45825C31.3094 1.57976 32.0237 1.70127 32.7975 1.88354Z" fill="#949494"/>
<path d="M30.4763 1.45811V8.87026C29.7024 8.74875 28.9882 8.68799 28.2144 8.62724V1.21509C28.9882 1.27584 29.762 1.3366 30.4763 1.45811Z" fill="#999999"/>
<path d="M28.214 1.21526V8.62741C27.4402 8.56666 26.6664 8.5059 25.8926 8.5059V1.09375C26.7259 1.09375 27.4997 1.15451 28.214 1.21526Z" fill="#9E9E9E"/>
<path d="M25.9522 1.09366V8.50581C25.1784 8.50581 24.3451 8.50581 23.5713 8.50581V1.09366C24.3451 1.03291 25.1784 1.03291 25.9522 1.09366Z" fill="#A3A3A3"/>
<path d="M23.5712 1.09375V8.5059C22.6784 8.5059 21.8451 8.56666 21.0117 8.68817V1.27602C21.8451 1.15451 22.6784 1.09375 23.5712 1.09375Z" fill="#A8A8A8"/>
<path d="M21.0118 1.27588V8.68803C19.9999 8.80954 19.0475 8.93105 18.0356 9.11332V1.70117C18.988 1.5189 19.9999 1.33663 21.0118 1.27588Z" fill="#ADADAD"/>
<path d="M18.0356 1.70117V9.11332C16.5475 9.4171 15.0594 9.78163 13.6309 10.2069V2.79477C15.0594 2.30873 16.488 1.94419 18.0356 1.70117Z" fill="#B3B3B3"/>
<path d="M13.6311 2.79492V10.2071C11.7858 10.8146 10.1192 11.5437 8.57154 12.455C8.4525 12.5158 8.39297 12.5765 8.27393 12.6373V5.22514C8.39297 5.16438 8.4525 5.10362 8.57154 5.04287C10.1192 4.13154 11.7858 3.40248 13.6311 2.79492Z" fill="#B8B8B8"/>
<path d="M8.2736 5.2251V12.6372C7.14265 13.3056 6.19027 14.0954 5.35693 14.8244V7.41229C6.19027 6.68323 7.14265 5.95416 8.2736 5.2251Z" fill="#B3B3B3"/>
<path d="M5.35679 7.4729V14.8851C4.82108 15.3711 4.34489 15.9179 3.92822 16.4647V9.05254C4.34489 8.50574 4.82108 7.95894 5.35679 7.4729Z" fill="#ADADAD"/>
<path d="M3.92846 9.05249V16.4646C3.57131 16.9507 3.27369 17.376 2.97607 17.862V10.4499C3.21417 9.96382 3.57131 9.47778 3.92846 9.05249Z" fill="#A8A8A8"/>
<path d="M2.9761 10.45V17.8621C2.738 18.2874 2.49991 18.7734 2.38086 19.1987V11.7866C2.49991 11.3613 2.738 10.8752 2.9761 10.45Z" fill="#A3A3A3"/>
<path d="M2.3215 11.7866V19.1988C2.14293 19.6241 2.02388 20.1101 1.96436 20.5354V13.1232C2.0834 12.698 2.20245 12.2727 2.3215 11.7866Z" fill="#9E9E9E"/>
<path d="M1.96422 13.1233V20.5354C1.84517 21.0215 1.78564 21.5075 1.78564 21.9328V14.5207C1.84517 14.0346 1.90469 13.6093 1.96422 13.1233Z" fill="#999999"/>
<path d="M49.9999 15.0674V22.4795C49.9999 22.9656 49.9403 23.4516 49.8213 23.9377V16.5255C49.9403 16.0395 49.9999 15.5534 49.9999 15.0674Z" fill="#999999"/>
<path d="M49.881 16.5256V23.9378C49.762 24.4238 49.6429 24.9099 49.4644 25.3959V17.9838C49.6429 17.4977 49.762 17.0117 49.881 16.5256Z" fill="#9E9E9E"/>
<path d="M49.4643 17.9836V25.3958C49.2858 25.8818 49.0477 26.3679 48.8096 26.8539V19.4418C49.0477 18.9557 49.2858 18.4697 49.4643 17.9836Z" fill="#A3A3A3"/>
<path d="M48.8093 19.4419V26.854C48.5116 27.4008 48.214 27.8869 47.7974 28.3729V20.9608C48.1545 20.4747 48.5116 19.9279 48.8093 19.4419Z" fill="#A8A8A8"/>
<path d="M47.7976 20.9607V28.3728C47.3214 28.9804 46.8452 29.5272 46.25 30.074V22.6618C46.7857 22.115 47.3214 21.5075 47.7976 20.9607Z" fill="#ADADAD"/>
<path d="M46.25 22.6619V30.074C45.3571 30.9246 44.2857 31.7144 43.0952 32.4435V25.0313C44.2857 24.3023 45.3571 23.5124 46.25 22.6619Z" fill="#B3B3B3"/>
<path d="M43.0355 25.0312V32.4434C42.9165 32.5042 42.857 32.5649 42.7379 32.6257C41.0712 33.5977 39.226 34.4483 37.2617 35.0559V27.6437C39.226 26.9754 41.0712 26.1856 42.7379 25.2135C42.857 25.1528 42.976 25.092 43.0355 25.0312Z" fill="#B8B8B8"/>
<path d="M37.2619 27.7046V35.1167C35.7738 35.6028 34.1667 36.0281 32.5 36.3319V28.9197C34.1667 28.6159 35.7738 28.1906 37.2619 27.7046Z" fill="#B3B3B3"/>
<path d="M32.5595 28.9197V36.3318C31.4881 36.5141 30.4166 36.6964 29.3452 36.7571V29.345C30.4166 29.2235 31.4881 29.1019 32.5595 28.9197Z" fill="#ADADAD"/>
<path d="M29.345 29.345V36.7571C28.4521 36.8786 27.4997 36.9394 26.5474 36.9394V29.5272C27.4997 29.5272 28.4521 29.4665 29.345 29.345Z" fill="#A8A8A8"/>
<path d="M26.6074 29.5271V36.9393C25.774 36.9393 24.8812 37 24.0479 36.9393V29.5271C24.8812 29.5879 25.7145 29.5879 26.6074 29.5271Z" fill="#A3A3A3"/>
<path d="M24.0474 29.5273V36.9394C23.2141 36.9394 22.3807 36.8787 21.6069 36.8179V29.4058C22.3807 29.4665 23.2141 29.5273 24.0474 29.5273Z" fill="#9E9E9E"/>
<path d="M21.5474 29.4056V36.8177C20.7141 36.757 19.9403 36.6355 19.1069 36.514V29.1018C19.9403 29.2233 20.7141 29.3448 21.5474 29.4056Z" fill="#999999"/>
<path d="M19.1074 29.1626V36.5747C18.2741 36.4532 17.4408 36.3317 16.6074 36.1495V28.7373C17.4408 28.8588 18.2741 29.0411 19.1074 29.1626Z" fill="#949494"/>
<path d="M16.6664 28.6766V36.0888C15.7736 35.9065 14.9402 35.6635 14.0474 35.4205V28.0083C14.8807 28.3121 15.7736 28.4943 16.6664 28.6766Z" fill="#8F8F8F"/>
<path d="M14.0474 28.069V35.4811C12.976 35.1774 11.9641 34.8128 11.0117 34.4483V27.0361C11.9641 27.4007 12.976 27.7652 14.0474 28.069Z" fill="#8A8A8A"/>
<path d="M11.0119 26.9755V34.3876C9.7619 33.9016 8.5119 33.294 7.38095 32.6257C2.44048 29.7702 0 25.9426 0 22.115V14.7029C0 18.5305 2.44048 22.2973 7.38095 25.2136C8.5119 25.8819 9.7619 26.4894 11.0119 26.9755Z" fill="#858585"/>
<path d="M42.6189 4.31368C52.4403 10.0854 52.4403 19.4418 42.7379 25.2135C32.976 30.9853 17.2022 30.9853 7.38076 25.2135C-2.38115 19.4418 -2.44067 10.0854 7.26171 4.31368C17.0236 -1.45808 32.857 -1.45808 42.6189 4.31368ZM8.63076 24.4845C17.7379 29.8309 32.4403 29.8309 41.4879 24.4845C50.5355 19.138 50.476 10.45 41.3689 5.1035C32.2617 -0.24297 17.5593 -0.24297 8.51171 5.1035C-0.476386 10.45 -0.416862 19.138 8.63076 24.4845Z" fill="white"/>
</g>
<defs>
<clipPath id="clip0">
<rect width="50" height="37" fill="white"/>
</clipPath>
</defs>
</svg>
