<svg width="67" height="101" fill="none" xmlns="http://www.w3.org/2000/svg">
<path fill-rule="evenodd" clip-rule="evenodd" d="M17 81.4945C17.6473 80.8382 18.8322 81.4945 18.8322 81.4945L35.2399 98.1289C35.2399 98.1289 35.6519 99.3391 35 100C34.3526 100.656 33.4077 100.134 33.4077 100.134L17 83.5C17 83.5 16.3481 82.1554 17 81.4945Z" fill="white"/>
<path fill-rule="evenodd" clip-rule="evenodd" d="M51.5 81.5C50.5 80.4862 49 82 49 82L33.5629 97.6234C33.5629 97.6234 32.911 98.8391 33.5629 99.5C34.2103 100.156 35.0908 100 35.0908 100L51 83.5C51 83.5 52.1357 82.1444 51.5 81.5Z" fill="white"/>
<path d="M33.6882 10.5208C34.1226 10.5208 34.4737 10.1697 34.4737 9.73529V0.785484C34.4737 0.351111 34.1226 0 33.6882 0C33.2538 0 32.9027 0.351111 32.9027 0.785484V9.73529C32.9027 10.1689 33.2546 10.5208 33.6882 10.5208Z" fill="white"/>
<path d="M21.3734 13.6847C21.5203 13.6847 21.6679 13.6439 21.7999 13.5583C22.1636 13.3226 22.268 12.8364 22.0316 12.4719L14.6088 1.01643C14.3731 0.652752 13.8869 0.547497 13.5225 0.784713C13.1588 1.02036 13.0543 1.50657 13.2907 1.87104L20.7136 13.3265C20.8636 13.5583 21.115 13.6847 21.3734 13.6847Z" fill="white"/>
<path d="M12.6804 21.117L4.93007 16.6428C4.55461 16.426 4.0739 16.5549 3.8571 16.9303C3.64031 17.3058 3.76913 17.7865 4.14459 18.0033L11.895 22.4774C12.0183 22.5489 12.1534 22.5827 12.2869 22.5827C12.5587 22.5827 12.8226 22.4413 12.9679 22.1899C13.1855 21.8137 13.0567 21.3338 12.6804 21.117Z" fill="white"/>
<path d="M3.27189 34.8566H3.27581L8.87396 34.8315C9.30755 34.8291 9.65787 34.4765 9.65552 34.0421C9.65316 33.6093 9.30283 33.2605 8.87003 33.2605H8.8661L3.26796 33.2857C2.83437 33.288 2.48404 33.6407 2.4864 34.0751C2.48876 34.5079 2.83908 34.8566 3.27189 34.8566Z" fill="white"/>
<path d="M11.6428 45.6806L0.39469 52.1397C0.0184429 52.3557 -0.111947 52.8356 0.104846 53.2119C0.250161 53.4648 0.514084 53.6062 0.786647 53.6062C0.919393 53.6062 1.05371 53.5724 1.17703 53.5017L12.4252 47.0427C12.8014 46.8267 12.9318 46.3467 12.715 45.9705C12.4998 45.5942 12.0199 45.4662 11.6428 45.6806Z" fill="white"/>
<path d="M21.3239 54.7648C20.9477 54.5503 20.4677 54.6791 20.2509 55.0538L16.4555 61.6487C16.2395 62.025 16.3691 62.5049 16.7445 62.7217C16.8679 62.7924 17.003 62.8262 17.1357 62.8262C17.4075 62.8262 17.6722 62.6848 17.8175 62.4327L21.613 55.8377C21.8298 55.4615 21.7002 54.9816 21.3239 54.7648Z" fill="white"/>
<path d="M33.1808 58.0779C32.7464 58.0779 32.3953 58.429 32.3953 58.8634V67.8132C32.3953 68.2476 32.7464 68.5987 33.1808 68.5987C33.6152 68.5987 33.9663 68.2476 33.9663 67.8132V58.8634C33.9663 58.4298 33.6144 58.0779 33.1808 58.0779Z" fill="white"/>
<path d="M46.1774 55.3068C45.9599 54.9305 45.4776 54.8025 45.1045 55.0193C44.7282 55.2361 44.5994 55.7176 44.817 56.0922L50.3405 65.6492C50.4866 65.9014 50.7497 66.042 51.0215 66.042C51.155 66.042 51.2901 66.0082 51.4135 65.9367C51.7897 65.7199 51.9185 65.2384 51.701 64.8637L46.1774 55.3068Z" fill="white"/>
<path d="M62.7237 50.5962L54.9733 46.1213C54.597 45.9045 54.1171 46.0325 53.9003 46.4088C53.6835 46.785 53.8123 47.2649 54.1878 47.4817L61.9382 51.9566C62.0615 52.0281 62.1966 52.0619 62.3301 52.0619C62.6019 52.0619 62.8658 51.9213 63.0111 51.6692C63.2287 51.2937 63.0999 50.813 62.7237 50.5962Z" fill="white"/>
<path d="M63.5963 33.7428H63.5924L57.9942 33.768C57.5606 33.7703 57.2103 34.123 57.2127 34.5574C57.215 34.9902 57.5653 35.3389 57.9981 35.3389H58.0021L63.6002 35.3138C64.0338 35.3114 64.3841 34.9588 64.3818 34.5244C64.3794 34.0916 64.0291 33.7428 63.5963 33.7428Z" fill="white"/>
<path d="M65.692 15.097L54.4431 21.5568C54.0668 21.7728 53.9365 22.2528 54.1532 22.629C54.2986 22.8819 54.5625 23.0233 54.835 23.0233C54.9678 23.0233 55.1021 22.9896 55.2254 22.9189L66.4744 16.459C66.8506 16.243 66.981 15.7631 66.7642 15.3869C66.549 15.0098 66.0698 14.881 65.692 15.097Z" fill="white"/>
<path d="M45.5443 13.8332C45.6676 13.9046 45.8027 13.9384 45.9355 13.9384C46.2073 13.9384 46.472 13.797 46.6165 13.5449L50.4127 6.94996C50.6287 6.57371 50.4991 6.09378 50.1237 5.87699C49.7474 5.66255 49.2667 5.79059 49.0515 6.16605L45.2553 12.761C45.0385 13.1372 45.1681 13.6172 45.5443 13.8332Z" fill="white"/>
<circle cx="33.869" cy="34.6328" r="14" stroke="white" stroke-width="2"/>
</svg>
